<?xml version="1.0" encoding="utf-8"?>
<!-- Generator: Adobe Illustrator 18.0.0, SVG Export Plug-In . SVG Version: 6.00 Build 0)  -->
<!DOCTYPE svg PUBLIC "-//W3C//DTD SVG 1.1//EN" "http://www.w3.org/Graphics/SVG/1.1/DTD/svg11.dtd">
<svg version="1.1" id="Layer_1" xmlns="http://www.w3.org/2000/svg" xmlns:xlink="http://www.w3.org/1999/xlink" x="0px" y="0px"
	 viewBox="0 0 3000 2000" enable-background="new 0 0 3000 2000" xml:space="preserve">
<rect display="none" fill="#FFFFFF" width="3000" height="2000"/>
<g>
	<g>
		<path fill-rule="evenodd" clip-rule="evenodd" fill="#EAEFF8" d="M2428.9,344.4c-21.9,0-39.6-17.7-39.6-39.6
			c0-21.9,17.7-39.6,39.6-39.6c21.9,0,39.6,17.7,39.6,39.6C2468.5,326.6,2450.7,344.4,2428.9,344.4L2428.9,344.4z M747.3,1293.9
			H535.7c-113.9,0-207.1,93.2-207.1,207.1l0,0c0,113.9,93.2,207.1,207.1,207.1h1789.1c184.4,0,335.3-150.9,335.3-335.3l0,0
			c0-184.4-150.9-335.3-335.3-335.3l0,0c-78,0-141.8-63.8-141.8-141.8l0,0c0-78,63.8-141.8,141.8-141.8h170.6
			c81.1,0,147.4-66.3,147.4-147.4l0,0c0-81.1-66.3-147.4-147.4-147.4h-215.7c-31.6,0-57.4-25.8-57.4-57.4l0,0
			c0-31.6,25.8-57.4,57.4-57.4h38c21.8,0,39.6-17.8,39.6-39.6l0,0c0-21.8-17.8-39.6-39.6-39.6h-142.5c0,0-54.5,0-107,0
			c-52.5,0-58.4,62.1-191.2,62.1c-205.2,0-102.6,0-307.8,0c-28.4,0-51.7,23.3-51.7,51.7l0,0c0,28.4,23.2,51.7,51.7,51.7h49.6
			c41.2,0,74.9,33.7,74.9,74.9v0c0,41.2-33.7,74.9-74.9,74.9h-149.4c-201.7,0-230.2,52.7-265.5,157.5
			c-35.3,104.8-218.8,113.3-218.8,113.3H734.4c-62.1,0-112.8,50.8-112.8,112.8l0,0c0,62.1,50.8,112.8,112.8,112.8h12.9
			c59.7,0,108.5,48.8,108.5,108.5l0,0C855.8,1245,807,1293.9,747.3,1293.9L747.3,1293.9z"/>
	</g>
	<g>
		<path fill-rule="evenodd" clip-rule="evenodd" fill="#D2DFEE" d="M1501.5,1736c646,0,1172.9-19.9,1172.9-44.2
			c0-24.4-526.9-44.2-1172.9-44.2c-646,0-1172.9,19.9-1172.9,44.2C328.7,1716.2,855.5,1736,1501.5,1736z"/>
	</g>
	<g>
		<g>
			<g>
				<path fill-rule="evenodd" clip-rule="evenodd" fill="#EFF9FC" d="M2099.7,732.7v655.9c0,29.1-23.7,52.8-52.8,52.8H892.5
					c-29.1,0-52.7-23.7-52.7-52.8V732.7c0-29.1,23.7-52.8,52.7-52.8h1154.4c12.4,0,24.5,4.4,34,12.4
					C2092.9,702.4,2099.7,717.1,2099.7,732.7z"/>
			</g>
			<g>
				<polygon fill-rule="evenodd" clip-rule="evenodd" fill="#8BBAE9" points="1659.2,1639.3 1280.3,1639.3 1300,1552.3 
					1333.8,1403.2 1337.8,1385.7 1601.7,1385.7 1605.6,1403.2 1639.5,1552.3 				"/>
			</g>
			<g>
				<polygon fill-rule="evenodd" clip-rule="evenodd" fill="#61A0E0" points="1639.5,1552.3 1300,1552.3 1316,1481.6 1623.5,1481.6 
									"/>
			</g>
			<g>
				<path fill-rule="evenodd" clip-rule="evenodd" fill="#61A0E0" d="M839.8,732.7c0-29.1,23.7-52.8,52.7-52.8h1154.4
					c12.5,0,24.5,4.4,34,12.4c11.9,10.1,18.8,24.8,18.8,40.4v655.9c0,18.3-9.3,34.4-23.5,43.9c-8.4,5.6-18.5,8.9-29.3,8.9H892.5
					c-2.5,0-4.9-0.2-7.3-0.5c-25.6-3.6-45.4-25.6-45.4-52.3V732.7L839.8,732.7z M2106.8,661.5c-13.4-11.2-29.7-18.5-46.8-20.9
					c-4.3-0.6-8.7-0.9-13.1-0.9H892.5c-51.3,0-93,41.7-93,93l0,655.9c0,27,11.5,51.3,29.9,68.3c11.2,10.3,24.8,17.9,39.9,21.8
					c7.4,1.9,15.1,2.9,23.1,2.9h1154.4c1,0,2,0,2.9,0c2.9-0.1,5.7-0.3,8.5-0.6c4.7-0.6,9.2-1.5,13.7-2.7c2.7-0.8,5.3-1.6,7.9-2.6
					c3.4-1.3,6.7-2.8,10-4.5c1.8-0.9,3.5-1.9,5.1-2.9v0c5-3,9.8-6.6,14.1-10.5c12.2-10.9,21.4-25,26.5-40.9c1-3.1,1.8-6.3,2.5-9.5
					c0.6-2.7,1-5.4,1.3-8.2c0.4-3.5,0.6-7,0.6-10.6V732.7C2139.9,705.2,2127.9,679.3,2106.8,661.5z"/>
			</g>
			<g>
				<path fill-rule="evenodd" clip-rule="evenodd" fill="#8BBAE9" d="M2119.8,1350.7v37.9c0,40.2-32.7,72.9-72.9,72.9H892.5
					c-40.3,0-72.8-32.7-72.8-72.9v-37.9H2119.8z"/>
			</g>
			<g>
				<path fill-rule="evenodd" clip-rule="evenodd" fill="#61A0E0" d="M1720,1657.9h-500.5c-5.8,0-10.4-4.7-10.4-10.4
					c0-5.8,4.7-10.4,10.4-10.4H1720c5.8,0,10.4,4.7,10.4,10.4c0,1.8-0.4,3.4-1.2,4.9C1727.5,1655.7,1724,1657.9,1720,1657.9z"/>
			</g>
		</g>
		<g>
			<g>
				<g>
					<path fill-rule="evenodd" clip-rule="evenodd" fill="#F57A44" d="M660.6,1372.3H470.5c-6.8,0-12.3,5.6-12.3,12.3l0,0
						c0,6.8,5.6,12.4,12.3,12.4h190.1c6.8,0,12.3-5.5,12.3-12.4l0,0C672.9,1377.9,667.4,1372.3,660.6,1372.3z"/>
				</g>
				<g>
					<path fill-rule="evenodd" clip-rule="evenodd" fill="#F57A44" d="M481.9,1606.2c9.1-9.1,21.6-14.7,35.4-14.7H550h63.8
						c13.8,0,26.3,5.6,35.4,14.7c9.1,9.1,14.7,21.6,14.7,35.4v10.1h3.9v12.5H664h-20.8h-3.9v-12.5h3.9v-10.1
						c0-8.1-3.3-15.4-8.6-20.8c-5.3-5.3-12.7-8.7-20.8-8.7H550h-32.7c-8.1,0-15.4,3.3-20.8,8.7c-5.3,5.3-8.6,12.7-8.6,20.8v10.1h3.9
						v12.5h-3.9h-20.7h-3.9v-12.5h3.9v-10.1C467.2,1627.9,472.8,1615.3,481.9,1606.2z"/>
				</g>
				<g>
					<rect x="555.2" y="1397" fill-rule="evenodd" clip-rule="evenodd" fill="#F57A44" width="20.7" height="194.5"/>
				</g>
			</g>
			<g>
				<g>
					<path fill-rule="evenodd" clip-rule="evenodd" fill="#3B5BB3" d="M830.1,1635.4c-34.1-123.8-46.3-210.7-36.6-260.8
						c-19.4,2.8-38.9,3.6-58.4,2.6c3-13.4,6-26.8,9-40.4c-0.3-18.5-29.5-40.2-62.9-50c48.6,3.7,165.8-10,180.7,46.7
						c3.7,48.5-6.4,103.9,2.2,302.3C853.4,1636.8,842.1,1636.7,830.1,1635.4z"/>
				</g>
				<g>
					<path fill-rule="evenodd" clip-rule="evenodd" fill="#4567C6" d="M516.4,1367.5c-40-14.4-45.5-54.2-27.9-114.5
						c14.5,11.8,51,16.8,109.7,14.9l-1.4,5.2c-0.1,0.2-0.1,0.5-0.1,0.7h-65.4c0.2,10-0.2,20.3,14.6,20.9c46.8-7,217.3-31.2,220.1,42
						c-21.2,94.6-40,181.4-65.7,301.2c-8.6,4.8-20.5,4.5-35.5-1.1c-12-116.3-8.7-200.8,9.9-253.6
						C625.3,1383.5,572.5,1376.7,516.4,1367.5z"/>
				</g>
				<g>
					<path fill-rule="evenodd" clip-rule="evenodd" fill="#3B5BB3" d="M516.4,1367.5c-40-14.4-45.5-54.2-27.9-114.5
						c3.1,2.5,7.1,4.7,12.2,6.6c-14.6,61.9,1.3,95.8,48.3,99.1c54.9,8.1,100.4,12,136.5,11.7c-15.9,103.2-18.6,193.2-8.2,270
						c-3.9-0.7-8-1.9-12.5-3.6c-12-116.3-8.7-200.8,9.9-253.6C625.3,1383.4,572.5,1376.7,516.4,1367.5z"/>
				</g>
				<g>
					<path fill-rule="evenodd" clip-rule="evenodd" fill="#284191" d="M638.4,943.4c-40.8,14.8-67,16.2-78.6,4.3
						c-11.7-2.7-19.4-13.1-23-31.2c-12.1-27.6-1.8-71.6,15.3-49.8c14.1-36.2,70.9-15.2,102.8-35.3c19.4,12.7,12,44-1.9,54.6
						C653.7,922.1,651.7,941.4,638.4,943.4z"/>
				</g>
				<g>
					<path fill-rule="evenodd" clip-rule="evenodd" fill="#284191" d="M543,870.6c4.4-3.4,5.8-7.1,4.3-11.2
						c-6.8-3.8-13.2-3.9-19.3-0.4C531.6,859.3,536.7,863.2,543,870.6z"/>
				</g>
				<g>
					<path fill-rule="evenodd" clip-rule="evenodd" fill="#284191" d="M551.4,861.1c-3.1,3.5-6,4.3-8.6,2.3
						c-1.6-6.6-0.7-12.4,2.9-17.5C545.2,849.4,547.1,854.4,551.4,861.1z"/>
				</g>
				<g>
					<path fill-rule="evenodd" clip-rule="evenodd" fill="#284191" d="M573,876.2c-7.7-3-13.5-2-17.5,3c0.3,11.5,6.3,34.7,15.5,39.8
						C572.6,918,572.2,893.6,573,876.2z"/>
				</g>
				<g>
					<path fill-rule="evenodd" clip-rule="evenodd" fill="#284191" d="M575.9,865.1c-13,6.3-17.3,12-12.9,17.1
						c19.6,2.9,38.4,0.8,56.4-6.4C608.6,876.8,594.1,873.3,575.9,865.1z"/>
				</g>
				<g>
					<path fill-rule="evenodd" clip-rule="evenodd" fill="#284191" d="M652.2,884.5c-14.7-14.9-42.5-16.7-80.8-2.7
						c-24.2-6-29.7-17.2-19.4-35.4c14.5-25.7,45.7-5.4,84.1-29.6C634.6,835.7,691.6,851.8,652.2,884.5z"/>
				</g>
				<g>
					<path fill-rule="evenodd" clip-rule="evenodd" fill="#FFB27D" d="M560.2,897.2c10.2-2.2,9.2,18.7,8.4,29
						C567.1,946.6,544.2,900.6,560.2,897.2z"/>
				</g>
				<g>
					<path fill-rule="evenodd" clip-rule="evenodd" fill="#284191" d="M643.8,872.4c-33.1-4.3-58.1-2-68.7,13.9
						c1.3,9.7,4.3,22.3,8.7,37.8c-1.9,3.7-4.8,5.6-8.5,5.8c-4.7-9.2-8.6-14.7-11.8-16.4c-15.7,7.1-12.8,17.9,8.9,32.7
						c1.3,5.1,2.5,9.3,3.7,12.6c-19.5-4.4-35.8-21.8-38.1-29.4c-22.8-44.8,2.6-63.8,16.2-70.7c6-44.4,70.5-5.2,102.8-26.6
						C669.7,849.8,653.8,872,643.8,872.4z"/>
				</g>
				<g>
					<path fill-rule="evenodd" clip-rule="evenodd" fill="#284191" d="M639.1,861.5c5,3.8,6.6,8,4.8,12.6
						c-7.7,4.3-14.9,4.4-21.8,0.4C626.3,874.3,631.9,869.9,639.1,861.5z"/>
				</g>
				<g>
					<path fill-rule="evenodd" clip-rule="evenodd" fill="#FFB27D" d="M550.2,986.9c5.7,0.4,11.3-6.7,12.8-8.8
						c6.1-8.1,10-17.6,11.5-23c-1.2-3.6-2.4-8-3.7-13.5c-22.1-15.7-25.1-27.4-9-34.9c3.2,1.9,7.2,7.8,12,17.6
						c3.8-0.2,6.7-2.2,8.7-6.2c-4.6-16.6-7.5-30-8.9-40.3c10.9-17,36.3-19.4,70-14.8c1.6,9.4,2.8,19.4,3.9,29.9
						c4.2,4,16.4,71.8-25,74.6c-0.2,3.4,0.1,7.3,0.2,9.6c0,2.1,0.1,6.3,2.3,7l3.6,0.9C628.1,1034.9,603.7,1044.5,550.2,986.9z"/>
				</g>
				<g>
					<path fill-rule="evenodd" clip-rule="evenodd" fill="#284191" d="M643.6,862.9c-33.7-4.6-59.1-2.2-70,14.8
						c1.4,10.3,4.3,23.8,8.9,40.3c-2,3.9-4.9,6-8.7,6.2c-4.8-9.8-8.8-15.7-12-17.6c-16,7.5-13,19.2,9,34.9c1.3,5.4,2.5,9.9,3.7,13.5
						c-19.9-4.7-36.5-23.3-38.8-31.4c-23.2-47.9,2.7-68.1,16.5-75.5c6.1-47.4,72-6.4,89.3-35.4C677.9,834.5,653.8,862.5,643.6,862.9
						z"/>
				</g>
				<g>
					<path fill-rule="evenodd" clip-rule="evenodd" fill="#F08261" d="M600.4,962.5c5.4,2.8,12.8,4.4,22.1,4.9
						c-0.2,3.3,0,7.2,0.2,9.5C613.2,975,605.8,970.2,600.4,962.5z"/>
				</g>
				<g>
					<path fill-rule="evenodd" clip-rule="evenodd" fill="#61A0E0" d="M672.9,992.5c-18.4-5.6-34.9-9-49.5-10.2
						c-2.6,42.4-23.7,42.1-63.2-0.9c-38,3.3-45.5,3.9-66.6,11c-45.7,45.8-49.9,98.6-73.7,159c26.4,1.2,38.3,4.6,56.3,11.3
						c3.9-14.5,7.1-26.1,9.7-34.9c-0.7,79.6-1,134.1-0.8,163.6c35.7,9.8,19.8,15.1,66,5.6c54.2-11.1,88.2-1.4,110.7-11.7
						c0.4-70.8,13-125.1,13.7-166.4c10.5,12.9,20.1,23,29.1,30.1c21.4-25.8,35.9-36.2,48.1-51.4
						C725.7,1051.4,687.1,1008.2,672.9,992.5z"/>
				</g>
				<g>
					<path fill-rule="evenodd" clip-rule="evenodd" fill="#FFB27D" d="M849,1070.1c-45.9,20-78,36.6-96.4,49.6l-8.2-12.7
						c-7.6,8-16.3,15.8-26.8,27.2c9.8,10.7,20.3,19.6,32.5,27c31.9-3.6,67.2-28.9,105.8-76.1c12-2.5,20.8-7.1,26.5-13.7
						c0.3-6.1-2.6-12.2-8.7-18.3c16-11,22.4-18.8,19.1-23.5C867.6,1045.9,853.1,1059.4,849,1070.1z"/>
				</g>
				<g>
					<path fill-rule="evenodd" clip-rule="evenodd" fill="#1E77D1" d="M498.4,1210.6c-4.7,0.7-9.1,1.4-13.3,2
						c-0.2,35.1-6,59.6-5.9,77.1c4.1,1.9,15.7,6,20.2,6.6c0-2.3-0.7-7.5-0.7-9.7C498.4,1259.7,498.3,1234.4,498.4,1210.6
						L498.4,1210.6z M712,1140.3c-12.9-11.3-25.1-29.5-36.7-54.8c1.3,8.8,1.8,20.6,1.6,35.3c9.9,12.1,19.1,21.5,27.6,28.3
						C707.1,1145.9,709.6,1143,712,1140.3L712,1140.3z M502,1071.8c-5.7,19.1-11.1,37.8-16.3,56c-0.1,15.4-0.3,29.8-0.4,43.3
						c3.8-0.4,8.1-0.6,13.3-0.7C499.3,1133.1,500.4,1100.2,502,1071.8z"/>
				</g>
				<g>
					<path fill-rule="evenodd" clip-rule="evenodd" fill="#FFB27D" d="M428.7,1152c-4.2,17.7-5.9,33.9-2.5,55.4
						c10.4,15.8,52.3,7,160.2-11.9c3.9,3.7,11.9,7.4,24,5.7c11.3-3,11.8-6.1,24.5-18.6c3.1-9.8,2.4-17.2-1.9-22.3
						c-14.2,8.8-21.7,13.5-37.8,14c4.3-11.5,4.9-19,1.9-22.3c-5.5,4.6-9,11.5-10.7,20.8c-85.1-3.9-107.5-3.4-118.8,2.9
						c1.2-5.6,2.3-10.5,3.3-14.8C457.6,1156.1,446.9,1153.4,428.7,1152z"/>
				</g>
				<g>
					<path fill-rule="evenodd" clip-rule="evenodd" fill="#284191" d="M638.7,848.6c7,5.4,9.3,11.3,6.8,17.8
						c-10.8,6.1-21.1,6.3-30.8,0.6C620.6,866.6,628.6,860.5,638.7,848.6z"/>
				</g>
				<g>
					<path fill-rule="evenodd" clip-rule="evenodd" fill="#284191" d="M584.7,862.3c-8.1-3.6-14.4-2.7-18.8,2.6
						c-0.1,12.4,4.6,21.5,14.3,27.3C577.6,886.8,579.1,876.8,584.7,862.3z"/>
				</g>
				<g>
					<path fill-rule="evenodd" clip-rule="evenodd" fill="#1E77D1" d="M628.4,982.8c-2.1,23.3-11.2,34.6-23.8,34.5
						c-11.5-0.2-29.3-13.1-49.1-35.4l6.3-2.3c18.6,20.9,33.3,31.2,42.9,31.3c8.6,0.1,16.7-9.7,18.4-29.1L628.4,982.8z"/>
				</g>
				<g>
					<path fill-rule="evenodd" clip-rule="evenodd" fill="#1E77D1" d="M608.5,1015.2c6.5,1.3,10.8,6.7,9.7,12
						c-1.1,5.3-7.2,8.5-13.6,7.2c-6.5-1.3-10.8-6.7-9.7-12C595.9,1017.2,602,1013.9,608.5,1015.2z"/>
				</g>
				<g>
					<path fill-rule="evenodd" clip-rule="evenodd" fill="#1E77D1" d="M607.6,1036.5c4.5,0.3,7.9,3.5,7.7,7.1
						c-0.2,3.7-4,6.4-8.5,6.1c-4.5-0.3-7.9-3.5-7.7-7.1C599.4,1039,603.2,1036.2,607.6,1036.5z"/>
				</g>
				<g>
					<path fill-rule="evenodd" clip-rule="evenodd" fill="#163560" d="M908.1,1679c-37.1-0.6-64.9-1.1-77.7-5.1
						c-13.8-4.4-11-12.8-3-26.3c35,16.1,25.7-3.3,42-0.8c11.5,9.2,28.5,15.5,51.1,18.6C930.1,1672.4,926.2,1678.7,908.1,1679z"/>
				</g>
				<g>
					<path fill-rule="evenodd" clip-rule="evenodd" fill="#4567C6" d="M794.5,1294.8h1.5c28,0.2,56.8,7,65.9,38.7
						c3.7,48.5-6.4,103.9,2.2,302.3c-6.4,0.7-13,0.9-19.8,0.7c-17.6-69-59.6-238.2-12.3-311.1
						C820.9,1313.6,808.4,1303.4,794.5,1294.8z"/>
				</g>
				<g>
					<path fill-rule="evenodd" clip-rule="evenodd" fill="#FFB27D" d="M860.6,1636.1c1,3.7,2.6,7.2,4.9,10.5
						c-10.7,1-6.6,14.8-35.5,2.1c1.2-3.7,1.9-8,2.1-13.2C842,1636.6,851.5,1636.8,860.6,1636.1z"/>
				</g>
				<g>
					<path fill-rule="evenodd" clip-rule="evenodd" fill="#163560" d="M700.3,1700.7c-19.7-8.1-22.7-21.4-33.5-26.4
						c-10.9-5.1-12.2-14.2-1.5-24c7.9,6.3,17.7,14,22.8,9.9c3.5-2.7,15.2-2.5,17.5,1.4c10.2,23.8,24.4,16.2,27.2,27
						C733.2,1703,712.7,1705.8,700.3,1700.7z"/>
				</g>
				<g>
					<path fill-rule="evenodd" clip-rule="evenodd" fill="#FFB27D" d="M697,1639.6c-0.2,6.3,0.7,12.6,2.6,19
						c-4.2-0.7-9.3-0.1-11.4,1.6c-4.8,3.8-13.5-2.6-21.1-8.5c1.2-3.4,2-7.8,2.5-13.2C680.6,1641.9,689.7,1642.3,697,1639.6z"/>
				</g>
			</g>
			<g>
				<g>
					<path fill-rule="evenodd" clip-rule="evenodd" fill="#A4D0FC" d="M857.3,1139.6H646.7c-4.1,0-8.4,3.4-9.5,7.6l-37.5,142.7
						c-1.1,4.1,1.4,7.5,5.6,7.5h210.6c4.2,0,8.4-3.4,9.5-7.5l37.5-142.7C864,1143,861.5,1139.6,857.3,1139.6z"/>
				</g>
				<g>
					<path fill-rule="evenodd" clip-rule="evenodd" fill="#8BBAE9" d="M607.2,1240.6l25.4-96.9c1.1-4.2,5.4-7.6,9.5-7.6h14.5h196.1
						c4.1,0,11.5,5.4,10.3,9.5c0.2-3.4-2.2-6-5.8-6H646.7c-4.1,0-8.4,3.4-9.5,7.6l-37.5,142.7c-0.7,2.5,0,4.7,1.5,6.1
						c-3.5-2.2-6.8-6.6-6-9.5L607.2,1240.6z"/>
				</g>
				<g>
					<path fill-rule="evenodd" clip-rule="evenodd" fill="#1E77D1" d="M605.3,1297.4h210.6c0.8,0,1.6-0.1,2.3-0.3
						c-4.2,10.9-15.6,9.3-20,9.2H548.4c-13.5-0.6-13.2-10.1-13.4-19.2h60c-0.2,2.9,2.9,6.8,6.1,8.9
						C602.2,1296.9,603.6,1297.4,605.3,1297.4z"/>
				</g>
				<g>
					<path fill-rule="evenodd" clip-rule="evenodd" fill="#1E77D1" d="M634.7,1198.3c22.6,11.4,49.3,14.9,76.8,16.3
						c-0.3,1-0.5,2-0.7,3c-1.8,11.6,6.3,21.4,18.1,21.4c11.1,0,21.2-8.8,22.9-19.7c0.2-1.2,0.3-2.4,0.3-3.5
						c28.5,0.8,56.1,2.3,78.8,11.2l-15.7,59.7H611.5L634.7,1198.3z"/>
				</g>
				<g>
					<path fill-rule="evenodd" clip-rule="evenodd" fill="#1E77D1" d="M733.5,1204.8c-7.5,0-14.6,6.1-15.8,13.7
						c-1.2,7.6,4,13.7,11.5,13.7c7.6,0,14.6-6.1,15.8-13.7C746.2,1211,741,1204.8,733.5,1204.8z"/>
				</g>
			</g>
		</g>
		<g>
			<polygon fill-rule="evenodd" clip-rule="evenodd" fill="#1E77D1" points="839.8,1242.1 1226.4,927.4 1257.6,902.2 1288.3,927.6 
				1503.5,1106.2 2112.9,699.2 2167,780.1 1527.3,1207.3 1497,1227.6 1469.2,1204.4 1256.8,1028.2 860.6,1350.7 839.8,1350.7 			"/>
		</g>
		<g>
			<polygon fill-rule="evenodd" clip-rule="evenodd" fill="#1E77D1" points="2259.2,728.5 2321.7,586.4 2167.2,601.9 2012.7,617.3 
				2104.7,744 2196.7,870.7 			"/>
		</g>
		<g>
			<path fill-rule="evenodd" clip-rule="evenodd" fill="#1E77D1" d="M1853.6,1260.7l-23.4,13.6c-7.9,4.6-10.6,14.8-6,22.7l5.2,8.9
				c6.1,10.5,3.4,15.2,1.5,16.9c-5.2,4.7-10,9.7-14.9,14.8c-1.4,1.5-5.9,6.5-17.8-0.4l-8.2-4.7c-7.9-4.6-18.1-1.9-22.7,6l-13.6,23.4
				c-4.6,7.9-1.9,18.1,6,22.7l8.1,4.7c11.2,6.5,10.9,9.8,9.4,14.5c-1.9,6.5-4,13-5.4,19.7c-1.3,6-0.7,10.3-15.9,10.3h-9.3
				c-9.1,0-16.6,7.4-16.6,16.6v27.1c0,9.1,7.4,16.6,16.6,16.6h9.3c15.2,0,14.6,4.3,15.9,10.3c1.4,6.7,3.5,13.2,5.4,19.7
				c1.4,4.7,1.7,8-9.4,14.5l-8.1,4.7c-7.9,4.6-10.6,14.8-6,22.7l13.6,23.4c4.6,7.9,14.8,10.6,22.7,6l8.2-4.7
				c11.9-6.9,16.4-1.8,17.8-0.4c4.8,5,9.7,10.1,14.9,14.8c1.9,1.7,4.6,6.4-1.5,16.9l-5.2,8.9c-4.6,7.9-1.9,18.1,6,22.7l23.4,13.6
				c7.9,4.6,18.1,1.9,22.7-6l5.2-8.9c6.2-10.6,12.3-10.2,14.8-9.4c7.5,2.4,14.3,3.9,22,5.9c2.8,0.7,7.6,2.8,7.6,15.4v9.5
				c0,9.1,7.5,16.6,16.6,16.6h27c9.1,0,16.6-7.4,16.6-16.6v-9.5c0-12.7,4.8-14.7,7.6-15.4c7.7-2,14.6-3.5,22-5.9
				c2.6-0.8,8.7-1.2,14.8,9.4l5.1,8.9c4.6,7.9,14.8,10.6,22.7,6l23.4-13.6c7.9-4.6,10.6-14.8,6-22.7l-5.2-8.9
				c-6.1-10.5-3.4-15.2-1.5-16.9c5.2-4.7,10-9.7,14.9-14.8c1.4-1.5,5.9-6.5,17.8,0.4l8.2,4.7c7.9,4.6,18.1,1.9,22.7-6l13.6-23.4
				c4.6-7.9,1.9-18.1-6-22.7l-8.1-4.7c-11.1-6.5-10.9-9.8-9.4-14.5c1.9-6.5,4-13,5.4-19.7c1.3-6,0.7-10.3,15.9-10.3h9.3
				c9.1,0,16.6-7.5,16.6-16.6v-27.1c0-9.1-7.4-16.6-16.6-16.6h-9.3c-15.2,0-14.6-4.3-15.9-10.3c-1.4-6.7-3.5-13.2-5.4-19.7
				c-1.4-4.7-1.7-8.1,9.4-14.5l8.1-4.7c7.9-4.6,10.6-14.8,6-22.7l-13.6-23.4c-4.6-7.9-14.8-10.6-22.7-6l-8.2,4.7
				c-11.9,6.9-16.4,1.9-17.8,0.4c-4.8-5-9.7-10.1-14.9-14.8c-1.9-1.7-4.6-6.4,1.5-16.9l5.2-8.9c4.6-7.9,1.9-18.1-6-22.7l-23.4-13.6
				c-7.9-4.6-18.1-1.9-22.7,6l-5.1,8.9c-6.2,10.6-12.3,10.2-14.8,9.4c-7.5-2.4-14.3-3.9-22-5.9c-2.8-0.7-7.6-2.8-7.6-15.4v-9.5
				c0-9.1-7.5-16.6-16.6-16.6h-27c-9.1,0-16.6,7.5-16.6,16.6v9.5c0,12.7-4.8,14.7-7.6,15.4c-7.7,2-14.6,3.5-22,5.9
				c-2.6,0.8-8.7,1.2-14.8-9.4l-5.2-8.9C1871.7,1258.8,1861.5,1256.1,1853.6,1260.7L1853.6,1260.7z M1956.1,1428
				c19.7,0,35.7,16,35.7,35.7c0,19.7-16,35.7-35.7,35.7c-19.7,0-35.7-16-35.7-35.7C1920.4,1444,1936.4,1428,1956.1,1428L1956.1,1428
				z M1844.1,1463.7c0-4.2,3.4-7.7,7.6-7.7c4.2,0,7.6,3.4,7.6,7.7c0,26.7,10.8,50.9,28.3,68.4c17.5,17.5,41.7,28.3,68.4,28.3
				c4.2,0,7.6,3.4,7.6,7.6c0,4.2-3.4,7.6-7.6,7.6c-30.9,0-58.9-12.5-79.2-32.8C1856.6,1522.7,1844.1,1494.7,1844.1,1463.7
				L1844.1,1463.7z M2066.6,1445.7c0.7,4.2-2.2,8.1-6.3,8.7c-4.2,0.7-8.1-2.2-8.7-6.3c-3.3-20.3-12.9-38.4-26.7-52.4
				c-13.8-14-31.9-23.8-52.2-27.3c-4.2-0.7-7-4.7-6.2-8.8c0.7-4.2,4.7-6.9,8.8-6.2c23.4,4,44.4,15.4,60.4,31.6
				C2051.7,1401.1,2062.8,1422.2,2066.6,1445.7L2066.6,1445.7z M1956.1,1331c73.3,0,132.7,59.4,132.7,132.7
				c0,73.3-59.4,132.7-132.7,132.7s-132.7-59.4-132.7-132.7C1823.4,1390.5,1882.8,1331,1956.1,1331z"/>
		</g>
		<g>
			<g>
				<path fill-rule="evenodd" clip-rule="evenodd" fill="#8BBAE9" d="M724.2,707.3c0-108.1,87.6-195.7,195.7-195.7v-31.9
					c-125.4,0-227.5,102-227.5,227.5c0,125.5,102.1,227.5,227.5,227.5V903C811.8,903,724.2,815.4,724.2,707.3z"/>
			</g>
			<g>
				<path fill-rule="evenodd" clip-rule="evenodd" fill="#FFFFFF" d="M724.2,707.3c0,108.1,87.6,195.7,195.7,195.7v-31.8
					c-90.3,0-163.8-73.5-163.8-163.8c0-90.3,73.5-163.8,163.8-163.8v-31.8C811.8,511.7,724.2,599.3,724.2,707.3z"/>
			</g>
			<g>
				<path fill-rule="evenodd" clip-rule="evenodd" fill="#8BBAE9" d="M787.9,707.3c0-72.8,59.2-132,131.9-132v-31.8
					C829.5,543.5,756,617,756,707.3c0,90.3,73.5,163.8,163.8,163.8v-31.9C847.1,839.3,787.9,780.1,787.9,707.3z"/>
			</g>
			<g>
				<path fill-rule="evenodd" clip-rule="evenodd" fill="#FFFFFF" d="M787.9,707.3c0,72.8,59.2,132,131.9,132v-31.8
					c-55.2,0-100.1-44.9-100.1-100.1c0-55.2,44.9-100.1,100.1-100.1v-31.9C847.1,575.4,787.9,634.6,787.9,707.3z"/>
			</g>
			<g>
				<path fill-rule="evenodd" clip-rule="evenodd" fill="#8BBAE9" d="M851.6,707.3c0-37.6,30.6-68.3,68.3-68.3v-31.9
					c-55.2,0-100.1,44.9-100.1,100.1c0,55.2,44.9,100.1,100.1,100.1v-31.9C882.2,775.6,851.6,745,851.6,707.3z"/>
			</g>
			<g>
				<path fill-rule="evenodd" clip-rule="evenodd" fill="#FFFFFF" d="M851.6,707.3c0,37.6,30.6,68.3,68.3,68.3v-31.9
					c-20.1,0-36.4-16.3-36.4-36.4c0-20.1,16.3-36.4,36.4-36.4v-31.9C882.2,639.1,851.6,669.7,851.6,707.3z"/>
			</g>
			<g>
				<path fill-rule="evenodd" clip-rule="evenodd" fill="#BBDBFA" d="M883.5,707.3c0,20.1,16.3,36.4,36.4,36.4v-72.8
					C899.8,670.9,883.5,687.3,883.5,707.3z"/>
			</g>
			<g>
				<path fill-rule="evenodd" clip-rule="evenodd" fill="#61A0E0" d="M919.8,479.8v31.9c108.1,0,195.7,87.6,195.7,195.7
					c0,108.1-87.6,195.7-195.7,195.7v31.9c125.5,0,227.5-102.1,227.5-227.5C1147.4,581.9,1045.3,479.8,919.8,479.8z"/>
			</g>
			<g>
				<path fill-rule="evenodd" clip-rule="evenodd" fill="#FFFFFF" d="M1083.7,707.3c0,90.3-73.5,163.8-163.8,163.8V903
					c108.1,0,195.7-87.6,195.7-195.7c0-108.1-87.6-195.7-195.7-195.7v31.8C1010.2,543.5,1083.7,617,1083.7,707.3z"/>
			</g>
			<g>
				<path fill-rule="evenodd" clip-rule="evenodd" fill="#61A0E0" d="M1083.7,707.3c0-90.3-73.5-163.8-163.8-163.8v31.8
					c72.8,0,132,59.2,132,132s-59.2,131.9-132,131.9v31.9C1010.2,871.2,1083.7,797.7,1083.7,707.3z"/>
			</g>
			<g>
				<path fill-rule="evenodd" clip-rule="evenodd" fill="#FFFFFF" d="M1019.9,707.3c0,55.2-44.9,100.1-100.1,100.1v31.8
					c72.8,0,132-59.2,132-131.9s-59.2-132-132-132v31.9C975.1,607.2,1019.9,652.1,1019.9,707.3z"/>
			</g>
			<g>
				<path fill-rule="evenodd" clip-rule="evenodd" fill="#61A0E0" d="M1019.9,707.3c0-55.2-44.9-100.1-100.1-100.1v31.9
					c37.6,0,68.3,30.6,68.3,68.3c0,37.6-30.6,68.3-68.3,68.3v31.9C975.1,807.5,1019.9,762.5,1019.9,707.3z"/>
			</g>
			<g>
				<path fill-rule="evenodd" clip-rule="evenodd" fill="#FFFFFF" d="M956.3,707.3c0,20.1-16.3,36.4-36.4,36.4v31.9
					c37.6,0,68.3-30.6,68.3-68.3c0-37.6-30.6-68.3-68.3-68.3v31.9C939.9,670.9,956.3,687.3,956.3,707.3z"/>
			</g>
			<g>
				<path fill-rule="evenodd" clip-rule="evenodd" fill="#61A0E0" d="M956.3,707.3c0-20.1-16.3-36.4-36.4-36.4v72.8
					C939.9,743.7,956.3,727.4,956.3,707.3z"/>
			</g>
			<g>
				<path fill-rule="evenodd" clip-rule="evenodd" fill="#1E77D1" d="M919.7,710.2c-20-29.9-55.7-63.8-55.7-63.8l-5.4,5.7l-5.4,5.7
					C853.2,657.8,888.8,691.7,919.7,710.2z"/>
			</g>
			<g>
				<path fill-rule="evenodd" clip-rule="evenodd" fill="#1E77D1" d="M861.6,654.9c0,0,8.5-7.5,4.8-11l-62-58.9l-15.6,16.4l62,58.9
					C854.5,663.8,861.6,654.9,861.6,654.9z"/>
			</g>
			<g>
				<polygon fill-rule="evenodd" clip-rule="evenodd" fill="#61A0E0" points="735.3,550.6 750.9,534.2 827.3,606.8 811.7,623.2 				
					"/>
			</g>
			<g>
				<path fill-rule="evenodd" clip-rule="evenodd" fill="#1E77D1" d="M752.6,551.4c0,0,25.1-38.1,2.4-59.4
					c-16.7-15.7-58.2-57.1-96.5-30c-25.1,39.6,18.4,79,35,94.9C715.9,578.4,752.6,551.4,752.6,551.4z"/>
			</g>
			<g>
				<path fill-rule="evenodd" clip-rule="evenodd" fill="#FFFFFF" d="M712.8,460c-3.1-1.5-6.4-2.9-9.7-4l2.3,50.6l-50.6,0.3
					c1.2,3.2,2.7,6.4,4.4,9.4l56.1-0.4L712.8,460z"/>
			</g>
			<g>
				<path fill-rule="evenodd" clip-rule="evenodd" fill="#FFFFFF" d="M735.5,535.2l-2.8-62.7c-3.8-2.9-7.8-5.7-12-8.2l2.7,59.4
					l-59.4,0.4c2.8,4.1,5.8,8,8.8,11.6L735.5,535.2z"/>
			</g>
		</g>
		<g>
			<g>
				<g>
					<path fill-rule="evenodd" clip-rule="evenodd" fill="#FFB27D" d="M2410.4,852.2c0,0,48.1-85.9,59.8-104.1
						c11.7-18.3,42.2-90.8,43.3-93.6c1.1-2.9-21-37.2-16.1-38.4c4.9-1.2,10.4,18.1,15.7,15.8c5.3-2.3,20.6-48.7,23.6-46.4
						c5.6,4.3-8.3,28.8-5.3,30.3c3,1.5,12-26.9,17.9-26.1c5.9,0.8-11.2,26.1-9.5,28.3c1.6,2.2,19.3-21.6,22.5-16.5
						c1.7,2.8-16.3,20.8-12.8,22.5c3.4,1.7,19.5-9.9,21.2-6.6c1.7,3.3-14.8,7.9-19.8,17c-4.9,9-13.3,13-16.8,29.7
						c-3.5,16.8-8.7,77.3-26.6,107.5c-17.9,30.2-57.2,97.1-57.2,97.1L2410.4,852.2z"/>
				</g>
				<g>
					<path fill-rule="evenodd" clip-rule="evenodd" fill="#FFB27D" d="M2197.2,1266.5c0,0,3.9-4.9,5.1-6.6c1.4-2,5-8.4,5-8.4
						s11.7-22.8,10-23.5c-1.8-0.7-6,2.1-7.2,3.2c-1.2,1.1-2.7,2.4-4,3.5c-1.2,1.2-3.1,1.2-4.6-0.2c-1.5-1.4,2.3-7,4-8.8
						c5.4-5.3,22.5-16.4,24.3-17.7c2.1-1.5,15.1-44.8,20.8-59.3h0c8.5-24,16.1-49.1,17-51.6l5.4-108.9l40.7-13.6
						c0,0-4.3,120.9-5.2,126.9c-0.4,2.9-24.5,56.9-24.5,56.9c-13.5,25.9-25.5,48.6-27.7,53.1c0,0-2.9,15-4.3,24.7
						c-1.3,9.7-6.4,18-7.2,20.7c-0.1,0.4-2.3,9.7-9,19.3c-5.8,8.3-4.1-2.3-4.1-2.3s8-17.4,6.5-17.8c-1.1-0.3-4.9,9.4-11.2,18.7
						c-1.6,2.4-3.2,4.8-4.7,6.9c-3.9,5.6-8.5,4.8-5.3-1.8c1.1-2.3,3.1-6.1,4.8-8.6c1.9-2.7,2.8-5.8,4.1-8.4c2.5-5,4.4-8.7,4.1-8.6
						c-0.4,0-0.5-1.4-2.4,1.1c-2.2,3-5.4,10.3-8.9,14.5c-2,2.3-5.9,7.5-5.9,7.5s-7.2,7.6-7.7,7.3c-2.9-1.7,0.7-8.6,3.8-11.4
						c1-2.8,5.3-8.1,5.3-8.1s6.1-12.6,4.4-13.6c-1.5-0.8-22,26.6-24.8,24.8C2191.4,1275,2197.2,1266.5,2197.2,1266.5z"/>
				</g>
				<g>
					<path fill-rule="evenodd" clip-rule="evenodd" fill="#284191" d="M2266.8,842.4c-1-23.8,2.5-47.2,13.4-69.3
						c0.7-21.6,18.5-26.7,34.3-27c0.4,0,0.7-0.3,1-0.5c1.7-1.3,6.1-5.3,8.4-5.7c72.2-12.3,189.2,238.5,62.8,346.8
						c-28.9,24.7-21.8-18.5-22.4-23.2c-18.6-10.1-32.6-26.9-42.7-45.2c-14.2-26.1-23.4-56.1-33.6-83.9
						C2277.2,904.7,2268.2,873.9,2266.8,842.4z"/>
				</g>
				<g>
					<path fill-rule="evenodd" clip-rule="evenodd" fill="#FFB27D" d="M2474.7,1606.9c0,0,4.6,31.9,12.5,42.2
						c2.7,3.5,7.5,7.8,10.7,14.1c5,9.7,2.2,24.2-1.5,32.2c-1.9,4.1,0.1,4.1-4.1,5.4c-12.7,3.9-26.2-2.7-31.6-14.8
						c-3-6.8-5.7-15.8-6.2-27.2c-1.4-29-10.4-43.7-10.4-43.7L2474.7,1606.9z"/>
				</g>
				<g>
					<path fill-rule="evenodd" clip-rule="evenodd" fill="#FFB27D" d="M2335.8,1621.5c0,0-2.9,36-0.5,47.7c1.2,6.3,8.1,19.2,5,25.1
						c-3.2,5.9-6.8,7.4-6.8,7.4l-82,1.3c-4.5,0.1-1.5-2.8,2.1-5.4c5.9-4.3,10.6-7.2,29.5-16.3c1.2-0.6,5.7-3.4,7.3-4.4
						c4.1-2.5,8.2-6.4,11.7-10.3c5.9-6.5,6.4-38.3,6.4-38.3L2335.8,1621.5z"/>
				</g>
				<g>
					<path fill-rule="evenodd" clip-rule="evenodd" fill="#3B5BB3" d="M2271.7,1142.7c0,0-10.3,58.5-3.5,96.8
						c6.8,38.3,39.3,393.7,39.3,393.7l36.2,2c0,0,7.6-148.5,6.2-169.1c-1.4-20.7-12.1-55.2-12.1-55.2l3.6-119.9l-45.6-157.4
						L2271.7,1142.7z"/>
				</g>
				<g>
					<path fill-rule="evenodd" clip-rule="evenodd" fill="#4567C6" d="M2377.9,1130.4c0,0,28.5,42.8,35.3,78.2
						c6.8,35.4-5,144.1,8.1,190.5c7,25.1,33.8,63.9,37.9,96.3c4,32.4,20,117.4,20,117.4l-36.1,7.2l-84-212.2l-65.9-191.8l-16.9-98.8
						L2377.9,1130.4z"/>
				</g>
				<g>
					<path fill-rule="evenodd" clip-rule="evenodd" fill="#61A0E0" d="M2354.9,887.1c0,0,37.7-2.4,52.6,13.8
						c14.9,16.2-33.1,144.5-35.8,165.2c-2.7,20.7,13.8,75.6,13.8,75.6s-88.5,17.8-113.8,1.1c0,0-2.7-148.4,0-163.2
						c2.7-14.7,25.3-74.7,30.7-80.6C2307.8,893,2354.9,887.1,2354.9,887.1z"/>
				</g>
				<g>
					<path fill-rule="evenodd" clip-rule="evenodd" fill="#FFB27D" d="M2342.4,836.8c0,0,0.2,1.1,0.5,3c1.7,9,8.2,39,12.5,47.3
						c5.3,10-18.1,41.8-40.6,37.9c-6.7-1.1,5.7-29.2,5.1-32.2c-1.1-5.7-2.7-13.4-4.2-21.4c-0.9-4.5-1.8-9-2.6-13.3
						c-2.4-12.2-4.4-22.1-4.4-22.1L2342.4,836.8z"/>
				</g>
				<g>
					<path fill-rule="evenodd" clip-rule="evenodd" fill="#F08261" d="M2342.9,839.8c-0.3-1.9-0.5-3-0.5-3l-33.7-0.8
						c0,0,2,9.9,4.4,22.1c0.8,4.3,1.7,8.8,2.6,13.2c5.2-0.8,10.6-3.3,16.1-8c5.9-5.2,9.8-11.4,12.2-18.1
						C2343.5,843,2343.1,841.2,2342.9,839.8z"/>
				</g>
				<g>
					<path fill-rule="evenodd" clip-rule="evenodd" fill="#FFB27D" d="M2319.7,760.4c0,0,15.9-1.8,25.9,11c10,12.9,20.7,52.6-4,74.2
						c-24.7,21.6-49.2-2.9-52.8-28.8C2286.1,791.3,2288.2,761,2319.7,760.4z"/>
				</g>
				<g>
					<path fill-rule="evenodd" clip-rule="evenodd" fill="#FFB27D" d="M2281.3,816.4c3,5.7,7.9,8.9,11.1,7.1
						c3.2-1.8,3.3-7.9,0.4-13.7c-3-5.7-7.9-8.9-11.1-7.1C2278.6,804.6,2278.4,810.7,2281.3,816.4z"/>
				</g>
				<g>
					<path fill-rule="evenodd" clip-rule="evenodd" fill="#284191" d="M2317.9,756.1c0,0,21.2,37.8,36.4,39.6
						c15.2,1.7,17.2,21.8,17.2,21.8s-5.4-46.3-20.5-55.2C2336,753.4,2317.9,756.1,2317.9,756.1z"/>
				</g>
				<g>
					<path fill-rule="evenodd" clip-rule="evenodd" fill="#163560" d="M2458.3,1679.6c19.7,3.6,32.8-7.9,39.6-16.5
						c5,9.8,7.4,24.3,3.7,32.3c-3.2,7.1-12.7,6.9-20.2,7.1c-7.9,0.3-14-4.1-17.9-10.9C2461.7,1688.4,2459.8,1684.4,2458.3,1679.6z"
						/>
				</g>
				<g>
					<path fill-rule="evenodd" clip-rule="evenodd" fill="#163560" d="M2290.3,1676.8c21.7,5.6,37.7,1.8,46.7-1.8
						c2.3,6.5,5.4,14.8,3.7,19.5c-2,5.8-4.8,7.1-7.3,7.1c-19.8,0.5-72.6,1.2-87.6,1.4c-2.1,0-3.3-2.4-1.9-4.1
						C2247.6,1694.6,2288.7,1677.8,2290.3,1676.8z"/>
				</g>
				<g>
					<path fill-rule="evenodd" clip-rule="evenodd" fill="#FFB27D" d="M2350.3,805.2c-1.2,6.7,1.3,12.9,5.5,13.7
						c4.3,0.9,8.8-3.8,10-10.6c1.2-6.7-1.3-12.9-5.6-13.8C2356,793.7,2351.5,798.5,2350.3,805.2z"/>
				</g>
				<g>
					<path fill-rule="evenodd" clip-rule="evenodd" fill="#1E77D1" d="M2423.7,824.3c0,0-53.2,57.1-61.1,80.1
						c-7.9,23,7.7,55.9,29.3,57.4c21.6,1.4,69.6-101.3,69.6-101.3L2423.7,824.3z"/>
				</g>
				<g>
					<path fill-rule="evenodd" clip-rule="evenodd" fill="#284191" d="M2319.6,755.1c-5.4,1.4-8.8,0.2-10-3.4
						c2.8-7.6,7.6-12.7,14.4-15.3C2321.3,739.4,2319.8,745.7,2319.6,755.1z"/>
				</g>
				<g>
					<path fill-rule="evenodd" clip-rule="evenodd" fill="#284191" d="M2312.6,756c-1.3,0.9-2.4-0.6-3-4.3
						c0.1-7.3,0.9-11.9,2.5-13.8C2311.6,740.6,2311.8,746.7,2312.6,756z"/>
				</g>
				<g>
					<path fill-rule="evenodd" clip-rule="evenodd" fill="#284191" d="M2321.4,753.4c-4.4-1.4-7.2-0.2-8.2,3.4
						c2.3,7.6,6.2,12.7,11.7,15.3C2322.8,769.1,2321.6,762.8,2321.4,753.4z"/>
				</g>
				<g>
					<path fill-rule="evenodd" clip-rule="evenodd" fill="#284191" d="M2315.1,756.4c-1.3-0.5-2.4,0.3-3,2.4c0.1,4,0.9,6.5,2.5,7.6
						C2314.2,764.9,2314.3,761.6,2315.1,756.4z"/>
				</g>
			</g>
			<g>
				<path fill-rule="evenodd" clip-rule="evenodd" fill="#1E77D1" d="M2327.8,930.1c0.4,0,0.8-0.4,0.8-0.9c0-0.6-0.3-1-0.7-1.1
					c-6.9-0.5-14-0.6-21.2-0.4c-0.4,0-0.8,0.5-0.7,1c0,0.6,0.4,1,0.8,1C2314,929.4,2321,929.6,2327.8,930.1z"/>
			</g>
			<g>
				<path fill-rule="evenodd" clip-rule="evenodd" fill="#1E77D1" d="M2357.8,886.6c-0.2-0.6-0.9-1-1.6-0.8c-0.6,0.2-1,0.9-0.8,1.6
					c1,3.1,0.3,6.8-2,11c-2.3,4.4-6.3,9.3-11.5,14.8c-3.8,3.3-7.4,5.9-10.9,7.7c-3.5,1.8-6.8,2.9-10,3.2c-0.6,0-2.2,0.1-3.7,0.2h0
					c-0.8,0-1.6,0-1.8,0l0,0c-0.7-0.2-1.1-0.8-1.3-1.8c-0.3-1.4-0.1-3.5,0.5-6.2l0-0.2c4.3-15.3,5.4-22.2,5.4-22.3
					c0.1-0.7-0.3-1.3-1-1.4s-1.3,0.3-1.4,1c0,0-1.1,6.9-5.4,22.1l0,0.1l0,0.2l0,0c-0.7,3-0.8,5.4-0.5,7.1c0.4,2.1,1.5,3.3,3.2,3.7
					l0,0l0,0c0.4,0.1,1.4,0.1,2.4,0.1l0,0c1.5,0,3.3-0.1,3.8-0.2h0c3.5-0.4,7.2-1.5,10.9-3.4c3.7-1.9,7.5-4.6,11.4-8.1l0.1-0.1
					c5.4-5.6,9.5-10.7,11.9-15.3C2358.2,894.7,2359,890.4,2357.8,886.6z"/>
			</g>
			<g>
				<path fill-rule="evenodd" clip-rule="evenodd" fill="#1E77D1" d="M2325.5,933.1c0.3,0,0.6-0.4,0.6-0.9c0-0.6-0.2-1-0.5-1.1
					c-5.1-0.5-10.4-0.6-15.7-0.4c-0.3,0-0.6,0.5-0.6,1c0,0.6,0.3,1,0.6,1C2315.2,932.5,2320.4,932.6,2325.5,933.1z"/>
			</g>
			<g>
				<path fill-rule="evenodd" clip-rule="evenodd" fill="#1E77D1" d="M2319.3,936.5c0.1,0,0.2-0.4,0.2-0.9c0-0.6-0.1-1-0.2-1.1
					c-1.9-0.5-3.9-0.6-5.8-0.4c-0.1,0-0.2,0.5-0.2,1c0,0.6,0.1,1,0.2,1C2315.5,935.9,2317.4,936,2319.3,936.5z"/>
			</g>
			<g>
				<path fill-rule="evenodd" clip-rule="evenodd" fill="#1E77D1" d="M2382.7,1136.6c0.7-0.1,1.1-0.8,1-1.5c-0.1-0.7-0.8-1.1-1.5-1
					c-25.1,4.9-46.2,7.7-64.1,8c-17.8,0.4-32.4-1.5-44.5-5.8c-0.6-0.2-1.4,0.1-1.6,0.8s0.1,1.4,0.8,1.6c12.3,4.4,27.2,6.3,45.3,5.9
					C2336.2,1144.3,2357.5,1141.6,2382.7,1136.6z"/>
			</g>
			<g>
				<path fill-rule="evenodd" clip-rule="evenodd" fill="#1E77D1" d="M2380.8,1129.8c0.7-0.1,1.1-0.8,1-1.5c-0.1-0.7-0.8-1.1-1.5-1
					c-24.9,5-45.9,7.5-63.6,7.3c-17.6-0.1-31.9-2.8-43.6-8.1c-0.6-0.3-1.4,0-1.6,0.6c-0.3,0.6,0,1.4,0.6,1.6
					c11.9,5.4,26.6,8.2,44.6,8.3C2334.5,1137.3,2355.7,1134.8,2380.8,1129.8z"/>
			</g>
		</g>
		<g>
			<path fill-rule="evenodd" clip-rule="evenodd" fill="#DFEDFA" d="M1228,526.7h664.5c12.3,0,22.3,10,22.3,22.3v181.5
				c0,12.2-10,22.3-22.3,22.3H1228c-12.2,0-22.3-10-22.3-22.3V548.9C1205.7,536.7,1215.7,526.7,1228,526.7z"/>
		</g>
		<g>
			<path fill-rule="evenodd" clip-rule="evenodd" fill="#1E77D1" d="M1228,525.3h148.4c-0.6,0.8-0.9,1.8-0.9,2.8H1228
				c-11.5,0-20.9,9.4-20.9,20.9v48c-0.9-0.6-1.8-0.8-2.8-0.8v-47.2C1204.3,535.9,1214.9,525.3,1228,525.3L1228,525.3z M1207.1,646.2
				v84.2c0,11.5,9.4,20.9,20.9,20.9h254.8l-0.7,0.4c-2.5,0-2.7,0.1-4.8,1.2h-4.8c-1.3,0-2.4,0.5-3.3,1.3H1228
				c-13,0-23.7-10.7-23.7-23.7v-84.2C1205.2,646.5,1206.2,646.5,1207.1,646.2L1207.1,646.2z M1568.8,751.3h323.6
				c11.5,0,20.9-9.4,20.9-20.9V604.5c1.1-0.1,2.1-0.7,2.8-1.4v127.4c0,13-10.7,23.7-23.7,23.7h-321.7
				C1570.5,752.9,1569.8,751.9,1568.8,751.3L1568.8,751.3z M1913.1,546c-1.4-10.1-10.2-17.9-20.7-17.9h-440.8
				c0.4-0.9,0.5-1.9,0.3-2.8h440.5c12,0,22,9,23.5,20.7C1915.1,545.9,1914,545.8,1913.1,546z"/>
		</g>
		<g>
			<path fill-rule="evenodd" clip-rule="evenodd" fill="#61A0E0" d="M1797.9,850.7c1.5-1,3.5-0.6,4.5,0.9c1,1.5,0.6,3.5-0.9,4.5
				l-254.9,168.8c-1.5,1-3.5,0.6-4.5-0.9c-1-1.5-0.6-3.5,0.9-4.5L1797.9,850.7z"/>
		</g>
		<g>
			<path fill-rule="evenodd" clip-rule="evenodd" fill="#61A0E0" d="M1653.5,910.1c1.5-1,3.5-0.6,4.5,0.9c1,1.5,0.6,3.5-0.9,4.5
				l-110.6,73.2c-1.5,1-3.5,0.6-4.5-0.9c-1-1.5-0.6-3.5,0.9-4.5L1653.5,910.1z"/>
		</g>
		<g>
			<path fill-rule="evenodd" clip-rule="evenodd" fill="#61A0E0" d="M1301.5,1122.2c1.5-1,3.5-0.6,4.5,0.9s0.6,3.5-0.9,4.5
				l-254.9,168.8c-1.5,1-3.5,0.6-4.5-0.9c-1-1.5-0.6-3.5,0.9-4.5L1301.5,1122.2z"/>
		</g>
		<g>
			<path fill-rule="evenodd" clip-rule="evenodd" fill="#61A0E0" d="M1157,1181.7c1.5-1,3.5-0.6,4.5,0.9c1,1.5,0.6,3.5-0.9,4.5
				l-110.5,73.2c-1.5,1-3.5,0.6-4.5-0.9c-1-1.5-0.6-3.5,0.9-4.5L1157,1181.7z"/>
		</g>
		<g>
			<path fill-rule="evenodd" clip-rule="evenodd" fill="#1E77D1" d="M1394.7,565.4h331.1c3.3,0,6,1.6,6,3.4l0,0c0,1.9-2.7,3.4-6,3.4
				h-331.1c-3.3,0-6-1.5-6-3.4l0,0C1388.7,567,1391.4,565.4,1394.7,565.4z"/>
		</g>
		<g>
			<g>
				<polygon fill-rule="evenodd" clip-rule="evenodd" fill="#FC9774" points="1327.4,659 1341.9,703.7 1303.9,676.1 1265.9,703.7 
					1265.9,703.7 1280.4,659 1242.5,631.5 1242.5,631.4 1289.4,631.4 1303.8,587.1 1303.9,586.9 1303.9,586.8 1303.9,586.9 
					1304,587.1 1318.4,631.4 1365.3,631.4 				"/>
			</g>
			<g>
				<polygon fill-rule="evenodd" clip-rule="evenodd" fill="#F57A44" points="1303.8,588 1303,676.7 1303.9,676.1 1341.8,703.6 
					1341.5,702.4 1327.4,659 1364.7,631.9 1354.2,631.4 1318.4,631.4 1304.5,588.8 1304,587.4 				"/>
			</g>
			<g>
				<path fill-rule="evenodd" clip-rule="evenodd" fill="#F57A44" d="M1307.2,593l13.3,35.4l36.6,1.6c1.3,0.1,2.4,0.1,3.3,0.1
					c3.2,0.1,4.7,0.1,5,1.3c0.3,1-0.9,1.9-3.1,3.6c-0.8,0.6-1.8,1.4-3.1,2.4l-28.4,22.6l8.8,32c0.5,1.9,1,3.5,1.4,4.8
					c1.1,3.8,1.7,5.7,0.6,6.5c-1.1,0.8-2.7-0.4-5.9-2.6l0,0c-1.1-0.8-2.5-1.7-4.2-2.8l-27.7-18.3l-31,20.5c-1.3,0.9-2.3,1.5-3.1,2.1
					l0,0c-2,1.4-3,2.1-3.9,1.6c-1.1-0.6-0.7-2,0.2-5c0.2-0.8,0.5-1.7,0.7-2.4l10.1-36.4l-28.1-22.4l0,0c-1.4-1.2-2.6-2-3.5-2.7
					c-2-1.5-3.1-2.3-2.9-3.3c0.2-1.3,1.9-1.4,5.6-1.5l2.1-0.1l37.1-1.7l13.2-35.2c0.4-1.2,0.8-2.2,1.1-3c0.8-2.4,1.3-3.6,2.3-3.6
					c1.1,0,1.6,1.2,2.5,3.7C1306.6,591.1,1306.9,592.1,1307.2,593L1307.2,593z M1318.9,629.7l-13.5-36c-0.5-1.2-0.8-2.1-1-2.7
					c-0.6-1.6-0.1-2.4-0.5-2.4c-0.3,0,0.1,0.8-0.4,2.2c-0.3,0.8-0.6,1.8-1.1,3.1l-13.4,35.9l-0.2,0.6l-0.7,0l-37.7,1.7h0l-2.2,0.1
					l0,0c-2.6,0.1-3.7-0.7-3.7-0.3c0,0.2,0.8,0.4,2.2,1.4c1,0.7,2.2,1.7,3.6,2.8l0,0l28.6,22.8l0.5,0.4l-0.2,0.6l-10.2,37.1
					c-0.3,1.2-0.5,1.8-0.7,2.4c-0.5,1.9-1.5,2.4-1.2,2.6c0.2,0.1,0.4-0.6,1.7-1.5h0c0.9-0.6,1.9-1.3,3.1-2.1l31.5-20.8l0.6-0.4
					l0.6,0.4l28.2,18.7c1.6,1.1,3,2,4.2,2.8c2.5,1.7,3.5,2.7,3.6,2.6c0.1-0.1-0.5-1.4-1.4-4.3c-0.4-1.3-0.9-2.9-1.4-4.9l-9-32.7
					l-0.2-0.6l0.5-0.4l28.9-23c1.1-0.9,2.2-1.7,3.1-2.4c1.5-1.2,2.4-1.3,2.4-1.5c-0.1-0.3-1,0.3-3.1,0.2c-1,0-2.1-0.1-3.3-0.1
					l-37.3-1.7l-0.7,0L1318.9,629.7z"/>
			</g>
		</g>
		<g>
			<g>
				<polygon fill-rule="evenodd" clip-rule="evenodd" fill="#FC9774" points="1457.3,659 1471.8,703.7 1433.8,676.1 1395.8,703.7 
					1395.8,703.7 1410.4,659 1372.4,631.5 1372.4,631.4 1419.3,631.4 1433.7,587.1 1433.8,586.9 1433.8,586.8 1433.8,586.9 
					1433.9,587.1 1448.3,631.4 1495.2,631.4 				"/>
			</g>
			<g>
				<polygon fill-rule="evenodd" clip-rule="evenodd" fill="#F57A44" points="1433.7,588 1432.9,676.7 1433.8,676.1 1471.7,703.6 
					1471.4,702.4 1457.3,659 1494.6,631.9 1484.1,631.4 1448.3,631.4 1434.4,588.8 1433.9,587.4 				"/>
			</g>
			<g>
				<path fill-rule="evenodd" clip-rule="evenodd" fill="#F57A44" d="M1437.2,593l13.3,35.4l36.6,1.6c1.3,0.1,2.4,0.1,3.3,0.1
					c3.2,0.1,4.7,0.1,5,1.3c0.3,1-0.9,1.9-3.1,3.6c-0.8,0.6-1.8,1.4-3.1,2.4l-28.4,22.6l8.8,32c0.5,1.9,1,3.5,1.4,4.8
					c1.1,3.8,1.7,5.7,0.6,6.5c-1.1,0.8-2.7-0.4-5.9-2.6l0,0c-1.1-0.8-2.5-1.7-4.2-2.8l-27.7-18.3l-31,20.5c-1.3,0.9-2.3,1.5-3.1,2.1
					l0,0c-2,1.4-3,2.1-3.9,1.6c-1.1-0.6-0.7-2,0.2-5c0.2-0.8,0.5-1.7,0.7-2.4l10.1-36.4l-28.1-22.4l0,0c-1.4-1.2-2.6-2-3.5-2.7
					c-2-1.5-3.1-2.3-2.9-3.3c0.2-1.3,1.9-1.4,5.6-1.5l2.2-0.1l37-1.7l13.2-35.2c0.4-1.2,0.8-2.2,1.1-3c0.8-2.4,1.3-3.6,2.3-3.6
					c1.1,0,1.6,1.2,2.5,3.7C1436.5,591.1,1436.8,592.1,1437.2,593L1437.2,593z M1448.8,629.7l-13.5-36c-0.5-1.2-0.8-2.1-1-2.7
					c-0.6-1.6-0.1-2.4-0.5-2.4c-0.3,0,0.1,0.8-0.4,2.2c-0.3,0.8-0.6,1.8-1.1,3.1l-13.4,35.9l-0.2,0.6l-0.7,0l-37.7,1.7h0l-2.2,0.1h0
					c-2.6,0.1-3.6-0.7-3.7-0.3c0,0.2,0.8,0.4,2.2,1.4c1,0.7,2.2,1.7,3.6,2.8l0,0l28.6,22.8l0.5,0.4l-0.2,0.6l-10.2,37.1
					c-0.3,1.2-0.5,1.8-0.7,2.4c-0.5,1.9-1.5,2.4-1.2,2.6c0.2,0.1,0.4-0.6,1.7-1.5h0c0.9-0.6,1.9-1.3,3.1-2.1l31.5-20.8l0.6-0.4
					l0.6,0.4l28.2,18.7c1.6,1.1,3,2,4.2,2.8c2.5,1.7,3.5,2.7,3.6,2.6c0.1-0.1-0.5-1.4-1.4-4.3c-0.4-1.3-0.9-2.9-1.4-4.9l-9-32.7
					l-0.2-0.6l0.5-0.4l28.9-23c1.1-0.9,2.2-1.7,3.1-2.4c1.5-1.2,2.4-1.3,2.4-1.5c-0.1-0.3-1,0.3-3.1,0.2c-0.9,0-2.1-0.1-3.3-0.1
					l-37.3-1.7l-0.7,0L1448.8,629.7z"/>
			</g>
		</g>
		<g>
			<g>
				<polygon fill-rule="evenodd" clip-rule="evenodd" fill="#FC9774" points="1587.2,659 1601.7,703.7 1563.7,676.1 1525.8,703.7 
					1525.8,703.7 1540.3,659 1502.3,631.5 1502.3,631.4 1549.2,631.4 1563.6,587.1 1563.7,586.9 1563.7,586.8 1563.7,586.9 
					1563.8,587.1 1578.2,631.4 1625.2,631.4 				"/>
			</g>
			<g>
				<polygon fill-rule="evenodd" clip-rule="evenodd" fill="#F57A44" points="1563.6,588 1562.8,676.7 1563.7,676.1 1601.6,703.6 
					1601.3,702.4 1587.2,659 1624.5,631.9 1614,631.4 1578.2,631.4 1564.4,588.8 1563.8,587.4 				"/>
			</g>
			<g>
				<path fill-rule="evenodd" clip-rule="evenodd" fill="#F57A44" d="M1567.1,593l13.3,35.4l36.6,1.6c1.3,0.1,2.4,0.1,3.3,0.1
					c3.2,0.1,4.7,0.1,5,1.3c0.3,1-0.9,1.9-3.1,3.6c-0.8,0.6-1.8,1.4-3.1,2.4l-28.4,22.6l8.8,32c0.5,1.9,1,3.5,1.4,4.8
					c1.1,3.8,1.7,5.7,0.6,6.5c-1.1,0.8-2.7-0.4-5.9-2.6l0,0c-1.1-0.8-2.5-1.7-4.2-2.8l-27.7-18.3l-31,20.5c-1.3,0.9-2.3,1.5-3.1,2.1
					l0,0c-2,1.4-3,2.1-3.9,1.6c-1.1-0.6-0.7-2,0.2-5c0.2-0.8,0.5-1.7,0.7-2.4l10.1-36.4l-28.1-22.4l0,0c-1.4-1.2-2.6-2-3.5-2.7
					c-2-1.5-3.1-2.3-2.9-3.3c0.2-1.3,1.9-1.4,5.6-1.5l2.2-0.1l37.1-1.7l13.2-35.2c0.4-1.2,0.8-2.2,1.1-3c0.8-2.4,1.3-3.6,2.3-3.6
					c1.1,0,1.6,1.2,2.5,3.7C1566.4,591.1,1566.8,592.1,1567.1,593L1567.1,593z M1578.7,629.7l-13.5-36c-0.5-1.2-0.8-2.1-1-2.7
					c-0.6-1.6-0.1-2.4-0.5-2.4c-0.3,0,0.1,0.8-0.4,2.2c-0.3,0.8-0.6,1.8-1.1,3.1l-13.4,35.9l-0.2,0.6l-0.7,0l-37.7,1.7h0l-2.2,0.1h0
					c-2.6,0.1-3.6-0.7-3.7-0.3c0,0.2,0.8,0.4,2.2,1.4c1,0.7,2.2,1.7,3.5,2.8l0,0l28.6,22.8l0.5,0.4l-0.2,0.6l-10.2,37.1
					c-0.3,1.2-0.5,1.8-0.7,2.4c-0.5,1.9-1.5,2.4-1.2,2.6c0.2,0.1,0.4-0.6,1.7-1.5h0c0.9-0.6,1.9-1.3,3.1-2.1l31.5-20.8l0.6-0.4
					l0.6,0.4l28.2,18.7c1.6,1.1,3,2,4.2,2.8c2.5,1.7,3.5,2.7,3.6,2.6c0.1-0.1-0.5-1.4-1.4-4.3c-0.4-1.3-0.9-2.9-1.4-4.9l-9-32.7
					l-0.2-0.6l0.5-0.4l28.9-23c1.1-0.9,2.2-1.7,3.1-2.4c1.5-1.2,2.4-1.3,2.4-1.5c-0.1-0.3-1,0.3-3.1,0.2c-0.9,0-2.1-0.1-3.3-0.1
					l-37.3-1.7l-0.7,0L1578.7,629.7z"/>
			</g>
		</g>
		<g>
			<g>
				<polygon fill-rule="evenodd" clip-rule="evenodd" fill="#FC9774" points="1717.1,659 1731.6,703.7 1693.6,676.1 1655.7,703.7 
					1655.7,703.7 1670.2,659 1632.2,631.5 1632.2,631.4 1679.1,631.4 1693.5,587.1 1693.6,586.9 1693.6,586.8 1693.7,586.9 
					1693.7,587.1 1708.1,631.4 1755.1,631.4 				"/>
			</g>
			<g>
				<polygon fill-rule="evenodd" clip-rule="evenodd" fill="#F57A44" points="1693.5,588 1692.7,676.7 1693.6,676.1 1731.5,703.6 
					1731.2,702.4 1717.1,659 1754.4,631.9 1743.9,631.4 1708.1,631.4 1694.3,588.8 1693.8,587.4 				"/>
			</g>
			<g>
				<path fill-rule="evenodd" clip-rule="evenodd" fill="#F57A44" d="M1697,593l13.3,35.4l36.6,1.6c1.3,0.1,2.4,0.1,3.3,0.1
					c3.2,0.1,4.7,0.1,5,1.3c0.3,1-0.9,1.9-3.1,3.6c-0.8,0.6-1.8,1.4-3.1,2.4l-28.4,22.6l8.8,32c0.5,1.9,1,3.5,1.4,4.8
					c1.1,3.8,1.7,5.7,0.6,6.5c-1.1,0.8-2.7-0.4-5.9-2.6l0,0c-1.1-0.8-2.5-1.7-4.2-2.8l-27.7-18.3l-31,20.5c-1.3,0.9-2.3,1.5-3.1,2.1
					l0,0c-2,1.4-3,2.1-3.9,1.6c-1.1-0.6-0.7-2,0.2-5c0.2-0.8,0.5-1.7,0.7-2.4l10.1-36.4l-28.1-22.4l0,0c-1.4-1.2-2.6-2-3.5-2.7
					c-2-1.5-3.1-2.3-2.9-3.3c0.2-1.3,1.9-1.4,5.6-1.5l2.2-0.1l37.1-1.7l13.2-35.2c0.4-1.2,0.8-2.2,1.1-3c0.8-2.4,1.3-3.6,2.3-3.6
					c1.1,0,1.6,1.2,2.5,3.7C1696.3,591.1,1696.7,592.1,1697,593L1697,593z M1708.6,629.7l-13.5-36c-0.5-1.2-0.8-2.1-1-2.7
					c-0.6-1.6-0.1-2.4-0.5-2.4c-0.3,0,0.1,0.8-0.5,2.2c-0.3,0.8-0.6,1.8-1.1,3.1l-13.4,35.9l-0.2,0.6l-0.7,0l-37.7,1.7h0l-2.2,0.1h0
					c-2.6,0.1-3.6-0.7-3.7-0.3c0,0.2,0.8,0.4,2.2,1.4c1,0.7,2.2,1.7,3.5,2.8l0,0l28.6,22.8l0.5,0.4l-0.2,0.6l-10.2,37.1
					c-0.3,1.2-0.5,1.8-0.7,2.4c-0.5,1.9-1.5,2.4-1.2,2.6c0.2,0.1,0.4-0.6,1.7-1.5h0c0.9-0.6,1.9-1.3,3.1-2.1l31.5-20.8l0.6-0.4
					l0.6,0.4l28.2,18.7c1.6,1.1,3,2,4.2,2.8c2.5,1.7,3.5,2.7,3.6,2.6c0.1-0.1-0.5-1.4-1.4-4.3c-0.4-1.3-0.9-2.9-1.4-4.9l-9-32.7
					l-0.2-0.6l0.5-0.4l28.9-23c1.1-0.9,2.2-1.7,3.1-2.4c1.5-1.2,2.4-1.3,2.4-1.5c-0.1-0.3-1,0.3-3.1,0.2c-0.9,0-2.1-0.1-3.3-0.1
					l-37.3-1.7l-0.7,0L1708.6,629.7z"/>
			</g>
		</g>
		<g>
			<g>
				<polygon fill-rule="evenodd" clip-rule="evenodd" fill="#FFE2DC" points="1847,659 1861.5,703.7 1823.5,676.1 1785.6,703.7 
					1785.6,703.7 1800.1,659 1762.1,631.5 1762.1,631.4 1809,631.4 1823.5,587.1 1823.5,586.9 1823.5,586.8 1823.6,586.9 
					1823.6,587.1 1838,631.4 1885,631.4 				"/>
			</g>
			<g>
				<polygon fill-rule="evenodd" clip-rule="evenodd" fill="#FBBFA8" points="1823.4,588 1822.7,676.7 1823.5,676.1 1861.4,703.6 
					1861.1,702.4 1847,659 1884.3,631.9 1873.8,631.4 1838,631.4 1824.2,588.8 1823.7,587.4 				"/>
			</g>
			<g>
				<path fill-rule="evenodd" clip-rule="evenodd" fill="#FBBFA8" d="M1826.9,593l13.3,35.4l36.6,1.6c1.3,0.1,2.4,0.1,3.3,0.1
					c3.2,0.1,4.7,0.1,5,1.3c0.3,1-0.9,1.9-3.1,3.6c-0.8,0.6-1.8,1.4-3.1,2.4l-28.4,22.6l8.8,32c0.5,1.9,1,3.5,1.4,4.8
					c1.1,3.8,1.7,5.7,0.6,6.5c-1.1,0.8-2.7-0.4-5.9-2.6l0,0c-1.1-0.8-2.5-1.7-4.2-2.8l-27.7-18.3l-31,20.5c-1.3,0.9-2.3,1.5-3.1,2.1
					l0,0c-2,1.4-3,2.1-3.9,1.6c-1.1-0.6-0.7-2,0.2-5c0.2-0.8,0.5-1.7,0.7-2.4l10.1-36.4l-28.1-22.4l0,0c-1.4-1.2-2.6-2-3.5-2.7
					c-2-1.5-3.1-2.3-2.9-3.3c0.2-1.3,1.9-1.4,5.6-1.5l2.2-0.1l37.1-1.7l13.2-35.2c0.4-1.2,0.8-2.2,1.1-3c0.8-2.4,1.3-3.6,2.3-3.6
					c1.1,0,1.6,1.2,2.5,3.7C1826.2,591.1,1826.6,592.1,1826.9,593L1826.9,593z M1838.5,629.7l-13.5-36c-0.5-1.2-0.8-2.1-1-2.7
					c-0.6-1.6-0.1-2.4-0.5-2.4c-0.3,0,0.1,0.8-0.5,2.2c-0.3,0.8-0.6,1.8-1.1,3.1l-13.5,35.9l-0.2,0.6l-0.7,0l-37.7,1.7h0l-2.2,0.1h0
					c-2.6,0.1-3.6-0.7-3.7-0.3c0,0.2,0.8,0.4,2.2,1.4c1,0.7,2.2,1.7,3.5,2.8l0,0l28.6,22.8l0.5,0.4l-0.2,0.6l-10.2,37.1
					c-0.3,1.2-0.5,1.8-0.7,2.4c-0.5,1.9-1.5,2.4-1.2,2.6c0.2,0.1,0.4-0.6,1.7-1.5l0,0c0.9-0.6,1.9-1.3,3.1-2.1l31.5-20.8l0.6-0.4
					l0.6,0.4l28.2,18.7c1.6,1.1,3,2,4.2,2.8c2.5,1.7,3.5,2.7,3.6,2.6c0.1-0.1-0.5-1.4-1.4-4.3c-0.4-1.3-0.9-2.9-1.4-4.9l-9-32.7
					l-0.2-0.6l0.5-0.4l28.9-23c1.1-0.9,2.2-1.7,3.1-2.4c1.5-1.2,2.4-1.3,2.4-1.5c-0.1-0.3-1,0.3-3.1,0.2c-0.9,0-2.1-0.1-3.3-0.1
					l-37.3-1.7l-0.7,0L1838.5,629.7z"/>
			</g>
		</g>
		<g>
			<g>
				<polygon fill-rule="evenodd" clip-rule="evenodd" fill="#FC9774" points="2007.9,504.3 2045.7,560.8 1981.9,537.3 1939.9,590.7 
					1939.9,590.7 1942.5,522.8 1878.8,499.3 1878.8,499.3 1944.1,480.8 1946.7,413.3 1946.8,413 1946.8,413 1946.8,413 1947,413.3 
					1984.5,469.4 2049.9,450.9 				"/>
			</g>
			<g>
				<polygon fill-rule="evenodd" clip-rule="evenodd" fill="#F57A44" points="1947.1,414.7 1980.9,538.5 1981.9,537.3 2045.5,560.7 
					2044.6,559.2 2007.9,504.3 2049.2,451.8 2034.4,455.3 1984.5,469.4 1948.4,415.4 1947.2,413.7 				"/>
			</g>
			<g>
				<path fill-rule="evenodd" clip-rule="evenodd" fill="#F57A44" d="M1953.9,420.2l32.4,44.1l51.6-12.1c1.8-0.4,3.3-0.8,4.6-1.1
					c4.4-1.1,6.6-1.7,7.5-0.2c0.8,1.3-0.5,3-2.9,6.3c-0.9,1.2-1.9,2.6-3.4,4.5l-30.6,42.7l24.9,41.1c1.5,2.4,2.8,4.5,3.8,6.2
					c3.1,4.9,4.6,7.3,3.4,8.8c-1.2,1.5-3.9,0.6-9.3-1.3l0,0c-1.9-0.6-4.2-1.4-6.9-2.3l-45.8-14.6l-35.1,40.7c-1.5,1.7-2.6,3-3.4,4.1
					l0,0c-2.2,2.7-3.3,4.1-4.7,3.8c-1.7-0.4-1.7-2.5-1.7-7c0-1.2,0-2.6,0-3.6l-0.3-54.7l-48-20.1l0,0c-2.4-1.1-4.4-1.8-6-2.4
					c-3.4-1.3-5.2-2.1-5.4-3.5c-0.3-1.9,2.1-2.7,7.3-4.3l3-0.9l51-16.9l4.5-54.3c0.2-1.8,0.3-3.4,0.3-4.6c0.2-3.6,0.3-5.5,1.8-5.9
					c1.5-0.5,2.6,1.1,4.9,4.3C1952.2,417.9,1953.1,419.1,1953.9,420.2L1953.9,420.2z M1984.5,466.8l-33-44.9
					c-1.1-1.6-1.8-2.6-2.5-3.4c-1.4-2-1.1-3.3-1.6-3.2c-0.5,0.1,0.4,1,0.3,3.3c-0.1,1.3-0.2,2.8-0.3,4.7l-4.6,55.3l-0.1,1l-0.9,0.3
					l-51.9,17.2l0,0l-3,0.9l0,0c-3.5,1.1-5.3,0.5-5.3,1.1c0,0.3,1.2,0.2,3.6,1.2c1.6,0.6,3.7,1.5,6,2.5l0,0l48.9,20.5l0.9,0.4l0,1
					l0.3,55.7c0,1.7,0,2.7,0,3.6c0,2.9-1.2,4-0.6,4.1c0.4,0.1,0.4-1,1.8-2.8v0c1-1.2,2.2-2.6,3.5-4.2l35.7-41.4l0.6-0.7l0.9,0.3
					l46.7,14.9c2.7,0.9,5,1.7,7,2.3c4.1,1.4,5.9,2.4,6.1,2.2c0.1-0.1-1.3-1.7-3.6-5.4c-1.1-1.7-2.4-3.8-3.9-6.2l-25.4-41.9l-0.5-0.8
					l0.6-0.8l31.2-43.5c1.2-1.7,2.4-3.3,3.4-4.6c1.7-2.2,2.9-2.7,2.7-3c-0.2-0.4-1.2,0.8-4.2,1.5c-1.3,0.3-2.9,0.7-4.6,1.1
					l-52.6,12.4l-0.9,0.2L1984.5,466.8z"/>
			</g>
		</g>
		<g>
			<path fill="#F4793F" d="M1838.2,589.4c-0.5,0-1-0.2-1.3-0.7c-0.5-0.7-0.4-1.7,0.3-2.3c41.4-30.7,61.9-56.2,69.7-65.8
				c0.6-0.7,1.6-0.8,2.3-0.2c0.7,0.6,0.8,1.6,0.2,2.3c-7.8,9.7-28.6,35.4-70.3,66.3C1838.8,589.3,1838.5,589.4,1838.2,589.4z"/>
		</g>
		<g>
			<path fill="#F4793F" d="M1853.2,605.9c-0.5,0-1-0.3-1.3-0.7c-0.5-0.7-0.3-1.8,0.4-2.3c35.9-24.3,59.6-40.3,72.5-48.8
				c0.8-0.5,1.8-0.3,2.3,0.5c0.5,0.7,0.3,1.8-0.5,2.3c-12.9,8.5-36.6,24.5-72.5,48.8C1853.9,605.9,1853.5,605.9,1853.2,605.9z"/>
		</g>
		<g>
			<path fill="#F4793F" d="M1880.1,622.8c-0.7,0-1.3-0.4-1.5-1.1c-0.3-0.9,0.2-1.8,1-2.1c37.5-12.3,66.4-27.4,106.3-49.1
				c0.8-0.4,1.8-0.1,2.2,0.7c0.4,0.8,0.1,1.8-0.6,2.2c-40,21.7-69.1,36.9-106.9,49.3C1880.5,622.8,1880.3,622.8,1880.1,622.8z"/>
		</g>
	</g>
</g>
</svg>
