<?xml version="1.0" encoding="utf-8"?>
<!-- Generator: Adobe Illustrator 24.0.2, SVG Export Plug-In . SVG Version: 6.00 Build 0)  -->
<svg version="1.1" id="Layer_1" xmlns="http://www.w3.org/2000/svg" xmlns:xlink="http://www.w3.org/1999/xlink" x="0px" y="0px"
	 viewBox="0 0 2378.33 1835.62" style="enable-background:new 0 0 2378.33 1835.62;" xml:space="preserve">
<style type="text/css">
	.st0{fill:#FFFFFF;}
	.st1{display:none;fill:#EDDCC3;}
	.st2{fill:#EFAEA6;}
	.st3{fill:#F5B1B4;}
	.st4{fill:#1F1E39;}
	.st5{opacity:0;fill:#1F1F39;}
	.st6{fill:#0267A5;}
	.st7{fill:#F4AD00;}
	.st8{opacity:0.14;fill:#1F1F39;}
	.st9{opacity:0.16;fill:#1F1F39;}
	.st10{opacity:0.28;fill:#1F1F39;}
	.st11{fill:#1F1F39;}
	.st12{fill:#3B3B4C;}
	.st13{opacity:0.57;fill:#1F1F39;}
	.st14{fill:#32323F;}
	.st15{fill:#0267A4;}
	.st16{opacity:0.15;fill:#1F1F39;}
	.st17{fill:#0069A8;}
	.st18{opacity:0.18;fill:#1F1F39;}
	.st19{opacity:0.1;fill:#32323F;}
	.st20{fill:#F2F2F2;}
	.st21{fill:#20202D;}
	.st22{opacity:0.2;fill:#0D0D1E;}
	.st23{opacity:0.24;fill:#FFFFFF;}
	.st24{opacity:0.02;fill:#F4C83D;}
	.st25{opacity:0.19;fill:#D39333;}
	.st26{fill:#A5A5A5;}
	.st27{fill:#E5E5E5;}
	.st28{opacity:0;fill:#FFFFFF;}
	.st29{opacity:0.5;fill:#5E5E6D;}
	.st30{fill:#419F81;}
	.st31{fill:#1991BF;}
	.st32{opacity:0.17;fill:#1F1F3B;}
	.st33{fill:#333344;}
	.st34{opacity:0.28;fill:#070716;}
	.st35{fill:#201B2C;}
	.st36{fill:#EEADA5;}
	.st37{fill:#603A3E;}
	.st38{fill:#775155;}
	.st39{opacity:0.17;fill:#070716;}
	.st40{fill:#2E2E49;}
	.st41{fill:#FFB69C;}
	.st42{fill:#6D3522;}
	.st43{opacity:0.25;fill:#1F1F39;}
</style>
<path class="st0" d="M962.4,417.59c22.76-3.71,25.95-14.03,30-46.01c3.12,30.3,6.95,41.77,30.12,45.1
	c-20.15,8.75-27.23,11.93-30.64,46.99C986.71,428.21,982.26,425.1,962.4,417.59z"/>
<rect x="-255.74" y="-186.2" class="st1" width="3000" height="2000"/>
<g>
	<path class="st2" d="M794.28,1123.56c8.73,8.77,25.79,8.91,33.06,4.27c8.18-5.23,11.05-19.13,2.2-15.31
		c-13.82,5.97-7.21-3.94-10.44-4.33c-5.38-0.66-14.74,7.26-17.51,5.59C799.87,1112.73,794.28,1123.56,794.28,1123.56z"/>
	<path class="st2" d="M769.05,868.51c6.21-26.92,0.21-41.08,5.76-49.95c10.21-16.32,31.78-4.14,24.18,4.75
		c-7.6,8.88-6.14,27.11-6.77,29.5C788.25,867.9,769.05,868.51,769.05,868.51z"/>
	<path class="st3" d="M698.88,1320.73c-13.24,27.14-26.89,48.83-45.08,64.11S522.56,1490.61,522,1495.4
		c-0.56,4.79-3.6,24.59-4.68,29.33c-1.09,4.73-28.12-39.19-22.57-46.13c5.55-6.94,4.88-1.62,17.03-8.81
		c12.15-7.19,45.9-40.95,52.58-48.32c6.68-7.36,65.18-86.6,74.41-93.21C648.01,1321.66,698.88,1320.73,698.88,1320.73z"/>
	<path class="st4" d="M509.03,1467.36c1.36,0.1,2.48,1.1,2.75,2.43c1.28,6.39-0.06,11.62-0.88,13.5c-1.58,3.58-5.41,8.62-2.7,19.45
		c2.7,10.83,10.38,16.61,10.69,20.95c0.31,4.34,5.73,24.19-2.1,25.01c-7.55-0.05-19.83-17.18-21.14-26.11
		c-1.32-8.93-4.33-31.96-5.3-31.41c-3,0.58-3.35-0.84-3.35-0.84c-0.98-7.03-3.28-16.28-2.35-18.28c0.93-2,7.74-5.13,12.31-5.24
		C500.15,1466.74,505.89,1467.12,509.03,1467.36z"/>
	<g>
		<path class="st3" d="M739.9,1292c1.17,4.22,9.56,25.73,19.88,51.53c3.1,7.76,6.38,15.91,9.68,24.09
			c15.21,37.64,31.04,75.99,33.5,80.64c4.78,9.04,25.61,53.55,28.3,67.94c2.69,14.39-2.24,11.97,2.53,19.75
			c4.78,7.78,62.94-15.16,58.73-17.8c-4.2-2.63-28.36-1.48-32.81-3.61c-3.02-1.45-30.58-93.13-50.59-159.02
			c-2.68-8.84-5.23-17.22-7.57-24.86c-5.88-19.24-10.4-33.75-12.34-39.04c-8.39-23.02-17.07-14.22-36.47-9.61
			C752.75,1282.01,736.76,1280.68,739.9,1292z"/>
		<path class="st4" d="M829.32,1527.39c0.07-1.43,1.05-2.65,2.42-2.99c6.51-1.64,11.91-0.49,13.86,0.29
			c3.71,1.49,8.98,5.26,20.01,1.92c11.02-3.34,17.64-9.53,22.08-10.06c4.44-0.53,23.87-1.36,24.94,6.81
			c0.16,7.91-15.93,16.28-25.05,18.09c-9.12,1.8-33.91,3.43-33.31,4.42c0.68,3.12-0.77,3.55-0.77,3.55
			c-7.18,1.36-16.59,4.21-18.66,3.32c-2.07-0.88-5.47-7.87-5.71-12.65C828.94,1536.72,829.17,1530.69,829.32,1527.39z"/>
	</g>
	<path class="st5" d="M653.17,1385.02c13.46,5.7,33.97,5.22,44.03,6.99c2.73-10.72,3.27-12.9,4.29-17.19
		c0.19-0.79,0.37-1.59,0.54-2.4l-36.02-10.36l-12.57,13.58C653.33,1378.69,653.24,1381.83,653.17,1385.02z"/>
	<path class="st5" d="M720.68,1366.43c1.17,8.29,2.12,15.03,3.39,23.77c12.38-4.86,29.18-2.23,41.65-0.07
		c-0.5-9.24-0.99-18-1.45-25.98l-1.94-7.2L720.68,1366.43z"/>
	<path class="st6" d="M571.07,1358.73c12.37,15.99,52.31,4.84,66.97,13.19c2.34,1.34,6.44,2.86,11.58,4.38
		c18.05,5.34,60.26,10.67,71.5,3.68c33.22-20.63,75.05-5.76,101.71-28.83c11.58-10.02-51.05-163.21-68.07-205.69l0-0.01
		c-0.91-2.26-1.8-4.19-2.68-5.74c0,0-43.28-26.92-81.71-7.78c-6.42,3.2-12.7,7.68-18.63,13.79c-0.09,0.15-0.19,0.3-0.28,0.44
		C611.31,1208.93,641.17,1275.97,571.07,1358.73z"/>
	<path class="st7" d="M803.07,1132.96c-1.42-1.21-24.94-8.71-52.63-18.29c2.92,12.97,5.23,25.25,4.32,30.79
		c-0.17,1.06-0.49,1.87-0.97,2.41c-3.85,4.19-41.73,7.04-70.36,6.13c-19.42-0.62-34.58-2.98-31.96-7.82
		c0.09-0.14,0.19-0.3,0.27-0.44c7.78-10.58,13.1-25.54,15.01-42.29c0.63-5.6,1.61-13.44,1.71-21.98c-5.71-3.36-9.35-6.37-10.05-8.84
		c-7.92-28.18-14.66-62.53-7.84-71.1c6.13-7.71,29.23-24.9,37.79-25.48c8.55-0.58,21.05,3.25,26.21,2.37
		c2.38-0.4,12.1-6.95,22.34-14.91c2.61-2.02,5.26-4.15,7.83-6.29c9.12-7.59,17.23-15.32,19.22-19.68c5.63-12.27,1.48-85.27,2.3-91.1
		c0.81-5.82,30.17-0.53,29.1,3.06c-1.08,3.6,5.55,93.14-2.3,106.41c-1.58,2.66-4.88,5.86-9.16,9.55c-3.11,2.68-6.72,5.6-10.57,8.74
		c-11.9,9.72-25.97,21.55-33.63,34.55c-5.99,10.17,12.81,24.55,12.39,31.92c-1.1,20.08-9.91,22.91-10.46,32.29
		c-0.12,2.14,0.74,6.84,2.08,12.89c11.58,3.85,22.4,7.01,27.59,8.89c3.46,1.25,34.72,8.54,37.04,11.2
		C810.59,1108.54,804.33,1134.01,803.07,1132.96z"/>
	<path class="st8" d="M725.84,1079.68c-32.67-21.57-37.08-25.83-38.33-46.17c-4.19,16.69-1.04,21.43,0.74,24.54
		S713.69,1073.93,725.84,1079.68z"/>
	<path class="st8" d="M741.62,1112.03c0.41-0.17-73.11-29.12-73.17-30.52c-0.13,3.25-0.13,5.79-0.32,7.79
		C670.39,1088.82,740.28,1112.59,741.62,1112.03z"/>
	<path class="st9" d="M571.07,1358.73c12.37,15.99,52.31,4.84,66.97,13.19c2.34,1.34,6.44,2.86,11.58,4.38
		c28.28-61.02,28.42-155.22,22.81-222.89c-0.62-7.51-1.31-14.7-2.05-21.47c-1.15-10.61-2.4-20.2-3.63-28.49
		c-1.9,16.74-7.22,31.71-15,42.28c-0.09,0.15-0.19,0.3-0.28,0.44C611.31,1208.93,641.17,1275.97,571.07,1358.73z"/>
	<g>
		<path class="st3" d="M708.32,959.17c-3.5,15.04-2.84,22.87-0.47,27.16c2.34,4.24,4.88,14.56,0.11,14.29
			c-2.36-0.13-16.18-6.66-21.2-10.45c-5.01-3.79-7.92-11.04-7.92-11.04s11.23-18.99,19-34.89
			C705.62,928.33,708.32,959.17,708.32,959.17z"/>
		<path class="st10" d="M706.07,973.37c0.14-1.99,0.4-4.21,0.82-6.68c0.14-0.87,1.26-6.58,1.44-7.51c-0.81-0.82-2.24-2.01-3.08-2.18
			c-1.15-0.23-3.54,0-4.6-1.37c-1.76-2.26-5.4,4.13-3.92,7.94C697.29,965.05,701.4,970.75,706.07,973.37z"/>
		<g>
			<g>
				<path class="st3" d="M698.37,920.59c10.3,8.69,19.09,9.91,15.86,13.45c-2.44,2.68,18.38,20.91,5.49,25.15
					c-12.8,4.21-25.62,4.38-33.98-7.09c-8.36-11.47-13.56-17.98-13.56-17.98L698.37,920.59z"/>
				<path class="st11" d="M701.54,921.61c-0.41,7.85-4.57,13.6-5.5,17.05c-0.53,1.95-4.07,3.31-5.77,2.22
					c-1.89-1.22-4.78-0.12-6.59,2.81c-2.18,3.52,2.89,5.64,5.76,7.38c2.14,1.3,3.26,4.52,2.99,7.03
					c-1.04,9.55,17.74,22.74-22.21,54.3c-10.08,7.87-21.65,13.94-32.82,18.2c-22.53,8.61-43.47,9.9-47.39,3.86
					c-2.86-4.4,3.29-16.51,9.18-22.39c5.89-5.88,10.74-2.45,15.17-7.17c5.07-5.4-10.43-16.18,7.32-26.32
					c17.75-10.14,21.01-6.51,25.37-12.24c4.36-5.72-3.51-42.32,18.81-52.08c15.46-6.76,25.47-3.08,30.16-0.18
					C697.99,915.32,701.66,919.28,701.54,921.61z"/>
			</g>
		</g>
	</g>
</g>
<g>
	<g>
		<g>
			<path class="st2" d="M1805.1,1523.72c0.5-10.64,5.05-37.15,5.05-37.15l27.72,2.82l-7.2,39.75l-20.05,10.18L1805.1,1523.72z"/>
			<path class="st11" d="M1803.57,1519c-2.83-0.98-1.91,1.94-3.43,6.26c-3.49,9.91-40.05,6.68-45.65,7.06
				c-2.89,0.2-8.99,14.67,5.17,15.97c12.24,1.12,51.44,4.87,64.85,6.01c2.8,0.24,5.44-1.45,6.4-4.13c3.4-9.57,4.28-24.84,0.58-25.52
				C1826.02,1522.3,1815.38,1523.09,1803.57,1519z"/>
		</g>
		<g>
			<path class="st2" d="M2095.2,1478.29c-10.04-3.47-34.15-15.32-34.15-15.32l10.3-25.95l36.05,18.12l4.23,22.2L2095.2,1478.29z"/>
			<path class="st11" d="M2090.27,1478.44c-1.72,2.46,1.33,2.38,5.05,5.07c8.52,6.15-4.61,40.51-5.78,46.02
				c-0.6,2.85,11.57,12.79,16.7-0.5c4.44-11.49,18.78-48.26,23.55-60.87c1-2.64,0.11-5.66-2.19-7.33
				c-8.22-5.97-22.58-11.11-24.25-7.73C2099.59,1457.71,2097.42,1468.19,2090.27,1478.44z"/>
		</g>
		<path class="st12" d="M1799.34,1510.15c2.46,0.49,4.8,0.93,7.01,1.31c13.53,2.41,22.36,3.04,26.94,3.19
			c2.54,0.08,3.77,0.02,3.77,0.02c5.97-18.79,14.56-131.38,26.47-152.93c10.43-18.88,31.95-58.04,47.34-86.07
			c9.69-17.64,16.95-30.88,17.52-31.89c0.02-0.02,0.02-0.03,0.02-0.04c0.01-0.01,0.01-0.01,0.01-0.01
			c2.42,43.58,2.14,69.34,12.05,116.24c17.1,61.54,135.55,120.25,135.55,120.25c2.01-2.51,3.84-5.08,5.46-7.63
			c6.15-9.61,9.6-19.05,10.76-25.08c0.78-4.04,0.54-6.53-0.59-6.5c-21.91-15.23-102.9-69.99-102.3-95.45
			c0.45-19.17,9.18-77.23,13.49-131.3c0.93-11.81,1.66-23.43,2.05-34.41c0-0.06,0-0.13,0.01-0.19c0.01-0.43,0.03-0.86,0.04-1.28
			c0.16-5,0.25-9.86,0.25-14.55c0-2.18-10.55-5.03-24.48-7.83c-27.07-5.43-66.94-10.7-66.94-10.7l-22.34-0.91
			c-22.13,42.02-64.86,183.63-71.4,206.26C1813.49,1373.32,1799.43,1502.3,1799.34,1510.15z"/>
		<path class="st13" d="M1910.87,1275.69c10.91-17.04,17.55-31.96,17.55-31.96c-0.48-13.07,0.01-28.23,0.01-28.23
			S1915.71,1254.17,1910.87,1275.69z"/>
	</g>
	<path class="st14" d="M1955.86,1158.99c2.04,5.46,6.54,10.65,12.01,15.29c14.59,12.42,36.07,21.04,36.07,21.04
		s0.52-7.24,0.93-15.46c0-0.06,0-0.13,0.01-0.19c0.02-0.42,0.04-0.85,0.06-1.27v-0.01c0.4-8.72,0.66-18.09,0.03-20.93
		c-0.61-2.8-12.41-2.49-24.28-1.44C1968.33,1157.11,1955.86,1158.99,1955.86,1158.99z"/>
</g>
<path class="st2" d="M1976.87,928.77c-2.05,9.38-0.08,34.1-4.27,43.79l-23.7-2.65c0,0-18.88-1.73-13.34-5.36
	c7.4-4.83,10.4-10.87,11.71-16.51c0.15-0.67,0.34-1.37,0.54-2.11c0.48-1.79,1.08-3.74,1.73-5.74c1.57-4.84,3.41-9.87,4.6-13.01
	c0.74-1.96,1.22-3.19,1.22-3.19l0.25-1.87l1.73-1.8l8.75-9.16C1966.07,911.16,1979.11,918.49,1976.87,928.77z"/>
<path class="st8" d="M1949.52,940.2c1.57-4.84,3.41-9.87,4.6-13.01c0.74-1.96,1.22-3.19,1.22-3.19l0.25-1.87l1.73-1.8l5.14-0.11
	c0,0,9.28,6.5,10.4,9.68C1974.51,934.56,1959.94,947.16,1949.52,940.2z"/>
<path class="st0" d="M1979.34,944.67c-9.65-4.74-16.43,15.43-24.82,14.59c-5.09-0.51-3.57-2.58-5.5-5.42
	c-1.19-1.75-2.25-3.66-5.01-1.62c-56.09,41.53-30.4,176.85-37.99,184.58c-6.2,6.32,30.61,29.33,56.7,27.57
	c35.78-2.42,40.79-41.47,41.15-49.04c0.36-7.57,1.34-137.13,1.34-137.13S1991.98,961.6,1979.34,944.67z"/>
<path class="st13" d="M1957.26,1173.11c0,0,24.04,31.89,45.57,41.16c0.93-11.81,1.66-23.43,2.05-34.41c0-0.06,0-0.13,0.01-0.19
	c0.02-0.42,0.04-0.85,0.06-1.27v-0.01h-0.02l-37.06-4.1L1957.26,1173.11z"/>
<path class="st15" d="M1789.43,994.56c7.07,4.63,26.61,28.18,52.84,27.4c38.36-1.14,37.05-11.48,47.62-2.48
	c10.57,9,8.08,34.51,6.91,50.49c-0.54,7.38-0.63,25.47-4.83,44.75c-3.82,17.56-13.7,29.35-9.78,37.18
	c6.99,13.97,23.6,22.41,30.92,17.61c12.57-8.24,4.81-56.72,17.2-101.22c9.58-34.4-2.28-57.83,6.61-86.09
	c6.73-21.38,7.1-29.98,7.1-29.98c-33.23,15.69-70.72,25.86-88.83,35.29c-16.95,8.82-54.57-26.69-60.27-21.53
	C1786.69,973.42,1789.43,994.56,1789.43,994.56z"/>
<path class="st16" d="M1789.43,994.56c7.07,4.63,26.61,28.18,52.84,27.4c38.36-1.14,37.05-11.48,47.62-2.48
	c10.57,9,8.08,34.51,6.91,50.49c-0.54,7.38-0.63,25.47-4.83,44.75c-3.82,17.56-13.7,29.35-9.78,37.18
	c6.99,13.97,23.6,22.41,30.92,17.61c12.57-8.24,4.81-56.72,17.2-101.22c9.58-34.4-2.28-57.83,6.61-86.09
	c6.73-21.38,7.1-29.98,7.1-29.98c-33.23,15.69-70.72,25.86-88.83,35.29c-16.95,8.82-54.57-26.69-60.27-21.53
	C1786.69,973.42,1789.43,994.56,1789.43,994.56z"/>
<path class="st17" d="M2020.7,1034.29c-0.84,6.22-1.59,11.21-2.27,15.42c-1.41,8.59-2.58,13.9-3.92,19.7
	c-1.13,4.91-2.38,10.2-3.99,18.13c-2.01,9.92,2.32,37.88,3.07,57.38c0.9,23.56,12.78,46.38,5.64,49.36
	c-16.73,7-51.46-4.35-61.97-21.19c-8.71-13.96,5.16-27.43,2.2-56.81c-1.22-12.09-2.56-31.18-2.33-48.21
	c0.07-5.94,0.34-11.62,0.87-16.67c0.38-3.63,0.82-7.36,1.31-11.16c5.07-39.61,15.25-85.8,17.98-96.22c0,0,21.04,10.19,36.67,34.93
	C2020.54,989.35,2023.28,1015.33,2020.7,1034.29z"/>
<path class="st18" d="M1994.32,1005.29c-4.02,8.5-22.7,75.5-36.25,89.04c-1.08-10.75-0.6-37.87-0.07-42.92
	c0.38-3.63,0.82-7.36,1.31-11.16l1.86-14.5L1994.32,1005.29z"/>
<g>
	<path class="st2" d="M1961,888.87c-5.97,5.98-23.32,12.41-18.96,16.06s-12.62,12.62-8.12,16.67c10.9,9.82,29.77,13.62,35.79,9.43
		c6.02-4.18,17.99-19.94,17.99-19.94L1961,888.87z"/>
	<path class="st2" d="M1968.9,931.51c-5.14,2.58-16.67,0.94-26.49-4.13c-3.09-1.6-6-3.53-8.5-5.78c-2.66-2.39,2.17-6.5,5.68-10.21
		c2.43-2.58,4.23-4.97,2.45-6.46c-2.34-1.97,1.59-4.73,6.66-7.8c3.68,0.66,8.21,2.06,13.17,3.89c7.89,2.92,16.87,6.93,25.26,10.83
		c-2.45,3.18-12.19,15.55-17.42,19.19C1969.45,931.21,1969.18,931.37,1968.9,931.51z"/>
	<path class="st11" d="M1967.32,904.79c-3.88-2.57-4.7-1.83-6.16-5.11c-1.47-3.29,5.7-3.08,1.73-7.74c-3.97-4.66-8.8-9.22-4.82-14.9
		c5.76-8.23,11.53-1.32,14.97,3.1c2.21,2.84,7.82-2.44,13,2.35c4.06,3.76,1.48,5.81,4.95,9.32c2.1,2.12,9.7,2.13,10.93,7.85
		c2.29,10.62-8.46,12.22-7.56,22.24c1.05,11.69-25.11,12.69-25.45,9.62c-0.39-3.59,8.08-7.64,7.35-10.88
		c-1.1-4.89-3.67-2.61-8.26-2.36c-4.91,0.27-10.08-3.83-2.64-6.07C1972.77,909.97,1970.83,907.12,1967.32,904.79z"/>
</g>
<path class="st19" d="M103.6,1550.34c0,8.62,509.55,18.62,1096.66,18.62s1063.06-6.99,1063.06-15.6c0-8.62-475.95-15.6-1063.06-15.6
	S103.6,1541.73,103.6,1550.34z"/>
<g>
	<path class="st20" d="M2143.91,313.71v148.18c0,31.6-28.13,57.21-62.83,57.21H518.14c-34.7,0-62.83-25.62-62.83-57.21V313.71
		c0-31.6,28.13-57.21,62.83-57.21h1562.94C2115.78,256.49,2143.91,282.11,2143.91,313.71z"/>
	<path class="st0" d="M2143.91,313.71v148.18c0,31.6-28.13,57.21-62.83,57.21H518.14c-34.7,0-62.83-25.62-62.83-57.21V313.71
		c0-31.6,28.13-57.21,62.83-57.21h1562.94C2115.78,256.49,2143.91,282.11,2143.91,313.71z"/>
	<path class="st21" d="M2143.91,313.71v148.18c0,31.6-28.13,57.21-62.83,57.21h-227.54V256.49h227.54
		C2115.78,256.49,2143.91,282.11,2143.91,313.71z"/>
	<path class="st12" d="M2144.59,313.71v148.18c0,31.6-28.2,57.21-62.98,57.21h-228.07V256.49h228.07
		C2116.39,256.49,2144.59,282.11,2144.59,313.71z"/>
	<path class="st17" d="M2138.43,313.71v148.18c0,31.6-27.6,57.21-61.65,57.21h-223.25V256.49h223.25
		C2110.83,256.49,2138.43,282.11,2138.43,313.71z"/>
	<g>
		<path class="st0" d="M2080.25,481.88c-0.85,2.77-3.41,4.71-8.78,2.56c-0.13-0.05-0.27-0.12-0.42-0.2
			c-11.06-5.66-54.45-61.48-68.98-74.65c-0.53-0.48-1-0.9-1.39-1.26c-0.48-0.44-0.86-0.78-1.12-1.01c-0.16-0.14-0.27-0.24-0.35-0.31
			c-0.02-0.02-0.04-0.03-0.05-0.04c-0.66-0.54-0.59-1.62-0.09-2.83c0-0.01,0.01-0.02,0.01-0.03c0.52-1.23,1.48-2.62,2.58-3.75
			c1.77-1.82,3.91-2.99,5.17-1.89c0.04,0.04,0.11,0.09,0.19,0.16c0.01,0.01,0.03,0.03,0.05,0.04c0.52,0.45,1.75,1.56,3.57,3.22
			c18.21,16.58,65.01,69.33,68.34,72.62C2080.32,475.83,2081.07,479.23,2080.25,481.88z"/>
		<path class="st22" d="M2080.25,481.88c-0.85,2.77-3.41,4.71-8.78,2.56c-0.13-0.05-0.27-0.12-0.42-0.2
			c-11.06-5.66-54.45-61.48-68.98-74.65c-1.18-1.07-2.03-1.84-2.52-2.27c-0.16-0.14-0.27-0.24-0.35-0.31
			c-0.02-0.02-0.04-0.03-0.05-0.04c-0.66-0.55-0.59-1.64-0.07-2.86C2012.62,416.22,2061.36,475.31,2080.25,481.88z"/>
		<path class="st22" d="M2010.64,401.88c-2.38,1.53-6.94,5.26-9.96,6.45c-0.48-0.44-0.86-0.78-1.12-1.01
			c-0.16-0.14-0.27-0.24-0.35-0.31c-0.02-0.02-0.04-0.03-0.05-0.04c-0.66-0.54-0.59-1.62-0.09-2.83l7.12-5.25l0.88-0.23
			C2007.58,399.11,2008.82,400.22,2010.64,401.88z"/>
		<g>
			<path class="st0" d="M2024.39,359.01c-3.02-27.31-27.67-46.65-55.06-43.18c-3.74,0.48-7.33,1.35-10.75,2.58
				c-1.3,0.47-2.59,0.99-3.85,1.56c-0.42,0.19-0.85,0.39-1.26,0.6c-0.19,0.09-0.37,0.18-0.55,0.27c-0.5,0.24-0.99,0.5-1.47,0.77
				c-0.33,0.17-0.65,0.35-0.97,0.54c-0.54,0.31-1.06,0.62-1.58,0.95c-0.1,0.06-0.21,0.13-0.31,0.19c-0.05,0.02-0.09,0.05-0.13,0.08
				c-0.39,0.24-0.76,0.49-1.14,0.75c-0.02,0.01-0.03,0.02-0.05,0.03c-0.45,0.31-0.9,0.62-1.34,0.94c-0.36,0.26-0.72,0.52-1.06,0.8
				c-0.18,0.13-0.36,0.27-0.54,0.41c-1.16,0.91-2.27,1.87-3.34,2.88c-0.12,0.11-0.25,0.23-0.37,0.35c-0.05,0.03-0.09,0.08-0.13,0.13
				c-0.18,0.16-0.35,0.34-0.53,0.52c-0.09,0.07-0.18,0.16-0.26,0.26c-0.1,0.1-0.2,0.2-0.31,0.31c-0.34,0.34-0.67,0.68-0.99,1.04
				c-0.35,0.37-0.69,0.76-1.03,1.14c-0.32,0.36-0.64,0.74-0.94,1.12c-0.18,0.22-0.35,0.43-0.52,0.65c-0.31,0.39-0.63,0.8-0.93,1.21
				c-0.04,0.05-0.07,0.1-0.1,0.14c-0.28,0.38-0.56,0.76-0.83,1.15c-0.29,0.4-0.57,0.82-0.85,1.24c-0.28,0.43-0.56,0.86-0.83,1.3
				c-0.01,0.02-0.02,0.03-0.02,0.04c-0.29,0.48-0.58,0.96-0.85,1.45c-0.34,0.59-0.66,1.18-0.97,1.79c-0.21,0.39-0.4,0.79-0.6,1.18
				c-0.01,0-0.01,0.01-0.01,0.02c-0.23,0.48-0.46,0.97-0.68,1.45c-0.01,0.02-0.02,0.04-0.02,0.06c-0.23,0.52-0.45,1.03-0.66,1.55
				c-0.36,0.88-0.69,1.77-1,2.68c-0.08,0.23-0.16,0.47-0.23,0.7c-0.11,0.35-0.23,0.69-0.32,1.04c-0.08,0.26-0.15,0.52-0.23,0.77
				c-0.01,0.01-0.01,0.01-0.01,0.02c-0.05,0.18-0.1,0.35-0.14,0.52c-0.02,0.02-0.02,0.03-0.02,0.05c-0.07,0.27-0.14,0.53-0.22,0.8
				c-0.08,0.33-0.16,0.66-0.23,1c-0.06,0.24-0.12,0.49-0.17,0.75c-0.08,0.37-0.16,0.73-0.23,1.11c-0.04,0.17-0.07,0.35-0.1,0.52
				c-0.02,0.05-0.02,0.1-0.02,0.15c-0.06,0.27-0.1,0.54-0.14,0.81c-0.01,0.02-0.02,0.06-0.02,0.09c-0.06,0.33-0.1,0.67-0.15,1
				c-0.01,0.01-0.01,0.01,0,0.02c-0.02,0.07-0.03,0.15-0.03,0.23c-0.04,0.28-0.08,0.56-0.1,0.84c-0.02,0.11-0.03,0.23-0.04,0.35
				c-0.06,0.48-0.1,0.95-0.14,1.42c-0.24,3.09-0.2,6.25,0.15,9.43c0.26,2.32,0.67,4.58,1.22,6.77c6,23.66,28.77,39.58,53.84,36.41
				c4.07-0.52,7.98-1.51,11.66-2.91c2.63-1,5.15-2.21,7.54-3.61c0.22-0.13,0.43-0.26,0.64-0.39h0.01c0.59-0.35,1.16-0.71,1.72-1.09
				c2.69-1.77,5.2-3.8,7.49-6.04C2020.13,390.17,2026.16,374.99,2024.39,359.01z M1988.23,403.06c-0.29,0.1-0.59,0.2-0.88,0.3
				c-0.31,0.1-0.6,0.19-0.91,0.28c-0.15,0.05-0.31,0.1-0.46,0.14c-0.38,0.1-0.76,0.21-1.15,0.31c-0.01,0.01-0.02,0.02-0.03,0.01
				l-0.58,0.15c-0.19,0.05-0.39,0.1-0.58,0.14c-0.26,0.06-0.52,0.11-0.77,0.16c-0.48,0.1-0.96,0.19-1.44,0.27
				c-0.47,0.08-0.96,0.14-1.44,0.21c-0.43,0.06-0.85,0.1-1.26,0.14c-1.57,0.15-3.13,0.21-4.68,0.16c-0.2,0-0.39-0.01-0.6-0.02h-0.06
				c-0.3-0.01-0.6-0.02-0.89-0.05c-0.14-0.01-0.29-0.02-0.43-0.03c-0.17,0-0.34-0.02-0.51-0.04c-0.09,0-0.19-0.01-0.27-0.02
				c-0.02,0.01-0.03,0.01-0.05,0c-0.38-0.03-0.76-0.08-1.13-0.12c-0.42-0.06-0.85-0.11-1.26-0.18c-0.8-0.12-1.59-0.27-2.37-0.45
				c-0.39-0.08-0.78-0.18-1.17-0.28c-0.48-0.12-0.96-0.25-1.43-0.39c-0.48-0.14-0.94-0.29-1.41-0.45c-0.47-0.15-0.93-0.32-1.39-0.5
				c-0.46-0.17-0.92-0.35-1.37-0.55c-0.39-0.17-0.78-0.34-1.17-0.52c-0.04-0.02-0.08-0.04-0.13-0.06c-0.02-0.01-0.03-0.02-0.05-0.02
				c-0.44-0.21-0.88-0.42-1.31-0.65c-0.48-0.25-0.97-0.52-1.44-0.78c-0.36-0.2-0.72-0.42-1.08-0.64c-0.01-0.01-0.02-0.02-0.03-0.02
				c-0.11-0.06-0.23-0.14-0.34-0.21c-0.02,0-0.02-0.01-0.02-0.02c-0.2-0.13-0.4-0.26-0.6-0.39c-0.16-0.1-0.32-0.21-0.48-0.32
				c-0.33-0.23-0.66-0.45-0.99-0.69c-0.39-0.27-0.76-0.56-1.14-0.85c-0.43-0.35-0.85-0.69-1.27-1.05c-0.02-0.02-0.06-0.05-0.09-0.07
				c-0.09-0.07-0.18-0.15-0.27-0.23c-0.21-0.18-0.42-0.37-0.63-0.56c-0.42-0.38-0.83-0.77-1.24-1.18c-0.01-0.01-0.02-0.02-0.04-0.04
				c-0.62-0.62-1.22-1.26-1.8-1.92c-0.27-0.29-0.52-0.6-0.77-0.91c-0.31-0.37-0.61-0.75-0.9-1.14c-0.12-0.15-0.23-0.31-0.35-0.46
				c-0.24-0.32-0.48-0.64-0.7-0.97c-0.54-0.76-1.05-1.55-1.52-2.36c-0.06-0.11-0.14-0.23-0.2-0.35c-0.21-0.36-0.41-0.72-0.61-1.09
				c-0.01-0.02-0.02-0.03-0.02-0.04c-0.23-0.42-0.44-0.85-0.66-1.29c0,0,0,0,0-0.01c-0.23-0.45-0.43-0.9-0.64-1.36
				c-0.21-0.46-0.4-0.93-0.59-1.39c-0.19-0.47-0.37-0.94-0.54-1.42c-0.2-0.56-0.39-1.14-0.56-1.71c-0.1-0.32-0.19-0.64-0.28-0.97
				c-0.02-0.02-0.02-0.05-0.02-0.08c-0.06-0.24-0.13-0.48-0.19-0.72c-0.1-0.39-0.2-0.79-0.29-1.18c-0.07-0.31-0.15-0.64-0.2-0.97
				c-0.04-0.18-0.07-0.35-0.1-0.53c-0.01-0.03-0.02-0.07-0.02-0.11c-0.07-0.41-0.14-0.83-0.2-1.24c-0.08-0.52-0.15-1.04-0.21-1.57
				v-0.02c-0.19-1.67-0.27-3.32-0.25-4.96c0-0.23,0.01-0.46,0.02-0.69c0-0.11,0-0.23,0.01-0.34c0-0.11,0.01-0.23,0.02-0.35
				c0.02-0.31,0.03-0.61,0.06-0.91c0.02-0.25,0.03-0.5,0.06-0.76c0.02-0.25,0.04-0.5,0.07-0.75c0.02-0.23,0.05-0.45,0.07-0.67
				c0.03-0.27,0.07-0.56,0.1-0.82c0.04-0.27,0.08-0.53,0.12-0.79c0.06-0.31,0.1-0.61,0.16-0.91c0.1-0.51,0.2-1.01,0.31-1.51
				c0.12-0.55,0.26-1.09,0.4-1.63c0.14-0.48,0.27-0.94,0.42-1.42c0.1-0.33,0.2-0.67,0.32-1c0.08-0.27,0.18-0.53,0.27-0.79
				c0.19-0.52,0.38-1.03,0.59-1.55c0.01-0.01,0.01-0.01,0.01-0.02c0.19-0.46,0.38-0.92,0.59-1.37c0.04-0.1,0.09-0.19,0.13-0.28
				c0.19-0.39,0.36-0.78,0.56-1.17c0.03-0.08,0.08-0.16,0.12-0.25c0.24-0.48,0.5-0.97,0.76-1.43c0.27-0.48,0.55-0.97,0.84-1.43
				c0.29-0.47,0.58-0.93,0.89-1.39c0.3-0.46,0.62-0.92,0.95-1.36c0.32-0.45,0.65-0.89,1-1.32c0.24-0.31,0.48-0.61,0.74-0.91
				c0.16-0.19,0.33-0.39,0.5-0.58c0.14-0.17,0.29-0.34,0.44-0.51c0.32-0.35,0.65-0.7,0.98-1.05c0.14-0.15,0.28-0.3,0.43-0.44
				c0.14-0.14,0.28-0.28,0.42-0.42c0.02-0.02,0.02-0.03,0.04-0.04c0.19-0.19,0.4-0.39,0.6-0.57c0.21-0.2,0.42-0.39,0.64-0.59
				c0.58-0.52,1.18-1.02,1.79-1.51c0,0,0,0,0.01,0c0.31-0.25,0.61-0.48,0.93-0.72c0.25-0.19,0.5-0.37,0.75-0.56
				c0.39-0.27,0.78-0.54,1.18-0.81c0.33-0.22,0.65-0.43,0.99-0.64c0.67-0.42,1.35-0.81,2.04-1.19c0.11-0.06,0.23-0.13,0.35-0.19
				c1.22-0.64,2.46-1.23,3.75-1.75c0.18-0.07,0.35-0.14,0.53-0.21c1.28-0.5,2.58-0.93,3.93-1.3c0.2-0.06,0.4-0.11,0.6-0.16
				c0.2-0.06,0.4-0.1,0.6-0.14c0.19-0.05,0.37-0.09,0.56-0.13c0.03-0.02,0.06-0.02,0.1-0.02c0.29-0.07,0.58-0.13,0.87-0.19
				c0.91-0.19,1.84-0.33,2.79-0.45c0.1-0.02,0.21-0.02,0.32-0.04c0.42-0.05,0.84-0.1,1.26-0.13c0.33-0.02,0.66-0.06,0.98-0.07
				c0.06-0.01,0.11-0.01,0.17-0.01c0.15-0.01,0.3-0.02,0.45-0.02c0.35-0.02,0.7-0.03,1.05-0.04c0.43-0.01,0.85-0.01,1.27,0h0.01
				c0.33,0,0.66,0.01,0.99,0.02c0.33,0.01,0.66,0.02,0.99,0.05c0.41,0.02,0.83,0.06,1.25,0.1c0.35,0.04,0.71,0.07,1.06,0.12
				c0.52,0.06,1.03,0.14,1.55,0.23c0.21,0.03,0.41,0.06,0.61,0.1c0.31,0.05,0.61,0.11,0.92,0.18c0.44,0.09,0.88,0.19,1.3,0.29
				c0.57,0.14,1.14,0.29,1.7,0.45c0.65,0.19,1.29,0.39,1.92,0.61c0.47,0.16,0.93,0.34,1.4,0.52c0.45,0.19,0.89,0.36,1.33,0.56
				c0.14,0.06,0.27,0.11,0.41,0.18c0.23,0.1,0.44,0.2,0.66,0.31c0.6,0.27,1.18,0.57,1.76,0.88c0.33,0.18,0.66,0.36,0.99,0.55
				c0.35,0.2,0.68,0.4,1.03,0.61c0.34,0.21,0.68,0.43,1.01,0.64c0.23,0.14,0.45,0.29,0.67,0.44c0.23,0.16,0.47,0.32,0.69,0.48
				c0.01,0,0.01,0.01,0.01,0.01c0.19,0.13,0.37,0.27,0.55,0.39c0.25,0.19,0.49,0.37,0.74,0.56c0.3,0.23,0.59,0.48,0.88,0.72
				c0.02,0.02,0.05,0.03,0.07,0.06c0.14,0.11,0.28,0.23,0.41,0.35c0.22,0.19,0.44,0.38,0.66,0.58c0.1,0.08,0.19,0.17,0.28,0.26
				c0.04,0.03,0.08,0.07,0.12,0.11c0.27,0.24,0.53,0.49,0.79,0.74c0.24,0.23,0.48,0.48,0.72,0.72c0.2,0.21,0.4,0.42,0.6,0.64
				c0.17,0.18,0.33,0.35,0.49,0.53c0.23,0.26,0.47,0.52,0.68,0.79c0.14,0.15,0.27,0.31,0.39,0.47c0.19,0.23,0.39,0.47,0.57,0.71
				c0.19,0.24,0.38,0.48,0.56,0.73c0.51,0.66,0.98,1.34,1.43,2.03c0.12,0.19,0.25,0.39,0.37,0.59c0.05,0.06,0.09,0.13,0.12,0.19
				c0.15,0.23,0.3,0.48,0.44,0.72c0.23,0.39,0.47,0.79,0.68,1.2c0.18,0.31,0.34,0.63,0.51,0.95c0.02,0.04,0.04,0.09,0.06,0.13
				c0.13,0.26,0.27,0.52,0.39,0.79c0.1,0.2,0.19,0.4,0.28,0.6c0.07,0.16,0.14,0.32,0.22,0.48c0.13,0.29,0.26,0.58,0.38,0.88
				c0.02,0.05,0.04,0.1,0.06,0.14c0.12,0.3,0.24,0.6,0.35,0.89c0.08,0.2,0.15,0.4,0.23,0.6c0.12,0.33,0.24,0.66,0.35,0.99
				c0.11,0.33,0.22,0.67,0.32,1.01c0.06,0.19,0.12,0.39,0.18,0.6c0.09,0.29,0.17,0.58,0.24,0.88c0.23,0.88,0.44,1.77,0.61,2.68
				c0.06,0.29,0.1,0.58,0.15,0.87c0.14,0.76,0.24,1.55,0.33,2.33c0.22,1.96,0.29,3.9,0.23,5.83c-0.02,0.44-0.03,0.89-0.06,1.32
				c-0.02,0.37-0.06,0.74-0.09,1.1c-0.02,0.23-0.04,0.45-0.07,0.68c-0.02,0.21-0.04,0.41-0.07,0.61c-0.02,0.21-0.05,0.41-0.08,0.61
				c-0.02,0.23-0.06,0.46-0.1,0.68c-0.07,0.43-0.14,0.86-0.23,1.29c-0.02,0.12-0.05,0.23-0.07,0.35c-0.1,0.5-0.21,1-0.33,1.5
				c-0.09,0.38-0.19,0.75-0.29,1.13c-0.05,0.22-0.11,0.43-0.18,0.64l-0.17,0.58c-0.2,0.67-0.43,1.33-0.65,1.97
				c0,0.01-0.01,0.01-0.01,0.02c-0.08,0.23-0.17,0.44-0.25,0.67c-0.14,0.35-0.27,0.71-0.42,1.05c-0.07,0.18-0.14,0.35-0.23,0.52
				c-0.07,0.18-0.14,0.35-0.23,0.52c-0.05,0.13-0.1,0.25-0.17,0.37c-0.21,0.48-0.44,0.96-0.68,1.42c-0.03,0.08-0.07,0.17-0.12,0.25
				c-0.14,0.27-0.28,0.54-0.43,0.8c-0.18,0.33-0.36,0.65-0.55,0.97c-0.27,0.46-0.54,0.91-0.82,1.36c-0.16,0.26-0.32,0.51-0.49,0.76
				c-0.47,0.72-0.96,1.41-1.48,2.09c-0.19,0.27-0.39,0.52-0.6,0.77c-0.4,0.51-0.81,1.01-1.25,1.5c-0.23,0.27-0.46,0.52-0.69,0.78
				c-0.18,0.19-0.35,0.39-0.54,0.58c-0.18,0.19-0.36,0.38-0.56,0.56c-0.25,0.26-0.51,0.51-0.76,0.76c-0.18,0.17-0.35,0.33-0.53,0.5
				c-0.44,0.41-0.89,0.81-1.35,1.19c-0.23,0.19-0.46,0.39-0.7,0.58c-0.16,0.13-0.32,0.27-0.49,0.39c-0.17,0.14-0.33,0.27-0.5,0.39
				c-0.19,0.14-0.37,0.28-0.56,0.41c-0.09,0.06-0.18,0.13-0.27,0.2c-0.19,0.14-0.37,0.27-0.56,0.39c-0.18,0.13-0.35,0.25-0.53,0.36
				c-0.28,0.19-0.58,0.39-0.87,0.57c-0.64,0.4-1.28,0.78-1.93,1.14c-0.23,0.13-0.46,0.26-0.69,0.38c-0.11,0.06-0.22,0.12-0.33,0.18
				c-0.32,0.17-0.64,0.33-0.97,0.48c-0.31,0.15-0.64,0.31-0.96,0.45c-0.39,0.18-0.78,0.35-1.18,0.52c-0.33,0.13-0.65,0.27-0.98,0.39
				C1988.95,402.8,1988.59,402.93,1988.23,403.06z"/>
			<path class="st23" d="M1958.58,318.41c-0.2,4.17-0.62,8.76-1.55,13.36c-0.08,0.04-0.17,0.09-0.25,0.13
				c-0.08,0.04-0.17,0.09-0.25,0.13c-0.08,0.04-0.16,0.09-0.25,0.13c-0.17,0.09-0.34,0.19-0.51,0.28c-0.07,0.04-0.15,0.09-0.22,0.13
				c-0.08,0.05-0.16,0.09-0.24,0.14c-0.07,0.04-0.14,0.08-0.2,0.12c-0.22,0.13-0.43,0.26-0.64,0.39c-0.11,0.07-0.22,0.14-0.33,0.21
				c-0.24,0.15-0.48,0.31-0.72,0.47c-0.07,0.05-0.15,0.1-0.22,0.15c-0.15,0.11-0.31,0.21-0.46,0.32c-0.08,0.05-0.15,0.11-0.23,0.16
				c-0.1,0.07-0.21,0.15-0.31,0.22c-0.12,0.09-0.24,0.17-0.35,0.26c0,0-0.01,0.01-0.01,0.01c-0.12,0.09-0.23,0.18-0.35,0.26
				c-0.11,0.08-0.21,0.16-0.31,0.24c-0.09,0.07-0.19,0.15-0.28,0.22c-0.05,0.04-0.1,0.08-0.15,0.12c-0.07,0.06-0.14,0.12-0.22,0.17
				c-0.07,0.06-0.14,0.12-0.21,0.18c-0.29,0.24-0.58,0.49-0.86,0.74c-0.05,0.05-0.11,0.1-0.16,0.14c-0.09,0.08-0.18,0.16-0.27,0.24
				c-0.1,0.09-0.2,0.18-0.3,0.27c-0.09,0.08-0.18,0.17-0.27,0.25c-0.27,0.25-0.53,0.51-0.79,0.77c-0.08,0.08-0.15,0.16-0.23,0.24
				c-0.1,0.1-0.2,0.2-0.3,0.3c-0.08,0.09-0.17,0.18-0.25,0.26c-0.06,0.06-0.12,0.13-0.18,0.19c-0.09,0.09-0.17,0.19-0.26,0.28
				c-0.08,0.09-0.16,0.17-0.24,0.26c-0.09,0.1-0.17,0.2-0.26,0.29c-0.04,0.05-0.08,0.1-0.12,0.14c-0.14,0.16-0.27,0.32-0.41,0.48
				c-0.06,0.07-0.11,0.14-0.17,0.2c-0.24,0.3-0.49,0.6-0.72,0.9c-0.05,0.06-0.09,0.12-0.14,0.18c-0.06,0.07-0.11,0.15-0.17,0.22
				c-0.05,0.06-0.09,0.12-0.13,0.18c-0.06,0.07-0.11,0.15-0.17,0.22c-0.06,0.09-0.13,0.17-0.19,0.26c-0.01,0.01-0.01,0.02-0.02,0.03
				c-0.04,0.06-0.09,0.12-0.13,0.18c-0.22,0.31-0.44,0.62-0.65,0.93c-0.03,0.05-0.07,0.1-0.1,0.15c-0.06,0.1-0.13,0.19-0.19,0.29
				c-0.08,0.13-0.16,0.25-0.24,0.38c-0.07,0.1-0.13,0.21-0.19,0.31c-0.07,0.11-0.13,0.21-0.2,0.32c-0.03,0.05-0.06,0.1-0.1,0.16
				c-0.01,0.02-0.03,0.05-0.04,0.07c-0.06,0.1-0.12,0.2-0.18,0.3c-0.08,0.13-0.15,0.26-0.23,0.39c-0.13,0.22-0.25,0.45-0.38,0.68
				c-0.04,0.08-0.09,0.16-0.13,0.24c-0.19,0.36-0.38,0.73-0.56,1.1c-0.06,0.13-0.13,0.26-0.19,0.39c-0.07,0.14-0.13,0.27-0.19,0.41
				c-0.06,0.14-0.13,0.27-0.19,0.41c-0.06,0.14-0.12,0.28-0.18,0.41c0,0.01-0.01,0.02-0.01,0.02c-0.06,0.13-0.11,0.26-0.16,0.38
				c-0.06,0.14-0.12,0.28-0.18,0.43c-0.1,0.24-0.19,0.49-0.29,0.73c-0.02,0.04-0.03,0.09-0.05,0.13c-0.11,0.28-0.21,0.56-0.3,0.84
				c-0.05,0.14-0.1,0.29-0.15,0.43c-0.05,0.14-0.1,0.29-0.14,0.43c0,0,0,0,0,0c-0.04,0.12-0.08,0.24-0.11,0.36
				c-0.05,0.17-0.11,0.34-0.16,0.51c-0.04,0.14-0.09,0.29-0.13,0.44c-0.05,0.16-0.09,0.32-0.13,0.48c-0.03,0.12-0.06,0.24-0.09,0.35
				c-0.01,0.04-0.02,0.07-0.03,0.11c-0.02,0.1-0.05,0.19-0.07,0.29c-0.01,0.05-0.03,0.11-0.04,0.16c-0.07,0.27-0.13,0.55-0.19,0.83
				c-0.03,0.15-0.06,0.3-0.1,0.45c-0.03,0.12-0.05,0.24-0.07,0.36c-0.01,0.05-0.02,0.1-0.03,0.16c-0.03,0.13-0.05,0.26-0.07,0.39
				c0,0,0,0,0,0c-0.03,0.15-0.05,0.3-0.08,0.45c-0.02,0.13-0.04,0.26-0.06,0.38c-3.42,1.39-7.37,2.29-11.95,2.59
				c1.45-18.41,13.03-34.6,29.68-42.17C1955.99,319.4,1957.27,318.88,1958.58,318.41z"/>
			<path class="st24" d="M2013.79,358.91c2.17,19.58-9.89,37.66-27.86,43.6c-1.65,0.54-3.36,0.97-5.11,1.29l-7.37-0.74l-1.85,1.01
				c0.14,0.12,0.31,0.25,0.5,0.37c-7.84-0.29-15.18-2.91-21.28-7.26c0.65,0.57,1.32,1.13,2.01,1.66c-2.6-1.58-5.01-3.45-7.18-5.59
				c-4.61-4.52-8.14-10.19-10.14-16.65c-0.01-0.02-0.01-0.05-0.02-0.07c-0.74-2.4-1.26-4.91-1.55-7.5c-0.41-3.67-0.31-7.3,0.23-10.8
				c0.02-0.14,0.04-0.28,0.07-0.42c0.03-0.16,0.05-0.33,0.08-0.49c0,0,0,0,0,0c0.03-0.14,0.05-0.28,0.08-0.43
				c0.01-0.06,0.02-0.11,0.03-0.17c0.02-0.13,0.05-0.26,0.08-0.39c0.03-0.16,0.07-0.33,0.1-0.49c0.06-0.3,0.13-0.6,0.2-0.9
				c0.01-0.06,0.03-0.12,0.04-0.17c0.02-0.1,0.05-0.21,0.08-0.31c0.01-0.04,0.02-0.08,0.03-0.12c0.03-0.13,0.07-0.26,0.1-0.38
				c0.05-0.18,0.09-0.35,0.14-0.53c0.04-0.16,0.09-0.32,0.14-0.47c0.05-0.18,0.11-0.37,0.17-0.55c0.04-0.13,0.08-0.26,0.12-0.39
				c0,0,0,0,0,0c0.05-0.16,0.1-0.32,0.15-0.47c0.05-0.16,0.1-0.31,0.16-0.47c0.11-0.3,0.21-0.61,0.33-0.91
				c0.02-0.05,0.04-0.1,0.05-0.15c0.1-0.26,0.2-0.53,0.31-0.79c0.06-0.16,0.13-0.31,0.19-0.46c0.06-0.14,0.12-0.28,0.18-0.42
				c0-0.01,0.01-0.02,0.01-0.03c0.06-0.15,0.13-0.3,0.2-0.45c0.07-0.15,0.13-0.3,0.2-0.45c0.07-0.15,0.14-0.3,0.21-0.45
				c0.07-0.14,0.13-0.28,0.2-0.42c0.19-0.4,0.4-0.8,0.6-1.19c0.05-0.09,0.09-0.18,0.14-0.26c0.13-0.25,0.27-0.49,0.4-0.74
				c0.08-0.14,0.16-0.28,0.24-0.43c0.06-0.11,0.13-0.22,0.19-0.33c0.01-0.03,0.03-0.05,0.04-0.07c0.03-0.06,0.07-0.11,0.1-0.17
				c0.07-0.12,0.14-0.23,0.21-0.35c0.07-0.11,0.14-0.22,0.21-0.34c0.09-0.14,0.17-0.28,0.26-0.41c0.07-0.11,0.14-0.21,0.21-0.32
				c0.04-0.06,0.07-0.11,0.11-0.16c0.22-0.34,0.46-0.68,0.69-1.02c0.05-0.07,0.09-0.13,0.14-0.2c0.01-0.01,0.02-0.02,0.02-0.03
				c0.07-0.09,0.14-0.19,0.2-0.28c0.06-0.08,0.12-0.16,0.18-0.24c0.05-0.07,0.1-0.13,0.15-0.2c0.06-0.08,0.12-0.16,0.18-0.24
				c0.05-0.07,0.1-0.13,0.15-0.2c0.25-0.33,0.51-0.66,0.78-0.98c0.06-0.07,0.12-0.15,0.18-0.22c0.14-0.17,0.29-0.35,0.44-0.52
				c0.04-0.05,0.09-0.1,0.13-0.16c0.09-0.11,0.18-0.21,0.28-0.32c0.08-0.1,0.17-0.19,0.25-0.28c0.09-0.1,0.19-0.2,0.28-0.31
				c0.06-0.07,0.13-0.14,0.19-0.21c0.09-0.1,0.18-0.19,0.27-0.29c0.11-0.11,0.21-0.22,0.32-0.33c0.08-0.08,0.17-0.17,0.25-0.26
				c0.28-0.28,0.56-0.56,0.85-0.84c0.1-0.09,0.19-0.18,0.29-0.28c0.11-0.1,0.21-0.2,0.32-0.3c0.1-0.09,0.19-0.18,0.29-0.26
				c0.06-0.05,0.12-0.11,0.17-0.16c0.3-0.27,0.61-0.54,0.93-0.8c0.08-0.07,0.15-0.13,0.23-0.19c0.08-0.06,0.15-0.13,0.23-0.19
				c0.05-0.04,0.11-0.09,0.16-0.13c0.1-0.08,0.2-0.16,0.3-0.24c0.11-0.09,0.22-0.18,0.34-0.27c0.12-0.1,0.25-0.19,0.37-0.29
				c0.01,0,0.01-0.01,0.02-0.01c0.13-0.09,0.25-0.19,0.38-0.28c0.11-0.08,0.22-0.16,0.33-0.24c0.08-0.06,0.16-0.12,0.24-0.17
				c0.16-0.12,0.33-0.23,0.49-0.35c0.08-0.05,0.16-0.11,0.23-0.16c0.26-0.17,0.52-0.35,0.78-0.51c0.12-0.08,0.24-0.15,0.36-0.23
				c0.23-0.14,0.46-0.29,0.69-0.43c0.07-0.04,0.14-0.09,0.22-0.13c0.09-0.05,0.17-0.1,0.26-0.15c0.08-0.05,0.16-0.09,0.24-0.14
				c0.18-0.1,0.36-0.21,0.55-0.31c0.09-0.05,0.18-0.1,0.26-0.15c0.09-0.05,0.18-0.1,0.27-0.14s0.18-0.09,0.27-0.14
				c0.41-0.22,0.82-0.42,1.24-0.62c-0.12,0.06-0.24,0.12-0.36,0.17c-0.24,0.12-0.47,0.24-0.71,0.36c-0.12,0.06-0.23,0.12-0.35,0.19
				c-7.49,4.01-13.53,10.29-17.3,17.83c-0.03,0.06-0.06,0.12-0.09,0.17c-3.36,6.79-4.88,14.58-3.99,22.62
				c1.24,11.22,6.94,20.78,15.12,27.12c0.41,0.31,0.82,0.62,1.23,0.92c-3.35-2.95-6.21-6.47-8.43-10.45
				c-0.03-0.06-0.06-0.11-0.09-0.17c-2.31-4.2-3.9-8.9-4.58-13.96c-0.04-0.33-0.08-0.65-0.12-0.98
				c-2.44-22.11,13.34-42.28,35.27-45.05c10.24-1.3,20.02,1.43,27.77,6.97c-4.94-4.34-10.94-7.43-17.5-8.87
				c7.2,1.56,13.74,5.1,18.96,10.1c-0.37-0.29-0.75-0.57-1.13-0.84c5.22,4.59,9.25,10.58,11.5,17.5
				C2012.92,353.55,2013.49,356.18,2013.79,358.91z"/>
			<path class="st25" d="M1985.93,402.51c-1.62,0.53-3.28,0.97-4.99,1.3c-0.86,0.17-1.74,0.31-2.62,0.42
				c-2.04,0.26-4.07,0.36-6.06,0.31c-7.04-0.18-13.69-2.22-19.43-5.71c-0.69-0.53-1.36-1.08-2.01-1.66
				c6.1,4.35,13.44,6.97,21.28,7.26c2.13,0.08,4.3-0.01,6.49-0.29c0.75-0.1,1.5-0.21,2.23-0.35
				C1982.57,403.48,1984.27,403.05,1985.93,402.51z"/>
			<path class="st25" d="M2000.31,333.15c-7.75-5.54-17.52-8.27-27.77-6.97c-21.92,2.78-37.71,22.95-35.27,45.05
				c1.14,10.33,6.06,19.26,13.22,25.55c-8.84-6.31-15.05-16.26-16.35-28.03c-1.96-17.76,7.84-34.28,23.15-41.52
				c0.15-0.07,0.3-0.14,0.45-0.21c3.62-1.65,7.54-2.79,11.67-3.31c3.96-0.5,7.85-0.4,11.59,0.22c0.13,0.02,0.27,0.05,0.4,0.07
				c0.09,0.02,0.17,0.03,0.26,0.05c0.17,0.03,0.34,0.06,0.51,0.1C1988.98,325.52,1995.21,328.66,2000.31,333.15z"/>
			<path class="st25" d="M2012.13,351.04c-2.24-6.91-6.27-12.91-11.5-17.5c0.38,0.27,0.76,0.55,1.13,0.84
				C2006.45,338.88,2010.07,344.56,2012.13,351.04z"/>
			<path class="st26" d="M2000.31,333.15c-7.75-5.54-17.52-8.27-27.77-6.97c-21.92,2.78-37.71,22.95-35.27,45.05
				c1.14,10.33,6.32,19.72,13.48,26.01c-9.43-6.08-15.47-16.39-16.77-28.17c-1.96-17.76,8.01-34.6,23.31-41.85
				c0.15-0.07,0.3-0.14,0.45-0.21c3.62-1.66,7.53-2.8,11.67-3.32c3.96-0.5,7.86-0.4,11.59,0.23c0.13,0.02,0.27,0.05,0.4,0.07
				c0.09,0.02,0.17,0.03,0.26,0.05c0.17,0.03,0.34,0.06,0.51,0.1C1988.98,325.52,1995.21,328.66,2000.31,333.15z"/>
			<path class="st27" d="M2016.98,361.57c2.13,19.25-9.57,37.03-27.1,43.14c-2.6,0.91-5.33,1.56-8.16,1.91
				c-0.95,0.12-1.9,0.21-2.84,0.26c-9.7,0.54-18.82-2.51-26.04-8.05c-0.69-0.53-1.36-1.08-2.01-1.66c6.1,4.35,13.44,6.97,21.28,7.26
				c2.13,0.08,4.3-0.01,6.49-0.29c0.75-0.1,1.5-0.21,2.23-0.35c1.75-0.32,3.45-0.75,5.11-1.29c17.99-5.83,30.09-23.87,27.93-43.42
				c-0.31-2.8-0.9-5.49-1.73-8.05c-2.24-6.92-6.27-12.91-11.5-17.5c0.38,0.27,0.76,0.55,1.13,0.84
				C2010,340.71,2015.74,350.31,2016.98,361.57z"/>
			<path class="st28" d="M2015.14,360.09c1.77,15.99-6.03,30.96-18.79,39.03c-3.83,2.42-8.11,4.22-12.71,5.24
				c-0.25,0.06-0.51,0.11-0.77,0.16c-0.48,0.1-0.96,0.18-1.44,0.26c-0.48,0.08-0.96,0.15-1.44,0.21
				c-5.07,0.64-10.02,0.29-14.67-0.89c-15.39-3.93-27.43-17.06-29.31-33.98l0-0.02c-0.18-1.66-0.26-3.32-0.24-4.95
				c0.1-9.27,3.37-17.98,8.85-24.9c1.93-2.44,4.14-4.67,6.59-6.62c0,0,0,0,0,0c4.89-3.9,10.73-6.71,17.17-7.98
				c0.92-0.18,1.85-0.33,2.79-0.45c0.11-0.01,0.21-0.03,0.32-0.04c0.42-0.05,0.84-0.09,1.26-0.13c0.89-0.08,1.77-0.12,2.65-0.14
				c0.43-0.01,0.85-0.01,1.27,0l0,0c1.45,0.02,2.88,0.12,4.29,0.29c9.49,1.17,18.06,5.77,24.27,12.68c2.28,2.54,4.25,5.39,5.83,8.5
				C2013.18,350.53,2014.59,355.15,2015.14,360.09z"/>
		</g>
	</g>
</g>
<g>
	<path class="st0" d="M1740.7,1160.2L772.95,871.17c-17.97-5.37-28.18-24.28-22.82-42.25l57.23-191.62
		c5.37-17.97,24.28-28.18,42.25-22.82l967.75,289.03c17.97,5.37,28.18,24.28,22.82,42.25l-57.23,191.62
		C1777.59,1155.35,1758.67,1165.57,1740.7,1160.2z"/>
	<g>
		<g>
			<path class="st29" d="M848.27,778.28l126.35,38.23c3.53,1.07,5.72,4.14,4.89,6.85l-1.33,4.35c-0.83,2.72-4.37,4.05-7.9,2.99
				l-126.35-38.23c-3.53-1.07-5.72-4.14-4.89-6.85l1.33-4.35C841.2,778.55,844.74,777.22,848.27,778.28z"/>
			<path class="st29" d="M1041.04,836.62l115.45,34.93c3.53,1.07,5.72,4.14,4.89,6.85l-1.33,4.35c-0.83,2.72-4.37,4.05-7.9,2.99
				l-115.45-34.93c-3.53-1.07-5.72-4.14-4.89-6.85l1.33-4.35C1033.97,836.88,1037.51,835.55,1041.04,836.62z"/>
			<path class="st29" d="M1288.77,916.95l-1.33,4.35c-0.83,2.72-4.37,4.05-7.9,2.99l-66.84-20.23c-3.53-1.07-5.72-4.14-4.89-6.85
				l1.33-4.35c0.83-2.72,4.37-4.05,7.9-2.99l66.84,20.23C1287.41,911.17,1289.6,914.23,1288.77,916.95z"/>
			<path class="st29" d="M1606.77,1050.7l-1.33,4.35c-0.83,2.72-4.37,4.05-7.9,2.99l-66.84-20.23c-3.53-1.07-5.72-4.14-4.89-6.85
				l1.33-4.35c0.83-2.72,4.37-4.05,7.9-2.99l66.84,20.23C1605.42,1044.92,1607.6,1047.99,1606.77,1050.7z"/>
			<path class="st29" d="M1328.53,921.83l126.35,38.23c3.53,1.07,5.72,4.14,4.89,6.85l-1.33,4.35c-0.83,2.72-4.37,4.05-7.9,2.99
				l-126.35-38.23c-3.53-1.07-5.72-4.14-4.89-6.85l1.33-4.35C1321.47,922.1,1325,920.77,1328.53,921.83z"/>
			<path class="st29" d="M1497.23,973.2l115.45,34.93c3.53,1.07,5.72,4.14,4.89,6.85l-1.33,4.35c-0.83,2.72-4.37,4.05-7.9,2.99
				l-115.45-34.93c-3.53-1.07-5.72-4.14-4.89-6.85l1.33-4.35C1490.16,973.47,1493.7,972.13,1497.23,973.2z"/>
			<path class="st29" d="M837.57,816.28l221.72,67.09c3.53,1.07,5.72,4.14,4.89,6.85l-1.33,4.35c-0.83,2.72-4.37,4.05-7.9,2.99
				l-221.72-67.09c-3.53-1.07-5.72-4.14-4.89-6.85l1.33-4.35C830.51,816.55,834.04,815.21,837.57,816.28z"/>
			<path class="st29" d="M1292.57,956.94l-1.33,4.35c-0.83,2.72-4.37,4.05-7.9,2.99l-144.54-43.74c-3.53-1.07-5.72-4.14-4.89-6.85
				l1.33-4.35c0.83-2.72,4.37-4.05,7.9-2.99l144.54,43.74C1291.22,951.16,1293.41,954.23,1292.57,956.94z"/>
			<path class="st29" d="M1481.88,1014.02l-1.33,4.35c-0.83,2.72-4.37,4.05-7.9,2.99l-144.54-43.74c-3.53-1.07-5.72-4.14-4.89-6.85
				l1.33-4.35c0.83-2.72,4.37-4.05,7.9-2.99l144.54,43.74C1480.53,1008.23,1482.71,1011.3,1481.88,1014.02z"/>
		</g>
		<g>
			<path class="st30" d="M868.3,728.42l69.98,22.73c6.47,1.99,10.67,6.91,9.38,11l-2.06,6.55c-1.29,4.09-7.58,5.79-14.05,3.8
				l-69.98-22.73c-6.47-1.99-10.67-6.91-9.38-11l2.06-6.55C855.55,728.13,861.83,726.43,868.3,728.42z"/>
			<path class="st30" d="M1152.94,824.74l-2.06,6.55c-1.29,4.09-7.58,5.79-14.05,3.8l-156.9-47.92c-6.47-1.99-10.67-6.91-9.38-11
				l2.06-6.55c1.29-4.09,7.58-5.79,14.05-3.8l156.9,47.92C1150.03,815.72,1154.23,820.65,1152.94,824.74z"/>
			<path class="st30" d="M1533.15,941.15l-2.06,6.55c-1.29,4.09-7.58,5.79-14.05,3.8l-122.51-37.65c-6.47-1.99-10.67-6.91-9.38-11
				l2.06-6.55c1.29-4.09,7.58-5.79,14.05-3.8l122.51,37.65C1530.24,932.14,1534.44,937.06,1533.15,941.15z"/>
			<path class="st30" d="M1369.91,890.94l-2.06,6.55c-1.29,4.09-7.58,5.79-14.05,3.8l-176.44-53.68c-6.47-1.99-10.67-6.91-9.38-11
				l2.06-6.55c1.29-4.09,7.58-5.79,14.05-3.8l176.44,53.68C1366.99,881.93,1371.19,886.85,1369.91,890.94z"/>
		</g>
		<g>
			<path class="st31" d="M880.56,684.48l104.36,33c6.46,1.98,10.34,7.94,8.65,13.31l-2.7,8.6c-1.68,5.37-8.29,8.11-14.75,6.13
				l-104.36-33c-6.46-1.98-10.34-7.94-8.65-13.31l2.7-8.6C867.49,685.24,874.09,682.5,880.56,684.48z"/>
			<path class="st31" d="M1240.07,806.14l-2.7,8.6c-1.68,5.37-8.29,8.11-14.75,6.13l-184.86-56.06c-6.46-1.98-10.34-7.94-8.65-13.31
				l2.7-8.6c1.68-5.37,8.29-8.11,14.75-6.13l184.86,56.06C1237.88,794.82,1241.75,800.77,1240.07,806.14z"/>
			<path class="st31" d="M1409.08,857.98l-2.7,8.6c-1.68,5.37-8.29,8.11-14.75,6.13l-113.6-34.9c-6.46-1.98-10.34-7.94-8.65-13.31
				l2.7-8.6c1.68-5.37,8.29-8.11,14.75-6.13l113.6,34.9C1406.9,846.65,1410.77,852.61,1409.08,857.98z"/>
		</g>
	</g>
</g>
<g>
	<path class="st32" d="M1733.4,1025.04c0.94,4.94,11.05,11.28,37.38,8.46c7.52,8.23,39.12,13.89,39.12,13.89l5.05-15.79l-32.41-8.45
		L1733.4,1025.04z"/>
	<g>
		<path class="st2" d="M1800.2,1032.83c-6.11-1.12-13.19-1.43-21-4.05c-7.56-2.53-15.19-0.18-21.78,0.81
			c-5.84,0.88-23.18-0.69-24.02-4.55c-4.23-19.39,15.93-19.14,20.45-18.69c13.92,1.39,2.41-7.4,5.06-12.47
			c2.74-5.26,10.75,10.3,19.86,12.83c7.94,2.21,20.55-0.9,23.61,0.92C1805.44,1009.45,1800.2,1032.83,1800.2,1032.83z"/>
		<path class="st17" d="M1980.92,965.45c-42.31,28.56-88.84,48.05-103.78,48.43c-14.94,0.37-90.64-10.49-90.64-10.49
			s-15.16,27.15-11.41,29.83s91.28,19.57,99.95,17.91c8.67-1.66,116.02-32.57,124.58-38.78c8.56-6.21,3.56-20.27-0.71-34.2
			C1995.47,966.93,1980.92,965.45,1980.92,965.45z"/>
	</g>
	<g>
		<path class="st18" d="M1956.21,961.8c0.94-0.47,7.46,17.8,18.54,24.98c3.06,1.99,6.42,3.52,10.05,4.2
			c10.61,1.98,34.39,2.4,34.39,2.4s-2.32-11.66-7.46-16.16c-10.14,1.82-18.86,4.46-24.36,3.13c-4.08-0.99-7.84-2.66-11.26-4.69
			c-6.44-3.83-11.67-8.97-15.57-13.36c-1.99-2.24-1.94-5.25-4.61-5.7C1952.37,955.99,1955,962.4,1956.21,961.8z"/>
		<path class="st7" d="M1951.26,957.6c0.33-1.68,1.87-4.25,5.42-3.65c2.67,0.45,2.75,1.57,4.74,3.81
			c5.97,6.72,15.09,15.21,26.84,18.05c11.75,2.84,40.96-9.28,58.1-3.16c17.13,6.12,20.45,22.62,45.37,29.98
			c24.92,7.36,53.69,0.15,61.03,2.42c7.34,2.26,11.67,4.5,11.1,7.45c-0.57,2.95-4.95,7.38-10.5,8.81
			c-5.55,1.42-52.42-1.45-64.47-4.69c-19.68-5.29-34.55-25.6-47.31-28.42c-12.75-2.82-40.87,1.05-55.88-1.75
			c-16.75-3.13-27.93-24.55-29.14-23.96s-2.33,1.19-4.43,0.36C1950.68,962.28,1950.93,959.27,1951.26,957.6z"/>
	</g>
</g>
<g>
	<path class="st3" d="M562.88,870.86c8.11-32.54-8.76-26.29-6.58-32.12c1.99-5.34,13.28,6.21,7.85-5.06
		c-7.62-15.81,10.94-10.56,15.19-5.44c4.47,5.37,4.41,16.92,1.62,29.35c-2.15,9.55-0.45,15.41-0.45,15.41L562.88,870.86z"/>
	<path class="st2" d="M446.05,1319.7c-7.16,15.89-15.19,32.25-21.88,48.83c-20.28,50.21-149.08,17.29-155.35,19.29
		c-13.37,4.28-14.86,8.22-18.02,12.39l-11.85,13.46l-11.11-21.46l15.79-23.08c0,0,139.71-3.14,146.3-16.57
		c2.59-5.27,7.28-22.21,12.01-40.84c1.39-5.48,2.78-11.09,4.14-16.61c5.75-23.54,10.64-45.13,10.64-45.13
		c1.47-3.55,6.63-35.77,6.08-39.55c-1.48-10.06,17.37-59.26,38.51-44.67c34.78,24,29.94,54.54,29.94,54.54s-18.93,41.19-41.58,91.35
		L446.05,1319.7z"/>
	<path class="st33" d="M260.17,1367c-4.08-3.02-14.28-8.88-25.54-2.34c-10.92,7.2-24.66,8.29-24.66,8.29l0.63,4.1
		c0,0,18.48-3.54,22.49-0.29c-2.32,6.75-19.42,33.78-17.96,39.43c2.22,8.57,8.92,19.55,11.71,21.66c3.39,2.57,11.46,7.55,10.95,0.68
		c-0.99-13.35,3.85-27.44,3.85-27.44s0.02-0.88-0.8-0.8c-1.86,0.18-4.98,0.31-4.58-7.48c0.52-10.31,15.9-27.17,23.89-33
		C261.1,1369.1,261.12,1367.7,260.17,1367z"/>
	<g>
		<path class="st2" d="M457.71,1179.34l13.24,9.22c0.49,0.34,0.9,0.77,1.24,1.26c4.12,6.17,28.01,36.09,37.68,50.64
			c0.07,0.1,9.49-16.35,16.54-7.31c8.8,11.3,27.21,75.06,28.75,97.39c1.99,28.8,10.02,156.7,12.17,164.32
			c2.15,7.62,6.76,12.82,18.3,19.2c0.11,0.06,0.23,0.12,0.35,0.18l0,0c4.78,2.13,3.1,9.43-2.11,9.19l-22.01-1
			c-0.51-0.02-1.01-0.13-1.48-0.32l-12.45-4.89c-1.52-0.6-2.63-1.96-2.93-3.6c0,0-31.55-174.23-34.43-186.33
			c-2.88-12.1-45.81-94.74-45.81-94.74c-0.9-1.11-22.18,12.36-23.59,12.38c-4.89,0.07-17.7-2.77-30.67-30.74
			c-3.9-8.4,6.61-22.6,10.07-26.93c0.67-0.83,1.59-1.41,2.62-1.64l30.85-7.01C455.3,1178.33,456.63,1178.59,457.71,1179.34z"/>
		<path class="st33" d="M559.61,1532.81c4.53,0.01,18.64,2.53,29.22,3.74c4.72,0.54,8.73,0.82,10.88,0.5
			c0.21-0.03,0.41-0.07,0.59-0.11c5.91-1.47,18.48-6.23,20.13-9.5c1.65-3.28-2.38-9.06-9-10.96c-2.78-0.8-7.35-1.27-11.71-1.54
			c-4.46-0.28-8.7-0.36-10.6-0.38c-0.66-0.01-1.03-0.01-1.03-0.01s-0.8,0.25-0.5,0.96c0.69,1.63,1.71,4.41-5.42,6.45
			c-9.48,2.71-29.2-6.1-36.67-11.53c-0.86-0.62-2.07-0.24-2.41,0.77c-1.55,4.54-4.02,15.7,5.19,23.94
			c9.62,7.66,14.55,19.76,14.55,19.76l3.51-1.83C566.33,1553.07,557.84,1537.44,559.61,1532.81z"/>
	</g>
	<path class="st33" d="M396.64,1317.65c3.69,8.44,53.6,4.79,82.06-5.31c26.19-9.29,69.39-0.88,74.97-15.18
		c3.68-9.44-19.53-81.64-44.8-152.97c-32.83,12.18-84.83-14.78-84.83-14.78s-0.3,0.52-0.85,1.49c-3.16,5.64-14.44,26.33-21.08,45.87
		c-2.65,7.81-4.56,15.43-4.91,21.83c-1.03,18.6,11.16,56.05,9.57,82.36C405.73,1298.29,392.49,1308.18,396.64,1317.65z"/>
	<path class="st0" d="M483.07,988.27l14.51,8.02l20.02,79.96c0,0-6.77,48.93-17.87,66.07c-14.45,22.3-61.04-2.15-59.06-7.27
		c18.14-46.96,24.8-146.77,24.8-146.77L483.07,988.27z"/>
	<path class="st34" d="M402.11,1176.77c27.34,14.41,65.66-4.99,65.66-4.99l-39.47-36.17l-5.1-4.71
		C420.03,1136.55,408.75,1157.24,402.11,1176.77z"/>
	<g>
		<path class="st35" d="M315.3,1154.25c0.82-1.42,1.27-2.91,1.36-4.29c0.07-1.16-0.13-2.24-0.59-3.13c-0.27-0.54-0.63-1.01-1.1-1.4
			l-3.16-2.66l-0.09-0.08l-0.01,0l-0.38-0.32l-12.96-10.9l-0.13-0.11c-0.64-0.53-1.38-0.86-2.21-0.99l-0.01,0
			c-2.54-0.43-5.72,0.93-8.04,3.69l-3.3,3.93l-5.33,6.31l3.29,2.77l5.34-6.34l0.76-0.9c1.71-2.04,4.05-3.07,5.94-2.78l0.01,0
			c0.17,0.03,0.33,0.06,0.49,0.11c0.45,0.13,0.86,0.34,1.21,0.65l11.54,9.71l0.01,0.01l0.96,0.81c1.92,1.63,1.63,5.16-0.68,7.89
			l-0.66,0.78l0,0.01l-5.39,6.42l-0.04,0.04l3.28,2.77l5.45-6.48l3.2-3.8c0.18-0.22,0.35-0.44,0.52-0.66
			C314.87,1154.95,315.09,1154.6,315.3,1154.25z"/>
		<path class="st36" d="M325.55,1124.51c-2.54,4.34-2.59,4.14-5.14,10.3c-2.55,6.17-3.77,14.85-7.01,13.6
			c-3.24-1.25-0.91-4.19-1.71-5.8c-0.8-1.61-0.2,3.64-3.66,4.89c-3.47,1.24-11.16-2.48-12.65-6.74c-1.49-4.26,1.91-7.72,5.71-12.9
			s7.51-6.32,11.4-14.03L325.55,1124.51z"/>
		<path class="st35" d="M315.3,1154.25c0.84-1.42,1.31-2.92,1.4-4.3l0-0.01c0.08-1.17-0.12-2.25-0.59-3.16
			c-0.27-0.53-0.64-1-1.09-1.39l-3.19-2.62l-0.08-0.07l-0.01-0.01l0-0.01l-0.24-0.19l-0.58,1.3l0,0.02l0,0.03l-0.01,0.03l-0.02,0.04
			l0,0.02l-0.82,1.9l-0.01,0.02l-1.06,2.43c1.93,1.63,1.62,5.17-0.68,7.91l-0.04,0.03l-0.65,0.79l0,0.01l-5.39,6.42l3.28,2.76
			l5.42-6.43l3.2-3.8c0.18-0.22,0.35-0.44,0.52-0.66C314.87,1154.95,315.09,1154.6,315.3,1154.25z"/>
		<g>
			<path class="st37" d="M341.03,1203.11l-39.44,47.41c-2.34,2.81-6.51,3.19-9.32,0.85l-0.15-0.13l-85.39-69.22
				c-9.53-7.93-3.87-14.61-1.54-17.42l35.87-45.83c2.34-2.81,11.88-7.38,19.42-0.93l75.22,62.51l2.83,2.34
				C344.74,1187.86,346.32,1196.75,341.03,1203.11z"/>
			<path class="st38" d="M341.03,1203.11l-39.44,47.41c-2.34,2.81-6.51,3.19-9.32,0.85l-0.15-0.13c1.35-3.62,4.42-8.57,10.71-15.18
				c15.2-15.99,26.29-39.22,32.88-55.72l2.83,2.34C344.74,1187.86,346.32,1196.75,341.03,1203.11z"/>
		</g>
	</g>
	<path class="st6" d="M350.67,1056.67c-10.54,17.09-43.97,61.01-43.97,61.01c7.44,13.38,17.56,15.75,17.66,15.9
		c0.16-0.93,42.88-57.12,46.81-63.22c5.59-8.7,51.46-24.29,56.6-19.94c6.17,5.22,12.06,31.97,9.4,50.27
		c-0.56,3.87-1.51,7.37-2.93,10.22c-8.13,16.31-28.92,38.24-26.36,46.65c6.75,22.17,52.5,7.37,56.87,2.89
		c4.37-4.48,6.72-51.81,11.35-65.11c4.13-11.84,13.89-33.2,6.65-50.02c-5.34-12.4-12.07-38.09-15.23-50.75
		c-0.05-0.19-0.1-0.38-0.14-0.56c-1.05-4.19-1.67-6.82-1.67-6.82c-3.39,0.97-7.26,2.53-11.44,4.58
		c-9.34,4.57-20.29,11.51-31.27,19.49C393.99,1032.37,358.6,1043.82,350.67,1056.67z"/>
	<path class="st6" d="M509.29,1062.01c5.03,16.35-13.73,55.01-15.93,85.22c-0.04,0.4-0.06,0.8-0.08,1.2
		c-0.28,5.15,0.03,9.99,1.21,14.37c1.59,5.94,10.17,10.34,15.88,10.99c3.93,0.45,6.84-1.26,6.25-5.49
		c-5.28-38.23,14.33-69.48,15.11-111.6c0.17-9.49-5.6-22.99-3.81-29.44c2.54-9.18,30.65-71.51,39.07-89.61
		c6.19-13.3,17.48-58.04,17-76.97c-0.17-6.69-22.25-5.75-22.34-1.66c-0.35,15.61-11.55,57.93-16.43,70.27
		c-5.94,15.01-33.51,55.84-49.69,65.83c-0.46,0.28,1.3,3.42,1.75,9.32c0.34,4.47,1.36,9.89,1.87,16.06
		C500.6,1038.15,503.32,1042.64,509.29,1062.01z"/>
	<path class="st39" d="M437.18,1100.69c4.13-6.76,10.03-17,10.4-20.99c0.57-6.17-8.31-21.74-19.8-29.27
		C433.81,1055.8,439.83,1082.39,437.18,1100.69z"/>
	<path class="st39" d="M423.01,1011.27c26.83-0.33,38.27-5.41,44.52-16.69c0.09-0.16,0.18-0.32,0.27-0.49l-0.41-0.07l-13.11-2.24
		C444.94,996.35,433.99,1003.29,423.01,1011.27z"/>
	<g>
		<path class="st3" d="M488.02,933.71c3.1,5.33,0.65,9.4,5.78,13.86c4.07,3.53,7.29,3.47,6.6,5.62c-0.69,2.16-4.72,2.19-4,4.15
			c0.72,1.95,2.68,3.02,0.69,4.38c-1.32,0.9-2.93,1.22-0.95,2c0.79,0.31,2.01-0.61,1.32,2.11c-0.68,2.68,4.94,9.62,1.22,11.77
			c-1.86,1.07-9.75-1.84-12.6,1.95c-2.56,3.4,4.92,12.7,6.97,17.04c2.05,4.34,0.11,30.87-2.57,30.85
			c-6.67-0.07-3.53-17.26-22.52-25.6c-22.66-9.94-5.92-41.26-5.92-41.26l2.24-16.75L488.02,933.71z"/>
		<path class="st40" d="M347.9,1042.85c8.16,4.87,32.5-28.38,55.75-13c9.2,6.09,14.76-4.17,22.53-7.99
			c1.28-0.63,2.61-1.09,4.02-1.27c5.34-0.69,8.52-0.04,13.05-1.13c0,0,0,0,0.01,0c1.05-0.25,2.18-0.6,3.43-1.08
			c1.03-0.4,2.15-0.89,3.37-1.5c2.22-1.1,4.79-2.58,7.87-4.57c3.24-2.09,5.8-4.93,7.84-8.19c0,0,0.01-0.01,0.01-0.01
			c0.07-0.11,0.14-0.22,0.21-0.33c7.28-11.91,7.79-29.1,9-35.47c0.4-2.15-0.32-5.09-2.04-6.46c-2.31-1.84-5.33-4.09-4.36-7.09
			c0.9-2.79,4.51-3.23,5.78-1.69c3.18,3.85,6,4.49,5.04-1.27c-1.57-9.46,3.35-13.11,5.86-14.21c1.63-0.71,2.72-1.59,3.43-2.55
			l0-0.01c2.7-3.72-0.55-8.72-1.9-10.51c-6.39-8.56-18.03-7.36-31.11-1.19c-18.52,8.74-17.87,38.68-21.97,43.16
			c-4.09,4.49-10.04-1.37-21.54,7.81c-13.42,10.74-9.6,18.14-14.27,22.26c-4.08,3.6-13.36,3.65-23.65,7.64
			C356.7,1011.02,335.06,1035.16,347.9,1042.85z"/>
	</g>
</g>
<path class="st0" d="M1510.47,738.85c22.76-3.71,25.95-14.03,30-46.01c3.12,30.3,6.95,41.77,30.12,45.1
	c-20.15,8.75-27.23,11.93-30.64,46.99C1534.78,749.47,1530.33,746.36,1510.47,738.85z"/>
<path class="st0" d="M675,743.37c26.86-4.38,30.63-16.56,35.41-54.3c3.68,35.76,8.2,49.3,35.55,53.23
	c-23.78,10.33-32.14,14.08-36.17,55.45C703.69,755.9,698.44,752.23,675,743.37z"/>
<g>
	<g>
		<path class="st37" d="M1744.66,1187.32c0.24-0.33,0.63-0.53,1.06-0.52c15.72,0.58,28.67-4.44,39.61-15.36
			c0.49-0.49,1.29-0.49,1.78,0c0.49,0.49,0.49,1.29,0,1.78c-11.46,11.44-25.03,16.71-41.48,16.1c-0.69-0.03-1.23-0.61-1.21-1.3
			C1744.43,1187.75,1744.52,1187.51,1744.66,1187.32z"/>
	</g>
	<g>
		<path class="st37" d="M1765.88,1194.74c0.17-0.23,0.42-0.41,0.72-0.48c8.03-1.94,14.4-4.66,20.02-8.55
			c5.48-3.79,10.29-8.72,15.14-15.52c0,0,0.01-0.01,0.01-0.01c0.41-0.56,1.18-0.68,1.74-0.28c0.56,0.4,0.7,1.19,0.29,1.75
			c-9.91,13.91-20.53,21.17-36.62,25.06c-0.67,0.16-1.35-0.25-1.52-0.93C1765.58,1195.41,1765.67,1195.03,1765.88,1194.74z"/>
	</g>
</g>
<g>
	<g>
		<path class="st37" d="M788.91,615.29c0.4-0.05,0.77-0.29,0.97-0.67c7.23-13.97,17.98-22.77,32.87-26.92
			c0.67-0.19,1.06-0.88,0.87-1.55c-0.19-0.67-0.88-1.06-1.55-0.87c-15.6,4.34-26.86,13.56-34.43,28.19
			c-0.32,0.62-0.08,1.37,0.54,1.69C788.42,615.28,788.67,615.32,788.91,615.29z"/>
	</g>
	<g>
		<path class="st37" d="M792.88,593.17c0.29-0.03,0.56-0.16,0.77-0.39c5.64-6.04,11.14-10.24,17.3-13.22
			c5.99-2.9,12.65-4.66,20.96-5.54c0,0,0.01,0,0.01,0c0.68-0.08,1.18-0.69,1.1-1.38c-0.07-0.69-0.69-1.19-1.38-1.12
			c-16.98,1.79-28.53,7.45-39.84,19.54c-0.47,0.51-0.45,1.3,0.06,1.78C792.16,593.1,792.53,593.21,792.88,593.17z"/>
	</g>
</g>
<path class="st32" d="M1173.91,769.17c9.75,4.88,25.72-14.63,34.14-22.17c8.42-7.54,12.41-4.88,15.52-6.21
	c3.1-1.33,13.74-10.2,13.74-10.2l-18.18-6.65l-11.53,5.32L1173.91,769.17z"/>
<g>
	<g>
		<path class="st41" d="M1201.82,717.8c-10.45,3.24-27.85,1.11-29.11,6.27c-1.35,5.55,8.35,4.39,5,10.39
			c-2.31,4.15-28.46,14.12-21.45,22.1s16.93,17.65,25.32,11.27c8.39-6.38,34.07-35.74,34.07-35.74L1201.82,717.8z"/>
		<g>
			<path class="st41" d="M1179.27,515.38c16.32,12.68,18.5,18.01,20.59,19.26c3.75-2.39-0.83-4.35,8.17,1.14
				c13.07,7.97,24.01,12.83,21.32-8.47c9.67,5.8,14.9,7.54,23.02,9.2c8.11,1.65,25.24-0.03,25.24-0.03l-11.22-23
				c-19.56-2.18-58.24-40.64-73.6-35.67C1177.43,482.78,1174.5,511.68,1179.27,515.38z"/>
			<path class="st42" d="M1217.49,510.28c-1.22-9.14-14.78-9.71-11.54,0.37c-3.78,5.87-4.19,5.17-9.38,1.79
				c-5.19-3.38-5.66,2.12-11.92,4.4c-6.27,2.28-7.2,5.23-15.1,2.42c-4.7-1.67-6.87-4.36-8.98-7.71c-2.12-3.35-2.68-11.55,3.75-14.53
				c6.42-2.97,9.94,0.19,7.39-9.74c-2.55-9.93,1.78-17.57,12.29-15.33c12.15,2.59,5.43-5.75,17.54-4.32
				c21.72,2.57,14.69,13.85,25.36,18.42c10.67,4.56,19.12,13.98,14.41,21.39C1236.59,514.86,1222.69,513.4,1217.49,510.28z"/>
			<path class="st9" d="M1229.35,527.31c-2.65-7.06-0.78-9.05,1.05-9.66c16.48-5.44,12.47,6.93,17.42,14.58
				c4.96,7.65-8.09,1.15-8.09,1.15L1229.35,527.31z"/>
		</g>
		<path class="st17" d="M1414.4,519.01c-33.57,1.52-71.55,12.58-76.88,22.19c-17.99,32.38-21.3,84.43-37.08,107.35
			c-28.37,41.25-69.32,77.74-75.51,87.72c-6.19,9.98-30.06-23.98-26.67-28.92c0,0,61.57-54.9,69.4-73.26
			c7.95-18.58,3.53-49.48,0.98-64.29c-3.54-20.55-18.13-51.74-20.3-59.42c-5.21-18.39,2.47-36.53,15.07-47.63
			c18.07-15.94,175.73-94.78,213.17,55.03C1477.57,521.72,1431.41,518.24,1414.4,519.01z"/>
	</g>
	<path class="st43" d="M1414.4,519.01c-33.57,1.52-71.55,12.58-76.88,22.19C1342.01,516.62,1350.1,504.74,1414.4,519.01z"/>
</g>
<g>
	<path class="st7" d="M586.21,403.26c-32.22-6.75-48.15-47.16-23.56-70.65c16.17-17.83,80.61-16.21,66.57,20.39
		c-6.12,13.85-29.47-9.56-42.11,1.93c-17.69,16.63,36.3,22.1,40.94,35.64c22.77,28.05,1.37,71.77-38.26,67.55
		c-24.34,3.79-55.17-22.23-29.21-41.84C579.41,440.7,632.59,419.64,586.21,403.26z"/>
	<path class="st31" d="M654.12,345.21c-4.38-33.29,59.5-15.7,75.8-19.85c17.08,36.99-24.03,28.8-45.34,29.24c0,0,0,19.85,0,19.85
		c19.79,1.38,55.69-9.31,40.68,25.62c-3.65,6.56-34.72,2.24-40.68,3.42c0,0,0,22.41,0,22.41c19.55,2.19,62.97-11.24,46.32,25.93
		c-2.88,7.18-54.32,2.05-60.12,3.52C638.95,457.06,659.78,361.4,654.12,345.21z"/>
	<path class="st30" d="M745.87,389.82c-5.36-89.9,118.73-89.78,113.43,0C864.95,480.11,740.41,479.92,745.87,389.82z M778.12,389.82
		c-4.14,50.67,53.07,50.63,48.92,0C831.25,339.45,774.08,339.42,778.12,389.82z"/>
</g>
</svg>
