<?xml version="1.0" encoding="utf-8"?>
<!-- Generator: Adobe Illustrator 24.0.2, SVG Export Plug-In . SVG Version: 6.00 Build 0)  -->
<svg version="1.1" xmlns="http://www.w3.org/2000/svg" xmlns:xlink="http://www.w3.org/1999/xlink" x="0px" y="0px"
	 viewBox="0 0 3000 2100" style="enable-background:new 0 0 3000 2100;" xml:space="preserve">
<style type="text/css">
	.st0{clip-path:url(#SVGID_2_);}
	.st1{fill:#F0F2F5;}
	.st2{fill:#E1E6EB;}
	.st3{fill:#FFFFFF;}
	.st4{fill:#112E4C;}
	.st5{fill:#1F4168;}
	.st6{fill:#1B1A2E;}
	.st7{fill:#F9A21B;}
	.st8{opacity:0.4;}
	.st9{fill:#A65B3C;}
	.st10{fill:#FFC89F;}
	.st11{fill:#FF9A6C;}
	.st12{fill:#1B1B2F;}
	.st13{fill:#E43F5A;}
</style>
<g id="BACK">
	<g>
		<defs>
			<rect id="SVGID_1_" width="3000" height="2100"/>
		</defs>
		<clipPath id="SVGID_2_">
			<use xlink:href="#SVGID_1_"  style="overflow:visible;"/>
		</clipPath>
		<g class="st0">
			<g>
				<g>
					<g>
						<path class="st1" d="M2562.9,735c-4.3-2.2-9.1-3.5-14.2-3.6c3.3-5.4,5.3-11.7,5.3-18.6c0.1-16.6-11-30.5-26-34.4l-4.4-104.5
							l-40.2,0.1l-0.9,103.1c-0.3,0-0.5,0-0.8,0c-14.1-0.1-25.6,11.5-25.7,25.8c0,1.8,0.2,3.5,0.5,5.2
							c-20.5,1.6-36.9,18.4-38.2,39.5c0,0.8-0.1,1.5-0.1,2.3c-0.1,12.4,5.1,23.7,13.4,31.4c0,0.6-0.1,1.2-0.1,1.9
							c-0.1,19.5,15.2,35.4,34.3,35.5c-0.1,19.5,15.2,35.4,34.3,35.5c18.9,0.1,34.4-15.3,34.8-34.5c2.2,0.5,4.5,0.7,6.9,0.8
							c19.1,0.1,34.7-15.5,34.8-35c0,0,0,0,0-0.1c0,0,0.1,0,0.1,0.1c0,0,0,0,0-0.1c3.3-5.3,5.2-11.6,5.2-18.4
							C2582.2,753,2574.4,740.8,2562.9,735z"/>
					</g>
				</g>
				<g>
					<polygon class="st1" points="2463.9,563.4 2543,563.3 2543,542.6 2543,541.2 2463.9,541.3 2463.9,542.7 					"/>
				</g>
				<g>
					<path class="st1" d="M2561.8,421l-7.9,120.2l-100.9,0.1l-8.2-120.2c-2.1-30.7,6.6-61.1,24.5-86.1l9.2-12.8l15.2-21.1
						c4.7-6.5,14.4-6.5,19.1,0l15.2,21.1l9.2,12.8C2555.1,359.9,2563.8,390.3,2561.8,421z"/>
				</g>
				<g>
					<path class="st2" d="M2558.8,466.1l-3,45.7l13,5.1c5.4,2.1,9.9,6.1,12.7,11.3l0,0c1.8,3.4,6.9,2.1,6.9-1.7l0-28.9
						c0-8.7-4.6-16.7-12.1-21.2L2558.8,466.1z"/>
				</g>
				<g>
					<path class="st2" d="M2447.9,466.3l3.1,45.7l-13,5.2c-5.4,2.2-9.9,6.2-12.6,11.3l0,0c-1.8,3.4-6.9,2.1-6.9-1.7l0-28.9
						c0-8.7,4.6-16.7,12-21.2L2447.9,466.3z"/>
				</g>
				<g>
					<polygon class="st2" points="2539.1,563.3 2467.8,563.4 2468.2,574 2539.5,573.9 					"/>
				</g>
				<g>
					<path class="st2" d="M2527.9,322.2l-49.5,0.1l15.2-21.1c4.7-6.5,14.4-6.5,19.1,0L2527.9,322.2z"/>
				</g>
				<g>
					<path class="st2" d="M2498.5,394.7c1.6-0.4,3.2-0.6,4.8-0.6c5.4,0,10.5,2.1,14.4,5.9c3.8,3.8,6,8.9,6,14.4
						c0,4.7-1.5,9-4.4,12.7c-2.8,3.5-6.8,6.1-11.1,7.1c-1.6,0.4-3.2,0.6-4.8,0.6c-5.4,0-10.5-2.1-14.4-5.9c-3.8-3.8-6-8.9-6-14.4
						c0-4.7,1.5-9,4.4-12.7C2490.2,398.3,2494.1,395.8,2498.5,394.7L2498.5,394.7 M2494.4,378.1c-16.4,4-28.6,18.8-28.6,36.4
						c0,20.7,16.8,37.4,37.5,37.4c3,0,6-0.4,8.8-1.1c16.4-4,28.6-18.8,28.6-36.4c0-20.7-16.8-37.4-37.5-37.4
						C2500.2,377.1,2497.3,377.5,2494.4,378.1L2494.4,378.1z"/>
				</g>
				<g>
					<g>
						
							<rect x="2463.9" y="541.2" transform="matrix(1 -1.369401e-03 1.369401e-03 1 -0.7398 3.4288)" class="st2" width="79.1" height="1.4"/>
					</g>
				</g>
			</g>
			<g>
				<g>
					<g>
						<g>
							<path class="st1" d="M486.3,655.4c-2.8,0-5.6-1-7.8-3c-28.1-25.8-64.6-40-102.8-40c-38.2,0-74.7,14.2-102.8,40
								c-4.7,4.3-12,4-16.4-0.7c-4.3-4.7-4-12,0.7-16.4c32.4-29.7,74.5-46.1,118.5-46.1c44,0,86.1,16.4,118.5,46.1
								c4.7,4.3,5,11.7,0.7,16.4C492.6,654.1,489.4,655.4,486.3,655.4z"/>
						</g>
					</g>
					<g>
						<g>
							<path class="st1" d="M457.6,697c-3,0-6.1-1.2-8.3-3.5c-19.5-20.2-45.6-31.3-73.6-31.3c-28,0-54.2,11.1-73.6,31.3
								c-4.4,4.6-11.8,4.7-16.4,0.3c-4.6-4.4-4.7-11.8-0.3-16.4c23.9-24.7,55.9-38.3,90.3-38.3c34.4,0,66.4,13.6,90.3,38.4
								c4.4,4.6,4.3,11.9-0.3,16.4C463.4,695.9,460.5,697,457.6,697z"/>
						</g>
					</g>
					<g>
						<g>
							<path class="st1" d="M428.3,739.5c-3.7,0-7.3-1.7-9.5-5c-9.8-14.1-25.9-22.5-43.1-22.5c-17.2,0-33.3,8.4-43.1,22.5
								c-3.7,5.3-10.9,6.5-16.1,2.9c-5.3-3.7-6.5-10.9-2.9-16.1c14.2-20.3,37.4-32.5,62.1-32.5c24.8,0,48,12.1,62.1,32.5
								c3.7,5.3,2.4,12.5-2.9,16.1C432.9,738.9,430.6,739.5,428.3,739.5z"/>
						</g>
					</g>
					<g>
						<g>
							
								<ellipse transform="matrix(0.7071 -0.7071 0.7071 0.7071 -430.5533 489.5565)" class="st1" cx="375.7" cy="764.5" rx="27.4" ry="27.4"/>
						</g>
					</g>
				</g>
				<g>
					<g>
						<g>
							<circle class="st2" cx="469.9" cy="627.9" r="35.5"/>
						</g>
					</g>
					<g>
						<g>
							<g>
								<g>
									<g>
										<g>
											<path class="st3" d="M462.7,644.9L448,630.1c-0.9-0.9-0.9-2.4,0-3.3l4.7-4.7c0.9-0.9,2.4-0.9,3.3,0l8.3,8.4l18.9-18.8
												c0.9-0.9,2.4-0.9,3.3,0l4.7,4.7c0.9,0.9,0.9,2.4,0,3.3L466,644.9C465.1,645.8,463.6,645.8,462.7,644.9z"/>
										</g>
									</g>
								</g>
							</g>
						</g>
					</g>
				</g>
			</g>
			<g>
				<g>
					<g>
						<path class="st3" d="M1350.5,390.4H703.6c-30.2,0-54.8-24.5-54.8-54.8v0c0-30.2,24.5-54.8,54.8-54.8h646.8
							c30.2,0,54.8,24.5,54.8,54.8v0C1405.2,365.9,1380.7,390.4,1350.5,390.4z"/>
					</g>
				</g>
				<g>
					<g>
						<path class="st1" d="M1350.5,390.4H703.6c-30.2,0-54.8-24.5-54.8-54.8v0c0-30.2,24.5-54.8,54.8-54.8h646.8
							c30.2,0,54.8,24.5,54.8,54.8v0C1405.2,365.9,1380.7,390.4,1350.5,390.4z"/>
					</g>
				</g>
				<g>
					<g>
						<path class="st3" d="M855.4,337.7V354h-3.8v-15.9c0-5.9-3.1-9-8.4-9c-6,0-9.8,3.7-9.8,10.1V354h-3.8v-39.5h3.8v16.4
							c2.1-3.3,5.8-5.1,10.5-5.1C850.7,325.7,855.4,329.6,855.4,337.7z"/>
					</g>
					<g>
						<path class="st3" d="M880.4,352.2c-1.5,1.3-3.7,2-5.9,2c-5.3,0-8.2-3-8.2-8.2v-16.9h-5v-3.2h5v-6.1h3.8v6.1h8.5v3.2h-8.5v16.7
							c0,3.3,1.7,5.1,4.9,5.1c1.5,0,3.1-0.5,4.2-1.4L880.4,352.2z"/>
					</g>
					<g>
						<path class="st3" d="M901.3,352.2c-1.5,1.3-3.7,2-5.9,2c-5.3,0-8.2-3-8.2-8.2v-16.9h-5v-3.2h5v-6.1h3.8v6.1h8.5v3.2H891v16.7
							c0,3.3,1.7,5.1,4.9,5.1c1.5,0,3.1-0.5,4.2-1.4L901.3,352.2z"/>
					</g>
					<g>
						<path class="st3" d="M936.6,339.9c0,8.5-6,14.3-14,14.3c-4.5,0-8.3-1.9-10.7-5.5v15.6h-3.8v-38.4h3.6v5.5
							c2.3-3.7,6.2-5.8,10.8-5.8C930.6,325.7,936.6,331.5,936.6,339.9z M932.8,339.9c0-6.5-4.5-10.9-10.4-10.9
							c-6,0-10.4,4.4-10.4,10.9c0,6.6,4.5,10.9,10.4,10.9C928.3,350.9,932.8,346.5,932.8,339.9z"/>
					</g>
					<g>
						<path class="st3" d="M940.4,350.8l1.7-3c2.2,1.8,6,3.1,10,3.1c5.3,0,7.5-1.8,7.5-4.6c0-7.3-18.2-1.5-18.2-12.6
							c0-4.6,3.9-8,11.1-8c3.6,0,7.6,1,9.9,2.6l-1.7,3c-2.5-1.7-5.4-2.4-8.3-2.4c-5.1,0-7.3,2-7.3,4.6c0,7.6,18.2,1.9,18.2,12.6
							c0,4.9-4.3,8-11.6,8C947.2,354.2,942.7,352.7,940.4,350.8z"/>
					</g>
					<g>
						<path class="st3" d="M967.9,328.6c0-1.7,1.3-2.9,2.8-2.9c1.5,0,2.9,1.2,2.9,2.9s-1.3,2.9-2.9,2.9
							C969.2,331.5,967.9,330.2,967.9,328.6z M967.9,351.3c0-1.7,1.3-2.9,2.8-2.9c1.5,0,2.9,1.2,2.9,2.9c0,1.7-1.3,2.9-2.9,2.9
							C969.2,354.2,967.9,352.9,967.9,351.3z"/>
					</g>
					<g>
						<path class="st3" d="M995.1,309.1h3.5l-17.6,50.2h-3.5L995.1,309.1z"/>
					</g>
					<g>
						<path class="st3" d="M1009.4,309.1h3.5l-17.6,50.2h-3.5L1009.4,309.1z"/>
					</g>
					<g>
						<path class="st3" d="M1055.9,325.9l-10.6,28h-3.6l-8.8-23l-8.8,23h-3.6l-10.6-28h3.6l8.8,23.8l9-23.8h3.3l9,23.8l8.9-23.8
							H1055.9z"/>
					</g>
					<g>
						<path class="st3" d="M1102.4,325.9l-10.6,28h-3.6l-8.8-23l-8.8,23h-3.6l-10.6-28h3.6l8.8,23.8l9-23.8h3.3l9,23.8l8.9-23.8
							H1102.4z"/>
					</g>
					<g>
						<path class="st3" d="M1149,325.9l-10.6,28h-3.6l-8.8-23l-8.8,23h-3.6l-10.6-28h3.6l8.8,23.8l9-23.8h3.3l9,23.8l8.9-23.8H1149z
							"/>
					</g>
					<g>
						<path class="st3" d="M1150.4,351.3c0-1.7,1.3-2.9,2.8-2.9c1.5,0,2.9,1.2,2.9,2.9c0,1.7-1.3,2.9-2.9,2.9
							C1151.7,354.2,1150.4,352.9,1150.4,351.3z"/>
					</g>
					<g>
						<path class="st3" d="M1178.9,314.4h3.5v49.9h-3.5V314.4z"/>
					</g>
				</g>
				<g>
					<path class="st3" d="M782.8,294h3.8v83.4h-3.8V294z"/>
				</g>
				<g>
					
						<ellipse transform="matrix(0.2329 -0.9725 0.9725 0.2329 224.6676 956.1299)" class="st3" cx="718.4" cy="335.6" rx="32" ry="32"/>
				</g>
			</g>
			<g>
				<g>
					<g>
						<g>
							<g>
								<path class="st1" d="M492.6,472.5v-17.1c0-10.2-5.9-19.5-15.2-23.9l-19.6-9.2c-7.3-3.4-11.9-10.7-11.9-18.8l0,0l4.9-4.9
									c3.4-3.4,5.2-7.9,5.2-12.6v-19.1c0-4.7-1.9-9.3-5.2-12.6l0,0c-3.4-3.4-7.9-5.2-12.6-5.2h-5.3h3.1h-5.3
									c-4.7,0-9.3,1.9-12.6,5.2l0,0c-3.4,3.4-5.2,7.9-5.2,12.6V386c0,4.7,1.9,9.3,5.2,12.6l4.9,4.9l0,0c0,8-4.6,15.3-11.9,18.8
									l-19.6,9.2c-9.3,4.3-15.2,13.6-15.2,23.9v17.1H492.6z"/>
							</g>
						</g>
					</g>
				</g>
			</g>
			<g>
				<g>
					<g>
						<g>
							<g>
								<path class="st1" d="M2523,1515.1v-17.9c0-10.7-6.2-20.4-15.9-25l-20.5-9.6c-7.6-3.6-12.5-11.2-12.5-19.6l0,0l5.2-5.2
									c3.5-3.5,5.5-8.3,5.5-13.2v-20c0-5-2-9.7-5.5-13.2l0,0c-3.5-3.5-8.3-5.5-13.2-5.5h-5.5h3.3h-5.5c-5,0-9.7,2-13.2,5.5l0,0
									c-3.5,3.5-5.5,8.3-5.5,13.2v20c0,5,2,9.7,5.5,13.2l5.2,5.2l0,0c0,8.4-4.9,16-12.5,19.6l-20.5,9.6
									c-9.7,4.5-15.9,14.3-15.9,25v17.9H2523z"/>
							</g>
						</g>
					</g>
				</g>
			</g>
			<g>
				<g>
					<path class="st1" d="M2631.2,1273.7h-254.5c-26.7,0-48.4-21.7-48.4-48.4V970.8c0-26.7,21.7-48.4,48.4-48.4h254.5
						c26.7,0,48.4,21.7,48.4,48.4v254.5C2679.6,1252,2657.9,1273.7,2631.2,1273.7z"/>
				</g>
				<g>
					<g>
						<path class="st2" d="M2578.1,1023.9c-20.5-20.5-47.3-30.7-74.2-30.7c-26.9,0-53.7,10.2-74.2,30.7c-41,41-41,107.4,0,148.4
							c20.5,20.5,47.3,30.7,74.2,30.7c26.8,0,53.7-10.2,74.2-30.7C2619.1,1131.3,2619.1,1064.9,2578.1,1023.9z M2557.3,1151.4
							c-14.2,14.2-33.2,22.1-53.3,22.1c-20.1,0-39.1-7.8-53.3-22.1c-14.2-14.2-22.1-33.2-22.1-53.3c0-20.1,7.8-39.1,22.1-53.3
							c14.2-14.2,33.2-22.1,53.3-22.1c20.1,0,39.1,7.8,53.3,22.1c14.2,14.2,22.1,33.2,22.1,53.3
							C2579.4,1118.2,2571.5,1137.1,2557.3,1151.4z"/>
					</g>
					<g>
						<path class="st3" d="M2557.3,1044.8c-14.2-14.2-33.2-22.1-53.3-22.1c-20.1,0-39.1,7.8-53.3,22.1
							c-14.2,14.2-22.1,33.2-22.1,53.3c0,20.1,7.8,39.1,22.1,53.3c14.2,14.2,33.2,22.1,53.3,22.1c20.1,0,39.1-7.8,53.3-22.1
							s22.1-33.2,22.1-53.3C2579.4,1077.9,2571.5,1059,2557.3,1044.8z M2547.3,1141.4c-12,12-27.6,17.9-43.3,17.9
							c-15.7,0-31.4-6-43.3-17.9c-23.9-23.9-23.9-62.7,0-86.6c12-12,27.6-17.9,43.3-17.9c15.7,0,31.4,6,43.3,17.9
							C2571.2,1078.7,2571.2,1117.5,2547.3,1141.4z"/>
					</g>
					<g>
						<path class="st2" d="M2517.4,1111.5c-7.4,7.4-19.5,7.4-27,0c-7.4-7.4-7.4-19.5,0-27c7.4-7.4,19.5-7.4,27,0
							C2524.9,1092,2524.9,1104.1,2517.4,1111.5z"/>
					</g>
					<g>
						<path class="st2" d="M2547.3,1054.7c-12-12-27.6-17.9-43.3-17.9c-15.7,0-31.4,6-43.3,17.9c-23.9,23.9-23.9,62.7,0,86.6
							c12,12,27.6,17.9,43.3,17.9c15.7,0,31.4-6,43.3-17.9C2571.2,1117.5,2571.2,1078.7,2547.3,1054.7z M2526.4,1120.5
							c-6,6-14,9.3-22.4,9.3c-8.5,0-16.5-3.3-22.4-9.3c-6-6-9.3-14-9.3-22.4s3.3-16.5,9.3-22.4c6-6,14-9.3,22.4-9.3
							c8.5,0,16.5,3.3,22.4,9.3C2538.8,1088,2538.8,1108.1,2526.4,1120.5z"/>
					</g>
					<g>
						<path class="st3" d="M2526.4,1075.6c-6-6-14-9.3-22.4-9.3c-8.5,0-16.5,3.3-22.4,9.3c-6,6-9.3,14-9.3,22.4s3.3,16.5,9.3,22.4
							c6,6,14,9.3,22.4,9.3c8.5,0,16.5-3.3,22.4-9.3C2538.8,1108.1,2538.8,1088,2526.4,1075.6z M2517.4,1111.5
							c-7.4,7.4-19.5,7.4-27,0c-7.4-7.4-7.4-19.5,0-27c7.4-7.4,19.5-7.4,27,0C2524.9,1092,2524.9,1104.1,2517.4,1111.5z"/>
					</g>
				</g>
				<g>
					<path class="st3" d="M2504,1103.1c-1.3,0-2.6-0.5-3.5-1.5c-2-2-2-5.1,0-7.1l97.6-97.6c2-2,5.1-2,7.1,0c2,2,2,5.1,0,7.1
						l-97.6,97.6C2506.5,1102.6,2505.2,1103.1,2504,1103.1z"/>
				</g>
				<g>
					<path class="st2" d="M2630.9,997.5l-21.8,21.8c-1.1,1.1-2.7,1.6-4.2,1.3l-16.4-3.3c-1.8-0.4-3.3-1.8-3.6-3.6l-3.3-16.4
						c-0.3-1.5,0.2-3.1,1.3-4.2l21.8-21.8l4.4,21.9L2630.9,997.5z"/>
				</g>
			</g>
		</g>
	</g>
</g>
<g id="DESKTOP">
	<g>
		<g>
			<path class="st4" d="M1597.9,1737.8l-21.3-6.2c-23-6.6-39.7-26.6-42.1-50.4l-11.5-112.4h-300.4l-11.5,112.4
				c-2.4,23.8-19.1,43.8-42.1,50.4l-21.3,6.2c-3,0.9-5.3,3.4-5.7,6.4c-0.5,4.6,3,8.5,7.5,8.5H1596c4.5,0,8.1-3.9,7.5-8.5
				C1603.2,1741.1,1600.9,1738.6,1597.9,1737.8z"/>
		</g>
		<g>
			<path class="st3" d="M2112.4,593.8v924.6c0,25.8-20.9,46.6-46.6,46.6h-1386c-25.7,0-46.6-20.9-46.6-46.6V593.8
				c0-25.8,20.9-46.6,46.6-46.6h1386C2091.5,547.2,2112.4,568.1,2112.4,593.8z"/>
		</g>
		<g>
			<path class="st5" d="M2084.4,560.2c11.7,0,21.2,9.5,21.2,21.2v949.5c0,11.7-9.5,21.2-21.2,21.2H661.2c-11.7,0-21.2-9.5-21.2-21.2
				V581.4c0-11.7,9.5-21.2,21.2-21.2H2084.4 M2084.4,533.6H661.2c-26.4,0-47.9,21.4-47.9,47.9v949.5c0,26.4,21.4,47.9,47.9,47.9
				h1423.2c26.4,0,47.9-21.4,47.9-47.9V581.4C2132.3,555,2110.8,533.6,2084.4,533.6L2084.4,533.6z"/>
		</g>
		<g>
			<path class="st5" d="M2132.3,1440.1v90.8c0,26.4-21.4,47.9-47.9,47.9H661.2c-26.4,0-47.9-21.4-47.9-47.9v-90.8H2132.3z"/>
		</g>
		<g>
			<g>
				<circle class="st3" cx="1372.8" cy="1509.4" r="26.9"/>
			</g>
		</g>
		<g>
			<path class="st1" d="M1379,547.2c0,3.4-2.8,6.2-6.2,6.2c-3.4,0-6.2-2.8-6.2-6.2c0-3.4,2.8-6.2,6.2-6.2
				C1376.2,541,1379,543.8,1379,547.2z"/>
		</g>
		<g>
			<path class="st6" d="M2084.4,563.4c9.9,0,18,8.1,18,18v855.5H643.2V581.4c0-9.9,8.1-18,18-18H2084.4 M2084.4,560.2H661.2
				c-11.7,0-21.2,9.5-21.2,21.2v858.7h1465.6V581.4C2105.6,569.7,2096.1,560.2,2084.4,560.2L2084.4,560.2z"/>
		</g>
		<g>
			<path class="st5" d="M1149.5,1737.6H1596c4.2,0,7.6,3.4,7.6,7.6l0,0c0,4.2-3.4,7.6-7.6,7.6h-446.4c-4.2,0-7.6-3.4-7.6-7.6l0,0
				C1142,1740.9,1145.4,1737.6,1149.5,1737.6z"/>
		</g>
	</g>
</g>
<g id="PAPER">
	<g>
		<g>
			<g>
				<path class="st3" d="M1482.4,446.8h-845c-24,0-43.4,19.4-43.4,43.4v1263.4h845c24,0,43.4-19.4,43.4-43.4V533.7h43.4v-86.8
					H1482.4z"/>
			</g>
			<g>
				<path class="st1" d="M1439,1753.6c-24,0-43.4-19.4-43.4-43.4v-142.4l-888.4,0v142.4c0,24,19.4,43.4,43.4,43.4v0H1439z"/>
			</g>
			<g>
				<path class="st2" d="M1525.8,446.8L1525.8,446.8c24,0,43.4,19.4,43.4,43.4v43.4h-86.8v-43.4
					C1482.4,466.3,1501.8,446.8,1525.8,446.8z"/>
			</g>
			<g>
				<path class="st5" d="M1439,1754.1h-0.2v-1h0.2c23.7,0,42.9-19.3,42.9-42.9v-1177h86.8v-42.9c0-23.7-19.3-42.9-42.9-42.9H637.4
					c-23.7,0-42.9,19.3-42.9,42.9v1077.5h-1V490.3c0-24.2,19.7-43.9,43.9-43.9h888.4c24.2,0,43.9,19.7,43.9,43.9v43.9h-86.8v1176
					C1482.9,1734.4,1463.2,1754.1,1439,1754.1z"/>
			</g>
			<g>
				<path class="st5" d="M1482.9,533.7h-1v-43.4c0-24.2,19.7-43.9,43.9-43.9v1c-23.7,0-42.9,19.3-42.9,42.9V533.7z"/>
			</g>
			<g>
				<path class="st5" d="M1439,1754.1H550v0c-24-0.3-43.4-19.9-43.4-43.9v-142.9l889.4,0v142.9c0,23.7,19.3,42.9,42.9,42.9V1754.1z
					 M551,1753.1h878.6c-19.7-4.3-34.6-21.9-34.6-42.9v-141.9l-887.4,0v141.9c0,23.7,19.3,42.9,42.9,42.9L551,1753.1z"/>
			</g>
		</g>
		<g>
			<g>
				<g>
					<path class="st3" d="M1367.5,585.8h-681c-20.8,0-37.7-16.9-37.7-37.7v0c0-20.8,16.9-37.7,37.7-37.7h681
						c20.8,0,37.7,16.9,37.7,37.7v0C1405.2,568.9,1388.4,585.8,1367.5,585.8z"/>
				</g>
			</g>
			<g>
				<g>
					<path class="st5" d="M1367.5,586.3h-681c-21.1,0-38.2-17.1-38.2-38.2c0-21.1,17.1-38.2,38.2-38.2h681
						c21.1,0,38.2,17.1,38.2,38.2C1405.7,569.1,1388.6,586.3,1367.5,586.3z M686.6,510.9c-20.5,0-37.2,16.7-37.2,37.2
						c0,20.5,16.7,37.2,37.2,37.2h681c20.5,0,37.2-16.7,37.2-37.2c0-20.5-16.7-37.2-37.2-37.2H686.6z"/>
				</g>
			</g>
			<g>
				<g>
					<path class="st5" d="M791,549.5v11.2h-2.6v-10.9c0-4.1-2.1-6.2-5.8-6.2c-4.1,0-6.8,2.6-6.8,7v10.1h-2.6v-27.2h2.6v11.3
						c1.4-2.2,4-3.5,7.2-3.5C787.8,541.2,791,543.9,791,549.5z"/>
				</g>
				<g>
					<path class="st5" d="M808.3,559.5c-1,0.9-2.6,1.4-4.1,1.4c-3.6,0-5.6-2.1-5.6-5.6v-11.7h-3.4v-2.2h3.4v-4.2h2.6v4.2h5.9v2.2
						h-5.9v11.5c0,2.3,1.2,3.5,3.3,3.5c1.1,0,2.1-0.3,2.9-1L808.3,559.5z"/>
				</g>
				<g>
					<path class="st5" d="M822.6,559.5c-1,0.9-2.6,1.4-4.1,1.4c-3.6,0-5.6-2.1-5.6-5.6v-11.7h-3.4v-2.2h3.4v-4.2h2.6v4.2h5.9v2.2
						h-5.9v11.5c0,2.3,1.2,3.5,3.3,3.5c1.1,0,2.1-0.3,2.9-1L822.6,559.5z"/>
				</g>
				<g>
					<path class="st5" d="M846.9,551c0,5.9-4.1,9.8-9.6,9.8c-3.1,0-5.7-1.3-7.3-3.8v10.7h-2.6v-26.4h2.5v3.8c1.6-2.6,4.3-4,7.4-4
						C842.8,541.2,846.9,545.2,846.9,551z M844.3,551c0-4.5-3.1-7.5-7.2-7.5c-4.1,0-7.2,3-7.2,7.5c0,4.5,3.1,7.5,7.2,7.5
						C841.2,558.5,844.3,555.5,844.3,551z"/>
				</g>
				<g>
					<path class="st5" d="M849.5,558.5l1.2-2.1c1.5,1.2,4.1,2.2,6.9,2.2c3.7,0,5.2-1.2,5.2-3.2c0-5-12.5-1.1-12.5-8.7
						c0-3.2,2.7-5.5,7.6-5.5c2.5,0,5.2,0.7,6.8,1.8l-1.1,2.1c-1.7-1.2-3.7-1.7-5.7-1.7c-3.5,0-5,1.4-5,3.2c0,5.2,12.5,1.3,12.5,8.7
						c0,3.3-2.9,5.5-8,5.5C854.2,560.8,851.1,559.8,849.5,558.5z"/>
				</g>
				<g>
					<path class="st5" d="M868.5,543.2c0-1.1,0.9-2,1.9-2c1.1,0,2,0.8,2,2c0,1.1-0.9,2-2,2C869.4,545.2,868.5,544.3,868.5,543.2z
						 M868.5,558.8c0-1.1,0.9-2,1.9-2c1.1,0,2,0.8,2,2c0,1.1-0.9,2-2,2C869.4,560.8,868.5,560,868.5,558.8z"/>
				</g>
				<g>
					<path class="st5" d="M887.1,529.8h2.4l-12.1,34.6H875L887.1,529.8z"/>
				</g>
				<g>
					<path class="st5" d="M897,529.8h2.4l-12.1,34.6h-2.4L897,529.8z"/>
				</g>
				<g>
					<path class="st5" d="M929,541.4l-7.3,19.3h-2.5l-6.1-15.8l-6.1,15.8h-2.5l-7.3-19.3h2.5l6.1,16.4l6.2-16.4h2.2l6.2,16.4
						l6.1-16.4H929z"/>
				</g>
				<g>
					<path class="st5" d="M961,541.4l-7.3,19.3h-2.5l-6.1-15.8l-6.1,15.8h-2.5l-7.3-19.3h2.5l6.1,16.4l6.2-16.4h2.2l6.2,16.4
						l6.1-16.4H961z"/>
				</g>
				<g>
					<path class="st5" d="M993.1,541.4l-7.3,19.3h-2.5l-6.1-15.8l-6.1,15.8h-2.5l-7.3-19.3h2.5l6.1,16.4l6.2-16.4h2.2l6.2,16.4
						l6.1-16.4H993.1z"/>
				</g>
				<g>
					<path class="st5" d="M994.1,558.8c0-1.1,0.9-2,1.9-2c1.1,0,2,0.8,2,2c0,1.1-0.9,2-2,2C995,560.8,994.1,560,994.1,558.8z"/>
				</g>
				<g>
					<path class="st5" d="M1013.7,533.4h2.4v34.3h-2.4V533.4z"/>
				</g>
			</g>
			<g>
				<path class="st1" d="M742.4,519.4L742.4,519.4c0.7,0,1.3,0.6,1.3,1.3v54.7c0,0.7-0.6,1.3-1.3,1.3l0,0c-0.7,0-1.3-0.6-1.3-1.3
					v-54.7C741.1,520,741.7,519.4,742.4,519.4z"/>
			</g>
			<g>
				
					<ellipse transform="matrix(0.2319 -0.9727 0.9727 0.2319 2.0261 1098.7009)" class="st1" cx="696.8" cy="548.1" rx="22" ry="22"/>
			</g>
		</g>
		<g>
			<g>
				<path class="st1" d="M1106.7,685.6H688.5c-7.6,0-13.8-6.2-13.8-13.8l0,0c0-7.6,6.2-13.8,13.8-13.8h418.2
					c7.6,0,13.8,6.2,13.8,13.8l0,0C1120.4,679.4,1114.3,685.6,1106.7,685.6z"/>
			</g>
			<g>
				<path class="st1" d="M928,740.5H688.5c-7.6,0-13.8-6.2-13.8-13.8l0,0c0-7.6,6.2-13.8,13.8-13.8H928c7.6,0,13.8,6.2,13.8,13.8
					l0,0C941.8,734.3,935.6,740.5,928,740.5z"/>
			</g>
			<g>
				<path class="st1" d="M1106.7,795.4H688.5c-7.6,0-13.8-6.2-13.8-13.8l0,0c0-7.6,6.2-13.8,13.8-13.8h418.2
					c7.6,0,13.8,6.2,13.8,13.8l0,0C1120.4,789.3,1114.3,795.4,1106.7,795.4z"/>
			</g>
			<g>
				<path class="st7" d="M928,850.4H688.5c-7.6,0-13.8-6.2-13.8-13.8v0c0-7.6,6.2-13.8,13.8-13.8H928c7.6,0,13.8,6.2,13.8,13.8v0
					C941.8,844.2,935.6,850.4,928,850.4z"/>
			</g>
			<g>
				<path class="st7" d="M1106.7,905.3H688.5c-7.6,0-13.8-6.2-13.8-13.8v0c0-7.6,6.2-13.8,13.8-13.8h418.2c7.6,0,13.8,6.2,13.8,13.8
					v0C1120.4,899.1,1114.3,905.3,1106.7,905.3z"/>
			</g>
			<g>
				<path class="st1" d="M928,960.2H688.5c-7.6,0-13.8-6.2-13.8-13.8l0,0c0-7.6,6.2-13.8,13.8-13.8H928c7.6,0,13.8,6.2,13.8,13.8
					l0,0C941.8,954,935.6,960.2,928,960.2z"/>
			</g>
			<g>
				<path class="st1" d="M1295.6,893h-112.1c-4.2,0-7.7-3.4-7.7-7.7l0,0c0-4.2,3.4-7.7,7.7-7.7h112.1c4.2,0,7.7,3.4,7.7,7.7l0,0
					C1303.2,889.6,1299.8,893,1295.6,893z"/>
			</g>
			<g>
				<path class="st1" d="M1377.8,923.6h-194.3c-4.2,0-7.7-3.4-7.7-7.7v0c0-4.2,3.4-7.7,7.7-7.7h194.3c4.2,0,7.7,3.4,7.7,7.7v0
					C1385.4,920.1,1382,923.6,1377.8,923.6z"/>
			</g>
			<g>
				<path class="st1" d="M1377.8,954.1H1220c-4.2,0-7.7-3.4-7.7-7.7l0,0c0-4.2,3.4-7.7,7.7-7.7h157.8c4.2,0,7.7,3.4,7.7,7.7l0,0
					C1385.4,950.7,1382,954.1,1377.8,954.1z"/>
			</g>
			<g>
				<path class="st1" d="M1377.8,984.6h-194.3c-4.2,0-7.7-3.4-7.7-7.7l0,0c0-4.2,3.4-7.7,7.7-7.7h194.3c4.2,0,7.7,3.4,7.7,7.7l0,0
					C1385.4,981.2,1382,984.6,1377.8,984.6z"/>
			</g>
			<g>
				<path class="st1" d="M1295.6,1015.1h-112.1c-4.2,0-7.7-3.4-7.7-7.7l0,0c0-4.2,3.4-7.7,7.7-7.7h112.1c4.2,0,7.7,3.4,7.7,7.7l0,0
					C1303.2,1011.7,1299.8,1015.1,1295.6,1015.1z"/>
			</g>
			<g>
				<path class="st1" d="M1268.3,834.7h109c4.5,0,8.1-3.6,8.1-8.1V666.2c0-4.5-3.6-8.1-8.1-8.1h-109c-4.5,0-8.1,3.6-8.1,8.1v160.4
					C1260.2,831.1,1263.8,834.7,1268.3,834.7z"/>
			</g>
			<g>
				<path class="st7" d="M1187,730.8h47.9c4.5,0,8.1-3.6,8.1-8.1v-56.5c0-4.5-3.6-8.1-8.1-8.1H1187c-4.5,0-8.1,3.6-8.1,8.1v56.5
					C1178.8,727.2,1182.5,730.8,1187,730.8z"/>
			</g>
			<g>
				<path class="st1" d="M1187,834.7h47.9c4.5,0,8.1-3.6,8.1-8.1v-20.1c0-4.5-3.6-8.1-8.1-8.1H1187c-4.5,0-8.1,3.6-8.1,8.1v20.1
					C1178.8,831.1,1182.5,834.7,1187,834.7z"/>
			</g>
			<g>
				<path class="st7" d="M1187,782.8h47.9c4.5,0,8.1-3.6,8.1-8.1v-20.1c0-4.5-3.6-8.1-8.1-8.1H1187c-4.5,0-8.1,3.6-8.1,8.1v20.1
					C1178.8,779.1,1182.5,782.8,1187,782.8z"/>
			</g>
			<g>
				<path class="st1" d="M1106.7,1344.7H688.5c-7.6,0-13.8-6.2-13.8-13.8v0c0-7.6,6.2-13.8,13.8-13.8h418.2
					c7.6,0,13.8,6.2,13.8,13.8v0C1120.4,1338.5,1114.3,1344.7,1106.7,1344.7z"/>
			</g>
			<g>
				<path class="st7" d="M928,1399.6H688.5c-7.6,0-13.8-6.2-13.8-13.8v0c0-7.6,6.2-13.8,13.8-13.8H928c7.6,0,13.8,6.2,13.8,13.8v0
					C941.8,1393.4,935.6,1399.6,928,1399.6z"/>
			</g>
			<g>
				<path class="st1" d="M1106.7,1454.5H688.5c-7.6,0-13.8-6.2-13.8-13.8l0,0c0-7.6,6.2-13.8,13.8-13.8h418.2
					c7.6,0,13.8,6.2,13.8,13.8l0,0C1120.4,1448.3,1114.3,1454.5,1106.7,1454.5z"/>
			</g>
			<g>
				<path class="st1" d="M928,1509.4H688.5c-7.6,0-13.8-6.2-13.8-13.8l0,0c0-7.6,6.2-13.8,13.8-13.8H928c7.6,0,13.8,6.2,13.8,13.8
					l0,0C941.8,1503.3,935.6,1509.4,928,1509.4z"/>
			</g>
			<g>
				<path class="st1" d="M1295.6,1332.4h-112.1c-4.2,0-7.7-3.4-7.7-7.7l0,0c0-4.2,3.4-7.7,7.7-7.7h112.1c4.2,0,7.7,3.4,7.7,7.7l0,0
					C1303.2,1329,1299.8,1332.4,1295.6,1332.4z"/>
			</g>
			<g>
				<path class="st1" d="M1377.8,1362.9h-194.3c-4.2,0-7.7-3.4-7.7-7.7l0,0c0-4.2,3.4-7.7,7.7-7.7h194.3c4.2,0,7.7,3.4,7.7,7.7l0,0
					C1385.4,1359.5,1382,1362.9,1377.8,1362.9z"/>
			</g>
			<g>
				<path class="st1" d="M1377.8,1393.5H1220c-4.2,0-7.7-3.4-7.7-7.7v0c0-4.2,3.4-7.7,7.7-7.7h157.8c4.2,0,7.7,3.4,7.7,7.7v0
					C1385.4,1390,1382,1393.5,1377.8,1393.5z"/>
			</g>
			<g>
				<path class="st1" d="M1377.8,1424h-194.3c-4.2,0-7.7-3.4-7.7-7.7l0,0c0-4.2,3.4-7.7,7.7-7.7h194.3c4.2,0,7.7,3.4,7.7,7.7l0,0
					C1385.4,1420.6,1382,1424,1377.8,1424z"/>
			</g>
			<g>
				<path class="st1" d="M1295.6,1454.5h-112.1c-4.2,0-7.7-3.4-7.7-7.7l0,0c0-4.2,3.4-7.7,7.7-7.7h112.1c4.2,0,7.7,3.4,7.7,7.7l0,0
					C1303.2,1451.1,1299.8,1454.5,1295.6,1454.5z"/>
			</g>
			<g>
				<path class="st7" d="M1268.3,1274.1h109c4.5,0,8.1-3.6,8.1-8.1v-160.4c0-4.5-3.6-8.1-8.1-8.1h-109c-4.5,0-8.1,3.6-8.1,8.1v160.4
					C1260.2,1270.4,1263.8,1274.1,1268.3,1274.1z"/>
			</g>
			<g>
				<path class="st1" d="M1187,1170.2h47.9c4.5,0,8.1-3.6,8.1-8.1v-56.5c0-4.5-3.6-8.1-8.1-8.1H1187c-4.5,0-8.1,3.6-8.1,8.1v56.5
					C1178.8,1166.5,1182.5,1170.2,1187,1170.2z"/>
			</g>
			<g>
				<path class="st1" d="M1187,1274.1h47.9c4.5,0,8.1-3.6,8.1-8.1v-20.1c0-4.5-3.6-8.1-8.1-8.1H1187c-4.5,0-8.1,3.6-8.1,8.1v20.1
					C1178.8,1270.4,1182.5,1274.1,1187,1274.1z"/>
			</g>
			<g>
				<path class="st1" d="M1187,1222.1h47.9c4.5,0,8.1-3.6,8.1-8.1v-20.1c0-4.5-3.6-8.1-8.1-8.1H1187c-4.5,0-8.1,3.6-8.1,8.1v20.1
					C1178.8,1218.5,1182.5,1222.1,1187,1222.1z"/>
			</g>
		</g>
	</g>
	<g class="st8">
		<rect x="1482.4" y="533.4" class="st5" width="20.8" height="1045.3"/>
	</g>
</g>
<g id="CHARACTER">
	<g>
		<g>
			<g>
				<path class="st7" d="M2073.6,1720.1c0.9,8.5,0.3,18.3-0.4,25c-0.5,4.6-1,7.6-1,7.6h-77.7c0,0-2.1-3.3-2-7.6
					c0-1.4,0.3-2.8,0.9-4.3c2.5-6.3,13.7-10.1,13.7-10.1s0,0,0,0l29.4-31.3c-1.5-5.3-0.2-9,3.3-10.6c11.5-5.4,34.8,6.8,36.3,13.3
					S2073.6,1720.1,2073.6,1720.1L2073.6,1720.1z"/>
			</g>
		</g>
		<g>
			<g>
				<path class="st7" d="M2331.8,1744.9v2.7c0,2.5-2.1,4.6-4.6,4.6l-55.9,0.5c-2.2,0-4.1-1.5-4.5-3.7c-0.8-4.4,2.4-6.4,2.4-6.4
					c-2.5-5.1-1.5-12.9-0.6-15.7c0.9-2.9,1.5-5.8,1.5-8.9v-1.4c0-2.1,1.1-19.9,1.2-20.1c0,0,0,0,0,0s-3.3-17,20.3-16.4
					c26,0.7,20.4,17.6,20.4,17.6l2,13.9c4,9.3,9.6,11.9,14.8,17.8c2,2.3,2.7,5,2.7,7.3c0,3.6-1.4,6.5-1.4,6.5
					C2331,1743.1,2331.8,1743.9,2331.8,1744.9z"/>
			</g>
			<g>
				<path class="st1" d="M2331.8,1744.9v2.7c0,2.5-2.1,4.6-4.6,4.6l-55.9,0.5c-2.2,0-4.1-1.5-4.5-3.7c-0.8-4.4,2.4-6.4,2.4-6.4l0,0
					c5.7,0,46.4,0.9,52.8,1c2.6,0.1,5.5-0.1,8-0.5C2331,1743.1,2331.8,1743.9,2331.8,1744.9z"/>
			</g>
		</g>
		<g>
			<path class="st6" d="M2259.6,1308.6l26.6,182c0,0,18.2,58.5,21.9,140.2l9.8,65c-11.1,16-47.2,8.6-47.2,8.6l-1.5-41.7l-19.5-124.6
				c0,0-9.7-12.6-11.6-35.5c0,0-32.6-90.7-66.9-126.3c0,0-28.5,57.2-54.2,131.1l-33.4,168.3l-4.3,38.9c0,0-23.5,21-49.8-8.1
				l15.5-62.3l18-128.7c0,0-2.4-16,2.2-31.8c0,0,4.1-111.2,26.6-182.9L2259.6,1308.6z"/>
		</g>
		<g>
			<path class="st7" d="M2269.8,1129.8c0,0-2.8,55.1-2,73.5c0.7,16.4,7.5,65.1,7.5,65.1c0.1,0.8,0.1,1.5,0.1,2.2
				c0,8.7-5.8,16.4-14.2,18.7c-0.7,0.2-1.4,0.3-2.1,0.5l0.4,18.7c-2.8,0.9-5.5,1.7-8.3,2.4c-87.4,24-163.1-11.8-163.1-11.8l4.9-15.7
				c-2.3-1.8-4.1-3.8-5.5-5.9c-4.9-7.3-5.4-16.6-1.7-24.6c5.8-12.6,9.7-27.6,12.3-41.8c0.5-2.6,1-5.2,1.4-7.8
				c3.7-23.2,4.2-42.5,4.2-42.5c-6.4,24.5-27.9,44.4-27.9,44.4c-15.8,24.9-29.2,1-29.2,1c-15.6-17.1-14.9-38.6-14.9-38.6l30.1-39.9
				l30.5-62.2c3.6-7.4,9.8-13.2,17.3-16.5l38.7-16.8c20-27.9,51.1-30.1,72.8-27.3c13.7,1.7,23.9,13.5,23.9,27.2c0,0.4,0,0.7,0,1.1
				l44.4,22c2.8,1.4,5.2,3.5,6.9,6.2l0,0L2269.8,1129.8z"/>
		</g>
		<g>
			<path class="st1" d="M2073.2,1745.1c-0.5,4.6-1,7.6-1,7.6h-77.7c0,0-2.1-3.3-2-7.6H2073.2z"/>
		</g>
		<g class="st8">
			<polygon class="st9" points="2107.2,1148.3 2104.9,1101.3 2098,1143.3 			"/>
		</g>
		<g class="st8">
			<path class="st9" d="M2253.9,1125.1l15.7,9.5l-1.1,26.2C2268.5,1160.8,2266.7,1135.5,2253.9,1125.1z"/>
		</g>
		<g class="st8">
			<path class="st9" d="M2249.2,1288.8l-26.9-10.6c-7.7-3-15.1-6.7-22.1-11l-77.6-47.3L2249.2,1288.8z"/>
		</g>
		<g>
			<g>
				<path class="st1" d="M1910.8,827.4c-49.3-26.8-106.2-32.9-160.1-17c-53.9,15.9-98.3,51.8-125.1,101.2
					c-26.9,49.3-32.9,106.2-17,160.1c15.9,53.9,51.8,98.3,101.2,125.2c49.3,26.8,106.2,32.9,160,17c46.7-13.8,86.3-42.7,113.5-82.2
					l122.7,66.8l21.2-39l-122.7-66.8C2045.3,994.5,2006.1,879.2,1910.8,827.4z M1956,1091.4c-21.2,38.9-56.2,67.3-98.7,79.8
					c-42.5,12.5-87.3,7.8-126.2-13.4c-38.9-21.2-67.3-56.2-79.8-98.7c-12.5-42.5-7.8-87.3,13.4-126.3c21.2-38.9,56.2-67.3,98.7-79.8
					c42.5-12.5,87.3-7.8,126.2,13.4C1969.9,910.1,1999.7,1011.1,1956,1091.4z"/>
			</g>
			<g>
				<path class="st5" d="M2312.8,1285.7c-4.4,8-11.6,13.5-19.7,15.9c-8.2,2.4-17.3,1.7-25.4-2.7l-150.1-81.6
					c-6-3.3-10.6-8.1-13.5-13.7c-2.2-4.2-2.2-9.3,0.1-13.5l15.1-27.8c2.3-4.2,6.5-7,11.3-7.4c6.3-0.6,12.8,0.7,18.8,3.9L2299,1240
					C2315.2,1248.8,2321.8,1269.6,2312.8,1285.7z"/>
			</g>
			<g class="st8">
				<polygon class="st5" points="2204.6,1230.4 2215.8,1234.7 2192.6,1258 2230,1278.4 2231.2,1260.4 2221.5,1225.1 				"/>
			</g>
			<g class="st8">
				<path class="st5" d="M2030.1,1156.9l5.1,2.8l-0.4-5.1c-0.2-1.9,0.1-3.8,0.9-5.5l1.4-3.5l-8.9,4L2030.1,1156.9z"/>
			</g>
			<g>
				<path class="st5" d="M1810.1,1223c-34.7,0-69.1-8.7-100.5-25.7c-49.5-26.9-85.5-71.4-101.4-125.5c-16-54-9.9-111,17-160.4
					c26.9-49.5,71.5-85.5,125.4-101.4c54-15.9,111-9.9,160.4,17l0,0c46,25,80.8,66,98.1,115.5c17.1,49,15.7,102.2-3.9,149.8
					l122.8,66.8l-0.2,0.4l-21.5,39.5l-0.4-0.2l-122.3-66.5c-27.6,39.9-66.8,68.3-113.5,82.1C1850.3,1220.1,1830.1,1223,1810.1,1223z
					 M1810.6,802.2c-20,0-40,2.9-59.7,8.7c-53.7,15.9-98.1,51.7-124.8,100.9c-26.8,49.2-32.8,105.9-16.9,159.7
					c15.9,53.8,51.7,98.1,101,124.9c49.2,26.8,105.9,32.8,159.7,16.9c46.7-13.8,85.8-42.2,113.3-82l0.3-0.4l0.4,0.2l122.3,66.5
					l20.8-38.2l-122.7-66.7l0.2-0.4c41.2-99.4,0.9-213.1-93.6-264.5C1879.4,810.8,1845.2,802.2,1810.6,802.2z M1810.1,1178.6
					c-27.4,0-54.5-6.8-79.3-20.3c-39.1-21.2-67.5-56.4-80.1-99c-12.6-42.6-7.8-87.6,13.4-126.6c21.2-39,56.4-67.5,99-80
					c42.6-12.6,87.6-7.8,126.6,13.4c80.6,43.8,110.5,145.1,66.6,225.6l0,0c-21.3,39-56.4,67.5-99,80
					C1841.9,1176.3,1825.9,1178.6,1810.1,1178.6z M1810.5,846.7c-15.7,0-31.5,2.3-47.1,6.8c-42.3,12.5-77.3,40.8-98.4,79.6
					c-21.1,38.8-25.9,83.5-13.4,125.9c12.5,42.3,40.8,77.3,79.6,98.4c38.8,21.1,83.5,25.8,125.8,13.3c42.3-12.5,77.3-40.8,98.4-79.6
					l0,0c43.6-80.1,13.9-180.7-66.2-224.3C1864.7,853.5,1837.8,846.7,1810.5,846.7z"/>
			</g>
		</g>
		<g>
			<path class="st10" d="M2246,1220c0,0,4.5,15,15.1,27c0,0-3.3,9-15.8,15.5c-5.5,2.9-10,7.3-13.2,12.6l-1.5,2.4
				c-0.4,0.7-0.9,1.4-1.5,2.1c0,0-3,3.1-4.2,4c-1.6,1.1-4.1-0.2-3.5-2.3c0.3-0.9,0.9-2.7,1.3-3.6c1.4-3,5.9-11.8,5.9-11.8l-10.2,7
				c0,0-5.7,3.5-7.5,4.8c-1.6,1.1-4.3-1.8-3.6-4l1.6-3.9c0.3-0.8,0.8-1.5,1.4-2l0,0l8.9-7.6l-10.6,5.6c0,0,0,0,0,0
				c-0.6,0.3-1.3,0.6-1.9,0.8c-2,0.7-6.4,2.1-8.1,2.8c-2.2,0.8-3.5-2.6-2.4-3.8c1.2-1.2,4.9-5,4.9-5l10.5-9.2l-10.1,2.4
				c-0.9,0.2-1.8,0.5-2.7,0.9c0,0-10.6,5.8-14.4,7.3c-1.5,0.6-2.4,0-2.9-0.6l0,0c-0.7-0.8-0.6-2.1,0.3-2.8l13.4-10.9
				c0.8-0.7,1.7-1.2,2.7-1.7c4.5-2.1,18.5-9.2,22.7-17.3l-6.4-0.6c0,0-10.2,6.3-15.5-1.2c-1.3-1.8-0.1-4.3,2.1-4.6l11-1.5
				c1-0.1,2-0.4,2.9-0.7l6.1-2.4c2.1-0.8,4.4-1.1,6.6-0.7L2246,1220z"/>
		</g>
		<g>
			<g>
				<path class="st10" d="M2003.5,1147.1l1.7-5.7c0.4-1.4,1.4-2.5,2.7-3.1l13.7-6.2c2.4-1.1,5.3-0.4,7,1.7l0,0l0.1,0
					c2.8-1.5,6.3,0.5,6.3,3.7c0,0.6-0.2,1.2-0.5,1.8l0,0c1.8-0.4,3.5,0.9,3.6,2.7c0.1,2-0.9,4.7-5.4,7.3c0,0,2.5,2.8-2.3,7.2
					l-0.5,0.9l12.5,6.8c0,0-14.7,5.5-18.9,5.3c-1.6-0.1-2.5-1.1-3-2l0,0l-0.7-0.3c-2.5-0.9-4.5-2.7-5.7-5l0,0l-0.4-0.1
					c-2.9-0.4-5.2-2.7-5.7-5.6l0,0l-2.7-2.5C2003.4,1152.3,2002.7,1149.6,2003.5,1147.1z"/>
			</g>
			<g>
				<path class="st11" d="M2032.7,1149.3c-0.5-0.6-1.5-0.7-2.1-0.2c-0.6,0.5-1.1,1.1-1.7,1.6l-3.3,3.3l0,0c-1.5,2.1-3.1,4.2-4.7,6.3
					c-0.8,1-1.2,2.3-1.3,3.6c0,0.6,0,1.3,0.2,1.9c0.2,0.6,0.4,1.2,0.6,1.8c-0.2-0.6-0.5-1.2-0.7-1.8c-0.2-0.6-0.3-1.3-0.3-1.9
					c0-1.3,0.5-2.6,1.3-3.7c1.5-2.1,3.1-4.2,4.6-6.3l0,0l0,0l3.4-3.2c0.6-0.5,1.1-1.1,1.7-1.6
					C2031.2,1148.6,2032.2,1148.7,2032.7,1149.3z"/>
			</g>
			<g>
				<path class="st11" d="M2014.1,1162.3c-0.4-1.4-0.6-2.8-0.6-4.2c0-1.4,0-2.9,0.4-4.3c0.4-1.4,1.3-2.6,2.6-3.3
					c1.2-0.7,2.5-1.4,3.7-2.1c2.4-1.4,5-2.8,7.3-4.4c2.3-1.6,4.7-3.2,7.1-4.7l0,0c-2.3,1.7-4.6,3.3-6.9,4.9
					c-0.6,0.4-1.2,0.8-1.8,1.2c-0.6,0.4-1.2,0.8-1.8,1.1l-3.7,2c-1.2,0.7-2.5,1.4-3.7,2.1c-1.2,0.7-2.1,1.9-2.5,3.3
					C2013.4,1156.7,2013.5,1159.6,2014.1,1162.3L2014.1,1162.3z"/>
			</g>
			<g>
				<path class="st11" d="M2008,1156.7c-0.2-1.4-0.2-2.8,0-4.1c0.1-1.4,0.4-2.7,0.9-4c0.5-1.3,1.3-2.5,2.3-3.4
					c1-0.9,2.3-1.5,3.5-2.2l3.6-2c1.2-0.7,2.4-1.4,3.5-2.1l6.8-4.8l0,0c-2.2,1.7-4.4,3.4-6.6,5c-2.3,1.5-4.8,2.8-7.2,4.1l-1.8,1
					c-0.6,0.3-1.2,0.7-1.7,1.2c-1,0.9-1.7,2.1-2.2,3.4C2008.2,1151.1,2007.8,1153.9,2008,1156.7L2008,1156.7z"/>
			</g>
		</g>
		<g>
			<path class="st7" d="M2246,1220l15.1-7.8l0,0c-1-3.1,0.6-6.4,3.6-7.5c8.6-3.2,25-10.7,36.7-29.5c0,0-3.2-6.2,1.4-8.3l-2.1-0.6
				c-2-0.5-3.7-1.8-4.8-3.5l-14-20.5l-32.1-20.2l46.6-60.6l56.9,82.4c0,0,25.4,25.9,4.6,42.1c0,0-35.3,39.9-72.1,55.7
				c-3.3,1.4-7.1-0.1-9.2-2.4l0,0l-15.7,7.7C2261,1246.9,2249.2,1237.1,2246,1220z"/>
		</g>
		<g>
			<g>
				<path class="st12" d="M2138.3,951.2c0,0-2.1,11.7,0.4,17.4s5.5,3.6,5.5,3.6s-7.3-10.7-5.1-21.2L2138.3,951.2z"/>
			</g>
			<g>
				<path class="st12" d="M2221,976.5l21.7-21.6c0,0,3.6,12.8-3.7,22.4c-4.5,6-1.4,11.6-1.4,11.6s-6.8-0.3-5.2-7c0,0,0,0,0,0
					c-0.2,0.4-2.5,2.5-2.3,9c0,0-2.5,0-3.3-2c-0.6-1.4,0-2.7,0-2.7c-1.7,1.3-4.1,2.1-5.7,1.3l2.5-3.4c-0.6,0.8-2.6,2.9-6.2,3.8
					c-5.2,1.3-8.2-0.9-8.2-0.9L2221,976.5z"/>
			</g>
			<g>
				<g>
					<g>
						<path class="st10" d="M2170.1,984.1v61.6c0,0,34.4-7,51.2-30.7v-30.9H2170.1z"/>
					</g>
					<g>
						<path class="st10" d="M2187.8,1019.9L2187.8,1019.9c18.8,0,34.1-15.3,34.1-34.1v-41.6c0-18.8-15.3-34.1-34.1-34.1h0
							c-18.8,0-34.1,15.3-34.1,34.1v41.6C2153.7,1004.6,2168.9,1019.9,2187.8,1019.9z"/>
					</g>
					<g>
						<path class="st11" d="M2170.1,1015v6.9c0,0,10.1-0.5,17.8-4.7C2187.9,1017.2,2180.7,1019.9,2170.1,1015z"/>
					</g>
				</g>
				<g>
					<g>
						<g>
							<path class="st12" d="M2165.1,960.2c0,1.7,1.4,3.1,3.1,3.1s3.1-1.4,3.1-3.1c0-1.7-1.4-3.1-3.1-3.1S2165.1,958.5,2165.1,960.2
								z"/>
						</g>
						<g>
							<path class="st12" d="M2160.6,957.2c0.8-0.8,1.8-1.4,2.9-1.9c1.1-0.4,2.2-0.7,3.4-0.6c0.3,0,0.6,0,0.9,0.1l0.4,0
								c0.1,0,0.3,0.1,0.4,0.1c0.3,0.1,0.6,0.1,0.8,0.2c0.3,0.1,0.5,0.2,0.8,0.3l0.4,0.2l0.4,0.2l0.8,0.4c0.5,0.3,0.9,0.7,1.4,1
								c-0.5-0.3-1-0.6-1.5-0.8l-0.8-0.3l-0.4-0.2l-0.4-0.1c-0.3-0.1-0.5-0.2-0.8-0.3l-0.8-0.2c-0.1,0-0.3-0.1-0.4-0.1l-0.4,0
								c-0.3,0-0.6-0.1-0.8-0.1c-1.1,0-2.2,0.2-3.3,0.5c-0.3,0.1-0.5,0.2-0.8,0.3c-0.3,0.1-0.5,0.2-0.8,0.4
								C2161.6,956.6,2161.1,956.9,2160.6,957.2z"/>
						</g>
					</g>
					<g>
						<g>
							<path class="st12" d="M2197.3,960.2c0,1.7,1.4,3.1,3.1,3.1s3.1-1.4,3.1-3.1c0-1.7-1.4-3.1-3.1-3.1S2197.3,958.5,2197.3,960.2
								z"/>
						</g>
						<g>
							<path class="st12" d="M2192.8,957.2c0.8-0.8,1.8-1.4,2.9-1.9c1.1-0.4,2.2-0.7,3.4-0.6c0.3,0,0.6,0,0.9,0.1l0.4,0
								c0.1,0,0.3,0.1,0.4,0.1c0.3,0.1,0.6,0.1,0.8,0.2c0.3,0.1,0.5,0.2,0.8,0.3l0.4,0.2l0.4,0.2l0.8,0.4c0.5,0.3,0.9,0.7,1.4,1
								c-0.5-0.3-1-0.6-1.5-0.8l-0.8-0.3l-0.4-0.2l-0.4-0.1c-0.3-0.1-0.5-0.2-0.8-0.3l-0.8-0.2c-0.1,0-0.3-0.1-0.4-0.1l-0.4,0
								c-0.3,0-0.6-0.1-0.8-0.1c-1.1,0-2.2,0.2-3.3,0.5c-0.3,0.1-0.5,0.2-0.8,0.3c-0.3,0.1-0.5,0.2-0.8,0.4
								C2193.8,956.6,2193.3,956.9,2192.8,957.2z"/>
						</g>
					</g>
					<g>
						<path class="st12" d="M2179.4,970.1c-0.1,1.3-0.2,2.6-0.4,4c-0.1,1.3-0.3,2.6-0.5,3.9c-0.1,0.7-0.2,1.3-0.2,1.9
							c0,0.6,0.2,1.3,0.4,1.9c0.3,0.6,0.6,1.1,1.2,1.5c0.6,0.4,1.1,0.7,1.7,1.1c-0.6-0.3-1.2-0.6-1.8-0.9c-0.6-0.3-1-0.9-1.4-1.5
							c-0.3-0.6-0.5-1.3-0.5-2c-0.1-0.7,0-1.4,0.1-2c0.2-1.3,0.4-2.6,0.6-3.9C2178.9,972.7,2179.1,971.4,2179.4,970.1z"/>
					</g>
					<g>
						<path class="st13" d="M2190.6,989c-0.1,0.7-0.4,1.3-0.8,2c-0.7,1.2-2,2.3-3.5,2.8c-1.5,0.5-3.3,0.4-4.6-0.3
							c-1.3-0.6-2.4-1.6-2.9-3c0.7,0,1.2-0.1,1.8-0.1c0.7,0,1.3,0,1.9-0.1c0.3,0,0.5-0.1,0.7-0.1c0.2,0,0.4-0.1,0.7-0.1
							c0.4-0.1,0.8-0.2,1.2-0.3c0.7-0.3,1.5-0.6,2.4-1.1c0.8-0.4,1.6-1,2.6-1.6c0.2-0.1,0.3-0.2,0.5-0.3
							C2190.8,987.6,2190.7,988.3,2190.6,989z"/>
					</g>
					<g>
						<path class="st3" d="M2190.1,987.2c0,0.1-0.1,0.3-0.1,0.4c-0.3,0.6-0.6,1.2-1.1,1.7c-0.9,1-2.2,1.7-3.5,2
							c-0.3,0.1-0.7,0.1-1,0.1c-0.3,0-0.7,0-1,0c-0.3,0-0.7-0.1-1-0.2c-0.3-0.1-0.6-0.2-0.9-0.3c-0.3-0.1-0.5-0.2-0.8-0.4
							c0.7,0,1.3,0,1.9-0.1c0.3,0,0.5-0.1,0.7-0.1c0.2,0,0.4-0.1,0.7-0.1c0.4-0.1,0.8-0.2,1.2-0.3c0.7-0.3,1.5-0.6,2.4-1.1
							C2188.3,988.4,2189.1,987.8,2190.1,987.2z"/>
					</g>
					<g>
						<path class="st12" d="M2160.6,948.7c0.1-0.7,0.5-1.3,0.9-1.9c0.2-0.3,0.4-0.5,0.7-0.7c0.1-0.1,0.3-0.2,0.4-0.3
							c0.1-0.1,0.3-0.2,0.4-0.3c1.1-0.7,2.5-1.2,3.9-1.1c0.4,0,0.7,0.1,1,0.1l0.5,0.1c0.2,0,0.3,0.1,0.5,0.1c0.3,0.1,0.7,0.2,1,0.4
							c0.3,0.2,0.6,0.3,0.9,0.5c0.1,0.1,0.3,0.2,0.4,0.3c0.1,0.1,0.3,0.2,0.4,0.3c0.2,0.2,0.5,0.5,0.7,0.7c0.2,0.3,0.4,0.6,0.5,0.8
							c0.2,0.3,0.3,0.6,0.4,0.9c-0.7,0.1-1.3,0-1.9,0c-0.3,0-0.6,0-0.8,0c-0.1,0-0.3,0-0.4,0c-0.1,0-0.3,0-0.4,0
							c-0.3,0-0.5,0-0.7-0.1c-0.2,0-0.5,0-0.7,0c-0.1,0-0.2,0-0.3,0c-0.1,0-0.2,0-0.3,0l-0.3,0c-0.1,0-0.2,0-0.3,0
							c-0.9,0-1.8,0-2.8,0C2163.1,948.5,2162.1,948.6,2160.6,948.7z"/>
					</g>
					<g>
						<path class="st12" d="M2192.8,948.7c0.1-0.7,0.5-1.3,0.9-1.9c0.2-0.3,0.4-0.5,0.7-0.7c0.1-0.1,0.3-0.2,0.4-0.3
							c0.1-0.1,0.3-0.2,0.4-0.3c1.1-0.7,2.5-1.2,3.9-1.1c0.4,0,0.7,0.1,1,0.1l0.5,0.1c0.2,0,0.3,0.1,0.5,0.1c0.3,0.1,0.7,0.2,1,0.4
							c0.3,0.2,0.6,0.3,0.9,0.5c0.1,0.1,0.3,0.2,0.4,0.3c0.1,0.1,0.3,0.2,0.4,0.3c0.2,0.2,0.5,0.5,0.7,0.7c0.2,0.3,0.4,0.6,0.5,0.8
							c0.2,0.3,0.3,0.6,0.4,0.9c-0.7,0.1-1.3,0-1.9,0c-0.3,0-0.6,0-0.8,0c-0.1,0-0.3,0-0.4,0c-0.1,0-0.3,0-0.4,0
							c-0.3,0-0.5,0-0.7-0.1c-0.2,0-0.5,0-0.7,0c-0.1,0-0.2,0-0.3,0c-0.1,0-0.2,0-0.3,0l-0.3,0c-0.1,0-0.2,0-0.3,0
							c-0.9,0-1.8,0-2.8,0C2195.3,948.5,2194.3,948.6,2192.8,948.7z"/>
					</g>
				</g>
			</g>
			<g>
				<g>
					<path class="st12" d="M2205.4,925c-2-4.7-7.3-7.1-12.1-5.6c-3.7,1.2-8.1,4.2-12.7,11.2c-1.6,2.5-3,5.1-4.1,7.9
						c-2.1,4.9-8.3,16.9-21.5,21.2l-1.3,20l-0.5-0.2c-7.6-5.9-12.9-14.7-14.7-24.6c-0.1-0.8-0.3-1.5-0.4-2.3c0,0,0.4,2.6-1.8,4.4
						c-1.9,1.7-4.9,0.9-4.9,0.9s5.5-7,2.9-19.4c-2.3-11.3,2.5-18.5,12.7-24.1c0,0-7.4,1-8.8-6c0,0,16.3,7.2,27.5-6
						c13.7-16.3,31.4-13.7,35.4,0.9c0,0,3.8-8.3,10.1-3.4c6.3,4.9,12.7,12.9,23,17.3c10.3,4.4,2.7,32.1,18.4,38.2
						c0,0-8.4,3.7-11.2-5.6c0,0,8.7,20.6-19.9,34.4l2.1-19.9c0,0-11.8-2.3-14-16.4C2208.2,936.9,2207.8,930.5,2205.4,925z"/>
				</g>
				<g>
					<path class="st12" d="M2201.2,903.2c0.1-0.7,0.4-1.5,0.7-2.2c0.3-0.7,0.6-1.4,1.1-2c0.4-0.6,1-1.2,1.6-1.8
						c0.6-0.5,1.4-0.9,2.2-1.2c0.8-0.3,1.7-0.3,2.5-0.3c0.8,0.1,1.6,0.3,2.4,0.6c1.5,0.6,2.7,1.6,3.8,2.7c1.1,1.1,2,2.3,2.9,3.4
						c0.9,1.2,1.8,2.4,2.7,3.5c0.9,1.2,1.7,2.4,2.7,3.4c0.5,0.5,1.1,0.9,1.6,1.3c0.3,0.2,0.6,0.4,0.9,0.5c0.3,0.2,0.6,0.3,0.9,0.5
						c2.5,1.2,5.3,2,8.1,2.8c0.7,0.2,1.5,0.4,2.2,0.7c0.7,0.3,1.5,0.7,2.1,1.2c0.7,0.5,1.3,1.1,1.7,1.9c0.5,0.7,0.8,1.5,1,2.3
						c0.4,1.6,0.4,3.2,0.3,4.7c-0.1,1.5-0.3,3-0.5,4.4c-0.4,2.9-0.7,5.8-0.1,8.7l-0.2,0.1c-0.6-1.4-0.8-2.9-1-4.4
						c-0.1-1.5-0.1-3-0.1-4.5c0-1.5,0.1-2.9,0.1-4.4c0-1.4-0.1-2.8-0.5-4.1c-0.2-0.6-0.5-1.2-0.8-1.7c-0.4-0.5-0.8-0.9-1.3-1.3
						c-0.5-0.4-1.1-0.7-1.7-0.9c-0.6-0.3-1.2-0.4-2-0.7c-0.7-0.2-1.4-0.4-2.1-0.7l-1.1-0.4l-1-0.4c-1.4-0.6-2.8-1.1-4.1-1.9
						c-1.3-0.8-2.5-1.8-3.5-3c-0.9-1.2-1.6-2.5-2.5-3.7c-1.6-2.4-3.7-4.6-6-6.3c-1.1-0.8-2.3-1.6-3.6-2.1c-0.6-0.2-1.2-0.5-1.9-0.5
						c-0.6-0.1-1.2,0-1.9,0.1c-1.2,0.3-2.3,1.1-3.3,2.1c-0.9,1-1.8,2.2-2.5,3.5L2201.2,903.2z"/>
				</g>
				<g>
					<path class="st12" d="M2202.6,921.1c-1.6-0.8-3.3-0.9-5-0.7c-1.7,0.2-3.3,0.8-4.9,1.5c-1.6,0.7-3.1,1.5-4.5,2.6
						c-1.4,1.1-2.6,2.3-3.7,3.7l-0.8,1l-0.8,1c-0.5,0.7-1,1.4-1.6,2.1c-0.5,0.7-1,1.4-1.5,2.2l-0.7,1.1l-0.7,1.1
						c-1.9,2.9-3.7,5.9-5.6,8.9l-0.1-0.1c1.2-3.3,2.8-6.5,4.6-9.6c0.9-1.5,2-3,3.1-4.4c1.1-1.4,2.3-2.7,3.6-3.9
						c1.3-1.2,2.6-2.4,4-3.5c1.4-1.1,2.7-2.3,4.3-3.2c0.8-0.4,1.6-0.8,2.5-1c0.4-0.1,0.9-0.2,1.3-0.3c0.5-0.1,0.9-0.1,1.4-0.2
						c0.9,0,1.9,0,2.7,0.3C2201.2,920,2202,920.4,2202.6,921.1L2202.6,921.1z"/>
				</g>
				<g>
					<path class="st12" d="M2224.5,964.3c-2.3,0.2-4.7,0-7-0.6c-1.1-0.3-2.3-0.8-3.3-1.3c-1.1-0.6-2-1.3-2.9-2.1
						c-1.7-1.7-2.9-3.8-3.7-6c-0.8-2.2-1.3-4.5-1.5-6.8c-0.2-2.3-0.2-4.7,0.1-7c0.3-2.3,0.4-4.5,0.4-6.8c0-2.3-0.3-4.5-0.8-6.7
						c-0.3-1.1-0.7-2.2-1.2-3.2c-0.5-1-1.1-2-2-2.7l0.1-0.1c0.5,0.3,1,0.7,1.4,1.1c0.4,0.4,0.8,0.9,1.1,1.4c0.3,0.5,0.6,1,0.9,1.5
						c0.3,0.5,0.5,1.1,0.7,1.6c0.8,2.2,1.1,4.6,1.2,7c0,2.4-0.2,4.7-0.6,7c-0.3,2.3-0.6,4.5-0.6,6.8c0,2.3,0.4,4.6,1.3,6.7
						c0.4,1,1,2,1.7,2.9c0.7,0.9,1.5,1.7,2.3,2.4c0.8,0.7,1.8,1.3,2.7,1.9c1,0.5,2,1,3.1,1.4c2.1,0.7,4.4,1.1,6.7,1.4L2224.5,964.3z
						"/>
				</g>
				<g>
					<path class="st12" d="M2134.9,940c-0.3-0.6-0.6-1.3-0.9-1.9c-0.2-0.7-0.4-1.3-0.6-2c-0.2-0.7-0.3-1.4-0.4-2.1
						c-0.1-0.7-0.1-1.4-0.1-2.1c0.1-1.4,0.5-2.8,0.7-4.1c0.2-1.4,0.4-2.7,0.8-4.1c0.1-0.3,0.2-0.7,0.3-1c0.1-0.3,0.2-0.7,0.4-1
						c0.1-0.3,0.3-0.7,0.5-1c0.2-0.3,0.4-0.6,0.6-0.9c0.8-1.2,1.8-2.4,3-3.2c1.2-0.9,2.5-1.5,3.9-1.9c1.4-0.4,2.8-0.6,4.2-0.4l0,0.2
						c-1.3,0.5-2.5,1.1-3.6,1.7c-1.1,0.6-2.2,1.4-3.2,2.1c-1,0.8-1.9,1.6-2.7,2.6l-0.6,0.8c-0.2,0.3-0.3,0.5-0.5,0.8
						c-0.3,0.5-0.7,1.1-1,1.7c-0.3,0.6-0.6,1.2-0.8,1.8c-0.2,0.6-0.3,1.3-0.4,2c-0.1,1.3,0.2,2.7,0.3,4c0.1,0.7,0.2,1.3,0.2,2
						c0.1,0.7,0.1,1.3,0.1,2c0.1,0.7,0.1,1.3,0.1,2c0,0.7,0.1,1.4,0,2.1L2134.9,940z"/>
				</g>
			</g>
			<g>
				<g>
					<g>
						<g>
							<path class="st10" d="M2225.2,984.5h-1.8c-3.5,0-6.3-2.8-6.3-6.3v-11.3c0-3.5,2.8-6.3,6.3-6.3h1.8c3.5,0,6.3,2.8,6.3,6.3
								v11.3C2231.5,981.6,2228.7,984.5,2225.2,984.5z"/>
						</g>
					</g>
					<g>
						<g>
							<path class="st11" d="M2222.3,964.2c0.6-0.1,1.2,0,1.9,0.1c0.6,0.1,1.2,0.4,1.7,0.7c1.1,0.7,1.9,1.8,2.4,3
								c0.2,0.6,0.3,1.3,0.3,1.9c0,0.6,0,1.2-0.1,1.8c-0.1,1.2-0.1,2.4-0.3,3.7c-0.2-1.2-0.3-2.4-0.3-3.7c0-0.6,0-1.2-0.1-1.8
								c0-0.6-0.1-1.1-0.3-1.7c-0.2-0.5-0.4-1-0.8-1.5c-0.3-0.5-0.7-0.9-1.2-1.2c-0.5-0.4-1-0.7-1.5-0.9
								C2223.5,964.5,2222.9,964.3,2222.3,964.2z"/>
						</g>
					</g>
					<g>
						<g>
							<path class="st11" d="M2224.7,977.2c-0.4-0.2-0.6-0.4-0.9-0.7c-0.2-0.3-0.4-0.6-0.6-1c-0.1-0.4-0.2-0.7-0.2-1.1
								c0-0.4,0.1-0.8,0.2-1.1c0.2,0.3,0.3,0.7,0.4,1l0.3,0.9l0.3,0.9C2224.5,976.5,2224.6,976.8,2224.7,977.2z"/>
						</g>
					</g>
				</g>
			</g>
			<g>
				<path class="st12" d="M2241.7,949.3c0.9,0.9,1.6,2,2.1,3.2c0.3,0.6,0.5,1.2,0.7,1.8c0.2,0.6,0.4,1.2,0.5,1.9
					c0.2,1.3,0.1,2.6,0.2,3.8c0.1,1.3,0.2,2.5,0.4,3.8l0.1,1c0,0.3,0,0.6,0,1c0,0.3,0,0.6,0,1c0,0.3-0.1,0.6-0.1,1
					c-0.1,0.6-0.2,1.3-0.4,1.9c-0.2,0.6-0.4,1.3-0.7,1.9c-0.3,0.6-0.6,1.2-0.9,1.7c-0.4,0.5-0.7,1.1-1.2,1.5
					c-0.2,0.2-0.4,0.5-0.7,0.7c-0.2,0.2-0.5,0.4-0.7,0.6c-0.2,0.2-0.5,0.4-0.8,0.6c-0.3,0.2-0.5,0.3-0.8,0.5l-0.1-0.1
					c1.3-2.2,2.5-4.2,3.3-6.4c0.2-0.5,0.4-1.1,0.6-1.6c0.2-0.6,0.4-1.1,0.5-1.7c0.1-0.3,0.2-0.6,0.2-0.9c0.1-0.3,0.1-0.6,0.2-0.9
					c0.1-0.3,0.1-0.6,0.2-0.9l0.2-0.9c0.2-1.2,0.3-2.4,0.1-3.7c-0.2-1.2-0.8-2.4-1.2-3.5c-0.2-0.6-0.4-1.1-0.5-1.7
					c-0.2-0.6-0.3-1.2-0.5-1.8c-0.3-1.2-0.6-2.4-0.8-3.6L2241.7,949.3z"/>
			</g>
			<g>
				<path class="st12" d="M2183.5,891.6c-1.5,0.5-2.9,0.9-4.3,1.4c-0.7,0.3-1.4,0.5-2.1,0.8c-0.2,0.1-0.3,0.1-0.5,0.2
					c-0.2,0.1-0.3,0.2-0.5,0.2c-0.3,0.1-0.7,0.3-1,0.4c-0.7,0.3-1.4,0.5-2.1,0.8c-0.3,0.1-0.7,0.3-1,0.5c-0.3,0.2-0.7,0.4-1,0.6
					c-0.2,0.1-0.3,0.2-0.5,0.3c-0.2,0.1-0.3,0.2-0.4,0.4c-0.3,0.2-0.6,0.5-0.8,0.7c-0.3,0.2-0.5,0.5-0.8,0.8
					c-0.2,0.3-0.5,0.6-0.7,0.9c-0.5,0.6-0.9,1.2-1.3,1.8c-0.5,0.6-1,1.2-1.5,1.8c-0.5,0.6-1.1,1.2-1.7,1.7c-0.6,0.5-1.2,1.1-1.9,1.5
					c-1.4,0.8-3,1.5-4.7,1.5c-1.7,0.1-3.4-0.4-4.5-1.6l0.1-0.2c1.4,0.5,2.9,0.5,4.2,0.2c0.7-0.2,1.3-0.4,1.9-0.7l0.2-0.1l0.2-0.1
					l0.5-0.3c0.1-0.1,0.3-0.2,0.5-0.3l0.4-0.3c0.6-0.4,1.1-0.8,1.7-1.2c0.3-0.2,0.6-0.5,0.8-0.7c0.3-0.2,0.6-0.5,0.8-0.7
					c0.5-0.5,1-1,1.6-1.6c0.3-0.3,0.6-0.5,0.9-0.8c0.3-0.3,0.6-0.5,0.9-0.8c0.6-0.5,1.2-1,1.8-1.4c0.3-0.2,0.6-0.5,0.9-0.7l0.4-0.4
					c0.2-0.1,0.3-0.2,0.5-0.4c0.3-0.2,0.6-0.5,0.9-0.7c0.3-0.3,0.6-0.5,0.9-0.7c0.6-0.5,1.2-1,1.9-1.4c0.3-0.2,0.7-0.4,1-0.6
					c0.2-0.1,0.4-0.2,0.5-0.2l0.6-0.2c0.7-0.3,1.5-0.5,2.3-0.7c0.8-0.2,1.6-0.3,2.3-0.3c0.8,0,1.6,0,2.4,0.2L2183.5,891.6z"/>
			</g>
			<g>
				<path class="st5" d="M2143.2,913.9c1.1,0.3,2.2,0.5,3.3,0.5c1.1,0.1,2.2,0.1,3.3,0.1c2.2-0.1,4.4-0.5,6.5-1.3c1-0.4,2-0.8,3-1.4
					c0.5-0.3,0.9-0.6,1.4-0.8l0.7-0.5c0.2-0.2,0.5-0.3,0.7-0.5c1.8-1.3,3.4-2.9,4.9-4.6c-1.2,1.9-2.7,3.6-4.5,5.1
					c-0.4,0.4-0.9,0.7-1.3,1.1c-0.5,0.3-0.9,0.6-1.4,0.9c-1,0.6-2,1.1-3.1,1.5c-2.1,0.8-4.4,1.2-6.7,1.2
					C2147.5,915.1,2145.3,914.7,2143.2,913.9z"/>
			</g>
			<g>
				<path class="st5" d="M2136.3,956.9c0.5-0.5,0.9-1.1,1.2-1.8c0.3-0.6,0.5-1.3,0.7-2c0.2-0.7,0.3-1.4,0.3-2.1l0.1-1.1l0-1.1
					c0-0.4,0-0.7-0.1-1.1l-0.1-1.1c-0.1-0.7-0.2-1.4-0.3-2.1c-0.1-0.7-0.2-1.4-0.4-2.1c-0.2-0.7-0.3-1.4-0.4-2.2
					c0.3,0.7,0.6,1.4,0.8,2c0.2,0.7,0.4,1.4,0.6,2.1c0.2,0.7,0.3,1.4,0.4,2.2l0.1,1.1c0,0.4,0.1,0.7,0.1,1.1c0.1,1.5-0.1,3-0.6,4.4
					c-0.2,0.7-0.5,1.4-0.9,2C2137.4,956,2136.9,956.6,2136.3,956.9z"/>
			</g>
			<g>
				<path class="st5" d="M2164.4,954.6c-1.1,1.2-2.5,2.3-3.9,3.2c-0.7,0.5-1.4,0.9-2.2,1.3c-0.8,0.4-1.5,0.7-2.3,1
					c-1.6,0.6-3.3,1-5,1.1c-1.7,0.1-3.4-0.1-5-0.6c1.7,0.2,3.3,0.2,5,0c0.8-0.1,1.6-0.3,2.4-0.5c0.8-0.2,1.6-0.4,2.3-0.7
					c1.5-0.6,3-1.3,4.5-2.1C2161.7,956.5,2163.1,955.6,2164.4,954.6z"/>
			</g>
			<g>
				<path class="st5" d="M2185.3,914.3c-3,1.5-5.3,3.9-7,6.7c-0.9,1.4-1.7,2.8-2.3,4.3c-0.7,1.5-1.3,3-1.9,4.5
					c-1.2,3.1-2.3,6.2-3.6,9.2c-0.7,1.5-1.4,3-2.3,4.4c-0.9,1.4-1.9,2.7-3.2,3.8c1.1-1.2,2.1-2.6,2.8-4c0.8-1.4,1.4-2.9,2-4.5
					c1.2-3.1,2.2-6.2,3.4-9.3c1.2-3.1,2.6-6.1,4.5-8.9c1-1.4,2.1-2.6,3.3-3.7C2182.3,915.8,2183.8,914.9,2185.3,914.3z"/>
			</g>
			<g>
				<path class="st5" d="M2185.3,914.3c0.7-0.4,1.4-0.7,2.2-1.1c0.8-0.3,1.5-0.6,2.3-0.8c0.4-0.1,0.8-0.2,1.2-0.2
					c0.2,0,0.4-0.1,0.6-0.1l0.6-0.1c0.4,0,0.8-0.1,1.2-0.1l1.2,0.1c0.2,0,0.4,0.1,0.6,0.1l0.6,0.1c0.4,0.1,0.8,0.2,1.2,0.3
					c0.2,0.1,0.4,0.1,0.6,0.2l0.6,0.3l0.6,0.3l0.5,0.3c1.4,0.9,2.6,2.1,3.3,3.5c-1-1.2-2.3-2.2-3.6-3c-1.4-0.7-2.9-1.2-4.4-1.3
					l-1.2-0.1c-0.4,0-0.8,0-1.2,0l-0.6,0c-0.2,0-0.4,0.1-0.6,0.1c-0.4,0.1-0.8,0.1-1.2,0.2c-0.4,0-0.8,0.2-1.2,0.3l-1.2,0.3
					C2186.8,913.8,2186.1,914.1,2185.3,914.3z"/>
			</g>
			<g>
				<path class="st5" d="M2243.6,961.6c-0.1-1.6-0.2-3.2-0.6-4.7c-0.3-1.5-0.9-3-1.6-4.4c-0.3-0.7-0.7-1.4-1-2.2
					c-0.3-0.7-0.6-1.5-0.9-2.3c-0.5-1.5-0.8-3.1-1-4.7c0.5,1.5,1,3.1,1.6,4.5c0.6,1.5,1.3,2.9,2,4.3c0.3,0.7,0.7,1.5,0.9,2.3
					l0.2,0.6c0.1,0.2,0.1,0.4,0.1,0.6c0,0.2,0.1,0.4,0.1,0.6l0.1,0.6C2243.9,958.4,2243.8,960,2243.6,961.6z"/>
			</g>
			<g>
				<path class="st5" d="M2229.8,960.5c-2.3-0.8-4.5-2.2-6.5-3.8c-1.9-1.6-3.7-3.5-5.1-5.5c-1.4-2.1-2.5-4.4-3.3-6.7
					c-0.8-2.4-1.3-4.9-1.4-7.3c0.5,2.4,1.1,4.8,2,7.1c0.5,1.1,0.9,2.3,1.5,3.4c0.3,0.5,0.6,1.1,0.9,1.6c0.3,0.5,0.6,1,1,1.5
					c1.4,2,3,3.9,4.8,5.5c0.9,0.8,1.9,1.6,2.9,2.3C2227.7,959.2,2228.7,959.9,2229.8,960.5z"/>
			</g>
			<g>
				<path class="st5" d="M2202.7,907.3c-0.3-1.2-0.3-2.5-0.1-3.7c0.1-0.6,0.4-1.2,0.8-1.8c0.4-0.6,1.1-0.9,1.8-1
					c0.7-0.1,1.4,0,2,0.2c0.6,0.2,1.2,0.5,1.7,0.8c1.1,0.7,2,1.5,2.8,2.4c-1.1-0.6-2.1-1.3-3.1-1.8c-1.1-0.5-2.2-1-3.2-0.8
					c-0.5,0.1-1,0.3-1.3,0.7c-0.4,0.4-0.6,0.9-0.8,1.5C2202.9,904.9,2202.7,906.1,2202.7,907.3z"/>
			</g>
			<g>
				<path class="st5" d="M2201.3,910.3c-0.6-1.2-1.4-2.2-2.3-3.2c-0.9-0.9-1.9-1.8-3-2.4c-2.2-1.4-4.7-2.2-7.2-2.6
					c-2.6-0.4-5.2-0.3-7.7,0.2c-1.3,0.3-2.5,0.7-3.7,1.2c-1.2,0.5-2.4,1.1-3.5,1.8c2-1.7,4.5-2.9,7-3.6c2.6-0.7,5.3-0.8,8-0.4
					c1.3,0.2,2.6,0.5,3.9,1c1.3,0.5,2.5,1.1,3.6,1.9C2198.6,905.7,2200.4,907.8,2201.3,910.3z"/>
			</g>
			<g>
				<g>
					<path class="st5" d="M2145.1,944.8c-1.1-0.5-1.9-1.6-2.4-2.7c-0.1-0.3-0.2-0.6-0.3-0.9l-0.2-0.9c0-0.6-0.1-1.2,0-1.9
						c0-0.3,0.1-0.6,0.1-0.9l0.2-0.9c0.1-0.3,0.2-0.6,0.3-0.9c0.1-0.3,0.2-0.6,0.3-0.9c0.3-0.5,0.5-1.1,0.8-1.6c0.3-0.5,0.6-1,1-1.5
						c-0.2,0.6-0.4,1.1-0.6,1.7c-0.2,0.6-0.4,1.1-0.6,1.7c-0.2,0.6-0.3,1.1-0.5,1.7c-0.1,0.6-0.3,1.1-0.3,1.7
						c-0.1,1.1-0.1,2.3,0.2,3.4C2143.7,942.9,2144.3,944,2145.1,944.8z"/>
				</g>
				<g>
					<path class="st5" d="M2149.3,945.3c-0.5,0.2-1.1,0.3-1.6,0.2c-0.6-0.1-1.1-0.3-1.6-0.7c-0.5-0.4-0.8-0.9-1-1.4
						c-0.1-0.3-0.2-0.5-0.3-0.8c-0.1-0.3-0.1-0.6-0.1-0.8l0.7-0.1c0,0.5,0,1,0,1.5c0,0.5-0.1,1-0.2,1.5c-0.1-0.5-0.2-1-0.3-1.5
						c-0.1-0.5-0.2-1-0.2-1.5l0.7-0.1c0.1,0.2,0.1,0.5,0.2,0.7c0.1,0.2,0.2,0.5,0.3,0.7c0.2,0.4,0.5,0.8,0.8,1.2
						c0.3,0.3,0.7,0.6,1.2,0.8C2148.2,945.2,2148.7,945.3,2149.3,945.3z"/>
				</g>
				<g>
					<path class="st5" d="M2157.4,922.3c-1.6,1.5-3,3.1-4.3,4.9c-1.3,1.7-2.4,3.6-3.2,5.6c-0.4,1-0.7,2-1,3c-0.1,0.5-0.2,1-0.3,1.6
						c-0.1,0.5-0.1,1.1-0.1,1.6c0,0.5,0,1.1,0,1.6c0,0.5,0.1,1.1,0.1,1.6c0.1,1.1,0.4,2.1,0.7,3.2c-0.4-1-0.8-2-1.1-3.1
						c-0.1-0.5-0.2-1.1-0.3-1.6c0-0.6-0.1-1.1-0.1-1.7c0-1.1,0.1-2.2,0.3-3.3c0.2-1.1,0.6-2.2,1-3.2c0.4-1,0.9-2,1.5-3
						c0.6-0.9,1.2-1.8,1.9-2.7C2154,925.1,2155.6,923.5,2157.4,922.3z"/>
				</g>
			</g>
			<g>
				<path class="st5" d="M2175.5,924.5c-1.2,3-2.7,5.8-4.4,8.5c-1.7,2.7-3.6,5.4-5.7,7.8c-1.1,1.2-2.2,2.4-3.4,3.4
					c-1.2,1.1-2.5,2.1-3.9,2.9c-1.4,0.9-2.9,1.5-4.4,2c-1.6,0.4-3.2,0.7-4.8,0.5c1.6,0,3.2-0.3,4.7-0.9c1.5-0.5,2.9-1.3,4.2-2.2
					c2.6-1.8,4.9-4,7-6.3c1.1-1.2,2-2.4,3-3.7c1-1.3,1.9-2.6,2.8-3.9c0.9-1.3,1.7-2.7,2.6-4C2174,927.3,2174.8,925.9,2175.5,924.5z"
					/>
			</g>
			<g>
				<path class="st5" d="M2235.6,976.4c-0.4,0.8-0.9,1.5-1.3,2.3c-0.4,0.7-0.9,1.5-1.2,2.3c-0.3,0.8-0.6,1.6-0.7,2.4
					c-0.1,0.8,0,1.7,0.1,2.6c-0.5-0.8-0.7-1.7-0.7-2.6c0-0.9,0.2-1.8,0.5-2.7c0.4-0.8,0.8-1.6,1.4-2.3
					C2234.3,977.7,2235,977,2235.6,976.4z"/>
			</g>
			<g>
				<path class="st5" d="M2235.7,933.8c-0.3,3.6-0.4,7.3-0.2,10.9c0.2,3.6,0.5,7.2,1.1,10.8c0.2,0.9,0.3,1.8,0.5,2.7
					c0.2,0.9,0.4,1.8,0.6,2.6c0.2,0.9,0.4,1.8,0.6,2.7c0.2,0.9,0.3,1.8,0.4,2.7c0.2,1.8,0.2,3.7-0.3,5.5c-0.5,1.8-1.5,3.4-2.7,4.8
					c0.5-0.8,1-1.5,1.4-2.3c0.4-0.8,0.7-1.7,0.8-2.5c0.3-1.7,0.3-3.5,0.1-5.3c-0.2-1.8-0.6-3.5-1-5.3l-0.6-2.7
					c-0.2-0.9-0.3-1.8-0.5-2.7c-0.6-3.6-0.8-7.3-0.9-10.9c0-0.9,0-1.8,0-2.7c0-0.9,0.1-1.8,0.1-2.7
					C2235.2,937.4,2235.4,935.6,2235.7,933.8z"/>
			</g>
			<g>
				<path class="st5" d="M2247.9,956c-0.8,0.1-1.7-0.1-2.5-0.4c-0.8-0.3-1.5-0.8-2.2-1.3c-0.6-0.6-1.2-1.2-1.6-2
					c-0.2-0.4-0.4-0.8-0.6-1.1c-0.1-0.4-0.3-0.8-0.4-1.2c0.3,0.3,0.5,0.7,0.7,1l0.4,0.5c0.1,0.2,0.2,0.3,0.4,0.5
					c0.5,0.6,1,1.2,1.6,1.7C2245,954.6,2246.3,955.5,2247.9,956z"/>
			</g>
			<g>
				<path class="st5" d="M2216.1,922.3c1.6,1.3,3,2.7,4.4,4.2c1.3,1.5,2.6,3.2,3.6,4.9c1,1.8,1.8,3.7,2.2,5.7c0.4,2,0.5,4.1,0.3,6.1
					c-0.1-2-0.4-4-0.9-5.9c-0.5-1.9-1.3-3.7-2.3-5.5c-1-1.7-2.1-3.4-3.4-4.9C2218.7,925.3,2217.4,923.8,2216.1,922.3z"/>
			</g>
			<g>
				<path class="st5" d="M2203,912.4c0.1-1.1,0.3-2.2,0.6-3.3c0.2-0.5,0.3-1.1,0.6-1.6c0.3-0.5,0.6-1,1.2-1.3
					c0.3-0.1,0.6-0.2,0.9-0.1c0.3,0,0.6,0.2,0.9,0.3c0.5,0.3,0.9,0.7,1.3,1.1c0.8,0.9,1.3,1.9,1.7,3c0.4,1.1,0.6,2.2,1,3.2
					c0.2,0.5,0.3,1.1,0.5,1.6c0.2,0.5,0.4,1,0.6,1.5c0.9,2,2.2,3.8,3.7,5.5c-1.7-1.4-3.2-3.2-4.3-5.2c-0.5-1-1-2.1-1.3-3.2
					c-0.4-1.1-0.6-2.2-0.9-3.2c-0.3-1-0.8-2-1.4-2.9c-0.3-0.4-0.7-0.8-1.1-1.1c-0.4-0.3-0.9-0.4-1.4-0.2c-0.4,0.2-0.8,0.6-1.1,1.1
					c-0.3,0.5-0.5,1-0.7,1.5C2203.4,910.2,2203.2,911.3,2203,912.4z"/>
			</g>
			<g>
				<path class="st5" d="M2221,907.3c0.3,0.7,0.8,1.3,1.3,1.9c0.2,0.3,0.5,0.6,0.8,0.8c0.3,0.2,0.5,0.5,0.8,0.8
					c1.1,1,2.4,1.8,3.7,2.5c0.6,0.4,1.3,0.7,2,1c0.7,0.3,1.4,0.6,2.1,0.9l2.1,0.8c0.7,0.3,1.4,0.5,2.1,0.8c-0.8-0.1-1.5-0.3-2.3-0.4
					c-0.7-0.2-1.5-0.4-2.2-0.6c-0.7-0.3-1.4-0.5-2.2-0.8c-0.7-0.3-1.4-0.6-2.1-1c-0.3-0.2-0.7-0.4-1-0.6l-1-0.7
					c-0.6-0.5-1.2-1-1.8-1.5c-0.3-0.3-0.5-0.6-0.8-0.9c-0.2-0.3-0.5-0.6-0.7-0.9C2221.5,908.7,2221.1,908,2221,907.3z"/>
			</g>
		</g>
		<g>
			<path class="st7" d="M1659.1,1012.1h-80c0-61.1,23.8-118.6,67-161.8c43.2-43.2,100.7-67,161.8-67v80
				C1725.9,863.3,1659.1,930.1,1659.1,1012.1z"/>
		</g>
		<g>
			<path class="st5" d="M1807.9,1230.9c-58.4,0-113.4-22.8-154.7-64.1c-41.3-41.3-64.1-96.3-64.1-154.7h60
				c0,87.6,71.2,158.8,158.8,158.8V1230.9z"/>
		</g>
		<g>
			<path class="st11" d="M2029.8,1157.4c-0.3,0.8-0.8,1.6-1.2,2.4c-0.5,0.8-0.9,1.5-1.4,2.3c0.3-0.8,0.8-1.6,1.2-2.4
				C2028.9,1158.9,2029.3,1158.1,2029.8,1157.4z"/>
		</g>
		<g class="st8">
			<path class="st9" d="M2170.1,1045.7v-16.5C2170.1,1029.2,2161.2,1036.1,2170.1,1045.7z"/>
		</g>
		<g class="st8">
			<path class="st9" d="M2116.5,1291.6c20.3,5.2,55.8,11.8,95.6,7.4l-41.1,3.7c-15.4,1.4-30.9-1-45.2-7.1L2116.5,1291.6z"/>
		</g>
		<g class="st8">
			<path class="st9" d="M2302.8,1166.9l26.4,4.2l-10.4,0.5C2313.2,1171.9,2307.6,1170.3,2302.8,1166.9L2302.8,1166.9z"/>
		</g>
		<g>
			<path class="st9" d="M2098.6,1286.2c5.9,2.1,11.8,3.8,17.9,5.4c6,1.6,12.1,2.9,18.2,4c12.2,2.3,24.6,3.7,37,4.4
				c6.2,0.3,12.4,0.4,18.7,0.3c6.2-0.2,12.4-0.4,18.6-1.1c1.6-0.1,3.1-0.3,4.6-0.5c1.5-0.2,3.1-0.3,4.6-0.6c3.1-0.5,6.2-0.9,9.2-1.5
				c6.1-1,12.2-2.5,18.2-4.1c-12,3.3-24.3,5.6-36.7,6.8c-6.2,0.6-12.4,0.9-18.6,1.1c-6.2,0.1-12.5,0-18.7-0.3
				c-12.4-0.7-24.8-2.1-37.1-4.5C2122.5,1293.4,2110.4,1290.4,2098.6,1286.2z"/>
		</g>
		<g>
			<path class="st9" d="M2104.5,1091.8c0.5,9.4,1,18.8,1.4,28.2c0.4,9.4,0.9,18.8,1.2,28.2c-0.5-9.4-1-18.8-1.4-28.2
				C2105.3,1110.7,2104.8,1101.3,2104.5,1091.8z"/>
		</g>
		<g>
			<path class="st9" d="M2148.5,1034.7c-0.3,2.5,0.1,5.1,1,7.4c0.9,2.4,2.2,4.5,3.9,6.4l1.3,1.3c0.5,0.4,1,0.8,1.5,1.2
				c1,0.8,2.1,1.4,3.2,2.1c1.1,0.6,2.3,1.1,3.4,1.7l3.6,1.3l-3.6-1.2c-1.1-0.5-2.3-1-3.4-1.6c-1.1-0.7-2.2-1.2-3.2-2.1
				c-0.5-0.4-1-0.7-1.5-1.2l-1.4-1.3c-1.7-1.9-3.1-4.1-3.9-6.5c-0.5-1.2-0.7-2.5-0.9-3.7C2148.3,1037.2,2148.3,1035.9,2148.5,1034.7
				z"/>
		</g>
		<g>
			<path class="st9" d="M2269.6,1134.6c-2.7-1.5-5.3-3.1-7.9-4.6c-2.6-1.6-5.2-3.2-7.8-4.9c2.7,1.5,5.3,3.1,7.9,4.6
				C2264.4,1131.4,2267,1132.9,2269.6,1134.6z"/>
		</g>
		<g>
			<path class="st9" d="M2302.8,1166.9c5.4,0.8,10.8,1.6,16.2,2.5c5.4,0.9,10.8,1.7,16.2,2.7c-5.4-0.8-10.8-1.6-16.2-2.5
				C2313.6,1168.7,2308.2,1167.9,2302.8,1166.9z"/>
		</g>
		<g>
			<path class="st9" d="M2301.4,1175.2c1.3,2.4,2.6,4.9,4.1,7.2c1.4,2.4,2.9,4.7,4.4,7c-0.8-1.1-1.7-2.2-2.4-3.4
				c-0.8-1.2-1.5-2.3-2.2-3.5C2303.9,1180.2,2302.6,1177.8,2301.4,1175.2z"/>
		</g>
		<g>
			<path class="st9" d="M2262.7,1216.7c1,2,2,4,3,5.9c1.1,2,2.2,3.9,3.3,5.8c1.1,1.9,2.4,3.8,3.6,5.6c1.3,1.8,2.6,3.6,4.1,5.3
				c-1.5-1.6-2.9-3.4-4.2-5.2c-1.3-1.8-2.5-3.6-3.7-5.5C2266.5,1224.7,2264.4,1220.8,2262.7,1216.7z"/>
		</g>
		<g>
			<path class="st5" d="M2146.1,1349.8c4.4,4.3,8.6,8.7,12.8,13.1c4.2,4.5,8.4,8.9,12.4,13.5L2146.1,1349.8z"/>
		</g>
		<g>
			<path class="st9" d="M2244.1,1035.6c-1.7,2.6-3.9,4.8-6.2,6.8c-1.1,1-2.5,1.9-3.7,2.8c-1.3,0.8-2.6,1.6-3.9,2.4
				c-5.4,3-11.2,5.1-17.2,6.7l-2.2,0.6l-1.1,0.3l-1.1,0.2l-4.6,0.8c-1.5,0.3-3.1,0.4-4.6,0.6l-4.6,0.5c-3.1,0.1-6.2,0.3-9.2,0.3
				l-9.2-0.2l9.2,0.1c3.1-0.1,6.1-0.2,9.2-0.4l4.6-0.5c1.5-0.2,3.1-0.3,4.6-0.6l4.5-0.8l1.1-0.2l1.1-0.3l2.2-0.6
				c6-1.5,11.8-3.6,17.2-6.6c1.3-0.8,2.6-1.6,3.9-2.4c1.2-0.9,2.5-1.7,3.7-2.8C2240.1,1040.4,2242.3,1038.2,2244.1,1035.6z"/>
		</g>
		<g>
			<g>
				<path class="st3" d="M2182.1,1107.8c-0.1,0-0.2-0.1-0.2-0.2c-2.7-28.4-4.4-46.3-4.5-46.5c0-0.1,0.1-0.3,0.2-0.3
					c0.1,0,0.3,0.1,0.3,0.2c0,0.2,1.8,18.1,4.5,46.5C2182.4,1107.7,2182.3,1107.8,2182.1,1107.8
					C2182.1,1107.8,2182.1,1107.8,2182.1,1107.8z"/>
			</g>
			<g>
				<path class="st5" d="M2183.3,1112l-1,0.1c-1.3,0.2-2.4-0.9-2.3-2.1l0.2-2.8c0.1-1,0.8-1.8,1.8-1.9l0,0c1-0.1,1.9,0.5,2.2,1.4
					l0.8,2.7C2185.3,1110.6,2184.5,1111.9,2183.3,1112z"/>
			</g>
		</g>
		<g>
			<g>
				<path class="st3" d="M2158.6,1105.8C2158.6,1105.8,2158.5,1105.8,2158.6,1105.8c-0.2,0-0.3-0.2-0.2-0.3
					c5-28.1,8.1-45.7,8.1-45.9c0-0.1,0.2-0.2,0.3-0.2c0.1,0,0.2,0.2,0.2,0.3c0,0.2-3,17.7-8.1,45.9
					C2158.8,1105.7,2158.7,1105.8,2158.6,1105.8z"/>
			</g>
			<g>
				<path class="st5" d="M2158.5,1110.2l-1-0.1c-1.3-0.2-2-1.5-1.6-2.7l0.9-2.6c0.3-0.9,1.3-1.5,2.2-1.4l0,0c1,0.1,1.7,1,1.7,1.9
					l0.1,2.8C2160.9,1109.4,2159.8,1110.4,2158.5,1110.2z"/>
			</g>
		</g>
		<g>
			<path class="st7" d="M1751.1,1070.6c-4.9,0-9-0.8-12.3-2.3c-3.3-1.5-5.9-3.8-7.8-6.8c-1.9-3-3.2-6.6-4.1-10.9
				c-0.8-4.3-1.2-9.1-1.2-14.6v-10.5h17v11.9c0,6.3,0.5,10.9,1.6,13.7c1.1,2.8,3.2,4.2,6.4,4.2c2.1,0,3.8-0.5,4.9-1.5
				c1.1-1,1.8-2.6,2.2-4.8c0.4-2.2,0.6-5.1,0.6-8.7c0-4.4-0.9-8.5-2.8-12.1c-1.9-3.7-4.7-7.5-8.4-11.4l-8.7-9
				c-2.4-2.5-4.6-5.2-6.5-8c-1.9-2.8-3.5-5.9-4.6-9.4c-1.1-3.5-1.7-7.3-1.7-11.6c0-6.2,0.8-11.5,2.3-15.7c1.5-4.3,4.1-7.5,7.7-9.7
				c3.6-2.2,8.6-3.3,14.9-3.3c4.7,0,8.6,0.7,11.7,2.2c3.1,1.5,5.4,3.6,7.2,6.4c1.7,2.8,2.9,6.2,3.7,10.2c0.7,4,1.1,8.6,1.1,13.7v7.3
				h-16.5v-8.4c0-3.6-0.2-6.5-0.6-8.9c-0.4-2.4-1.1-4.1-2.1-5.3c-1-1.2-2.5-1.8-4.5-1.8c-1.9,0-3.4,0.4-4.6,1.2
				c-1.2,0.8-2,2.1-2.5,3.8c-0.5,1.7-0.8,3.9-0.8,6.7c0,2.5,0.3,4.6,0.9,6.4c0.6,1.8,1.6,3.5,2.9,5.2c1.3,1.7,2.9,3.5,4.8,5.6
				l9.7,10.5c4.6,5,8.3,10.2,10.9,15.6c2.6,5.4,3.9,11.4,3.9,18.1c0,7.1-0.8,13-2.3,17.8c-1.5,4.8-4.1,8.4-7.6,10.9
				C1762.1,1069.4,1757.2,1070.6,1751.1,1070.6z"/>
			<path class="st7" d="M1788.2,1069.2V951.4h39.5v15.5h-21.6v34.3h20.5v15.1h-20.5v37.5h22.4v15.5H1788.2z"/>
			<path class="st7" d="M1866.5,1070.6c-6.1,0-11.1-1.3-15-3.9c-3.9-2.6-6.7-6.4-8.5-11.5c-1.8-5.1-2.7-11.4-2.7-18.9v-53.9
				c0-6.8,0.9-12.6,2.7-17.4c1.8-4.8,4.6-8.5,8.5-11.1c3.9-2.6,9-3.9,15.3-3.9c4.7,0,8.7,0.7,12,2.2c3.3,1.5,5.9,3.6,7.9,6.4
				c2,2.8,3.5,6.2,4.4,10.2c0.9,4,1.4,8.5,1.4,13.6v53.9c0,7.5-0.9,13.8-2.6,18.9c-1.8,5.1-4.5,8.9-8.3,11.5
				C1877.6,1069.3,1872.7,1070.6,1866.5,1070.6z M1866.5,1055c2.2,0,3.9-0.7,5-2c1.1-1.3,1.9-3.4,2.2-6.1c0.4-2.7,0.6-6.2,0.6-10.4
				v-54.9c0-5.1-0.5-9.1-1.4-11.9c-1-2.8-3-4.2-6.2-4.2c-3.3,0-5.5,1.4-6.6,4.1c-1.2,2.7-1.7,6.7-1.7,12v55c0,4.3,0.2,7.8,0.6,10.5
				c0.4,2.7,1.2,4.8,2.3,6.1C1862.5,1054.4,1864.2,1055,1866.5,1055z"/>
		</g>
	</g>
</g>
<g id="FRONT">
	<g>
		<g>
			<g>
				<path class="st3" d="M1098.2,1289.7H453.7c-12.3,0-22.3-10-22.3-22.3v-257.6c0-12.3,10-22.3,22.3-22.3h644.5
					c12.3,0,22.3,10,22.3,22.3v257.6C1120.4,1279.8,1110.5,1289.7,1098.2,1289.7z"/>
			</g>
			<g>
				<path class="st5" d="M1098.2,1290.2H453.7c-12.6,0-22.8-10.2-22.8-22.8v-257.6c0-12.6,10.2-22.8,22.8-22.8h644.5
					c12.6,0,22.8,10.2,22.8,22.8v257.6C1120.9,1280,1110.7,1290.2,1098.2,1290.2z M453.7,988.1c-12,0-21.8,9.8-21.8,21.8v257.6
					c0,12,9.8,21.8,21.8,21.8h644.5c12,0,21.8-9.8,21.8-21.8v-257.6c0-12-9.8-21.8-21.8-21.8H453.7z"/>
			</g>
			<g>
				<g>
					<g>
						<path class="st7" d="M1058.1,1035.8L1058.1,1035.8c5.2,0,9.5,4.2,9.5,9.5V1232c0,5.2-4.2,9.5-9.5,9.5l0,0
							c-5.2,0-9.5-4.2-9.5-9.5v-186.7C1048.6,1040.1,1052.8,1035.8,1058.1,1035.8z"/>
					</g>
					<g>
						<path class="st7" d="M1000.5,1077.8L1000.5,1077.8c5.2,0,9.5,4.2,9.5,9.5V1232c0,5.2-4.2,9.5-9.5,9.5l0,0
							c-5.2,0-9.5-4.2-9.5-9.5v-144.7C991,1082.1,995.2,1077.8,1000.5,1077.8z"/>
					</g>
					<g>
						<path class="st7" d="M942.9,1137L942.9,1137c5.2,0,9.5,4.2,9.5,9.5v85.5c0,5.2-4.2,9.5-9.5,9.5h0c-5.2,0-9.5-4.2-9.5-9.5
							v-85.5C933.4,1141.2,937.6,1137,942.9,1137z"/>
					</g>
					<g>
						<path class="st7" d="M885.3,1123.4L885.3,1123.4c5.2,0,9.5,4.2,9.5,9.5v99.1c0,5.2-4.2,9.5-9.5,9.5l0,0
							c-5.2,0-9.5-4.2-9.5-9.5v-99.1C875.8,1127.7,880,1123.4,885.3,1123.4z"/>
					</g>
					<g>
						<path class="st7" d="M827.7,1154.1L827.7,1154.1c5.2,0,9.5,4.2,9.5,9.5v68.4c0,5.2-4.2,9.5-9.5,9.5l0,0
							c-5.2,0-9.5-4.2-9.5-9.5v-68.4C818.2,1158.4,822.4,1154.1,827.7,1154.1z"/>
					</g>
					<g>
						<path class="st7" d="M770.1,1094.3L770.1,1094.3c5.2,0,9.5,4.2,9.5,9.5V1232c0,5.2-4.2,9.5-9.5,9.5l0,0
							c-5.2,0-9.5-4.2-9.5-9.5v-128.2C760.6,1098.5,764.8,1094.3,770.1,1094.3z"/>
					</g>
					<g>
						<path class="st7" d="M712.5,1197.9L712.5,1197.9c5.2,0,9.5,4.2,9.5,9.5v24.6c0,5.2-4.2,9.5-9.5,9.5l0,0
							c-5.2,0-9.5-4.2-9.5-9.5v-24.6C703,1202.2,707.2,1197.9,712.5,1197.9z"/>
					</g>
					<g>
						<path class="st7" d="M592.9,1185.7L592.9,1185.7c5.2,0,9.5,4.2,9.5,9.5v36.8c0,5.2-4.2,9.5-9.5,9.5l0,0
							c-5.2,0-9.5-4.2-9.5-9.5v-36.8C583.4,1190,587.6,1185.7,592.9,1185.7z"/>
					</g>
					<g>
						<path class="st7" d="M533.1,1215L533.1,1215c5.2,0,9.5,4.2,9.5,9.5v7.6c0,5.2-4.2,9.5-9.5,9.5h0c-5.2,0-9.5-4.2-9.5-9.5v-7.6
							C523.6,1219.2,527.8,1215,533.1,1215z"/>
					</g>
					<g>
						<path class="st7" d="M652.7,1144.6L652.7,1144.6c5.2,0,9.5,4.2,9.5,9.5v77.9c0,5.2-4.2,9.5-9.5,9.5l0,0
							c-5.2,0-9.5-4.2-9.5-9.5v-77.9C643.2,1148.9,647.4,1144.6,652.7,1144.6z"/>
					</g>
				</g>
			</g>
			<g>
				<g>
					<g>
						<path class="st1" d="M1028.6,1035.8L1028.6,1035.8c5.2,0,9.5,4.2,9.5,9.5V1232c0,5.2-4.2,9.5-9.5,9.5l0,0
							c-5.2,0-9.5-4.2-9.5-9.5v-186.7C1019.1,1040.1,1023.3,1035.8,1028.6,1035.8z"/>
					</g>
					<g>
						<path class="st1" d="M971,1077.8L971,1077.8c5.2,0,9.5,4.2,9.5,9.5V1232c0,5.2-4.2,9.5-9.5,9.5l0,0c-5.2,0-9.5-4.2-9.5-9.5
							v-144.7C961.5,1082.1,965.7,1077.8,971,1077.8z"/>
					</g>
					<g>
						<path class="st1" d="M913.4,1137L913.4,1137c5.2,0,9.5,4.2,9.5,9.5v85.5c0,5.2-4.2,9.5-9.5,9.5l0,0c-5.2,0-9.5-4.2-9.5-9.5
							v-85.5C903.9,1141.2,908.1,1137,913.4,1137z"/>
					</g>
					<g>
						<path class="st1" d="M855.8,1123.4L855.8,1123.4c5.2,0,9.5,4.2,9.5,9.5v99.1c0,5.2-4.2,9.5-9.5,9.5l0,0
							c-5.2,0-9.5-4.2-9.5-9.5v-99.1C846.3,1127.7,850.5,1123.4,855.8,1123.4z"/>
					</g>
					<g>
						<path class="st1" d="M798.2,1154.1L798.2,1154.1c5.2,0,9.5,4.2,9.5,9.5v68.4c0,5.2-4.2,9.5-9.5,9.5l0,0
							c-5.2,0-9.5-4.2-9.5-9.5v-68.4C788.7,1158.4,792.9,1154.1,798.2,1154.1z"/>
					</g>
					<g>
						<path class="st1" d="M740.6,1094.3L740.6,1094.3c5.2,0,9.5,4.2,9.5,9.5V1232c0,5.2-4.2,9.5-9.5,9.5h0c-5.2,0-9.5-4.2-9.5-9.5
							v-128.2C731.1,1098.5,735.3,1094.3,740.6,1094.3z"/>
					</g>
					<g>
						<path class="st1" d="M683,1197.9L683,1197.9c5.2,0,9.5,4.2,9.5,9.5v24.6c0,5.2-4.2,9.5-9.5,9.5l0,0c-5.2,0-9.5-4.2-9.5-9.5
							v-24.6C673.5,1202.2,677.7,1197.9,683,1197.9z"/>
					</g>
					<g>
						<path class="st1" d="M563.4,1185.7L563.4,1185.7c5.2,0,9.5,4.2,9.5,9.5v36.8c0,5.2-4.2,9.5-9.5,9.5h0c-5.2,0-9.5-4.2-9.5-9.5
							v-36.8C553.9,1190,558.1,1185.7,563.4,1185.7z"/>
					</g>
					<g>
						<path class="st1" d="M503.6,1215L503.6,1215c5.2,0,9.5,4.2,9.5,9.5v7.6c0,5.2-4.2,9.5-9.5,9.5l0,0c-5.2,0-9.5-4.2-9.5-9.5
							v-7.6C494.1,1219.2,498.3,1215,503.6,1215z"/>
					</g>
					<g>
						<path class="st1" d="M623.2,1144.6L623.2,1144.6c5.2,0,9.5,4.2,9.5,9.5v77.9c0,5.2-4.2,9.5-9.5,9.5l0,0
							c-5.2,0-9.5-4.2-9.5-9.5v-77.9C613.7,1148.9,617.9,1144.6,623.2,1144.6z"/>
					</g>
				</g>
			</g>
		</g>
		<g>
			<g>
				<g>
					<g>
						<g>
							<g>
								<path class="st3" d="M2516.2,795.6c0,12-4.9,22.9-12.8,30.8c-7.9,7.9-18.8,12.8-30.8,12.8h-411.1
									c-24.1,0-43.6-19.5-43.6-43.6c0-12,4.9-22.9,12.8-30.8c7.9-7.9,18.8-12.8,30.8-12.8h411.1
									C2496.7,752,2516.2,771.5,2516.2,795.6z"/>
							</g>
						</g>
					</g>
					<g>
						<g>
							<g>
								<path class="st7" d="M2516.2,795.6c0,12-4.9,22.9-12.8,30.8c-7.9,7.9-18.8,12.8-30.8,12.8h-70V752h70
									C2496.7,752,2516.2,771.5,2516.2,795.6z"/>
							</g>
						</g>
					</g>
					<g>
						<g>
							<g>
								<g>
									<path class="st3" d="M2451.6,803.4c-3.6,0-7.2-1.4-9.9-4.1c-2.7-2.7-4.1-6.2-4.1-9.9s1.5-7.3,4.1-9.9
										c5.5-5.5,14.4-5.5,19.8,0c2.7,2.6,4.1,6.2,4.1,9.9s-1.5,7.3-4.1,9.9C2458.7,802,2455.2,803.4,2451.6,803.4z M2451.6,778
										c-2.9,0-5.8,1.1-8,3.3c-2.1,2.1-3.3,5-3.3,8c0,3,1.2,5.9,3.3,8c4.4,4.4,11.6,4.4,16.1,0c2.1-2.1,3.3-5,3.3-8
										c0-3-1.2-5.9-3.3-8l0,0C2457.4,779.1,2454.5,778,2451.6,778z"/>
								</g>
							</g>
						</g>
						<g>
							<g>
								<g>
									
										<rect x="2467.3" y="794.9" transform="matrix(0.7071 -0.7071 0.7071 0.7071 152.811 1981.8281)" class="st3" width="2.7" height="23.1"/>
								</g>
							</g>
						</g>
						<g>
							<g>
								<g>
									<path class="st3" d="M2476.8,816.6c-0.5,0-1-0.2-1.4-0.6l-8.2-8.2c-0.8-0.8-0.8-2.1,0-2.8c0.8-0.8,2.1-0.8,2.8,0l8.2,8.2
										c0.8,0.8,0.8,2.1,0,2.8C2477.9,816.4,2477.3,816.6,2476.8,816.6z"/>
								</g>
							</g>
						</g>
					</g>
				</g>
				<g>
					<g>
						<g>
							<path class="st7" d="M2472.6,839.7h-411.1c-24.3,0-44.1-19.8-44.1-44.1c0-11.8,4.6-22.9,12.9-31.2
								c8.3-8.3,19.4-12.9,31.2-12.9h411.1c24.3,0,44.1,19.8,44.1,44.1c0,11.8-4.6,22.9-12.9,31.2
								C2495.5,835.1,2484.4,839.7,2472.6,839.7z M2061.6,752.5c-11.5,0-22.3,4.5-30.5,12.6c-8.1,8.1-12.6,19-12.6,30.5
								c0,23.8,19.3,43.1,43.1,43.1h411.1c11.5,0,22.3-4.5,30.5-12.6c8.1-8.1,12.6-19,12.6-30.5c0-23.8-19.3-43.1-43.1-43.1H2061.6z
								"/>
						</g>
					</g>
				</g>
				<g>
					<g>
						<path class="st7" d="M2062.3,808.4c-6.6,0-11.9-5.3-11.9-11.9c0-0.8,0.7-1.5,1.5-1.5s1.5,0.7,1.5,1.5c0,4.9,4,8.9,8.9,8.9
							c4.9,0,8.9-4,8.9-8.9c0-0.8,0.7-1.5,1.5-1.5s1.5,0.7,1.5,1.5C2074.2,803.1,2068.9,808.4,2062.3,808.4z"/>
					</g>
					<g>
						<path class="st7" d="M2062.3,801.1L2062.3,801.1c-3.6,0-6.4-2.9-6.4-6.4v-13.3c0-3.6,2.9-6.4,6.4-6.4l0,0
							c3.6,0,6.4,2.9,6.4,6.4v13.3C2068.7,798.2,2065.8,801.1,2062.3,801.1z"/>
					</g>
					<g>
						<path class="st7" d="M2062.3,817.9c-0.8,0-1.5-0.7-1.5-1.5v-9.4c0-0.8,0.7-1.5,1.5-1.5s1.5,0.7,1.5,1.5v9.4
							C2063.8,817.2,2063.1,817.9,2062.3,817.9z"/>
					</g>
				</g>
			</g>
			<g>
				<path class="st1" d="M2344.4,803H2131c-4.1,0-7.4-3.3-7.4-7.4v0c0-4.1,3.3-7.4,7.4-7.4h213.4c4.1,0,7.4,3.3,7.4,7.4v0
					C2351.8,799.7,2348.5,803,2344.4,803z"/>
			</g>
		</g>
		<g>
			<g>
				<g>
					<g>
						<path class="st3" d="M1912.1,1675.7h-245c-25.7,0-46.6-20.8-46.6-46.6v-245c0-25.7,20.8-46.6,46.6-46.6h245
							c25.7,0,46.6,20.8,46.6,46.6v245C1958.6,1654.9,1937.8,1675.7,1912.1,1675.7z"/>
					</g>
					<g>
						<path class="st5" d="M1912.1,1676.2h-245c-25.9,0-47.1-21.1-47.1-47.1v-245c0-25.9,21.1-47.1,47.1-47.1h245
							c25.9,0,47.1,21.1,47.1,47.1v245C1959.1,1655.1,1938,1676.2,1912.1,1676.2z M1667.1,1338.2c-25.4,0-46.1,20.7-46.1,46.1v245
							c0,25.4,20.7,46.1,46.1,46.1h245c25.4,0,46.1-20.7,46.1-46.1v-245c0-25.4-20.7-46.1-46.1-46.1H1667.1z"/>
					</g>
				</g>
			</g>
			<g>
				<g>
					<g>
						<g>
							<path class="st7" d="M1917.9,1404h-27.5c-1.8,0-3.3-1.5-3.3-3.3v-27.5c0-1.8,1.5-3.3,3.3-3.3h27.5c1.8,0,3.3,1.5,3.3,3.3
								v27.5C1921.2,1402.5,1919.7,1404,1917.9,1404z"/>
						</g>
						<g>
							<g>
								<g>
									<g>
										<g>
											<path class="st3" d="M1900.9,1394.6l-6.8-6.8c-0.4-0.4-0.4-1.1,0-1.5l2.2-2.2c0.4-0.4,1.1-0.4,1.5,0l3.9,3.9l8.8-8.7
												c0.4-0.4,1.1-0.4,1.5,0l2.2,2.2c0.4,0.4,0.4,1.1,0,1.5l-11.7,11.7C1902,1395,1901.3,1395,1900.9,1394.6z"/>
										</g>
									</g>
								</g>
							</g>
						</g>
					</g>
				</g>
				<g>
					<path class="st7" d="M1656.4,1379.7h174.5c2.7,0,4.9-2.2,4.9-4.9l0,0c0-2.7-2.2-4.9-4.9-4.9h-174.5c-2.7,0-4.9,2.2-4.9,4.9l0,0
						C1651.4,1377.5,1653.7,1379.7,1656.4,1379.7z"/>
				</g>
				<g>
					<path class="st7" d="M1656.4,1404h99.9c2.7,0,4.9-2.2,4.9-4.9l0,0c0-2.7-2.2-4.9-4.9-4.9h-99.9c-2.7,0-4.9,2.2-4.9,4.9l0,0
						C1651.4,1401.8,1653.7,1404,1656.4,1404z"/>
				</g>
				<g>
					<g>
						<g>
							<path class="st7" d="M1917.9,1459.7h-27.5c-1.8,0-3.3-1.5-3.3-3.3v-27.5c0-1.8,1.5-3.3,3.3-3.3h27.5c1.8,0,3.3,1.5,3.3,3.3
								v27.5C1921.2,1458.3,1919.7,1459.7,1917.9,1459.7z"/>
						</g>
						<g>
							<g>
								<g>
									<g>
										<g>
											<path class="st3" d="M1900.9,1450.4l-6.8-6.8c-0.4-0.4-0.4-1.1,0-1.5l2.2-2.2c0.4-0.4,1.1-0.4,1.5,0l3.9,3.9l8.8-8.7
												c0.4-0.4,1.1-0.4,1.5,0l2.2,2.2c0.4,0.4,0.4,1.1,0,1.5l-11.7,11.7C1902,1450.8,1901.3,1450.8,1900.9,1450.4z"/>
										</g>
									</g>
								</g>
							</g>
						</g>
					</g>
				</g>
				<g>
					<path class="st7" d="M1656.4,1435.5h174.5c2.7,0,4.9-2.2,4.9-4.9l0,0c0-2.7-2.2-4.9-4.9-4.9h-174.5c-2.7,0-4.9,2.2-4.9,4.9l0,0
						C1651.4,1433.3,1653.7,1435.5,1656.4,1435.5z"/>
				</g>
				<g>
					<path class="st7" d="M1656.4,1459.7h99.9c2.7,0,4.9-2.2,4.9-4.9l0,0c0-2.7-2.2-4.9-4.9-4.9h-99.9c-2.7,0-4.9,2.2-4.9,4.9l0,0
						C1651.4,1457.5,1653.7,1459.7,1656.4,1459.7z"/>
				</g>
				<g>
					<g>
						<path class="st1" d="M1827.8,1502.4h88.5c2.7,0,4.9-2.2,4.9-4.9l0,0c0-2.7-2.2-4.9-4.9-4.9h-88.5c-2.7,0-4.9,2.2-4.9,4.9l0,0
							C1822.8,1500.2,1825,1502.4,1827.8,1502.4z"/>
					</g>
					<g>
						<path class="st1" d="M1867.6,1526.7h48.7c2.7,0,4.9-2.2,4.9-4.9l0,0c0-2.7-2.2-4.9-4.9-4.9h-48.7c-2.7,0-4.9,2.2-4.9,4.9l0,0
							C1862.7,1524.5,1864.9,1526.7,1867.6,1526.7z"/>
					</g>
					<g>
						<path class="st1" d="M1827.8,1550.9h88.5c2.7,0,4.9-2.2,4.9-4.9l0,0c0-2.7-2.2-4.9-4.9-4.9h-88.5c-2.7,0-4.9,2.2-4.9,4.9l0,0
							C1822.8,1548.7,1825,1550.9,1827.8,1550.9z"/>
					</g>
					<g>
						<path class="st1" d="M1827.8,1575.2h48.7c2.7,0,4.9-2.2,4.9-4.9l0,0c0-2.7-2.2-4.9-4.9-4.9h-48.7c-2.7,0-4.9,2.2-4.9,4.9l0,0
							C1822.8,1573,1825,1575.2,1827.8,1575.2z"/>
					</g>
					<g>
						<path class="st1" d="M1827.8,1599.5h88.5c2.7,0,4.9-2.2,4.9-4.9v0c0-2.7-2.2-4.9-4.9-4.9h-88.5c-2.7,0-4.9,2.2-4.9,4.9v0
							C1822.8,1597.3,1825,1599.5,1827.8,1599.5z"/>
					</g>
					<g>
						<path class="st1" d="M1847.7,1623.7h48.7c2.7,0,4.9-2.2,4.9-4.9l0,0c0-2.7-2.2-4.9-4.9-4.9h-48.7c-2.7,0-4.9,2.2-4.9,4.9l0,0
							C1842.7,1621.5,1845,1623.7,1847.7,1623.7z"/>
					</g>
					<g>
						<path class="st1" d="M1827.8,1648h88.5c2.7,0,4.9-2.2,4.9-4.9l0,0c0-2.7-2.2-4.9-4.9-4.9h-88.5c-2.7,0-4.9,2.2-4.9,4.9l0,0
							C1822.8,1645.8,1825,1648,1827.8,1648z"/>
					</g>
				</g>
			</g>
		</g>
		<g>
			<g>
				<path class="st7" d="M1761,1692.9h-165.2c-12.5,0-22.6-10.1-22.6-22.6v-165.2c0-12.5,10.1-22.6,22.6-22.6H1761
					c12.5,0,22.6,10.1,22.6,22.6v165.2C1783.6,1682.8,1773.5,1692.9,1761,1692.9z"/>
			</g>
			<g>
				<g>
					<g>
						<g>
							<path class="st5" d="M1680.3,1661.6c38.6,0,70.1-31.4,70.1-70.1c0-38.6-31.4-70.1-70.1-70.1c-38.6,0-70.1,31.4-70.1,70.1
								C1610.3,1630.2,1641.7,1661.6,1680.3,1661.6z M1680.3,1552.5c21.5,0,39,17.5,39,39c0,21.5-17.5,39-39,39
								c-21.5,0-39-17.5-39-39C1641.3,1570,1658.8,1552.5,1680.3,1552.5z"/>
						</g>
					</g>
					<g>
						<g>
							<path class="st3" d="M1602.5,1591.6h46.5c0-17.3,14-31.3,31.3-31.3v-46.5C1637.4,1513.8,1602.5,1548.7,1602.5,1591.6z"/>
						</g>
					</g>
					<g>
						<g>
							<path class="st7" d="M1715.5,1591.6h38.8c0-40.8-33.2-73.9-73.9-73.9v38.8C1699.7,1556.4,1715.5,1572.2,1715.5,1591.6z"/>
						</g>
						<g>
							<path class="st3" d="M1680.3,1517.6c40.8,0,73.9,33.2,73.9,73.9h-38.8c0-19.4-15.8-35.2-35.2-35.2V1517.6 M1680.3,1516.6h-1
								v1v38.8v1h1c18.8,0,34.2,15.3,34.2,34.2v1h1h38.8h1v-1C1755.2,1550.3,1721.6,1516.6,1680.3,1516.6L1680.3,1516.6z"/>
						</g>
					</g>
				</g>
				<g>
					<g>
						<g>
							<path class="st3" d="M1751.9,1558.7h-36.3c-2.4,0-4.3-1.9-4.3-4.3v-36.3c0-2.4,1.9-4.3,4.3-4.3h36.3c2.4,0,4.3,1.9,4.3,4.3
								v36.3C1756.3,1556.8,1754.3,1558.7,1751.9,1558.7z"/>
						</g>
						<g>
							<g>
								<g>
									<g>
										<g>
											<path class="st7" d="M1729.6,1546.4l-9-9c-0.6-0.6-0.6-1.5,0-2l2.9-2.9c0.6-0.6,1.5-0.6,2,0l5.1,5.1l11.6-11.5
												c0.6-0.6,1.5-0.6,2,0l2.9,2.9c0.6,0.6,0.6,1.5,0,2l-15.4,15.4C1731,1546.9,1730.1,1546.9,1729.6,1546.4z"/>
										</g>
									</g>
								</g>
							</g>
						</g>
					</g>
				</g>
			</g>
		</g>
		<g>
			<g>
				<path class="st3" d="M2322.5,331v346.1c0,14-11.3,25.3-25.3,25.3h-631.1c-14,0-25.3-11.3-25.3-25.3V331
					c0-17,13.8-30.9,30.9-30.9h620C2308.7,300.1,2322.5,313.9,2322.5,331z"/>
			</g>
			<g>
				<g>
					<g>
						<g>
							<path class="st1" d="M2322.5,414.2v262.9c0,14-11.3,25.3-25.3,25.3h-172.6V515.1c16.2-17,22.7-41.8,35-62.3
								c19.9-33.1,57-55.1,95.6-56.8C2278.8,395,2302.5,401.7,2322.5,414.2z"/>
						</g>
						<g>
							<path class="st7" d="M2124.6,515.1v187.3h-458.5c-14,0-25.3-11.3-25.3-25.3v-53.4c25.8-0.9,52.1,2.1,78,3.5
								c38.9,2.1,80.7-0.4,112.1-23.4c33.4-24.4,51.1-69,89.5-84.3c31.8-12.7,67.4-1.1,100.3,8c33,9.1,71.9,14.5,98.3-7.2
								C2121,518.7,2122.9,516.9,2124.6,515.1z"/>
						</g>
						<g>
							<path class="st5" d="M1734.5,601.3C1734.4,601.3,1734.4,601.3,1734.5,601.3c-3.8-0.1-7.9-0.2-12-0.4c-0.3,0-0.5-0.2-0.5-0.5
								c0-0.3,0.3-0.5,0.5-0.5c4.1,0.2,8.2,0.3,12,0.4c0.3,0,0.5,0.2,0.5,0.5C1734.9,601.1,1734.7,601.3,1734.5,601.3z
								 M1746.5,601.2c-0.3,0-0.5-0.2-0.5-0.5c0-0.3,0.2-0.5,0.5-0.5c4.1-0.1,8.1-0.3,12-0.6c0.3,0,0.5,0.2,0.5,0.5
								c0,0.3-0.2,0.5-0.5,0.5C1754.6,600.9,1750.6,601.1,1746.5,601.2C1746.5,601.2,1746.5,601.2,1746.5,601.2z M1710.5,600.2
								C1710.5,600.2,1710.5,600.2,1710.5,600.2c-4-0.3-8-0.5-12-0.8c-0.3,0-0.5-0.3-0.5-0.5c0-0.3,0.3-0.5,0.5-0.5
								c4,0.3,8,0.6,12,0.8c0.3,0,0.5,0.3,0.5,0.5C1711,600,1710.7,600.2,1710.5,600.2z M1770.4,599.5c-0.2,0-0.5-0.2-0.5-0.4
								c0-0.3,0.2-0.5,0.4-0.6c4-0.5,8-1.2,11.8-1.9c0.3-0.1,0.5,0.1,0.6,0.4c0.1,0.3-0.1,0.5-0.4,0.6
								C1778.5,598.3,1774.5,599,1770.4,599.5C1770.4,599.5,1770.4,599.5,1770.4,599.5z M1686.5,598.5
								C1686.5,598.5,1686.5,598.5,1686.5,598.5c-4.6-0.3-8.4-0.6-12-0.8c-0.3,0-0.5-0.3-0.5-0.5c0-0.3,0.2-0.5,0.5-0.5
								c3.6,0.2,7.4,0.4,12,0.8c0.3,0,0.5,0.3,0.5,0.5C1687,598.3,1686.8,598.5,1686.5,598.5z M1662.6,597.2
								C1662.6,597.2,1662.6,597.2,1662.6,597.2c-4.3-0.1-8.2-0.2-12-0.2c-0.3,0-0.5-0.2-0.5-0.5c0-0.3,0.2-0.5,0.5-0.5
								c3.8,0,7.8,0.1,12,0.2c0.3,0,0.5,0.2,0.5,0.5C1663.1,597,1662.8,597.2,1662.6,597.2z M1793.9,594.8c-0.2,0-0.4-0.1-0.5-0.4
								c-0.1-0.3,0.1-0.5,0.3-0.6c3.9-1.1,7.7-2.4,11.3-3.7c0.3-0.1,0.5,0,0.6,0.3c0.1,0.3,0,0.5-0.3,0.6c-3.7,1.4-7.5,2.7-11.4,3.8
								C1794,594.8,1793.9,594.8,1793.9,594.8z M1816.3,586.2c-0.2,0-0.4-0.1-0.4-0.3c-0.1-0.2,0-0.5,0.2-0.7
								c3.6-1.8,7.1-3.8,10.3-6c0.2-0.2,0.5-0.1,0.7,0.1c0.2,0.2,0.1,0.5-0.1,0.7c-3.3,2.2-6.8,4.2-10.4,6
								C1816.4,586.2,1816.3,586.2,1816.3,586.2z M1836.3,573.1c-0.1,0-0.3-0.1-0.4-0.2c-0.2-0.2-0.1-0.5,0.1-0.7
								c2.9-2.4,5.8-5.1,8.8-8.1c0.2-0.2,0.5-0.2,0.7,0c0.2,0.2,0.2,0.5,0,0.7c-3,3-5.9,5.7-8.9,8.1
								C1836.5,573,1836.4,573.1,1836.3,573.1z M1853.3,556.2c-0.1,0-0.2,0-0.3-0.1c-0.2-0.2-0.2-0.5,0-0.7c2.4-2.7,4.8-5.6,7.8-9.1
								c0.2-0.2,0.5-0.2,0.7-0.1c0.2,0.2,0.2,0.5,0.1,0.7c-3,3.6-5.4,6.5-7.8,9.1C1853.6,556.2,1853.5,556.2,1853.3,556.2z
								 M1868.7,537.8c-0.1,0-0.2,0-0.3-0.1c-0.2-0.2-0.2-0.5-0.1-0.7c2.4-3,5.1-6.2,7.7-9.2c0.2-0.2,0.5-0.2,0.7-0.1
								c0.2,0.2,0.2,0.5,0.1,0.7c-2.6,3.1-5.2,6.3-7.6,9.2C1869,537.7,1868.9,537.8,1868.7,537.8z M1884.3,519.6
								c-0.1,0-0.2,0-0.3-0.1c-0.2-0.2-0.2-0.5,0-0.7c2.9-3.2,5.7-6,8.5-8.5c0.2-0.2,0.5-0.2,0.7,0c0.2,0.2,0.2,0.5,0,0.7
								c-2.7,2.5-5.5,5.3-8.4,8.5C1884.6,519.5,1884.5,519.6,1884.3,519.6z M2070.7,509c-2.1,0-4.3-0.1-6.6-0.2
								c-0.3,0-0.5-0.2-0.5-0.5c0-0.3,0.2-0.5,0.5-0.5c4.1,0.2,8.2,0.2,11.9,0c0.3,0,0.5,0.2,0.5,0.5c0,0.3-0.2,0.5-0.5,0.5
								C2074.4,508.9,2072.6,509,2070.7,509z M2052.2,507.7C2052.2,507.7,2052.2,507.7,2052.2,507.7c-3.9-0.5-7.9-1.2-11.9-2
								c-0.3-0.1-0.4-0.3-0.4-0.6c0.1-0.3,0.3-0.4,0.6-0.4c4.1,0.8,8,1.4,11.8,1.9c0.3,0,0.5,0.3,0.4,0.6
								C2052.7,507.5,2052.5,507.7,2052.2,507.7z M2088.1,507.5c-0.2,0-0.4-0.2-0.5-0.4c0-0.3,0.1-0.5,0.4-0.6c4-0.7,7.9-1.7,11.5-3
								c0.3-0.1,0.5,0,0.6,0.3c0.1,0.3,0,0.5-0.3,0.6C2096.2,505.8,2092.3,506.8,2088.1,507.5
								C2088.1,507.5,2088.1,507.5,2088.1,507.5z M1902,503.4c-0.2,0-0.3-0.1-0.4-0.2c-0.2-0.2-0.1-0.5,0.1-0.7
								c3.3-2.5,6.7-4.7,10.1-6.5c0.2-0.1,0.5,0,0.7,0.2c0.1,0.2,0,0.5-0.2,0.7c-3.4,1.8-6.7,4-10,6.4
								C1902.2,503.4,1902.1,503.4,1902,503.4z M2028.7,503.1c0,0-0.1,0-0.1,0c-2.6-0.6-5.3-1.3-8-2.1l-3.6-1
								c-0.3-0.1-0.4-0.3-0.3-0.6c0.1-0.3,0.3-0.4,0.6-0.3l3.6,1c2.7,0.8,5.4,1.5,8,2.1c0.3,0.1,0.4,0.3,0.4,0.6
								C2029.1,503,2028.9,503.1,2028.7,503.1z M2110.6,499.6c-0.2,0-0.3-0.1-0.4-0.3c-0.1-0.2-0.1-0.5,0.2-0.7
								c2.9-1.7,5.7-3.6,8.3-5.7c0.5-0.4,0.9-0.8,1.4-1.1c0.2-0.2,0.5-0.2,0.7,0c0.2,0.2,0.2,0.5,0,0.7c-0.5,0.4-0.9,0.8-1.4,1.2
								c-2.6,2.2-5.5,4.1-8.5,5.8C2110.8,499.5,2110.7,499.6,2110.6,499.6z M2005.5,496.8c0,0-0.1,0-0.1,0
								c-4.5-1.2-8.2-2.2-11.6-3.1c-0.3-0.1-0.4-0.3-0.4-0.6c0.1-0.3,0.3-0.4,0.6-0.4c3.4,0.9,7.1,1.8,11.6,3.1
								c0.3,0.1,0.4,0.3,0.3,0.6C2005.9,496.7,2005.7,496.8,2005.5,496.8z M1923,492c-0.2,0-0.4-0.1-0.5-0.3c-0.1-0.3,0-0.5,0.3-0.6
								c3.7-1.3,7.6-2.4,11.7-3.1c0.3,0,0.5,0.1,0.6,0.4c0.1,0.3-0.1,0.5-0.4,0.6c-4,0.7-7.8,1.8-11.5,3.1
								C1923.1,492,1923.1,492,1923,492z M1982.2,491c0,0-0.1,0-0.1,0c-4.2-0.9-8-1.6-11.8-2.1c-0.3,0-0.5-0.3-0.4-0.6
								c0-0.3,0.3-0.5,0.6-0.4c3.8,0.6,7.6,1.2,11.8,2.1c0.3,0.1,0.4,0.3,0.4,0.6C1982.7,490.9,1982.5,491,1982.2,491z
								 M1958.5,487.6C1958.5,487.6,1958.5,487.6,1958.5,487.6c-2.4-0.1-4.8-0.2-7-0.2c0,0,0,0,0,0c-1.7,0-3.3,0-4.9,0.1
								c-0.3,0-0.5-0.2-0.5-0.5c0-0.3,0.2-0.5,0.5-0.5c1.6-0.1,3.3-0.1,5-0.1c0,0,0,0,0,0c2.3,0,4.7,0.1,7,0.2
								c0.3,0,0.5,0.3,0.5,0.5C1959,487.4,1958.7,487.6,1958.5,487.6z M2128.6,483.9c-0.1,0-0.2,0-0.3-0.1c-0.2-0.2-0.3-0.5-0.1-0.7
								c2.3-2.9,4.6-6.1,6.8-9.8c0.1-0.2,0.4-0.3,0.7-0.2c0.2,0.1,0.3,0.5,0.2,0.7c-2.2,3.7-4.5,6.9-6.9,9.9
								C2128.9,483.9,2128.8,483.9,2128.6,483.9z M2141.2,463.6c-0.1,0-0.2,0-0.2-0.1c-0.2-0.1-0.3-0.4-0.2-0.7
								c1.8-3.6,3.6-7.3,5.2-10.8c0.1-0.3,0.4-0.4,0.7-0.2c0.3,0.1,0.4,0.4,0.2,0.7c-1.6,3.5-3.4,7.2-5.2,10.8
								C2141.6,463.4,2141.4,463.6,2141.2,463.6z M2151.4,441.8c-0.1,0-0.1,0-0.2,0c-0.2-0.1-0.4-0.4-0.2-0.7
								c2-4.2,3.7-7.6,5.4-10.7c0.1-0.2,0.4-0.3,0.7-0.2c0.2,0.1,0.3,0.4,0.2,0.7c-1.7,3.1-3.4,6.5-5.4,10.7
								C2151.8,441.7,2151.6,441.8,2151.4,441.8z M2163.1,420.9c-0.1,0-0.2,0-0.3-0.1c-0.2-0.2-0.3-0.5-0.1-0.7
								c2.2-3.3,4.7-6.5,7.3-9.6c0.2-0.2,0.5-0.2,0.7-0.1c0.2,0.2,0.2,0.5,0.1,0.7c-2.6,3-5,6.2-7.3,9.5
								C2163.4,420.8,2163.2,420.9,2163.1,420.9z M2178.6,402.6c-0.1,0-0.3-0.1-0.4-0.2c-0.2-0.2-0.2-0.5,0-0.7
								c2.9-2.8,5.9-5.4,9.1-7.9c0.2-0.2,0.5-0.1,0.7,0.1c0.2,0.2,0.1,0.5-0.1,0.7c-3.1,2.5-6.2,5.1-9,7.8
								C2178.9,402.6,2178.7,402.6,2178.6,402.6z M2197.5,387.9c-0.2,0-0.3-0.1-0.4-0.2c-0.1-0.2-0.1-0.5,0.2-0.7
								c3.4-2.1,6.9-4.1,10.5-5.9c0.2-0.1,0.5,0,0.7,0.2c0.1,0.2,0,0.5-0.2,0.7c-3.5,1.8-7,3.8-10.4,5.9
								C2197.7,387.9,2197.6,387.9,2197.5,387.9z M2322.5,387.6c-0.1,0-0.2,0-0.3-0.1c-3.4-2.1-6.9-4.1-10.4-5.8
								c-0.2-0.1-0.3-0.4-0.2-0.7c0.1-0.2,0.4-0.3,0.7-0.2c3.6,1.8,7.1,3.7,10.5,5.9c0.2,0.1,0.3,0.5,0.2,0.7
								C2322.8,387.6,2322.7,387.6,2322.5,387.6z M2218.9,377.1c-0.2,0-0.4-0.1-0.5-0.3c-0.1-0.3,0-0.5,0.3-0.6
								c3.8-1.4,7.6-2.7,11.4-3.7c0.3-0.1,0.5,0.1,0.6,0.4c0.1,0.3-0.1,0.5-0.4,0.6c-3.8,1-7.6,2.3-11.4,3.7
								C2219,377.1,2219,377.1,2218.9,377.1z M2301,377c-0.1,0-0.1,0-0.2,0c-3.7-1.4-7.5-2.6-11.4-3.7c-0.3-0.1-0.4-0.3-0.4-0.6
								c0.1-0.3,0.3-0.4,0.6-0.4c3.9,1,7.7,2.3,11.5,3.7c0.3,0.1,0.4,0.4,0.3,0.6C2301.4,376.9,2301.2,377,2301,377z M2277.9,370.9
								C2277.8,370.9,2277.8,370.9,2277.9,370.9c-4-0.6-8-1.1-12-1.3c-0.3,0-0.5-0.3-0.5-0.5c0-0.3,0.2-0.5,0.5-0.5
								c4,0.2,8,0.7,12,1.3c0.3,0,0.5,0.3,0.4,0.6C2278.3,370.7,2278.1,370.9,2277.9,370.9z M2242,370.9c-0.2,0-0.5-0.2-0.5-0.4
								c0-0.3,0.1-0.5,0.4-0.6c4-0.6,8-1.1,12-1.3c0.3,0,0.5,0.2,0.5,0.5c0,0.3-0.2,0.5-0.5,0.5C2250,369.8,2246,370.2,2242,370.9
								C2242.1,370.9,2242,370.9,2242,370.9z"/>
						</g>
					</g>
					<g>
						<rect x="2124.1" y="403.5" class="st7" width="1" height="298.9"/>
					</g>
					<g>
						<circle class="st5" cx="1713.6" cy="599.8" r="6.8"/>
					</g>
					<g>
						<circle class="st5" cx="1921.6" cy="491.7" r="6.8"/>
					</g>
					<g>
						<circle class="st7" cx="2124.6" cy="403.5" r="6.8"/>
					</g>
					<g>
						<path class="st5" d="M1921.6,503.9c-6.7,0-12.2-5.5-12.2-12.2c0-6.7,5.5-12.2,12.2-12.2s12.2,5.5,12.2,12.2
							C1933.8,498.4,1928.3,503.9,1921.6,503.9z M1921.6,480.5c-6.2,0-11.2,5-11.2,11.2c0,6.2,5,11.2,11.2,11.2s11.2-5,11.2-11.2
							C1932.8,485.5,1927.7,480.5,1921.6,480.5z"/>
					</g>
					<g>
						<path class="st7" d="M2124.6,415.7c-6.7,0-12.2-5.5-12.2-12.2c0-6.7,5.5-12.2,12.2-12.2s12.2,5.5,12.2,12.2
							C2136.8,410.2,2131.3,415.7,2124.6,415.7z M2124.6,392.3c-6.2,0-11.2,5-11.2,11.2c0,6.2,5,11.2,11.2,11.2s11.2-5,11.2-11.2
							C2135.8,397.3,2130.8,392.3,2124.6,392.3z"/>
					</g>
					<g>
						<path class="st5" d="M1713.6,612c-6.7,0-12.2-5.5-12.2-12.2c0-6.7,5.5-12.2,12.2-12.2s12.2,5.5,12.2,12.2
							C1725.8,606.5,1720.3,612,1713.6,612z M1713.6,588.6c-6.2,0-11.2,5-11.2,11.2c0,6.2,5,11.2,11.2,11.2s11.2-5,11.2-11.2
							C1724.8,593.7,1719.8,588.6,1713.6,588.6z"/>
					</g>
				</g>
				<g>
					<path class="st5" d="M2297.2,702.9h-631.1c-14.2,0-25.8-11.6-25.8-25.8V331c0-17.3,14.1-31.4,31.4-31.4h620
						c17.3,0,31.4,14.1,31.4,31.4v346.1C2323,691.3,2311.4,702.9,2297.2,702.9z M1671.6,300.6c-16.7,0-30.4,13.6-30.4,30.4v346.1
						c0,13.7,11.1,24.8,24.8,24.8h631.1c13.7,0,24.8-11.1,24.8-24.8V331c0-16.7-13.6-30.4-30.4-30.4H1671.6z"/>
				</g>
				<g>
					<path class="st7" d="M2172.6,312.7c0-25.9-20.6-47-46.3-47.9c-26.9-0.9-49.6,20.9-49.6,47.8c-0.1,22.4,15.3,41.2,36,46.6
						c1.7,0.4,3.2,1.3,4.4,2.6l7.6,7.6l7.6-7.6c1.2-1.2,2.7-2.1,4.3-2.5C2157.2,353.9,2172.6,335.1,2172.6,312.7z"/>
				</g>
				<g>
					<g>
						<g>
							<g>
								<g>
									<path class="st3" d="M2118.1,328.6l-13.8-13.9c-0.9-0.9-0.9-2.3,0-3.1l4.4-4.4c0.9-0.9,2.3-0.9,3.1,0l7.8,7.9l17.8-17.7
										c0.9-0.9,2.3-0.9,3.1,0l4.4,4.4c0.9,0.9,0.9,2.3,0,3.1l-23.8,23.7C2120.3,329.5,2118.9,329.5,2118.1,328.6z"/>
								</g>
							</g>
						</g>
					</g>
				</g>
				<g>
					<path class="st1" d="M1859.8,341.7h133.5c4.1,0,7.4-3.3,7.4-7.4l0,0c0-4.1-3.3-7.4-7.4-7.4h-133.5c-4.1,0-7.4,3.3-7.4,7.4l0,0
						C1852.4,338.4,1855.7,341.7,1859.8,341.7z"/>
				</g>
				<g>
					<path class="st1" d="M1859.8,371.2h70c4.1,0,7.4-3.3,7.4-7.4l0,0c0-4.1-3.3-7.4-7.4-7.4h-70c-4.1,0-7.4,3.3-7.4,7.4l0,0
						C1852.4,367.8,1855.7,371.2,1859.8,371.2z"/>
				</g>
				<g>
					<path class="st1" d="M1859.8,397.7h133.5c4.1,0,7.4-3.3,7.4-7.4l0,0c0-4.1-3.3-7.4-7.4-7.4h-133.5c-4.1,0-7.4,3.3-7.4,7.4l0,0
						C1852.4,394.4,1855.7,397.7,1859.8,397.7z"/>
				</g>
				<g>
					<path class="st1" d="M1859.8,424.3h70c4.1,0,7.4-3.3,7.4-7.4v0c0-4.1-3.3-7.4-7.4-7.4h-70c-4.1,0-7.4,3.3-7.4,7.4v0
						C1852.4,420.9,1855.7,424.3,1859.8,424.3z"/>
				</g>
			</g>
		</g>
		<g>
			<g>
				<path class="st7" d="M1792.9,498.5h-231.4c-17.1,0-31-13.9-31-31V262.1c0-17.1,13.9-31,31-31h231.4c17.1,0,31,13.9,31,31v205.4
					C1823.9,484.6,1810,498.5,1792.9,498.5z"/>
			</g>
			<g>
				<g>
					<g>
						<path class="st3" d="M1607.5,420.5c-12.2-15.3-19.1-34.3-19.5-53.9h55.3c0.1,9.9,0.7,19.3,1.7,28.1
							C1630.7,400,1617.8,408.8,1607.5,420.5z"/>
					</g>
					<g>
						<path class="st3" d="M1643.3,363.1H1588c0.4-19.6,7.3-38.6,19.5-53.9c10.3,11.7,23.2,20.5,37.5,25.7
							C1644,343.7,1643.4,353.2,1643.3,363.1z"/>
					</g>
					<g>
						<path class="st3" d="M1666.8,453.3c-0.2,0-0.4,0-0.6-0.1c-0.4-0.1-0.9-0.1-1.3-0.2c-0.4-0.1-0.7-0.1-1.1-0.2
							c-0.4-0.1-0.8-0.1-1.3-0.2c-0.4-0.1-0.7-0.1-1.1-0.2c-0.4-0.1-0.8-0.1-1.2-0.2c-0.4-0.1-0.8-0.2-1.1-0.2
							c-0.4-0.1-0.8-0.2-1.2-0.3c-0.4-0.1-0.8-0.2-1.1-0.3c-0.4-0.1-0.8-0.2-1.2-0.3c-0.4-0.1-0.8-0.2-1.1-0.3
							c-0.4-0.1-0.8-0.2-1.2-0.3c-0.4-0.1-0.8-0.2-1.1-0.3c-0.4-0.1-0.8-0.2-1.2-0.3c-0.4-0.1-0.8-0.2-1.1-0.4
							c-0.4-0.1-0.8-0.2-1.1-0.4c-0.4-0.1-0.8-0.3-1.1-0.4c-0.4-0.1-0.8-0.3-1.1-0.4c-0.4-0.1-0.8-0.3-1.1-0.4
							c-0.4-0.1-0.7-0.3-1.1-0.4c-0.4-0.2-0.7-0.3-1.1-0.5c-0.4-0.2-0.7-0.3-1.1-0.5c-0.4-0.2-0.7-0.3-1.1-0.5
							c-0.4-0.2-0.7-0.3-1.1-0.5c-0.4-0.2-0.7-0.3-1.1-0.5c-0.3-0.2-0.7-0.3-1-0.5c-0.4-0.2-0.7-0.4-1.1-0.6c-0.4-0.2-0.7-0.4-1-0.5
							c-0.4-0.2-0.7-0.4-1.1-0.6c-0.3-0.2-0.7-0.4-1-0.6c-0.4-0.2-0.7-0.4-1-0.6c-0.3-0.2-0.7-0.4-1-0.6c-0.3-0.2-0.7-0.4-1-0.6
							c-0.3-0.2-0.7-0.4-1-0.6c-0.3-0.2-0.7-0.4-1-0.7c-0.3-0.2-0.7-0.4-1-0.7c-0.3-0.2-0.7-0.4-1-0.7c-0.3-0.2-0.6-0.4-1-0.7
							c-0.3-0.2-0.7-0.5-1-0.7c-0.3-0.2-0.6-0.5-0.9-0.7c-0.3-0.2-0.6-0.5-1-0.7c-0.3-0.2-0.6-0.5-0.9-0.7l-0.9-0.8l-0.9-0.8
							c-0.3-0.3-0.6-0.5-0.9-0.8c-0.3-0.3-0.6-0.5-0.9-0.8c-0.3-0.3-0.6-0.5-0.9-0.8c-0.3-0.3-0.6-0.5-0.9-0.8
							c-0.3-0.3-0.6-0.6-0.9-0.8c-0.3-0.3-0.6-0.6-0.9-0.9c-0.3-0.3-0.6-0.6-0.8-0.8c-0.3-0.3-0.6-0.6-0.9-0.9
							c-0.3-0.3-0.6-0.6-0.8-0.9c-0.3-0.3-0.6-0.6-0.8-0.9c-0.3-0.3-0.5-0.6-0.8-0.9c-0.1-0.1-0.2-0.2-0.3-0.4
							c9.8-11.3,22.1-19.7,35.7-24.9C1649.1,424.7,1656.9,445,1666.8,453.3z"/>
					</g>
					<g>
						<path class="st3" d="M1609.8,306.4c0.6-0.7,1.2-1.3,1.8-2c0.1-0.1,0.2-0.2,0.3-0.3c0.9-0.9,1.8-1.9,2.7-2.8
							c0.1,0,0.1-0.1,0.1-0.1c0.9-0.9,1.9-1.8,2.8-2.6c0.1-0.1,0.3-0.2,0.4-0.4c0.9-0.8,1.9-1.6,2.9-2.4c0.1-0.1,0.3-0.2,0.4-0.4
							c1-0.8,2-1.6,3-2.3c0.1-0.1,0.2-0.2,0.3-0.2c2.2-1.6,4.4-3,6.6-4.4c0.1-0.1,0.2-0.1,0.2-0.1c1.1-0.7,2.2-1.3,3.4-1.9
							c0.1-0.1,0.3-0.1,0.4-0.2c1.1-0.6,2.3-1.2,3.4-1.7c0.1-0.1,0.2-0.1,0.3-0.1c3.7-1.8,7.5-3.2,11.4-4.5c0.1,0,0.2-0.1,0.2-0.1
							c1.3-0.4,2.5-0.8,3.8-1.1c0.1,0,0.2-0.1,0.3-0.1c1.3-0.3,2.6-0.7,3.9-0.9c0,0,0,0,0.1,0c2.7-0.6,5.5-1,8.2-1.3h0.1
							c-9.9,8.3-17.7,28.6-21.4,54.9C1631.9,326.1,1619.6,317.7,1609.8,306.4z"/>
					</g>
					<g>
						<path class="st3" d="M1649,332.5c4.5-32.9,15.5-56.8,28.1-56.8c12.5,0,23.6,23.9,28.1,56.8c-8.9,3-18.4,4.5-28.1,4.5
							C1667.4,337,1657.9,335.5,1649,332.5z"/>
					</g>
					<g>
						<path class="st3" d="M1705.1,397.1c-4.5,32.8-15.5,56.6-27.9,56.8h-0.2c-12.5-0.1-23.5-24-27.9-56.8c8.9-3,18.4-4.5,28.1-4.5
							C1686.7,392.6,1696.1,394.2,1705.1,397.1z"/>
					</g>
					<g>
						<path class="st3" d="M1648.5,393.6c-1-8.5-1.6-17.6-1.7-26.9h60.3c-0.1,9.4-0.6,18.4-1.7,26.9c-9.1-2.9-18.7-4.5-28.5-4.5
							C1667.2,389.1,1657.6,390.6,1648.5,393.6z"/>
					</g>
					<g>
						<path class="st3" d="M1707.2,363.1h-60.4c0.1-9.4,0.7-18.4,1.7-26.9c9.1,2.9,18.7,4.5,28.5,4.5c9.8,0,19.4-1.5,28.5-4.5
							C1706.6,344.6,1707.1,353.7,1707.2,363.1z"/>
					</g>
					<g>
						<path class="st3" d="M1687.2,276.4L1687.2,276.4c2.9,0.3,5.6,0.8,8.3,1.3c0,0,0,0,0.1,0c1.3,0.3,2.6,0.6,3.9,0.9
							c0.1,0,0.2,0,0.3,0.1c1.3,0.3,2.5,0.7,3.8,1.1c0.1,0,0.2,0.1,0.2,0.1c3.9,1.2,7.7,2.7,11.4,4.5c0.1,0.1,0.2,0.1,0.3,0.1
							c1.2,0.6,2.3,1.1,3.4,1.7c0.1,0.1,0.2,0.1,0.4,0.2c1.1,0.6,2.3,1.2,3.4,1.9c0.1,0.1,0.2,0.1,0.2,0.1c2.3,1.4,4.5,2.8,6.6,4.4
							c0.1,0.1,0.2,0.2,0.3,0.2c1,0.7,2,1.5,3,2.3c0.2,0.1,0.3,0.2,0.4,0.4c1,0.8,1.9,1.6,2.9,2.4c0.1,0.1,0.3,0.2,0.4,0.4
							c1,0.9,1.9,1.7,2.8,2.6c0,0.1,0.1,0.1,0.1,0.1c0.9,0.9,1.8,1.8,2.7,2.8c0.1,0.1,0.2,0.2,0.3,0.3c0.6,0.7,1.2,1.3,1.8,2
							c-9.8,11.3-22.1,19.7-35.7,24.9C1705,304.9,1697.1,284.7,1687.2,276.4z"/>
					</g>
					<g>
						<path class="st3" d="M1744.3,423.3c-0.1,0.1-0.2,0.2-0.3,0.4c-0.3,0.3-0.5,0.6-0.8,0.9c-0.3,0.3-0.6,0.6-0.9,0.9
							c-0.3,0.3-0.5,0.6-0.8,0.9c-0.3,0.3-0.6,0.6-0.9,0.9c-0.3,0.3-0.6,0.6-0.8,0.8c-0.3,0.3-0.6,0.6-0.9,0.9
							c-0.3,0.3-0.6,0.5-0.9,0.8c-0.3,0.3-0.6,0.6-0.9,0.8c-0.3,0.3-0.6,0.5-0.9,0.8c-0.3,0.3-0.6,0.5-0.9,0.8
							c-0.3,0.3-0.6,0.5-0.9,0.8c-0.3,0.3-0.6,0.5-0.9,0.8c-0.3,0.3-0.6,0.5-0.9,0.8c-0.3,0.3-0.6,0.5-0.9,0.7l-0.9,0.7
							c-0.3,0.2-0.6,0.5-1,0.7c-0.3,0.2-0.7,0.5-1,0.7s-0.7,0.5-1,0.7c-0.3,0.2-0.7,0.5-1,0.7c-0.3,0.2-0.7,0.4-1,0.7
							c-0.3,0.2-0.7,0.4-1,0.7c-0.3,0.2-0.7,0.4-1,0.6c-0.3,0.2-0.7,0.4-1,0.6c-0.3,0.2-0.7,0.4-1,0.6c-0.3,0.2-0.7,0.4-1,0.6
							c-0.3,0.2-0.7,0.4-1,0.6c-0.3,0.2-0.7,0.4-1.1,0.6c-0.3,0.2-0.7,0.4-1,0.5c-0.4,0.2-0.7,0.4-1.1,0.6c-0.4,0.2-0.7,0.3-1.1,0.5
							c-0.4,0.2-0.7,0.3-1.1,0.5c-0.4,0.2-0.7,0.3-1.1,0.5c-0.4,0.2-0.7,0.3-1.1,0.5c-0.4,0.2-0.7,0.3-1.1,0.5
							c-0.4,0.2-0.7,0.3-1.1,0.5c-0.4,0.1-0.7,0.3-1.1,0.4c-0.4,0.1-0.7,0.3-1.1,0.4l-1.1,0.4c-0.4,0.1-0.7,0.3-1.1,0.4
							c-0.4,0.1-0.8,0.2-1.2,0.4c-0.4,0.1-0.7,0.2-1.1,0.4c-0.4,0.1-0.8,0.2-1.2,0.3c-0.4,0.1-0.8,0.2-1.1,0.3
							c-0.4,0.1-0.8,0.2-1.2,0.3c-0.4,0.1-0.8,0.2-1.1,0.3c-0.4,0.1-0.8,0.2-1.2,0.3c-0.4,0.1-0.8,0.2-1.1,0.3
							c-0.4,0.1-0.8,0.2-1.2,0.3c-0.4,0.1-0.8,0.2-1.1,0.2c-0.4,0.1-0.8,0.2-1.3,0.2c-0.4,0.1-0.7,0.1-1.1,0.2
							c-0.4,0.1-0.8,0.1-1.3,0.2c-0.4,0.1-0.7,0.1-1.1,0.2c-0.4,0.1-0.9,0.1-1.3,0.2c-0.2,0-0.4,0.1-0.6,0.1
							c9.9-8.3,17.7-28.6,21.3-54.9C1722.2,403.5,1734.5,412,1744.3,423.3z"/>
					</g>
					<g>
						<path class="st3" d="M1710.8,366.6h55.3c-0.4,19.6-7.3,38.6-19.5,53.9c-10.3-11.7-23.2-20.5-37.5-25.7
							C1710.1,385.9,1710.7,376.5,1710.8,366.6z"/>
					</g>
					<g>
						<path class="st3" d="M1746.6,309.2c12.2,15.3,19.1,34.3,19.5,53.9h-55.3c-0.1-9.9-0.7-19.3-1.7-28.1
							C1723.3,329.7,1736.2,320.9,1746.6,309.2z"/>
					</g>
				</g>
				<g>
					<g>
						<path class="st5" d="M1677.2,385.2v-40.8c0-4.9,3.9-8.8,8.8-8.8h95c4.9,0,8.8,3.9,8.8,8.8v40.8c0,4.9-3.9,8.8-8.8,8.8h-95
							C1681.1,394,1677.2,390.1,1677.2,385.2z"/>
					</g>
				</g>
				<g>
					<g>
						<path class="st3" d="M1765.4,358.5l-1.3,3.7c-0.3,1-1.7,1-2,0l-1.2-3.7c-0.1-0.4-0.6-0.7-1-0.7h-3.4c-0.5,0-0.9,0.3-1,0.7
							l-1.2,3.7c-0.3,1-1.7,1-2,0l-1.2-3.6c-0.1-0.4-0.6-0.7-1-0.7h-3.9h-0.8h-3.5c-0.5,0-0.9,0.3-1,0.7l-1.3,3.7c-0.3,1-1.7,1-2,0
							l-1.2-3.7c-0.1-0.4-0.6-0.7-1-0.7h-3.4c-0.5,0-0.9,0.3-1,0.7l-1.2,3.7c-0.3,1-1.7,1-2,0l-1.2-3.6c-0.1-0.4-0.6-0.7-1-0.7h-3.9
							h-0.8h-3.5c-0.5,0-0.9,0.3-1,0.7l-1.3,3.7c-0.3,1-1.7,1-2,0l-1.2-3.7c-0.1-0.4-0.6-0.7-1-0.7h-3.4c-0.5,0-0.9,0.3-1,0.7
							l-1.2,3.7c-0.3,1-1.7,1-2,0l-1.2-3.6c-0.1-0.4-0.6-0.7-1-0.7h-3.2c-0.7,0-1.2,0.7-1,1.4l4.1,11.9c0.1,0.4,0.6,0.7,1,0.7h4.1
							c0.5,0,0.9-0.3,1-0.7l0.9-2.8c0.3-1,1.7-1,2,0l0.9,2.7c0.1,0.4,0.6,0.7,1,0.7h4.1c0.5,0,0.9-0.3,1-0.7l3.2-9.3
							c0.3-1,1.7-1,2,0l3.2,9.3c0.1,0.4,0.6,0.7,1,0.7h4.1c0.5,0,0.9-0.3,1-0.7l0.9-2.8c0.3-1,1.7-1,2,0l0.9,2.7
							c0.1,0.4,0.6,0.7,1,0.7h4.1c0.5,0,0.9-0.3,1-0.7l3.2-9.3c0.3-1,1.7-1,2,0l3.2,9.3c0.1,0.4,0.6,0.7,1,0.7h4.1
							c0.5,0,0.9-0.3,1-0.7l0.9-2.8c0.3-1,1.7-1,2,0l0.9,2.7c0.1,0.4,0.6,0.7,1,0.7h4.1c0.5,0,0.9-0.3,1-0.7l4.1-11.9
							c0.2-0.7-0.3-1.4-1-1.4h-2.8C1766,357.8,1765.6,358.1,1765.4,358.5z"/>
					</g>
				</g>
			</g>
		</g>
		<g>
			<g>
				<g>
					<g>
						<g>
							<path class="st3" d="M607.4,906.8v234.2c0,4.4-3.5,7.9-7.9,7.9H376.9c-4.4,0-7.9-3.6-7.9-7.9V906.8c0-4.4,3.5-7.9,7.9-7.9
								h222.5C603.8,898.8,607.4,902.4,607.4,906.8z"/>
						</g>
						<g>
							<path class="st2" d="M607.4,906.8v22.7H369v-22.7c0-4.4,3.5-7.9,7.9-7.9h222.5C603.8,898.8,607.4,902.4,607.4,906.8z"/>
						</g>
						<g>
							<path class="st5" d="M599.5,1149.4H376.9c-4.6,0-8.4-3.8-8.4-8.4V906.8c0-4.6,3.8-8.4,8.4-8.4h222.5c4.6,0,8.4,3.8,8.4,8.4
								v234.2C607.9,1145.6,604.1,1149.4,599.5,1149.4z M376.9,899.3c-4.1,0-7.4,3.3-7.4,7.4v234.2c0,4.1,3.3,7.4,7.4,7.4h222.5
								c4.1,0,7.4-3.3,7.4-7.4V906.8c0-4.1-3.3-7.4-7.4-7.4H376.9z"/>
						</g>
					</g>
					<g>
						<path class="st5" d="M607.4,928.7v0.7H369v-22.7c0-4.4,3.5-7.9,7.9-7.9h178.8c2.2,0,3.9,1.8,3.9,3.9v22.9
							c0,1.7,1.4,3.1,3.1,3.1H607.4z"/>
					</g>
					<g>
						<path class="st5" d="M591.3,908.7l-2.2-2.2c-0.5-0.5-1.4-0.5-2,0l-3.5,3.5l-3.5-3.5c-0.5-0.5-1.4-0.5-2,0l-2.2,2.2
							c-0.5,0.5-0.5,1.4,0,2l3.5,3.5l-3.5,3.5c-0.5,0.5-0.5,1.4,0,2l2.2,2.2c0.5,0.5,1.4,0.5,2,0l3.5-3.5l3.5,3.5
							c0.5,0.5,1.4,0.5,2,0l2.2-2.2c0.5-0.5,0.5-1.4,0-2l-3.5-3.5l3.5-3.5C591.9,910.1,591.9,909.2,591.3,908.7z"/>
					</g>
					<g>
						<path class="st3" d="M451.5,918.3h-68c-2.2,0-4.1-1.8-4.1-4.1l0,0c0-2.2,1.8-4.1,4.1-4.1h68c2.2,0,4.1,1.8,4.1,4.1l0,0
							C455.5,916.5,453.7,918.3,451.5,918.3z"/>
					</g>
				</g>
				<g>
					<g>
						<path class="st1" d="M522.6,992.3c0,9.1-3.5,17.3-9.2,23.5c-6.3,6.8-15.3,11.1-25.3,11.1c-10,0-19-4.3-25.3-11.1
							c-5.7-6.2-9.2-14.4-9.2-23.5c0-19.1,15.5-34.6,34.6-34.6C507.2,957.7,522.6,973.2,522.6,992.3z"/>
					</g>
					<g>
						<g>
							<path class="st5" d="M513.4,1015.8c-6.3,6.8-15.3,11.1-25.3,11.1c-10,0-19-4.3-25.3-11.1c1.2-1.4,2.7-2.5,4.4-3.4l9.6-4.5
								c1.8-0.8,3.2-2.1,4.2-3.7c1-1.6,1.6-3.5,1.6-5.4l-2.4-2.4c-1.6-1.6-2.6-3.9-2.6-6.2v-9.3c0-1.2,0.2-2.3,0.7-3.3
								c0.4-1,1.1-2,1.9-2.8c1.6-1.6,3.9-2.6,6.2-2.6h3.6c1.2,0,2.3,0.2,3.3,0.7c1,0.4,2,1.1,2.8,1.9c1.6,1.6,2.6,3.9,2.6,6.2v9.3
								c0,2.3-0.9,4.5-2.6,6.2l-2.4,2.4c0,3.9,2.3,7.5,5.8,9.2l9.6,4.5C510.8,1013.2,512.3,1014.4,513.4,1015.8z"/>
						</g>
					</g>
				</g>
				<g>
					<path class="st1" d="M552.8,1075.1H423.6c-9.6,0-17.4-7.8-17.4-17.4l0,0c0-9.6,7.8-17.4,17.4-17.4h129.2
						c9.6,0,17.4,7.8,17.4,17.4l0,0C570.2,1067.3,562.4,1075.1,552.8,1075.1z"/>
				</g>
				<g>
					<path class="st1" d="M552.8,1120.6H423.6c-9.6,0-17.4-7.8-17.4-17.4l0,0c0-9.6,7.8-17.4,17.4-17.4h129.2
						c9.6,0,17.4,7.8,17.4,17.4l0,0C570.2,1112.8,562.4,1120.6,552.8,1120.6z"/>
				</g>
				<g>
					<g>
						<path class="st5" d="M516.4,1063.9h-92.5c-3.5,0-6.2-2.8-6.2-6.2l0,0c0-3.5,2.8-6.2,6.2-6.2h92.5c3.5,0,6.2,2.8,6.2,6.2l0,0
							C522.6,1061.1,519.8,1063.9,516.4,1063.9z"/>
					</g>
					<g>
						<path class="st5" d="M417.7,1103.2c0,3.4,2.8,6.2,6.2,6.2c3.4,0,6.2-2.8,6.2-6.2s-2.8-6.2-6.2-6.2
							C420.5,1097,417.7,1099.8,417.7,1103.2z"/>
					</g>
					<g>
						<path class="st5" d="M439.3,1103.2c0,3.4,2.8,6.2,6.2,6.2c3.4,0,6.2-2.8,6.2-6.2s-2.8-6.2-6.2-6.2
							C442,1097,439.3,1099.8,439.3,1103.2z"/>
					</g>
					<g>
						<path class="st5" d="M462.9,1103.2c0,3.4,2.8,6.2,6.2,6.2c3.4,0,6.2-2.8,6.2-6.2s-2.8-6.2-6.2-6.2
							C465.7,1097,462.9,1099.8,462.9,1103.2z"/>
					</g>
					<g>
						<path class="st5" d="M486.5,1103.2c0,3.4,2.8,6.2,6.2,6.2c3.4,0,6.2-2.8,6.2-6.2s-2.8-6.2-6.2-6.2
							C489.3,1097,486.5,1099.8,486.5,1103.2z"/>
					</g>
					<g>
						<path class="st5" d="M510.2,1103.2c0,3.4,2.8,6.2,6.2,6.2c3.4,0,6.2-2.8,6.2-6.2s-2.8-6.2-6.2-6.2
							C513,1097,510.2,1099.8,510.2,1103.2z"/>
					</g>
				</g>
			</g>
			<g>
				<g>
					<path class="st7" d="M664.7,1103.1H561.4c-9,0-16.2-7.3-16.2-16.2V983.6c0-9,7.3-16.2,16.2-16.2h103.3c9,0,16.2,7.3,16.2,16.2
						v103.3C680.9,1095.8,673.7,1103.1,664.7,1103.1z"/>
				</g>
				<g>
					<g>
						<g>
							<g>
								<g>
									<g>
										<path class="st3" d="M639.8,1011.9h-12v-12.3c0-8-6.3-14.8-14.3-15c-8.3-0.2-15.1,6.4-15.1,14.7v3.5
											c0,0.6,0.5,1.1,1.1,1.1l0,0c0.6,0,1.1-0.5,1.1-1.1v-3.2c0-7,5.8-13,12.8-12.8c6.8,0.1,12.3,5.7,12.3,12.6v12.6h-39.3
											c-2.1,0-3.9,1.7-3.9,3.9v53.4c0,2.1,1.7,3.9,3.9,3.9h53.4c2.1,0,3.9-1.7,3.9-3.9v-53.4
											C643.6,1013.7,641.9,1011.9,639.8,1011.9z M618.2,1041.8c-1.6,1.2-2.7,3.1-2.7,5.1v0.3c0,1.4,0.5,2.8,1.4,3.9
											c0.6,0.8,1,1.8,1,2.9c0,3-2.8,5.4-5.9,4.7c-1.7-0.4-3.1-1.7-3.6-3.4c-0.4-1.6-0.1-3.1,0.8-4.3c0.8-1.1,1.1-2.5,1.1-3.8
											v-0.6c0-2-1.1-3.8-2.6-5.1c-2.3-1.9-3.7-5-3-8.3c0.6-3.2,3.1-5.8,6.3-6.5c5.6-1.3,10.5,2.9,10.5,8.2
											C621.5,1037.8,620.2,1040.2,618.2,1041.8z"/>
									</g>
								</g>
							</g>
						</g>
					</g>
					<g>
						<g>
							<g>
								<g>
									<g>
										<path class="st7" d="M621.5,1035c0,2.8-1.3,5.2-3.4,6.8c-1.6,1.2-2.7,3.1-2.7,5.1l0,0.3c0,1.4,0.5,2.8,1.4,3.9
											c0.6,0.8,1,1.8,1,2.9c0,3-2.8,5.4-5.9,4.7c-1.7-0.4-3.1-1.7-3.6-3.4c-0.4-1.6-0.1-3.1,0.8-4.3c0.8-1.1,1.1-2.5,1.1-3.8
											l0-0.6c0-2-1.1-3.8-2.6-5.1c-2.3-1.9-3.7-5-3-8.3c0.6-3.2,3.1-5.8,6.3-6.5C616.6,1025.5,621.5,1029.7,621.5,1035z"/>
									</g>
								</g>
							</g>
						</g>
					</g>
				</g>
			</g>
		</g>
		<g>
			<path class="st5" d="M2465.1,1754.2H432.5c-0.8,0-1.5-0.7-1.5-1.5s0.7-1.5,1.5-1.5h2032.5c0.8,0,1.5,0.7,1.5,1.5
				S2465.9,1754.2,2465.1,1754.2z"/>
		</g>
	</g>
</g>
</svg>
