<?xml version="1.0" encoding="utf-8"?>
<!-- Generator: Adobe Illustrator 24.0.2, SVG Export Plug-In . SVG Version: 6.00 Build 0)  -->
<svg version="1.1" id="Layer_4" xmlns="http://www.w3.org/2000/svg" xmlns:xlink="http://www.w3.org/1999/xlink" x="0px" y="0px"
	 viewBox="0 0 3000 2500" style="enable-background:new 0 0 3000 2500;" xml:space="preserve">
<style type="text/css">
	.st0{display:none;fill:none;}
	.st1{opacity:8.000000e-02;fill:url(#SVGID_1_);}
	.st2{filter:url(#Adobe_OpacityMaskFilter);}
	.st3{filter:url(#Adobe_OpacityMaskFilter_1_);}
	.st4{mask:url(#SVGID_2_);fill:url(#SVGID_3_);}
	.st5{opacity:0.2;fill:url(#SVGID_4_);}
	.st6{fill:#FFFFFF;}
	.st7{fill:url(#SVGID_5_);}
	.st8{fill:#F3F7F6;}
	.st9{fill:#D8D8D8;}
	.st10{fill:url(#SVGID_6_);}
	.st11{fill:url(#SVGID_7_);}
	.st12{fill:#C4C4C4;}
	.st13{fill:none;stroke:#B3B3B3;stroke-width:3.7715;stroke-miterlimit:10;}
	.st14{opacity:0.68;fill:#107ABC;}
	.st15{opacity:0.64;}
	.st16{filter:url(#Adobe_OpacityMaskFilter_2_);}
	.st17{filter:url(#Adobe_OpacityMaskFilter_3_);}
	.st18{mask:url(#SVGID_8_);fill:url(#SVGID_9_);}
	.st19{fill:url(#SVGID_10_);}
	.st20{fill:url(#SVGID_11_);}
	.st21{fill:url(#SVGID_12_);}
	.st22{fill:url(#SVGID_13_);}
	.st23{fill:url(#SVGID_14_);}
	.st24{fill:url(#SVGID_15_);}
	.st25{filter:url(#Adobe_OpacityMaskFilter_4_);}
	.st26{filter:url(#Adobe_OpacityMaskFilter_5_);}
	.st27{mask:url(#SVGID_16_);fill:url(#SVGID_17_);}
	.st28{fill:url(#SVGID_18_);}
	.st29{opacity:0.72;}
	.st30{fill:#53EABB;}
	.st31{fill:url(#SVGID_19_);}
	.st32{fill:url(#SVGID_20_);}
	.st33{fill:url(#SVGID_21_);}
	.st34{fill:url(#SVGID_22_);}
	.st35{fill:url(#SVGID_23_);}
	.st36{fill:url(#SVGID_24_);}
	.st37{fill:#FCFEFD;stroke:#D4D7D8;stroke-width:0.9429;stroke-miterlimit:10;}
	.st38{fill:url(#SVGID_25_);}
	.st39{fill:#E0E0E0;}
	.st40{fill:url(#SVGID_26_);}
	.st41{fill:url(#SVGID_27_);}
	.st42{fill:url(#SVGID_28_);}
	.st43{fill:url(#SVGID_29_);}
	.st44{fill:url(#SVGID_30_);}
	.st45{fill:url(#SVGID_31_);}
	.st46{fill:url(#SVGID_32_);}
	.st47{fill:url(#SVGID_33_);}
	.st48{fill:url(#SVGID_34_);}
	.st49{filter:url(#Adobe_OpacityMaskFilter_6_);}
	.st50{filter:url(#Adobe_OpacityMaskFilter_7_);}
	.st51{mask:url(#SVGID_35_);fill:url(#SVGID_36_);}
	.st52{opacity:0.2;fill:url(#SVGID_37_);}
	.st53{fill:url(#SVGID_38_);}
	.st54{fill:url(#SVGID_39_);}
	.st55{fill:#FEFEFE;}
	.st56{fill:url(#SVGID_40_);}
	.st57{fill:#FDFDFD;}
	.st58{fill:url(#SVGID_41_);}
	.st59{fill:url(#SVGID_42_);}
	.st60{fill:url(#SVGID_43_);}
	.st61{filter:url(#Adobe_OpacityMaskFilter_8_);}
	.st62{filter:url(#Adobe_OpacityMaskFilter_9_);}
	.st63{mask:url(#SVGID_44_);fill:url(#SVGID_45_);}
	.st64{opacity:0.2;fill:url(#SVGID_46_);}
	.st65{fill:url(#SVGID_47_);}
	.st66{fill:url(#SVGID_48_);}
	.st67{fill:url(#SVGID_49_);}
	.st68{fill:url(#SVGID_50_);}
	.st69{fill:url(#SVGID_51_);}
	.st70{fill:url(#SVGID_52_);}
	.st71{fill:url(#SVGID_53_);}
	.st72{fill:url(#SVGID_54_);}
	.st73{fill:url(#SVGID_55_);}
	.st74{fill:#FEB5AF;}
	.st75{fill:url(#SVGID_56_);}
	.st76{fill:url(#SVGID_57_);}
	.st77{fill:url(#SVGID_58_);}
	.st78{fill:url(#SVGID_59_);}
	.st79{fill:url(#SVGID_60_);}
	.st80{fill:url(#SVGID_61_);}
	.st81{fill:url(#SVGID_62_);}
	.st82{fill:url(#SVGID_63_);}
	.st83{fill:url(#SVGID_64_);}
	.st84{fill:url(#SVGID_65_);stroke:#B3B3B3;stroke-width:0.17;stroke-miterlimit:10;}
	.st85{fill:url(#SVGID_66_);}
	.st86{fill:url(#SVGID_67_);}
	.st87{fill:url(#SVGID_68_);}
	.st88{fill:url(#SVGID_69_);stroke:#B3B3B3;stroke-width:0.17;stroke-miterlimit:10;}
	.st89{fill:url(#SVGID_70_);stroke:#B3B3B3;stroke-width:0.17;stroke-miterlimit:10;}
	.st90{fill:url(#SVGID_71_);}
	.st91{fill:url(#SVGID_72_);}
	.st92{fill:url(#SVGID_73_);}
	.st93{fill:url(#SVGID_74_);}
	.st94{fill:url(#SVGID_75_);}
	.st95{fill:url(#SVGID_76_);}
	.st96{fill:url(#SVGID_77_);}
	.st97{fill:url(#SVGID_78_);}
	.st98{fill:url(#SVGID_79_);}
	.st99{fill:url(#SVGID_80_);}
	.st100{opacity:0.15;fill:#142D1D;}
	.st101{fill:url(#SVGID_81_);}
	.st102{fill:url(#SVGID_82_);}
	.st103{fill:url(#SVGID_83_);}
	.st104{fill:url(#SVGID_84_);}
	.st105{fill:url(#SVGID_85_);}
	.st106{fill:url(#SVGID_86_);}
	.st107{fill:url(#SVGID_87_);}
	.st108{fill:#F2A9A5;}
</style>
<rect x="42.7" y="36.1" class="st0" width="2914.7" height="2427.9"/>
<g>
	<linearGradient id="SVGID_1_" gradientUnits="userSpaceOnUse" x1="411.4395" y1="1144.3677" x2="2490.9536" y2="1144.3677">
		<stop  offset="0" style="stop-color:#494949"/>
		<stop  offset="1" style="stop-color:#262525"/>
	</linearGradient>
	<path class="st1" d="M1112.4,438.1c-271.7,96.7-520.8,345.1-647.9,613.3c-127.1,268.2-91.7,850.8,858.5,854.8
		c950.1,4,1335.3-361.2,1101.2-741.4C2190.1,784.5,1783.3,199.3,1112.4,438.1z"/>
	<defs>
		<filter id="Adobe_OpacityMaskFilter" filterUnits="userSpaceOnUse" x="498.9" y="1653.9" width="1946.7" height="106.8">
			<feFlood  style="flood-color:white;flood-opacity:1" result="back"/>
			<feBlend  in="SourceGraphic" in2="back" mode="normal"/>
		</filter>
	</defs>
	<mask maskUnits="userSpaceOnUse" x="498.9" y="1653.9" width="1946.7" height="106.8" id="SVGID_2_">
		<g class="st2">
			<defs>
				<filter id="Adobe_OpacityMaskFilter_1_" filterUnits="userSpaceOnUse" x="498.9" y="1653.9" width="1946.7" height="106.8">
					<feFlood  style="flood-color:white;flood-opacity:1" result="back"/>
					<feBlend  in="SourceGraphic" in2="back" mode="normal"/>
				</filter>
			</defs>
			<mask maskUnits="userSpaceOnUse" x="498.9" y="1653.9" width="1946.7" height="106.8" id="SVGID_2_">
				<g class="st3">
				</g>
			</mask>
			<linearGradient id="SVGID_3_" gradientUnits="userSpaceOnUse" x1="498.9284" y1="1707.333" x2="2445.6118" y2="1707.333">
				<stop  offset="0" style="stop-color:#FFFFFF"/>
				<stop  offset="0.9906" style="stop-color:#333333"/>
			</linearGradient>
			<ellipse class="st4" cx="1472.3" cy="1707.3" rx="973.3" ry="53.4"/>
		</g>
	</mask>
	<linearGradient id="SVGID_4_" gradientUnits="userSpaceOnUse" x1="498.9284" y1="1707.333" x2="2445.6118" y2="1707.333">
		<stop  offset="0" style="stop-color:#00538E"/>
		<stop  offset="0.9906" style="stop-color:#00538E"/>
	</linearGradient>
	<ellipse class="st5" cx="1472.3" cy="1707.3" rx="973.3" ry="53.4"/>
	<g>
		<path class="st6" d="M2201.1,1541.8c8-2.2,16-5.3,23.9-9.1c7.9-3.8,15.2-8.2,21.9-13.2l-15.4-31.6c9.3-7.5,17.2-16.4,23.3-26.3
			l33.1,11.6c8.4-14.8,14.1-31.3,16.7-48.2l-33.2-11.5c1.3-11.6,0.7-23.3-2-34.9l31.6-15.4c-2.2-8-5.3-16-9.1-23.9
			s-8.2-15.2-13.2-21.9l-31.6,15.4c-7.5-9.3-16.3-17-26.2-23.1l11.5-33.2c-14.8-8.4-31.3-14.1-48.2-16.7l-11.3,33.2
			c-11.6-1.3-23.5-0.6-35.1,2.1l-15.4-31.6c-8,2.2-16,5.3-23.9,9.1c-7.9,3.8-15.2,8.2-21.9,13.2l15.4,31.6
			c-9.3,7.5-17,16.3-23.1,26.2l-33.2-11.5c-8.4,14.8-14,31.1-16.8,48l33.2,11.5c-1.3,11.6-0.6,23.5,2.1,35.1l-31.6,15.4
			c2.2,8,5.3,16,9.1,23.9s8.2,15.2,13.2,21.9l31.6-15.4c7.5,9.3,16.4,17.2,26.3,23.3l-11.5,33.2c15,8.3,31.3,13.9,48.1,16.5
			l11.5-33.2c11.6,1.3,23.3,0.7,34.9-2L2201.1,1541.8z M2104.7,1430.4c-15.3-31.5-2.2-69.5,29.3-84.8c31.5-15.3,69.5-2.2,84.8,29.3
			s2.2,69.5-29.3,84.8C2157.9,1475,2120,1461.9,2104.7,1430.4z"/>
		<path class="st6" d="M1975.2,1638.7c4.9-0.5,9.9-1.4,14.9-2.9c5-1.4,9.7-3.3,14.1-5.5l-5.8-20c6.2-3.4,11.7-7.8,16.3-13l18.1,10.1
			c6.4-7.8,11.4-16.9,14.6-26.4l-18.2-10.1c1.9-6.6,2.8-13.5,2.4-20.6l20-5.8c-0.5-4.9-1.4-9.9-2.9-14.9c-1.4-5-3.3-9.7-5.5-14.1
			l-20,5.8c-3.4-6.2-7.8-11.6-13-16.2l10.1-18.2c-7.8-6.4-16.9-11.4-26.4-14.6l-10,18.2c-6.6-1.9-13.7-2.7-20.7-2.4l-5.8-20
			c-4.9,0.5-9.9,1.4-14.9,2.9c-5,1.4-9.7,3.3-14.1,5.5l5.7,20c-6.2,3.4-11.6,7.8-16.2,13l-18.2-10.1c-6.4,7.8-11.3,16.7-14.7,26.3
			l18.2,10.1c-1.9,6.6-2.7,13.7-2.4,20.7l-20,5.7c0.5,4.9,1.4,9.9,2.9,14.9c1.4,5,3.3,9.7,5.5,14.1l20-5.7c3.4,6.2,7.8,11.7,13,16.3
			l-10.1,18.2c7.9,6.4,16.8,11.3,26.4,14.5l10.1-18.2c6.6,1.9,13.5,2.8,20.6,2.4L1975.2,1638.7z M1930.3,1563.9
			c-5.7-19.9,5.8-40.7,25.7-46.5c19.9-5.7,40.7,5.8,46.5,25.7c5.7,19.9-5.8,40.7-25.7,46.5C1956.8,1595.3,1936,1583.8,1930.3,1563.9
			z"/>
	</g>
	<g>
		<linearGradient id="SVGID_5_" gradientUnits="userSpaceOnUse" x1="1480.4941" y1="1653.6113" x2="1480.4941" y2="425.7753">
			<stop  offset="0" style="stop-color:#494949"/>
			<stop  offset="1" style="stop-color:#262525"/>
		</linearGradient>
		<path class="st7" d="M1782.4,547v1106.5c0,19.4-15.8,35.2-35.2,35.2h-533.4c-19.4,0-35.2-15.8-35.2-35.2V547
			c0-19.4,15.8-35.2,35.2-35.2h533.4C1766.6,511.8,1782.4,527.6,1782.4,547z"/>
		<g>
			<path class="st8" d="M1758.7,553.1v1094.2c0,11.7-9.5,21.2-21.2,21.2h-513.9c-11.7,0-21.2-9.5-21.2-21.2V553.1
				c0-11.7,9.5-21.2,21.2-21.2h162.7c3.9,0,7.6,1.8,10.1,4.9l11.2,14.2c2.4,3.1,6.1,4.9,10.1,4.9h125.7c3.9,0,7.6-1.8,10.1-4.9
				l11.2-14.2c2.4-3.1,6.1-4.9,10.1-4.9h162.7C1749.2,531.9,1758.7,541.4,1758.7,553.1z"/>
			<path class="st9" d="M1738.2,623.2c0,9.6-3.3,18.2-8.4,24.5c-5.1,6.4-12.2,10.2-20,10.2h-459.3c-15.7,0-28.4-15.6-28.4-34.6
				c0-9.5,3.1-18.1,8.4-24.3c5.1-6.2,12.2-10.2,20.1-10.2h459.3C1725.5,588.7,1738.2,604.2,1738.2,623.2z"/>
			<linearGradient id="SVGID_6_" gradientUnits="userSpaceOnUse" x1="1621.7922" y1="623.2234" x2="1738.2474" y2="623.2234">
				<stop  offset="0" style="stop-color:#F87D0B"/>
				<stop  offset="1" style="stop-color:#F7CB14"/>
			</linearGradient>
			<path class="st10" d="M1738.2,623.2c0,9.6-3.3,18.2-8.4,24.5c-5.1,6.4-12.2,10.2-20,10.2h-88.1v-69.1h88.1
				C1725.5,588.7,1738.2,604.2,1738.2,623.2z"/>
			<path class="st8" d="M1688.9,632.7l-0.5,0.5l-10.5-11.3l0,0c0.7-0.6,0.7-1.7,0.1-2.4l-0.8-0.9c3.7-6,3.2-14-2.3-19.1
				c-5.5-5.2-14.3-5.6-20.2-0.8c-7,5.7-7.6,16-1.6,22.5c4.8,5.2,12.3,6,18.3,2.9l0.8,0.9c0.6,0.7,1.7,0.7,2.4,0.1l0,0l10.5,11.3
				l-0.5,0.5c-0.3,0.3-0.3,0.8,0,1.1l12.2,13c0.4,0.4,1,0.4,1.4,0l4-3.8c0.4-0.4,0.4-1,0-1.4l-12.2-13
				C1689.8,632.4,1689.3,632.4,1688.9,632.7z M1655.9,620.4c-6.1-5.4-5.8-15,0.7-19.9c4.8-3.7,11.7-3.4,16.2,0.5
				c6.1,5.4,5.8,14.9-0.7,19.9C1667.3,624.6,1660.4,624.4,1655.9,620.4z"/>
			<g>
				<linearGradient id="SVGID_7_" gradientUnits="userSpaceOnUse" x1="1480.4908" y1="1050.6187" x2="1480.4908" y2="723.9304">
					<stop  offset="0" style="stop-color:#F87D0B"/>
					<stop  offset="1" style="stop-color:#E85656"/>
				</linearGradient>
				<path class="st11" d="M1684.2,1059.9h-407.5c-1.1,0-2.1-0.9-2.1-2.1V790.7c0-1.1,0.9-2.1,2.1-2.1h406.1c1.9,0,3.4,1.5,3.4,3.4
					v265.8C1686.3,1058.9,1685.4,1059.9,1684.2,1059.9z"/>
				<g>
					<polygon class="st12" points="1363.4,1411.4 1366.6,1417.9 1373.8,1419 1368.6,1424 1369.8,1431.2 1363.4,1427.8 
						1356.9,1431.2 1358.1,1424 1352.9,1419 1360.1,1417.9 					"/>
					<polygon class="st12" points="1396.1,1411.4 1399.3,1417.9 1406.5,1419 1401.3,1424 1402.6,1431.2 1396.1,1427.8 
						1389.7,1431.2 1390.9,1424 1385.7,1419 1392.9,1417.9 					"/>
					<polygon class="st12" points="1428.9,1411.4 1432.1,1417.9 1439.3,1419 1434.1,1424 1435.3,1431.2 1428.9,1427.8 
						1422.4,1431.2 1423.7,1424 1418.4,1419 1425.6,1417.9 					"/>
					<polygon class="st12" points="1461.6,1411.4 1464.8,1417.9 1472,1419 1466.8,1424 1468.1,1431.2 1461.6,1427.8 1455.2,1431.2 
						1456.4,1424 1451.2,1419 1458.4,1417.9 					"/>
					<polygon class="st12" points="1494.4,1411.4 1497.6,1417.9 1504.8,1419 1499.6,1424 1500.8,1431.2 1494.4,1427.8 
						1487.9,1431.2 1489.2,1424 1484,1419 1491.2,1417.9 					"/>
				</g>
				
					<ellipse transform="matrix(0.1602 -0.9871 0.9871 0.1602 -312.7256 2475.0415)" class="st12" cx="1298.2" cy="1421.3" rx="23.5" ry="23.5"/>
				<path class="st12" d="M1589.7,1481.1h-314.5c-0.3,0-0.6-0.3-0.6-0.6v-12.7c0-0.3,0.3-0.6,0.6-0.6h314.5c0.3,0,0.6,0.3,0.6,0.6
					v12.7C1590.3,1480.8,1590,1481.1,1589.7,1481.1z"/>
				<path class="st12" d="M1685.5,1513h-410.2c-0.3,0-0.6-0.3-0.6-0.6v-12.7c0-0.3,0.3-0.6,0.6-0.6h410.2c0.3,0,0.6,0.3,0.6,0.6
					v12.7C1686,1512.8,1685.8,1513,1685.5,1513z"/>
				
					<ellipse transform="matrix(0.1602 -0.9871 0.9871 0.1602 -16.0835 2222.657)" class="st12" cx="1298.2" cy="1120.8" rx="23.5" ry="23.5"/>
				<path class="st12" d="M1606.8,1112.3h-258.2c-0.3,0-0.6-0.3-0.6-0.6V1099c0-0.3,0.3-0.6,0.6-0.6h258.2c0.3,0,0.6,0.3,0.6,0.6
					v12.7C1607.4,1112,1607.1,1112.3,1606.8,1112.3z"/>
				<path class="st12" d="M1685.5,1144.3h-336.9c-0.3,0-0.6-0.3-0.6-0.6V1131c0-0.3,0.3-0.6,0.6-0.6h336.9c0.3,0,0.6,0.3,0.6,0.6
					v12.7C1686,1144,1685.8,1144.3,1685.5,1144.3z"/>
				<path class="st12" d="M1685.5,1545h-410.2c-0.3,0-0.6-0.3-0.6-0.6v-12.7c0-0.3,0.3-0.6,0.6-0.6h410.2c0.3,0,0.6,0.3,0.6,0.6
					v12.7C1686,1544.7,1685.8,1545,1685.5,1545z"/>
				<path class="st12" d="M1544.7,1577h-269.4c-0.3,0-0.6-0.3-0.6-0.6v-12.7c0-0.3,0.3-0.6,0.6-0.6h269.4c0.3,0,0.6,0.3,0.6,0.6
					v12.7C1545.3,1576.7,1545,1577,1544.7,1577z"/>
				<circle class="st9" cx="1297" cy="725.4" r="22.3"/>
				<path class="st9" d="M1646.1,737.2H1346c-0.3,0-0.6-0.3-0.6-0.6v-13.9c0-0.3,0.3-0.6,0.6-0.6h300.1c0.3,0,0.6,0.3,0.6,0.6v13.9
					C1646.7,736.9,1646.4,737.2,1646.1,737.2z"/>
				<rect x="1248.4" y="1365.8" class="st9" width="463.6" height="2.4"/>
				<polygon class="st6" points="1456.7,873.9 1456.7,924.2 1456.7,974.5 1523.6,924.2 				"/>
				<g>
					<path class="st9" d="M1471,1327.6h-194.3c-1.1,0-2.1-0.9-2.1-2.1v-151c0-1.1,0.9-2.1,2.1-2.1H1471c1.1,0,2.1,0.9,2.1,2.1v151
						C1473.1,1326.7,1472.1,1327.6,1471,1327.6z"/>
					<path class="st8" d="M1465.9,1188v124c0,4.6-3.8,8.4-8.4,8.4h-167.3c-4.6,0-8.4-3.8-8.4-8.4v-124c0-4.7,3.8-8.4,8.4-8.4h167.3
						C1462.2,1179.6,1465.9,1183.4,1465.9,1188z"/>
					<path class="st9" d="M1465.9,1261.5v50.6c0,4.6-3.8,8.4-8.4,8.4h-167.3c-4.6,0-8.4-3.8-8.4-8.4v-56.2l56.7-55.1l50.7,65.4
						l39.7-35.9L1465.9,1261.5z"/>
					
						<ellipse transform="matrix(0.7071 -0.7071 0.7071 0.7071 -438.4641 1355.2592)" class="st6" cx="1416.7" cy="1206.9" rx="14.5" ry="14.5"/>
				</g>
				<g>
					<path class="st9" d="M1690.7,1327.6h-194.3c-1.1,0-2.1-0.9-2.1-2.1v-151c0-1.1,0.9-2.1,2.1-2.1h194.3c1.1,0,2.1,0.9,2.1,2.1
						v151C1692.8,1326.7,1691.8,1327.6,1690.7,1327.6z"/>
					<path class="st8" d="M1685.6,1188v124c0,4.6-3.8,8.4-8.4,8.4h-167.3c-4.6,0-8.4-3.8-8.4-8.4v-124c0-4.7,3.8-8.4,8.4-8.4h167.3
						C1681.9,1179.6,1685.6,1183.4,1685.6,1188z"/>
					<path class="st9" d="M1685.6,1261.5v50.6c0,4.6-3.8,8.4-8.4,8.4h-167.3c-4.6,0-8.4-3.8-8.4-8.4v-56.2l56.7-55.1l50.7,65.4
						l39.7-35.9L1685.6,1261.5z"/>
					
						<ellipse transform="matrix(0.1595 -0.9872 0.9872 0.1595 184.0011 2629.9124)" class="st6" cx="1636.4" cy="1206.9" rx="14.5" ry="14.5"/>
				</g>
				<g>
					<path class="st6" d="M1480.5,1020.9c-53.3,0-96.7-43.4-96.7-96.7c0-53.3,43.4-96.7,96.7-96.7s96.7,43.4,96.7,96.7
						C1577.2,977.5,1533.8,1020.9,1480.5,1020.9z M1480.5,832.5c-50.6,0-91.7,41.1-91.7,91.7c0,50.6,41.1,91.7,91.7,91.7
						c50.6,0,91.7-41.1,91.7-91.7C1572.2,873.7,1531.1,832.5,1480.5,832.5z"/>
				</g>
			</g>
			<path class="st13" d="M1736.1,1643.9h-511.8c-1.2,0-2.2-1-2.2-2.2V691.1c0-1.2,1-2.2,2.2-2.2h511.8c1.2,0,2.2,1,2.2,2.2v950.6
				C1738.2,1642.9,1737.3,1643.9,1736.1,1643.9z"/>
		</g>
	</g>
	<g>
		<path class="st14" d="M2316.4,898.9v263.4c0,12.8-10.4,23.2-23.2,23.2h-565.4c-12.8,0-23.1-10.4-23.1-23.2V898.9
			c0-12.8,10.3-23.2,23.1-23.2h565.4C2306.1,875.7,2316.4,886.1,2316.4,898.9z"/>
		<g class="st15">
			<polygon class="st6" points="1981,1093.6 1986.5,1104.7 1998.8,1106.5 1989.9,1115.2 1992,1127.4 1981,1121.6 1970,1127.4 
				1972.1,1115.2 1963.2,1106.5 1975.5,1104.7 			"/>
			<polygon class="st6" points="2036.9,1093.6 2042.4,1104.7 2054.7,1106.5 2045.8,1115.2 2047.9,1127.4 2036.9,1121.6 
				2025.9,1127.4 2028,1115.2 2019.1,1106.5 2031.4,1104.7 			"/>
			<polygon class="st6" points="2092.9,1093.6 2098.4,1104.7 2110.7,1106.5 2101.8,1115.2 2103.9,1127.4 2092.9,1121.6 
				2081.9,1127.4 2084,1115.2 2075,1106.5 2087.4,1104.7 			"/>
			<polygon class="st6" points="2148.8,1093.6 2154.3,1104.7 2166.6,1106.5 2157.7,1115.2 2159.8,1127.4 2148.8,1121.6 
				2137.8,1127.4 2139.9,1115.2 2131,1106.5 2143.3,1104.7 			"/>
			<polygon class="st6" points="2204.7,1093.6 2210.2,1104.7 2222.5,1106.5 2213.6,1115.2 2215.7,1127.4 2204.7,1121.6 
				2193.7,1127.4 2195.8,1115.2 2186.9,1106.5 2199.2,1104.7 			"/>
		</g>
		<g class="st15">
			<path class="st6" d="M2211.1,971h-247.5c-0.2,0-0.4-0.2-0.4-0.4v-10c0-0.2,0.2-0.4,0.4-0.4h247.5c0.2,0,0.4,0.2,0.4,0.4v10
				C2211.5,970.8,2211.3,971,2211.1,971z"/>
			<path class="st6" d="M2211.1,1052h-247.5c-0.2,0-0.4-0.2-0.4-0.4v-10c0-0.2,0.2-0.4,0.4-0.4h247.5c0.2,0,0.4,0.2,0.4,0.4v10
				C2211.5,1051.8,2211.3,1052,2211.1,1052z"/>
			<path class="st6" d="M2286.4,1000.1h-322.8c-0.2,0-0.4-0.2-0.4-0.4v-10c0-0.2,0.2-0.4,0.4-0.4h322.8c0.2,0,0.4,0.2,0.4,0.4v10
				C2286.8,999.9,2286.6,1000.1,2286.4,1000.1z"/>
			<path class="st6" d="M2175.6,1025.2h-212c-0.2,0-0.4-0.2-0.4-0.4v-10c0-0.2,0.2-0.4,0.4-0.4h212c0.2,0,0.4,0.2,0.4,0.4v10
				C2176.1,1025,2175.9,1025.2,2175.6,1025.2z"/>
		</g>
		<defs>
			<filter id="Adobe_OpacityMaskFilter_2_" filterUnits="userSpaceOnUse" x="1704.7" y="875.7" width="611.7" height="42.9">
				<feFlood  style="flood-color:white;flood-opacity:1" result="back"/>
				<feBlend  in="SourceGraphic" in2="back" mode="normal"/>
			</filter>
		</defs>
		<mask maskUnits="userSpaceOnUse" x="1704.7" y="875.7" width="611.7" height="42.9" id="SVGID_8_">
			<g class="st16">
				<defs>
					<filter id="Adobe_OpacityMaskFilter_3_" filterUnits="userSpaceOnUse" x="1704.7" y="875.7" width="611.7" height="42.9">
						<feFlood  style="flood-color:white;flood-opacity:1" result="back"/>
						<feBlend  in="SourceGraphic" in2="back" mode="normal"/>
					</filter>
				</defs>
				<mask maskUnits="userSpaceOnUse" x="1704.7" y="875.7" width="611.7" height="42.9" id="SVGID_8_">
					<g class="st17">
					</g>
				</mask>
				<linearGradient id="SVGID_9_" gradientUnits="userSpaceOnUse" x1="1704.7452" y1="897.176" x2="2316.4463" y2="897.176">
					<stop  offset="0" style="stop-color:#FFFFFF"/>
					<stop  offset="1" style="stop-color:#000000"/>
				</linearGradient>
				<path class="st18" d="M2316.4,898.9v19.7h-611.7v-19.7c0-12.8,10.3-23.2,23.1-23.2h565.4
					C2306.1,875.7,2316.4,886.1,2316.4,898.9z"/>
			</g>
		</mask>
		<linearGradient id="SVGID_10_" gradientUnits="userSpaceOnUse" x1="1704.7452" y1="897.176" x2="2316.4463" y2="897.176">
			<stop  offset="0" style="stop-color:#125D99"/>
			<stop  offset="1" style="stop-color:#0F88CC"/>
		</linearGradient>
		<path class="st19" d="M2316.4,898.9v19.7h-611.7v-19.7c0-12.8,10.3-23.2,23.1-23.2h565.4C2306.1,875.7,2316.4,886.1,2316.4,898.9z
			"/>
		<g>
			<g>
				<linearGradient id="SVGID_11_" gradientUnits="userSpaceOnUse" x1="1816.5007" y1="1052.5333" x2="1851.9089" y2="1052.5333">
					<stop  offset="0" style="stop-color:#FFD9D9"/>
					<stop  offset="1" style="stop-color:#EFB4B4"/>
				</linearGradient>
				<path class="st20" d="M1816.5,1044.4l0,15c0,0,3.2,4.9,18.3,4.7c15.1-0.2,17.1-4,17.1-4v-19.3L1816.5,1044.4z"/>
				<linearGradient id="SVGID_12_" gradientUnits="userSpaceOnUse" x1="1800.8182" y1="1016.6456" x2="1867.5917" y2="1016.6456">
					<stop  offset="0" style="stop-color:#FFD9D9"/>
					<stop  offset="1" style="stop-color:#EFB4B4"/>
				</linearGradient>
				<path class="st21" d="M1866.8,980.1c0,0,8.7,68.1-31.7,73.2h-1.7c-40.4-5.1-31.7-73.2-31.7-73.2L1866.8,980.1z"/>
				<linearGradient id="SVGID_13_" gradientUnits="userSpaceOnUse" x1="1765.0702" y1="1085.9625" x2="1903.3993" y2="1085.9625">
					<stop  offset="0" style="stop-color:#125D99"/>
					<stop  offset="1" style="stop-color:#0F88CC"/>
				</linearGradient>
				<path class="st22" d="M1903.4,1084.1c-16.7,19.6-41.5,31.9-69.1,31.9c-27.7,0-52.5-12.3-69.2-31.9c2.1-4.5,4.1-8.8,6-12.1
					c2.2-3.7,4.2-6.5,6.1-7.8c10.4-7.6,37.4-8.2,39.4-8.2c0.1,0,0.1,0,0.1,0s-1,2.9,6.3,5.9c3.5,1.4,19.3,1.4,22.7,0
					c5.9-2.3,6.4-4.7,6.4-5.5c0-0.2,0-0.3,0-0.3s28.8,0.2,39.5,8.2c1.9,1.4,3.9,4.2,6,7.8
					C1899.4,1075.3,1901.4,1079.6,1903.4,1084.1z"/>
				<linearGradient id="SVGID_14_" gradientUnits="userSpaceOnUse" x1="1793.7278" y1="983.3175" x2="1872.9395" y2="983.3175">
					<stop  offset="0" style="stop-color:#3D3D3D"/>
					<stop  offset="1" style="stop-color:#111111"/>
				</linearGradient>
				<path class="st23" d="M1871.4,973.2C1871.4,973.2,1871.5,973.2,1871.4,973.2c-0.1-0.8-2.5-23.8-31.1-25.2
					c-28.6-1.4-33.9,15.5-33.9,15.5s-12.9-0.8-12.7,23.7c0.2,24.5,8.8,30.9,8.8,30.9s-2.4-13.9,0.8-14c3.1-0.1,0.9,13.7,2.9,12.6
					c1.9-1,5.8-14,3.7-26.5c0,0,19,4.9,32.7,2.3c13.7-2.6,14.7,6,15.7,13.5c1,7.5,1.3,17,3.2,10.7c1.9-6.3,1.3-13.1,4.6-12.2
					c3.3,0.8-4.2,15.2-0.9,14.3C1867.5,1018.1,1876.5,991.3,1871.4,973.2z"/>
				<path class="st8" d="M1816.6,1056l15.5,6.8l-12.2,8.5l-10.4-15.4C1809.4,1056,1812.2,1051.8,1816.6,1056z"/>
				<path class="st8" d="M1847.6,1056l-15.5,6.8l12.2,8.5l10.4-15.4C1854.8,1056,1852,1051.8,1847.6,1056z"/>
				<linearGradient id="SVGID_15_" gradientUnits="userSpaceOnUse" x1="1821.4152" y1="1089.3634" x2="1842.7629" y2="1089.3634">
					<stop  offset="0" style="stop-color:#F87D0B"/>
					<stop  offset="1" style="stop-color:#F7CB14"/>
				</linearGradient>
				<polygon class="st24" points="1837.4,1069.3 1839.5,1068 1832.1,1062.8 1824.7,1068 1826.8,1069.3 1821.4,1115.1 1832.1,1115.9 
					1842.8,1115.1 				"/>
			</g>
			<path class="st6" d="M1834.3,934.5c-50.2,0-90.9,40.6-90.9,90.8c0,22.5,8.2,43.1,21.6,58.9c16.7,19.6,41.5,31.9,69.2,31.9
				c27.6,0,52.4-12.3,69.1-31.9c13.5-15.8,21.6-36.4,21.6-58.9C1925,975,1884.4,934.5,1834.3,934.5z M1897.4,1072
				c-14.2,19.3-37.2,31.9-63.2,31.9c-25.9,0-48.9-12.5-63.3-31.9c-9.7-13.1-15.5-29.3-15.5-46.7c0-43.5,35.2-78.6,78.7-78.6
				c43.4,0,78.6,35.1,78.6,78.6C1912.9,1042.7,1907.2,1058.9,1897.4,1072z"/>
		</g>
	</g>
	<g>
		<path class="st14" d="M1248.6,571.4v263.4c0,12.8-10.4,23.2-23.2,23.2H660c-12.8,0-23.1-10.4-23.1-23.2V571.4
			c0-12.8,10.3-23.2,23.1-23.2h565.4C1238.3,548.2,1248.6,558.6,1248.6,571.4z"/>
		<g class="st15">
			<polygon class="st6" points="913.2,766 918.7,777.1 931,778.9 922.1,787.6 924.2,799.9 913.2,794.1 902.2,799.9 904.3,787.6 
				895.4,778.9 907.7,777.1 			"/>
			<polygon class="st6" points="969.1,766 974.6,777.1 986.9,778.9 978,787.6 980.1,799.9 969.1,794.1 958.1,799.9 960.2,787.6 
				951.3,778.9 963.6,777.1 			"/>
			<polygon class="st6" points="1025,766 1030.6,777.1 1042.9,778.9 1034,787.6 1036.1,799.9 1025,794.1 1014,799.9 1016.1,787.6 
				1007.2,778.9 1019.5,777.1 			"/>
			<polygon class="st6" points="1081,766 1086.5,777.1 1098.8,778.9 1089.9,787.6 1092,799.9 1081,794.1 1070,799.9 1072.1,787.6 
				1063.2,778.9 1075.5,777.1 			"/>
			<polygon class="st6" points="1136.9,766 1142.4,777.1 1154.7,778.9 1145.8,787.6 1147.9,799.9 1136.9,794.1 1125.9,799.9 
				1128,787.6 1119.1,778.9 1131.4,777.1 			"/>
		</g>
		<g class="st15">
			<path class="st6" d="M1143.3,643.4H895.8c-0.2,0-0.4-0.2-0.4-0.4v-10c0-0.2,0.2-0.4,0.4-0.4h247.5c0.2,0,0.4,0.2,0.4,0.4v10
				C1143.7,643.2,1143.5,643.4,1143.3,643.4z"/>
			<path class="st6" d="M1143.3,724.4H895.8c-0.2,0-0.4-0.2-0.4-0.4v-10c0-0.2,0.2-0.4,0.4-0.4h247.5c0.2,0,0.4,0.2,0.4,0.4v10
				C1143.7,724.2,1143.5,724.4,1143.3,724.4z"/>
			<path class="st6" d="M1218.6,672.5H895.8c-0.2,0-0.4-0.2-0.4-0.4v-10c0-0.2,0.2-0.4,0.4-0.4h322.8c0.2,0,0.4,0.2,0.4,0.4v10
				C1219,672.3,1218.8,672.5,1218.6,672.5z"/>
			<path class="st6" d="M1107.8,697.6h-212c-0.2,0-0.4-0.2-0.4-0.4v-10c0-0.2,0.2-0.4,0.4-0.4h212c0.2,0,0.4,0.2,0.4,0.4v10
				C1108.3,697.5,1108.1,697.6,1107.8,697.6z"/>
		</g>
		<defs>
			<filter id="Adobe_OpacityMaskFilter_4_" filterUnits="userSpaceOnUse" x="636.9" y="548.2" width="611.7" height="42.9">
				<feFlood  style="flood-color:white;flood-opacity:1" result="back"/>
				<feBlend  in="SourceGraphic" in2="back" mode="normal"/>
			</filter>
		</defs>
		<mask maskUnits="userSpaceOnUse" x="636.9" y="548.2" width="611.7" height="42.9" id="SVGID_16_">
			<g class="st25">
				<defs>
					<filter id="Adobe_OpacityMaskFilter_5_" filterUnits="userSpaceOnUse" x="636.9" y="548.2" width="611.7" height="42.9">
						<feFlood  style="flood-color:white;flood-opacity:1" result="back"/>
						<feBlend  in="SourceGraphic" in2="back" mode="normal"/>
					</filter>
				</defs>
				<mask maskUnits="userSpaceOnUse" x="636.9" y="548.2" width="611.7" height="42.9" id="SVGID_16_">
					<g class="st26">
					</g>
				</mask>
				<linearGradient id="SVGID_17_" gradientUnits="userSpaceOnUse" x1="636.9393" y1="569.6097" x2="1248.6403" y2="569.6097">
					<stop  offset="0" style="stop-color:#FFFFFF"/>
					<stop  offset="1" style="stop-color:#000000"/>
				</linearGradient>
				<path class="st27" d="M1248.6,571.4V591H636.9v-19.7c0-12.8,10.3-23.2,23.1-23.2h565.4C1238.3,548.2,1248.6,558.6,1248.6,571.4z
					"/>
			</g>
		</mask>
		<linearGradient id="SVGID_18_" gradientUnits="userSpaceOnUse" x1="636.9393" y1="569.6097" x2="1248.6403" y2="569.6097">
			<stop  offset="0" style="stop-color:#125D99"/>
			<stop  offset="1" style="stop-color:#0F88CC"/>
		</linearGradient>
		<path class="st28" d="M1248.6,571.4V591H636.9v-19.7c0-12.8,10.3-23.2,23.1-23.2h565.4C1238.3,548.2,1248.6,558.6,1248.6,571.4z"
			/>
		<g class="st29">
			<g>
				<path class="st6" d="M748.7,716.8l0,15c0,0,3.2,4.9,18.3,4.7c15.1-0.2,17.1-4,17.1-4l0-19.3L748.7,716.8z"/>
				<path class="st6" d="M799,652.5c0,0,8.7,68.1-31.7,73.2h-1.7c-40.4-5.1-31.7-73.2-31.7-73.2L799,652.5z"/>
				<path class="st6" d="M835.6,756.5c-16.7,19.6-41.5,31.9-69.1,31.9c-27.7,0-52.5-12.3-69.2-31.9c2.1-4.5,4.1-8.8,6-12.1
					c2.2-3.7,4.2-6.5,6.1-7.8c10.4-7.6,37.4-8.2,39.4-8.2c0.1,0,0.1,0,0.1,0s-1,2.9,6.3,5.9c3.5,1.4,19.3,1.4,22.7,0
					c5.9-2.3,6.4-4.7,6.4-5.5c0-0.2,0-0.3,0-0.3s28.8,0.2,39.5,8.2c1.9,1.4,3.9,4.2,6,7.8C831.6,747.7,833.6,752,835.6,756.5z"/>
				<path class="st6" d="M803.6,645.6C803.6,645.6,803.7,645.6,803.6,645.6c-0.1-0.8-2.5-23.8-31.1-25.2
					c-28.6-1.4-33.9,15.5-33.9,15.5s-12.9-0.8-12.7,23.7c0.2,24.5,8.8,30.9,8.8,30.9s-2.4-13.9,0.8-14c3.1-0.1,0.9,13.7,2.9,12.6
					c1.9-1,5.8-14,3.7-26.5c0,0,19,4.9,32.7,2.3c13.7-2.6,14.7,6,15.7,13.5c1,7.5,1.3,17,3.2,10.7c1.9-6.3,1.3-13.1,4.6-12.2
					c3.3,0.8-4.2,15.2-0.9,14.3C799.7,690.5,808.7,663.7,803.6,645.6z"/>
				<path class="st6" d="M748.8,728.4l15.5,6.8l-12.2,8.5l-10.4-15.4C741.6,728.4,744.4,724.2,748.8,728.4z"/>
				<path class="st6" d="M779.8,728.4l-15.5,6.8l12.2,8.5l10.4-15.4C787,728.4,784.2,724.2,779.8,728.4z"/>
				<polygon class="st6" points="769.6,741.8 771.7,740.4 764.3,735.2 756.9,740.4 758.9,741.8 753.6,787.5 764.3,788.4 775,787.5 
									"/>
			</g>
			<path class="st6" d="M766.5,606.9c-50.2,0-90.9,40.6-90.9,90.8c0,22.5,8.2,43.1,21.6,58.9c16.7,19.6,41.5,31.9,69.2,31.9
				c27.6,0,52.4-12.3,69.1-31.9c13.5-15.8,21.6-36.4,21.6-58.9C857.2,647.5,816.6,606.9,766.5,606.9z M829.6,744.4
				c-14.2,19.3-37.2,31.9-63.2,31.9c-25.9,0-48.9-12.5-63.3-31.9c-9.7-13.1-15.5-29.3-15.5-46.7c0-43.5,35.2-78.6,78.7-78.6
				c43.4,0,78.6,35.1,78.6,78.6C845.1,715.1,839.4,731.3,829.6,744.4z"/>
		</g>
	</g>
	<g>
		<path class="st30" d="M2068.4,805h-303.1c-12,0-21.8-9.7-21.8-21.8V555.7c0-12,9.7-21.8,21.8-21.8h303.1c12,0,21.8,9.7,21.8,21.8
			v227.5C2090.2,795.3,2080.5,805,2068.4,805z"/>
		<path class="st8" d="M2077.7,561.1v216.7c0,8.1-6.6,14.8-14.8,14.8h-292.3c-8.1,0-14.8-6.7-14.8-14.8V561.1
			c0-8.2,6.7-14.8,14.8-14.8H2063C2071.2,546.4,2077.7,553,2077.7,561.1z"/>
		<path class="st30" d="M2077.7,689.6v88.3c0,8.1-6.6,14.8-14.8,14.8h-292.3c-8.1,0-14.8-6.7-14.8-14.8v-98.3l99.1-96.3l88.6,114.3
			L2013,635L2077.7,689.6z"/>
		
			<ellipse transform="matrix(0.5645 -0.8254 0.8254 0.5645 377.0001 1902.7764)" class="st30" cx="1991.7" cy="594.1" rx="25.4" ry="25.4"/>
	</g>
	<g>
		
			<ellipse transform="matrix(0.1741 -0.9847 0.9847 0.1741 -156.754 1051.1428)" class="st30" cx="548.3" cy="619" rx="62.7" ry="62.7"/>
		<g>
			
				<ellipse transform="matrix(0.9252 -0.3796 0.3796 0.9252 -185.6336 252.8185)" class="st6" cx="548.3" cy="597.1" rx="13.3" ry="13.3"/>
			<path class="st6" d="M585.3,651.6c0,0.9,0,1.8-0.1,2.6h-73.8c-0.1-0.8-0.1-1.7-0.1-2.6c0-20.5,16.6-37.1,37.1-37.1
				C568.7,614.6,585.3,631.2,585.3,651.6z"/>
		</g>
	</g>
	<g>
		<g>
			<linearGradient id="SVGID_19_" gradientUnits="userSpaceOnUse" x1="437.9747" y1="891.8823" x2="608.5391" y2="891.8823">
				<stop  offset="0" style="stop-color:#125D99"/>
				<stop  offset="1" style="stop-color:#0F88CC"/>
			</linearGradient>
			<path class="st31" d="M608.5,891.8c0,45.5-35.5,82.7-80.4,85.2c-1.5,0.2-3.2,0.2-4.9,0.2c-7.5,0-14.9-1-21.8-3
				c-36.6-9.4-63.5-42.8-63.5-82.4c0-47,38.1-85.3,85.3-85.3C570.4,806.5,608.5,844.8,608.5,891.8z"/>
		</g>
		<g>
			<rect x="473.2" y="876" class="st6" width="27.4" height="58.4"/>
			<path class="st6" d="M511.6,882.7c0,0,15-3.7,22.4-14s4.3-19.4,4.3-19.4s10-0.7,11,9.3c1,10-3.7,24-3.7,24h16.9
				c6,0,10.8,4.9,10.8,10.8v30c0,6-4.9,10.8-10.8,10.8h-28.9l-22-4.3V882.7z"/>
		</g>
	</g>
	<g>
		<linearGradient id="SVGID_20_" gradientUnits="userSpaceOnUse" x1="2259.0461" y1="690.5219" x2="2410.8423" y2="690.5219">
			<stop  offset="0" style="stop-color:#125D99"/>
			<stop  offset="1" style="stop-color:#0F88CC"/>
		</linearGradient>
		<circle class="st32" cx="2334.9" cy="690.5" r="75.9"/>
		<g>
			<rect x="2292.8" y="669.5" class="st6" width="24.3" height="51.9"/>
			<path class="st6" d="M2326.9,675.4c0,0,13.4-3.3,19.9-12.5c6.5-9.2,3.9-17.2,3.9-17.2s8.9-0.6,9.8,8.3c0.9,8.9-3.3,21.4-3.3,21.4
				h15c5.3,0,9.6,4.3,9.6,9.6v26.7c0,5.3-4.3,9.6-9.6,9.6h-25.7l-19.6-3.9V675.4z"/>
		</g>
	</g>
	<g>
		<linearGradient id="SVGID_21_" gradientUnits="userSpaceOnUse" x1="354.6718" y1="1253.9565" x2="354.6718" y2="1357.6835">
			<stop  offset="0" style="stop-color:#FFD6A9"/>
			<stop  offset="1" style="stop-color:#E2973D"/>
		</linearGradient>
		<path class="st33" d="M455.5,1241v104.7c0,3.3-1.2,6.3-3.1,8.8c-2.6,3.5-6.8,5.8-11.5,5.8H268.4c-4,0-7.6-1.6-10.2-4.3
			c-2.7-2.6-4.4-6.3-4.4-10.3V1241c0-4.5,2.1-8.6,5.4-11.3c2.5-2,5.7-3.3,9.2-3.3h172.4c4.1,0,7.8,1.7,10.4,4.4
			C453.9,1233.5,455.5,1237,455.5,1241z"/>
		<linearGradient id="SVGID_22_" gradientUnits="userSpaceOnUse" x1="355.2943" y1="1289.0933" x2="355.2943" y2="1364.6735">
			<stop  offset="0" style="stop-color:#FFD6A9"/>
			<stop  offset="1" style="stop-color:#E2973D"/>
		</linearGradient>
		<path class="st34" d="M452.4,1354.4c-2.6,3.5-6.8,5.8-11.5,5.8H268.4c-4,0-7.6-1.6-10.2-4.3l67.8-62.1l23.7-21.7l24.6,19.7
			L452.4,1354.4z"/>
		<linearGradient id="SVGID_23_" gradientUnits="userSpaceOnUse" x1="355.2945" y1="1166.4462" x2="355.2945" y2="1315.0251">
			<stop  offset="0" style="stop-color:#FFD6A9"/>
			<stop  offset="1" style="stop-color:#E2973D"/>
		</linearGradient>
		<path class="st35" d="M451.3,1230.8l-77,61.1l-27.7,21.9l-20.6-19.9l-66.7-64.2c2.5-2,5.7-3.3,9.2-3.3h172.4
			C445,1226.4,448.7,1228.1,451.3,1230.8z"/>
	</g>
	<g>
		<g>
			<linearGradient id="SVGID_24_" gradientUnits="userSpaceOnUse" x1="317.454" y1="1071.0304" x2="475.0244" y2="1071.0304">
				<stop  offset="0" style="stop-color:#F87D0B"/>
				<stop  offset="1" style="stop-color:#F7CB14"/>
			</linearGradient>
			<circle class="st36" cx="396.2" cy="1071" r="78.8"/>
		</g>
		<path class="st6" d="M435,1039.7c-19.7-15-34.6,7.5-37,11.7c-2.5-4.2-17.8-27.3-37-11.7c-29.7,24,36.8,79.9,37,79.9
			C398.2,1119.6,465.8,1063.1,435,1039.7z"/>
	</g>
	<g>
		<path class="st37" d="M1317.5,1321.4v346.4c0,20.1-16.3,36.4-36.4,36.4H828.8c-20.1,0-36.4-16.3-36.4-36.4v-346.4
			c0-20.1,16.3-36.4,36.4-36.4h452.2C1301.2,1285,1317.5,1301.3,1317.5,1321.4z"/>
		<linearGradient id="SVGID_25_" gradientUnits="userSpaceOnUse" x1="792.4501" y1="1323.9663" x2="1317.4561" y2="1323.9663">
			<stop  offset="0" style="stop-color:#F87D0B"/>
			<stop  offset="1" style="stop-color:#F7CB14"/>
		</linearGradient>
		<path class="st38" d="M1317.5,1321.4v41.5h-525v-41.5c0-20.1,16.3-36.4,36.4-36.4h452.2C1301.2,1285,1317.5,1301.3,1317.5,1321.4z
			"/>
		<g>
			<rect x="860.1" y="1431" class="st39" width="44.2" height="36.5"/>
			<rect x="917.7" y="1431" class="st39" width="44.2" height="36.5"/>
			<rect x="975.3" y="1431" class="st39" width="44.2" height="36.5"/>
			<rect x="1032.8" y="1431" class="st39" width="44.2" height="36.5"/>
			<rect x="1090.4" y="1431" class="st39" width="44.2" height="36.5"/>
			<rect x="1148" y="1431" class="st39" width="44.2" height="36.5"/>
			<rect x="1205.6" y="1431" class="st39" width="44.2" height="36.5"/>
			<rect x="860.1" y="1480.5" class="st39" width="44.2" height="36.5"/>
			<rect x="917.7" y="1480.5" class="st39" width="44.2" height="36.5"/>
			<rect x="975.3" y="1480.5" class="st39" width="44.2" height="36.5"/>
			<rect x="1032.8" y="1480.5" class="st39" width="44.2" height="36.5"/>
			<rect x="1090.4" y="1480.5" class="st39" width="44.2" height="36.5"/>
			<rect x="1148" y="1480.5" class="st39" width="44.2" height="36.5"/>
			<rect x="1205.6" y="1480.5" class="st39" width="44.2" height="36.5"/>
			<rect x="860.1" y="1529.9" class="st39" width="44.2" height="36.5"/>
			<rect x="917.7" y="1529.9" class="st39" width="44.2" height="36.5"/>
			<rect x="975.3" y="1529.9" class="st39" width="44.2" height="36.5"/>
			<rect x="1032.8" y="1529.9" class="st39" width="44.2" height="36.5"/>
			<rect x="1090.4" y="1529.9" class="st39" width="44.2" height="36.5"/>
			<rect x="1148" y="1529.9" class="st39" width="44.2" height="36.5"/>
			<rect x="1205.6" y="1529.9" class="st39" width="44.2" height="36.5"/>
			<rect x="860.1" y="1579.3" class="st39" width="44.2" height="36.5"/>
			<rect x="917.7" y="1579.3" class="st39" width="44.2" height="36.5"/>
			<rect x="975.3" y="1579.3" class="st39" width="44.2" height="36.5"/>
			<rect x="1032.8" y="1579.3" class="st39" width="44.2" height="36.5"/>
			<rect x="1090.4" y="1579.3" class="st39" width="44.2" height="36.5"/>
			<rect x="1148" y="1579.3" class="st39" width="44.2" height="36.5"/>
			<rect x="1205.6" y="1579.3" class="st39" width="44.2" height="36.5"/>
		</g>
		<g>
			<g>
				<linearGradient id="SVGID_26_" gradientUnits="userSpaceOnUse" x1="837.7274" y1="1303.2852" x2="857.7099" y2="1303.2852">
					<stop  offset="0" style="stop-color:#3060AB"/>
					<stop  offset="1" style="stop-color:#131E60"/>
				</linearGradient>
				<path class="st40" d="M857.7,1303.3c0,5.5-4.5,10-10,10c-5.5,0-10-4.5-10-10s4.5-10,10-10
					C853.2,1293.3,857.7,1297.8,857.7,1303.3z"/>
				<path class="st39" d="M852,1303.3h-8.5c-0.2,0-0.3-0.1-0.3-0.3v-40.5c0-0.2,0.1-0.3,0.3-0.3h8.5c0.2,0,0.3,0.1,0.3,0.3v40.5
					C852.3,1303.1,852.1,1303.3,852,1303.3z"/>
			</g>
			<g>
				<linearGradient id="SVGID_27_" gradientUnits="userSpaceOnUse" x1="896.9372" y1="1303.2852" x2="916.9197" y2="1303.2852">
					<stop  offset="0" style="stop-color:#3060AB"/>
					<stop  offset="1" style="stop-color:#131E60"/>
				</linearGradient>
				<circle class="st41" cx="906.9" cy="1303.3" r="10"/>
				<path class="st39" d="M911.2,1303.3h-8.5c-0.2,0-0.3-0.1-0.3-0.3v-40.5c0-0.2,0.1-0.3,0.3-0.3h8.5c0.2,0,0.3,0.1,0.3,0.3v40.5
					C911.5,1303.1,911.4,1303.3,911.2,1303.3z"/>
			</g>
			<g>
				<linearGradient id="SVGID_28_" gradientUnits="userSpaceOnUse" x1="956.1471" y1="1303.2852" x2="976.1295" y2="1303.2852">
					<stop  offset="0" style="stop-color:#3060AB"/>
					<stop  offset="1" style="stop-color:#131E60"/>
				</linearGradient>
				<path class="st42" d="M976.1,1303.3c0,5.5-4.5,10-10,10c-5.5,0-10-4.5-10-10s4.5-10,10-10
					C971.7,1293.3,976.1,1297.8,976.1,1303.3z"/>
				<path class="st39" d="M970.4,1303.3h-8.5c-0.2,0-0.3-0.1-0.3-0.3v-40.5c0-0.2,0.1-0.3,0.3-0.3h8.5c0.2,0,0.3,0.1,0.3,0.3v40.5
					C970.7,1303.1,970.6,1303.3,970.4,1303.3z"/>
			</g>
			<g>
				<linearGradient id="SVGID_29_" gradientUnits="userSpaceOnUse" x1="1015.3569" y1="1303.2852" x2="1035.3394" y2="1303.2852">
					<stop  offset="0" style="stop-color:#3060AB"/>
					<stop  offset="1" style="stop-color:#131E60"/>
				</linearGradient>
				<circle class="st43" cx="1025.3" cy="1303.3" r="10"/>
				<path class="st39" d="M1029.6,1303.3h-8.5c-0.2,0-0.3-0.1-0.3-0.3v-40.5c0-0.2,0.1-0.3,0.3-0.3h8.5c0.2,0,0.3,0.1,0.3,0.3v40.5
					C1029.9,1303.1,1029.8,1303.3,1029.6,1303.3z"/>
			</g>
			<g>
				<linearGradient id="SVGID_30_" gradientUnits="userSpaceOnUse" x1="1074.5667" y1="1303.2852" x2="1094.5492" y2="1303.2852">
					<stop  offset="0" style="stop-color:#3060AB"/>
					<stop  offset="1" style="stop-color:#131E60"/>
				</linearGradient>
				<path class="st44" d="M1094.5,1303.3c0,5.5-4.5,10-10,10s-10-4.5-10-10s4.5-10,10-10S1094.5,1297.8,1094.5,1303.3z"/>
				<path class="st39" d="M1088.8,1303.3h-8.5c-0.2,0-0.3-0.1-0.3-0.3v-40.5c0-0.2,0.1-0.3,0.3-0.3h8.5c0.2,0,0.3,0.1,0.3,0.3v40.5
					C1089.1,1303.1,1089,1303.3,1088.8,1303.3z"/>
			</g>
			<g>
				<linearGradient id="SVGID_31_" gradientUnits="userSpaceOnUse" x1="1133.7766" y1="1303.2852" x2="1153.7592" y2="1303.2852">
					<stop  offset="0" style="stop-color:#3060AB"/>
					<stop  offset="1" style="stop-color:#131E60"/>
				</linearGradient>
				<circle class="st45" cx="1143.8" cy="1303.3" r="10"/>
				<path class="st39" d="M1148,1303.3h-8.5c-0.2,0-0.3-0.1-0.3-0.3v-40.5c0-0.2,0.1-0.3,0.3-0.3h8.5c0.2,0,0.3,0.1,0.3,0.3v40.5
					C1148.3,1303.1,1148.2,1303.3,1148,1303.3z"/>
			</g>
			<g>
				<linearGradient id="SVGID_32_" gradientUnits="userSpaceOnUse" x1="1192.9866" y1="1303.2852" x2="1212.9691" y2="1303.2852">
					<stop  offset="0" style="stop-color:#3060AB"/>
					<stop  offset="1" style="stop-color:#131E60"/>
				</linearGradient>
				<path class="st46" d="M1213,1303.3c0,5.5-4.5,10-10,10c-5.5,0-10-4.5-10-10s4.5-10,10-10C1208.5,1293.3,1213,1297.8,1213,1303.3
					z"/>
				<path class="st39" d="M1207.2,1303.3h-8.5c-0.2,0-0.3-0.1-0.3-0.3v-40.5c0-0.2,0.1-0.3,0.3-0.3h8.5c0.2,0,0.3,0.1,0.3,0.3v40.5
					C1207.5,1303.1,1207.4,1303.3,1207.2,1303.3z"/>
			</g>
			<g>
				<linearGradient id="SVGID_33_" gradientUnits="userSpaceOnUse" x1="1252.1964" y1="1303.2852" x2="1272.179" y2="1303.2852">
					<stop  offset="0" style="stop-color:#3060AB"/>
					<stop  offset="1" style="stop-color:#131E60"/>
				</linearGradient>
				<circle class="st47" cx="1262.2" cy="1303.3" r="10"/>
				<path class="st39" d="M1266.4,1303.3h-8.5c-0.2,0-0.3-0.1-0.3-0.3v-40.5c0-0.2,0.1-0.3,0.3-0.3h8.5c0.2,0,0.3,0.1,0.3,0.3v40.5
					C1266.8,1303.1,1266.6,1303.3,1266.4,1303.3z"/>
			</g>
		</g>
		<linearGradient id="SVGID_34_" gradientUnits="userSpaceOnUse" x1="858.9907" y1="1650.2404" x2="959.8974" y2="1650.2404">
			<stop  offset="0" style="stop-color:#F87D0B"/>
			<stop  offset="1" style="stop-color:#F7CB14"/>
		</linearGradient>
		<path class="st48" d="M959.6,1654.6H859.3c-0.2,0-0.3-0.1-0.3-0.3v-8.2c0-0.2,0.1-0.3,0.3-0.3h100.3c0.2,0,0.3,0.1,0.3,0.3v8.2
			C959.9,1654.5,959.8,1654.6,959.6,1654.6z"/>
		<path class="st39" d="M1091.2,1654.6H990.9c-0.2,0-0.3-0.1-0.3-0.3v-8.2c0-0.2,0.1-0.3,0.3-0.3h100.3c0.2,0,0.3,0.1,0.3,0.3v8.2
			C1091.5,1654.5,1091.4,1654.6,1091.2,1654.6z"/>
		<path class="st39" d="M1123.9,1402.8H986c-0.3,0-0.6-0.3-0.6-0.6v-17c0-0.3,0.3-0.6,0.6-0.6h137.9c0.3,0,0.6,0.3,0.6,0.6v17
			C1124.5,1402.5,1124.3,1402.8,1123.9,1402.8z"/>
	</g>
	<g>
		<defs>
			<filter id="Adobe_OpacityMaskFilter_6_" filterUnits="userSpaceOnUse" x="1245" y="1892.8" width="712" height="193.7">
				<feFlood  style="flood-color:white;flood-opacity:1" result="back"/>
				<feBlend  in="SourceGraphic" in2="back" mode="normal"/>
			</filter>
		</defs>
		<mask maskUnits="userSpaceOnUse" x="1245" y="1892.8" width="712" height="193.7" id="SVGID_35_">
			<g class="st49">
				<defs>
					<filter id="Adobe_OpacityMaskFilter_7_" filterUnits="userSpaceOnUse" x="1245" y="1892.8" width="712" height="193.7">
						<feFlood  style="flood-color:white;flood-opacity:1" result="back"/>
						<feBlend  in="SourceGraphic" in2="back" mode="normal"/>
					</filter>
				</defs>
				<mask maskUnits="userSpaceOnUse" x="1245" y="1892.8" width="712" height="193.7" id="SVGID_35_">
					<g class="st50">
					</g>
				</mask>
				<linearGradient id="SVGID_36_" gradientUnits="userSpaceOnUse" x1="1245.0126" y1="1989.6782" x2="1956.9723" y2="1989.6782">
					<stop  offset="0" style="stop-color:#FFFFFF"/>
					<stop  offset="0.9906" style="stop-color:#333333"/>
				</linearGradient>
				<ellipse class="st51" cx="1601" cy="1989.7" rx="356" ry="96.8"/>
			</g>
		</mask>
		<linearGradient id="SVGID_37_" gradientUnits="userSpaceOnUse" x1="1245.0126" y1="1989.6782" x2="1956.9723" y2="1989.6782">
			<stop  offset="0" style="stop-color:#00538E"/>
			<stop  offset="0.9906" style="stop-color:#00538E"/>
		</linearGradient>
		<ellipse class="st52" cx="1601" cy="1989.7" rx="356" ry="96.8"/>
		<linearGradient id="SVGID_38_" gradientUnits="userSpaceOnUse" x1="1910.0532" y1="1946.6816" x2="1372.1267" y2="1948.7509">
			<stop  offset="0" style="stop-color:#F87D0B"/>
			<stop  offset="1" style="stop-color:#E85656"/>
		</linearGradient>
		<path class="st53" d="M1909.8,1947.9c0,53.5-138.3,96.8-308.8,96.8s-308.8-43.4-308.8-96.8c0-3.7-1.3-24.5,0-28
			c17.2-48.4,150-68.8,308.8-68.8c164.3,0,299.2,14.8,308.8,65.6C1910.2,1918.5,1909.8,1945.9,1909.8,1947.9z"/>
		<linearGradient id="SVGID_39_" gradientUnits="userSpaceOnUse" x1="1292.1815" y1="1919.854" x2="1909.8035" y2="1919.854">
			<stop  offset="0" style="stop-color:#F87D0B"/>
			<stop  offset="1" style="stop-color:#F7CB14"/>
		</linearGradient>
		<ellipse class="st54" cx="1601" cy="1919.9" rx="308.8" ry="96.8"/>
		<ellipse class="st55" cx="1601" cy="1919.9" rx="265.3" ry="81.2"/>
		<linearGradient id="SVGID_40_" gradientUnits="userSpaceOnUse" x1="1365.1685" y1="1919.8539" x2="1836.8164" y2="1919.8539">
			<stop  offset="0" style="stop-color:#F87D0B"/>
			<stop  offset="1" style="stop-color:#F7CB14"/>
		</linearGradient>
		<ellipse class="st56" cx="1601" cy="1919.9" rx="235.8" ry="63.8"/>
		<ellipse class="st57" cx="1601" cy="1919.9" rx="206.9" ry="45.3"/>
		<linearGradient id="SVGID_41_" gradientUnits="userSpaceOnUse" x1="1436.9832" y1="1919.8539" x2="1765.0016" y2="1919.8539">
			<stop  offset="0" style="stop-color:#F87D0B"/>
			<stop  offset="1" style="stop-color:#F7CB14"/>
		</linearGradient>
		<ellipse class="st58" cx="1601" cy="1919.9" rx="164" ry="35.9"/>
		<ellipse class="st57" cx="1601" cy="1919.9" rx="136.8" ry="25.9"/>
		<linearGradient id="SVGID_42_" gradientUnits="userSpaceOnUse" x1="1506.9427" y1="1919.8539" x2="1695.0422" y2="1919.8539">
			<stop  offset="0" style="stop-color:#F87D0B"/>
			<stop  offset="1" style="stop-color:#F7CB14"/>
		</linearGradient>
		<ellipse class="st59" cx="1601" cy="1919.9" rx="94" ry="14.2"/>
		<path class="st6" d="M1646.7,1919.9c0,3.8-20.5,6.9-45.7,6.9c-25.2,0-45.7-3.1-45.7-6.9s20.5-6.9,45.7-6.9
			C1626.2,1912.9,1646.7,1916,1646.7,1919.9z"/>
		<linearGradient id="SVGID_43_" gradientUnits="userSpaceOnUse" x1="1572.0525" y1="1687.5677" x2="1618.2625" y2="1687.5677">
			<stop  offset="0" style="stop-color:#F87D0B"/>
			<stop  offset="1" style="stop-color:#E85656"/>
		</linearGradient>
		<polygon class="st60" points="1589.8,1919.9 1589.8,1558.6 1572.1,1546.7 1572.1,1455.3 1597,1479.9 1618.3,1455.3 1618.3,1548 
			1601.4,1562.5 1601.4,1919.9 		"/>
	</g>
	<g>
		<defs>
			<filter id="Adobe_OpacityMaskFilter_8_" filterUnits="userSpaceOnUse" x="2145.1" y="2111.2" width="575.1" height="90.8">
				<feFlood  style="flood-color:white;flood-opacity:1" result="back"/>
				<feBlend  in="SourceGraphic" in2="back" mode="normal"/>
			</filter>
		</defs>
		<mask maskUnits="userSpaceOnUse" x="2145.1" y="2111.2" width="575.1" height="90.8" id="SVGID_44_">
			<g class="st61">
				<defs>
					<filter id="Adobe_OpacityMaskFilter_9_" filterUnits="userSpaceOnUse" x="2145.1" y="2111.2" width="575.1" height="90.8">
						<feFlood  style="flood-color:white;flood-opacity:1" result="back"/>
						<feBlend  in="SourceGraphic" in2="back" mode="normal"/>
					</filter>
				</defs>
				<mask maskUnits="userSpaceOnUse" x="2145.1" y="2111.2" width="575.1" height="90.8" id="SVGID_44_">
					<g class="st62">
					</g>
				</mask>
				
					<linearGradient id="SVGID_45_" gradientUnits="userSpaceOnUse" x1="-1326.8146" y1="2156.5879" x2="-751.7125" y2="2156.5879" gradientTransform="matrix(-1 0 0 1 1393.3733 0)">
					<stop  offset="0" style="stop-color:#FFFFFF"/>
					<stop  offset="0.9906" style="stop-color:#333333"/>
				</linearGradient>
				<ellipse class="st63" cx="2432.6" cy="2156.6" rx="287.6" ry="45.4"/>
			</g>
		</mask>
		
			<linearGradient id="SVGID_46_" gradientUnits="userSpaceOnUse" x1="-1326.8146" y1="2156.5879" x2="-751.7125" y2="2156.5879" gradientTransform="matrix(-1 0 0 1 1393.3733 0)">
			<stop  offset="0" style="stop-color:#00538E"/>
			<stop  offset="0.9906" style="stop-color:#00538E"/>
		</linearGradient>
		<ellipse class="st64" cx="2432.6" cy="2156.6" rx="287.6" ry="45.4"/>
		<g>
			<g>
				
					<linearGradient id="SVGID_47_" gradientUnits="userSpaceOnUse" x1="-1739.7859" y1="2093.958" x2="-1686.1501" y2="2093.958" gradientTransform="matrix(-1 0 0 1 772.0801 0)">
					<stop  offset="0" style="stop-color:#FFD9D9"/>
					<stop  offset="1" style="stop-color:#EFB4B4"/>
				</linearGradient>
				<path class="st65" d="M2511.9,2082.4v18.7c0,0-7.9,17.8-21.6,14c-13.7-3.9-32-16.1-32-16.1v-26.7L2511.9,2082.4z"/>
				
					<linearGradient id="SVGID_48_" gradientUnits="userSpaceOnUse" x1="-1595.0076" y1="2091.0286" x2="-1534.9661" y2="2091.0286" gradientTransform="matrix(-1 0 0 1 772.0801 0)">
					<stop  offset="0" style="stop-color:#FFD9D9"/>
					<stop  offset="1" style="stop-color:#EFB4B4"/>
				</linearGradient>
				<path class="st66" d="M2363.5,2072.3l3.6,32.4c0,0-10.8,5-22.3,5s-24-7.9-30.3-15.8c-6.2-7.9-7.5-21.7-7.5-21.7H2363.5z"/>
				
					<linearGradient id="SVGID_49_" gradientUnits="userSpaceOnUse" x1="-1838.9376" y1="2124.0298" x2="-1680.1222" y2="2124.0298" gradientTransform="matrix(-1 0 0 1 772.0801 0)">
					<stop  offset="0" style="stop-color:#3D3D3D"/>
					<stop  offset="1" style="stop-color:#111111"/>
				</linearGradient>
				<path class="st67" d="M2513.5,2091.5c0,0,39.5,19.6,67.1,23.2c27.7,3.6,30.3,41.9,30.3,41.9s-154.4-3.6-155.2-10.7
					c-0.9-7.1-3.6-49.1-3.6-49.1S2502.6,2118.3,2513.5,2091.5z"/>
				
					<linearGradient id="SVGID_50_" gradientUnits="userSpaceOnUse" x1="-1609.9355" y1="2115.0652" x2="-1515.7926" y2="2115.0652" gradientTransform="matrix(-1 0 0 1 772.0801 0)">
					<stop  offset="0" style="stop-color:#3D3D3D"/>
					<stop  offset="1" style="stop-color:#111111"/>
				</linearGradient>
				<path class="st68" d="M2369.7,2097.3c0,0,16.7,39.5,11.2,43.8s-90.8,3.5-92.9,0s20.3-55,20.3-55s9.4,11.6,36,12.9
					C2370.9,2100.3,2365.5,2086.8,2369.7,2097.3z"/>
			</g>
			
				<linearGradient id="SVGID_51_" gradientUnits="userSpaceOnUse" x1="-1174.0933" y1="1784.0277" x2="-1007.9022" y2="1784.0277" gradientTransform="matrix(-1 0 0 1 1393.3733 0)">
				<stop  offset="0" style="stop-color:#3D3D3D"/>
				<stop  offset="1" style="stop-color:#111111"/>
			</linearGradient>
			<path class="st69" d="M2550.2,1500.1c0,0,23,280.8,16,297s-26.1,117.6-37.4,165.4c-11.3,47.9-15.2,128.9-15.2,128.9h-61.3
				c0,0-21.2-116.3-9.5-188.7c11.6-72.4,28.9-142.7,28.9-142.7l-70.3-283.4L2550.2,1500.1z"/>
			
				<linearGradient id="SVGID_52_" gradientUnits="userSpaceOnUse" x1="-1077.4625" y1="1780.2867" x2="-894.2399" y2="1780.2867" gradientTransform="matrix(-1 0 0 1 1393.3733 0)">
				<stop  offset="0" style="stop-color:#3D3D3D"/>
				<stop  offset="1" style="stop-color:#111111"/>
			</linearGradient>
			<path class="st70" d="M2470.8,1476.6l-54.4,326.9c0,0-38.7,113.3-43,159.1c-4.4,45.8-6.3,121.4-6.3,121.4h-79.2
				c0,0-2.7-172.7,9.4-231.4c12.1-58.7,26.2-64.5,26.2-64.5v-157.5c0,0-35.8-66.6-6.1-130.8L2470.8,1476.6z"/>
			
				<linearGradient id="SVGID_53_" gradientUnits="userSpaceOnUse" x1="3546.071" y1="1067.2896" x2="3591.9565" y2="1066.082" gradientTransform="matrix(1 0 0 1 -1232.4209 0)">
				<stop  offset="0" style="stop-color:#3D3D3D"/>
				<stop  offset="1" style="stop-color:#111111"/>
			</linearGradient>
			<path class="st71" d="M2378.4,952.2c0,0-34.4-2.5-50,16.5c-15.6,19-18.6,48.4,1.4,89.8c20,41.5,9.1,59.7-5.6,70.4
				c-14.6,10.7-7.5,51.8-7.5,51.8s52.3-18.6,83-51.7c30.7-33.2,9.8-110.3,9.8-110.3L2378.4,952.2z"/>
			
				<linearGradient id="SVGID_54_" gradientUnits="userSpaceOnUse" x1="-1678.0707" y1="1055.9292" x2="-1554.272" y2="1055.9292" gradientTransform="matrix(-1 0 0 1 820.9521 0)">
				<stop  offset="0" style="stop-color:#FFD9D9"/>
				<stop  offset="1" style="stop-color:#EFB4B4"/>
			</linearGradient>
			<path class="st72" d="M2494.9,992.6c0,0,4.8,32.9,4,44.1s-9.1,40.7-12.9,45.5c-3.8,4.8-17.9,4.9-17.9,4.9l6.1,33.9
				c0,0,0.9,5.4-30.6,5.4c-31.4,0-47.6-11.8-47.6-11.8s8.8-23.7,1.2-47.8c-7.6-24.2-31.6-48.8-17.7-57.7
				c27.8-17.7,63.8-24.8,64.4-23.6C2444.4,986.7,2494.9,992.6,2494.9,992.6z"/>
			
				<linearGradient id="SVGID_55_" gradientUnits="userSpaceOnUse" x1="3619.4546" y1="913.8323" x2="3660.4199" y2="995.7631" gradientTransform="matrix(1 0 0 1 -1232.4209 0)">
				<stop  offset="0" style="stop-color:#3D3D3D"/>
				<stop  offset="1" style="stop-color:#111111"/>
			</linearGradient>
			<path class="st73" d="M2452.6,1017.4c-41.5-0.2-43.3,23-43.1,28.9c-0.7-6.2-4.4-32.2-16-29.8c-13.2,2.8-8.6,24.9,4.6,36.4
				c2.9,2.5,5.2,5.7,7,9.3c3,6.1-3.4,12.8-9.6,10.2c-8.1-3.3-17.7-9.2-27.6-19.4c-14.3-14.8-13.7-33-14.7-46.2
				c2.5-37.1,14-69.4,63.7-73.6c71.5-5.8,86.5,25.5,89.2,39.6C2512.4,1005.4,2484,1017.6,2452.6,1017.4z"/>
			<path class="st74" d="M2468.1,1087.1l6.1,33.9l-9.9,5.4c0,0,0.8-26.8-10-32.2c-10.8-5.4-29.6-17.9-29.6-17.9
				S2452.3,1088.3,2468.1,1087.1z"/>
			<path class="st6" d="M2471.3,1109c0,0,4.7,16.4-23.4,17.1c-28.1,0.7-45.7-21.2-45.7-21.2s-76.8,10.7-91.2,35.6
				c-14.4,24.8-16.7,53.7,1,62.8c17.1,8.8,17.1,23.9,17.1,23.9l-11.7,272.8l226.6-10.9l2.1-233c0,0,31,41.5,49.5,42
				c18.5,0.5,104.7-117.1,104.7-117.1s-16.8-16.3-31-20.3c-14.1-3.9-14.1-3.9-14.1-3.9l-59.6,62.1c0,0-59.9-92.6-82.2-102.5
				C2491.1,1106.3,2471.3,1109,2471.3,1109z"/>
			
				<linearGradient id="SVGID_56_" gradientUnits="userSpaceOnUse" x1="-1319.5574" y1="1238.3383" x2="-1106.399" y2="1238.3383" gradientTransform="matrix(-1 0 0 1 1393.3733 0)">
				<stop  offset="0" style="stop-color:#125D99"/>
				<stop  offset="1" style="stop-color:#0F88CC"/>
			</linearGradient>
			<path class="st75" d="M2546.3,1131.5c0,0,58,127.6,74.6,124.2c16.6-3.5,46.9-100.2,46.9-100.2s11.3-2.1,27.3,9.1
				c16.1,11.2,17.8,21.2,17.8,21.2s-45.1,166.5-84.7,170c-39.6,3.5-128.5-154.9-128.5-154.9S2513.3,1086.2,2546.3,1131.5z"/>
			
				<linearGradient id="SVGID_57_" gradientUnits="userSpaceOnUse" x1="-1168.5515" y1="1309.5831" x2="-1078.208" y2="1309.5831" gradientTransform="matrix(-1 0 0 1 1393.3733 0)">
				<stop  offset="0" style="stop-color:#125D99"/>
				<stop  offset="1" style="stop-color:#0F88CC"/>
			</linearGradient>
			<path class="st76" d="M2471.6,1109.4c0,0,20.9,104.7,25.3,178.9c4.2,72.1,19.9,221,19.9,221l44.8,0.5c0,0,5.3-357.9-23.1-386.7
				C2523.1,1107.6,2471.6,1109.4,2471.6,1109.4z"/>
			
				<linearGradient id="SVGID_58_" gradientUnits="userSpaceOnUse" x1="-1031.2896" y1="1307.0292" x2="-911.9366" y2="1307.0292" gradientTransform="matrix(-1 0 0 1 1393.3733 0)">
				<stop  offset="0" style="stop-color:#125D99"/>
				<stop  offset="1" style="stop-color:#0F88CC"/>
			</linearGradient>
			<path class="st77" d="M2397.9,1104.9c0,0,0.2,30.7,4,58.3c3.7,26.8,22.7,346.6,22.7,346.6s-55.4,0-81.5,0
				c-23,0-29.6-5.6-29.6-5.6l4.1-266.7c0,0-6.7-20-12-67.7C2300.4,1122.2,2353,1100.1,2397.9,1104.9z"/>
			
				<linearGradient id="SVGID_59_" gradientUnits="userSpaceOnUse" x1="-1166.9572" y1="1241.3223" x2="-893.4794" y2="1241.3223" gradientTransform="matrix(-1 0 0 1 1393.3733 0)">
				<stop  offset="0" style="stop-color:#125D99"/>
				<stop  offset="1" style="stop-color:#0F88CC"/>
			</linearGradient>
			<path class="st78" d="M2319.2,1135.2c27.5-19,37,38.9,56,87.3c19,48.4,13.3,53.6,26.1,48.4c12.8-5.2,112.1-135.6,112.1-135.6
				s6.7,34.6,20.6,38.5c13.9,3.9,26.3,1.3,26.3,1.3s-120.4,177-167,176.2c-46.6-0.9-99.2-115.3-105.7-159.8
				C2281,1146.8,2319.2,1135.2,2319.2,1135.2z"/>
			
				<linearGradient id="SVGID_60_" gradientUnits="userSpaceOnUse" x1="-1291.2543" y1="1150.5078" x2="-1332.6689" y2="1083.5591" gradientTransform="matrix(-1 0 0 1 1393.3733 0)">
				<stop  offset="0" style="stop-color:#FFD9D9"/>
				<stop  offset="1" style="stop-color:#EFB4B4"/>
			</linearGradient>
			<path class="st79" d="M2667.8,1155.4c0,0-1.2-23.4,9.3-39.2c10.5-15.8,16.9-23.7,16.9-23.7s8.4-0.6,2,10.5
				c-6.4,11.1-4.4,13.2-4.4,13.2s6.7-2.7,18.3-23.1c11.6-20.4,22.2-22.2,16.6,14.2c-5.6,36.4-28,66.2-28,66.2
				S2690.8,1159.8,2667.8,1155.4z"/>
			<g>
				
					<linearGradient id="SVGID_61_" gradientUnits="userSpaceOnUse" x1="-1208.2031" y1="1070.5691" x2="-1168.8452" y2="997.9081" gradientTransform="matrix(-0.9989 -4.700000e-02 -4.700000e-02 0.9989 1431.8182 40.0061)">
					<stop  offset="0" style="stop-color:#F87D0B"/>
					<stop  offset="1" style="stop-color:#E85656"/>
				</linearGradient>
				<path class="st80" d="M2547.9,1080.8c0,0-1.4,32,23.3,56.8s40.3,9.9,40.3,9.9l8.3,16.3l-53.9,22.9l-43.3-92.6L2547.9,1080.8z"/>
				
					<linearGradient id="SVGID_62_" gradientUnits="userSpaceOnUse" x1="-1091.1638" y1="960.4805" x2="-1108.2628" y2="997.9883" gradientTransform="matrix(-0.9989 -4.700000e-02 -4.700000e-02 0.9989 1431.8182 40.0061)">
					<stop  offset="0" style="stop-color:#3060AB"/>
					<stop  offset="1" style="stop-color:#131E60"/>
				</linearGradient>
				<path class="st81" d="M2484.9,1047l-10.8,15.2c0,0-0.7,6.3,2.7,16.8c3.3,10.5,9.5,14.1,9.5,14.1l19.4,2L2484.9,1047z"/>
				
					<linearGradient id="SVGID_63_" gradientUnits="userSpaceOnUse" x1="-1166.1445" y1="996.481" x2="-1127.4496" y2="935.1783" gradientTransform="matrix(-0.9989 -4.700000e-02 -4.700000e-02 0.9989 1431.8182 40.0061)">
					<stop  offset="0" style="stop-color:#F87D0B"/>
					<stop  offset="1" style="stop-color:#E85656"/>
				</linearGradient>
				<path class="st82" d="M2481.1,1061.7c1,4.7,2.6,10,5.1,15.3c2.8,6.4,6.2,11.9,9.7,16c4.2,5.1,8.5,8.1,11.7,7.8l0.3,0.5
					l80.1-32.6c0,0-12.9-13.1-21.6-31.2c-8.8-18.5-8.6-33.3-8.6-33.3l-73.8,40.2l-0.1,0c-0.2,0.1-0.4,0.2-0.6,0.3
					C2480.1,1046.8,2479.4,1053.3,2481.1,1061.7z"/>
				
					<linearGradient id="SVGID_64_" gradientUnits="userSpaceOnUse" x1="-1366.0352" y1="961.6213" x2="-1328.4867" y2="902.1368" gradientTransform="matrix(-0.9354 -4.410000e-02 -4.400000e-02 0.9354 1358.9167 112.347)">
					<stop  offset="0" style="stop-color:#EA3F85"/>
					<stop  offset="1" style="stop-color:#AF2F2F"/>
				</linearGradient>
				<path class="st83" d="M2556.1,1023.4c1.1,5.5,3.1,11.6,5.8,17.8c3.3,7.4,7.2,13.9,11.2,18.6c5.6,6.9,11.4,10.4,15.2,8.7
					c6.5-2.9,5.4-19.9-2.7-37.9c-8-18-19.8-30.2-26.4-27.3C2555.1,1005.2,2554.1,1013.1,2556.1,1023.4z"/>
				
					<linearGradient id="SVGID_65_" gradientUnits="userSpaceOnUse" x1="-1264.8262" y1="953.7606" x2="-1212.2931" y2="848.6947" gradientTransform="matrix(-0.9989 -4.700000e-02 -4.700000e-02 0.9989 1431.8182 40.0061)">
					<stop  offset="0" style="stop-color:#FFFFFF"/>
					<stop  offset="0.3915" style="stop-color:#EEF0EE"/>
					<stop  offset="1" style="stop-color:#9CBFCC"/>
				</linearGradient>
				<path class="st84" d="M2560.4,1010l97.1-117.1l55.4,173.6l-127-4.3c0,0-11-2.8-18.5-22.4C2559.1,1020.3,2560.4,1010,2560.4,1010
					z"/>
				<g>
					
						<linearGradient id="SVGID_66_" gradientUnits="userSpaceOnUse" x1="-1253.5903" y1="789.2377" x2="-1327.6388" y2="905.7234" gradientTransform="matrix(-0.997 -7.730000e-02 -7.730000e-02 0.997 1463.0502 57.0718)">
						<stop  offset="0" style="stop-color:#F87D0B"/>
						<stop  offset="1" style="stop-color:#F7CB14"/>
					</linearGradient>
					<path class="st85" d="M2633.3,1004.7c24.5,59.7,63.6,100.2,87.4,90.5c23.8-9.8,23.3-66.1-1.2-125.8
						c-24.5-59.7-63.6-100.2-87.4-90.5C2608.3,888.6,2608.9,945,2633.3,1004.7z"/>
					
						<linearGradient id="SVGID_67_" gradientUnits="userSpaceOnUse" x1="-1362.0066" y1="944.7871" x2="-1246.8169" y2="762.3024" gradientTransform="matrix(-0.997 -7.730000e-02 -7.730000e-02 0.997 1463.0502 57.0718)">
						<stop  offset="0" style="stop-color:#F87D0B"/>
						<stop  offset="1" style="stop-color:#F7CB14"/>
					</linearGradient>
					<path class="st86" d="M2641.2,1001.4c24.5,59.7,63.6,100.2,87.4,90.5c23.8-9.8,23.3-66.1-1.2-125.8
						c-24.5-59.7-63.6-100.2-87.4-90.5C2616.2,885.4,2616.7,941.7,2641.2,1001.4z"/>
					
						<linearGradient id="SVGID_68_" gradientUnits="userSpaceOnUse" x1="-1354.4995" y1="932.9201" x2="-1251.1947" y2="769.2635" gradientTransform="matrix(-0.997 -7.730000e-02 -7.730000e-02 0.997 1463.0502 57.0718)">
						<stop  offset="0" style="stop-color:#F87D0B"/>
						<stop  offset="1" style="stop-color:#E85656"/>
					</linearGradient>
					<path class="st87" d="M2633.3,945.5c2.7,16.1,7.9,34.3,15.6,52.8c9,22,20,41.3,31.3,55.7c15.9,20.7,32.4,31.6,43.9,26.9
						c19.5-8.1,17.6-58-4.4-111.5c-21.9-53.6-55.6-90.5-75.1-82.5C2631.9,892,2628.2,915.2,2633.3,945.5z"/>
					
						<linearGradient id="SVGID_69_" gradientUnits="userSpaceOnUse" x1="-1311.7994" y1="898.2835" x2="-1253.5197" y2="805.9561" gradientTransform="matrix(-0.997 -7.730000e-02 -7.730000e-02 0.997 1463.0502 57.0718)">
						<stop  offset="0" style="stop-color:#FFFFFF"/>
						<stop  offset="0.3915" style="stop-color:#EEF0EE"/>
						<stop  offset="1" style="stop-color:#9CBFCC"/>
					</linearGradient>
					<path class="st88" d="M2633.3,945.5c2.7,16.1,7.9,34.3,15.6,52.8c9,22,20,41.3,31.3,55.7l20.3-30.5l-32.4-79.2L2633.3,945.5z"
						/>
					
						<linearGradient id="SVGID_70_" gradientUnits="userSpaceOnUse" x1="-1267.6287" y1="771.549" x2="-1305.6337" y2="873.4025" gradientTransform="matrix(-0.997 -7.730000e-02 -7.730000e-02 0.997 1463.0502 57.0718)">
						<stop  offset="0" style="stop-color:#FFFFFF"/>
						<stop  offset="0.3915" style="stop-color:#EEF0EE"/>
						<stop  offset="1" style="stop-color:#9CBFCC"/>
					</linearGradient>
					<path class="st89" d="M2669.9,989.7c9,21.9,22.7,36.9,30.7,33.7c8-3.3,7.2-23.6-1.8-45.5c-9-21.9-22.7-36.9-30.7-33.7
						C2660.1,947.5,2660.9,967.8,2669.9,989.7z"/>
				</g>
			</g>
			
				<linearGradient id="SVGID_71_" gradientUnits="userSpaceOnUse" x1="-1140.1066" y1="1163.6809" x2="-1176.4164" y2="1104.9846" gradientTransform="matrix(-1 0 0 1 1393.3733 0)">
				<stop  offset="0" style="stop-color:#FFD9D9"/>
				<stop  offset="1" style="stop-color:#EFB4B4"/>
			</linearGradient>
			<path class="st90" d="M2516.8,1147.9c2.4-1.8,15.2-25.8,21.5-30.9c6.3-5.2,18.8-16.6,26.6-17c7.7-0.4,20.2,15.5,13.6,31.9
				c-6.6,16.4-30,45.2-30,45.2s-12.5,3.1-20.3-3.5C2519.5,1166.2,2515.5,1148.9,2516.8,1147.9z"/>
		</g>
	</g>
	<g>
		<linearGradient id="SVGID_72_" gradientUnits="userSpaceOnUse" x1="1836.8164" y1="298.0128" x2="1836.8164" y2="484.1641">
			<stop  offset="0" style="stop-color:#F87D0B"/>
			<stop  offset="1" style="stop-color:#F7CB14"/>
		</linearGradient>
		<path class="st91" d="M1921.9,298h-170.2c-13.4,0-24.4,11-24.4,24.4v90.9c0,13.4,11,24.4,24.4,24.4h50.6l32.1,46.4l32.1-46.4h55.3
			c13.4,0,24.4-11,24.4-24.4v-90.9C1946.3,309,1935.3,298,1921.9,298z"/>
		<path class="st6" d="M1873.9,337.2c-19.8-15-34.7,7.6-37.3,11.8c-2.5-4.2-17.9-27.4-37.3-11.8c-29.9,24.2,37,80.3,37.2,80.3
			C1836.8,417.6,1904.9,360.8,1873.9,337.2z"/>
	</g>
	<g>
		<linearGradient id="SVGID_73_" gradientUnits="userSpaceOnUse" x1="354.6718" y1="643.9518" x2="354.6718" y2="815.344">
			<stop  offset="0" style="stop-color:#125D99"/>
			<stop  offset="1" style="stop-color:#0F88CC"/>
		</linearGradient>
		<path class="st92" d="M433,644H276.3c-12.4,0-22.5,10.1-22.5,22.5v83.7c0,12.4,10.1,22.5,22.5,22.5h46.6l29.6,42.7l29.6-42.7H433
			c12.4,0,22.5-10.1,22.5-22.5v-83.7C455.5,654.1,445.4,644,433,644z"/>
		<path class="st6" d="M388.8,680.1c-18.2-13.8-32,7-34.3,10.9c-2.3-3.9-16.5-25.3-34.3-10.9c-27.5,22.2,34.1,74,34.3,74
			C354.7,754,417.3,701.8,388.8,680.1z"/>
	</g>
	<g>
		<linearGradient id="SVGID_74_" gradientUnits="userSpaceOnUse" x1="1838.1235" y1="1455.7714" x2="1838.1235" y2="1310.3496">
			<stop  offset="0" style="stop-color:#125D99"/>
			<stop  offset="1" style="stop-color:#0F88CC"/>
		</linearGradient>
		<path class="st93" d="M1941.9,1257.9c-24.5-30.2-61.8-49.5-103.7-49.5c-73.7,0-133.4,59.7-133.4,133.4s59.7,133.4,133.4,133.4
			c40.9,0,77.5-18.4,102-47.4c19.6-23.2,31.4-53.2,31.4-85.9C1971.5,1309.9,1960.4,1280.8,1941.9,1257.9z M1838.1,1417
			c-41.6,0-75.3-33.7-75.3-75.3c0-41.6,33.7-75.3,75.3-75.3c23.6,0,44.7,10.9,58.5,28c0.5,0.7,1.1,1.4,1.6,2.1
			c9.5,12.6,15.1,28.3,15.1,45.3c0,18.5-6.7,35.4-17.7,48.5c-0.6,0.7-1.2,1.4-1.8,2.1C1880.1,1407.4,1860.2,1417,1838.1,1417z"/>
		<linearGradient id="SVGID_75_" gradientUnits="userSpaceOnUse" x1="1893.8552" y1="1342.7526" x2="1971.502" y2="1342.7526">
			<stop  offset="0" style="stop-color:#F87D0B"/>
			<stop  offset="1" style="stop-color:#F7CB14"/>
		</linearGradient>
		<path class="st94" d="M1971.5,1341.7c0,32.7-11.8,62.7-31.4,85.9l-46.3-35.4c0.6-0.7,1.2-1.4,1.8-2.1c11-13.1,17.7-30,17.7-48.5
			c0-17-5.6-32.7-15.1-45.3l43.6-38.6C1960.4,1280.8,1971.5,1309.9,1971.5,1341.7z"/>
	</g>
	<g>
		
			<linearGradient id="SVGID_76_" gradientUnits="userSpaceOnUse" x1="1433.2828" y1="1331.5319" x2="1576.5092" y2="1287.3594" gradientTransform="matrix(-1 0 0 1 2072.6563 0)">
			<stop  offset="0" style="stop-color:#3D3D3D"/>
			<stop  offset="1" style="stop-color:#111111"/>
		</linearGradient>
		<path class="st95" d="M826.6,1177.5c0,0-201.7-28.8-223.6,0c-22,28.8-79.2,319.9-79.2,319.9s5.9,11.1,25.5,18.8
			c19.7,7.7,36.5,0,36.5,0l79.7-279.4l225-40.3L826.6,1177.5z"/>
		
			<linearGradient id="SVGID_77_" gradientUnits="userSpaceOnUse" x1="1239.6796" y1="1229.5157" x2="1216.1716" y2="858.6149" gradientTransform="matrix(-1 0 0 1 2072.6563 0)">
			<stop  offset="0" style="stop-color:#F87D0B"/>
			<stop  offset="1" style="stop-color:#F7CB14"/>
		</linearGradient>
		<path class="st96" d="M646.4,1092.1l18.6,42.5c0,0,64.9-19.1,94.4-29.5c7.1-2.5,12.2-4.6,13.8-5.6c8.5-5.8,39-88.2,39-88.2
			l14.3,166.2c0,0,58,24.4,113.6,24.1c55.7-0.2,90.4-10.4,90.4-10.4s17-277.4,0-303.6c-17-26.3-213.4-13.1-231.5-8.6
			c-12.6,3.2-63,168.2-67.6,179.4C726.8,1069.5,646.4,1092.1,646.4,1092.1z"/>
		
			<linearGradient id="SVGID_78_" gradientUnits="userSpaceOnUse" x1="1087.1968" y1="1058.0621" x2="1160.425" y2="1004.4303" gradientTransform="matrix(-1 0 0 1 2072.6563 0)">
			<stop  offset="0" style="stop-color:#F87D0B"/>
			<stop  offset="1" style="stop-color:#F7CB14"/>
		</linearGradient>
		<path class="st97" d="M991.8,903.9c0,0-57.8,144.1-63.2,147.2c-5.4,3.1-126.8,48.3-126.8,48.3s12.6-4.3,15.5,15.2
			c2.9,19.4,0.8,29.8,0.8,29.8s116-25.3,146.9-53.1c30.9-27.8,83.6-101.3,85.9-146.2C1053.2,900.3,1038.2,855.1,991.8,903.9z"/>
		
			<linearGradient id="SVGID_79_" gradientUnits="userSpaceOnUse" x1="1215.2585" y1="1481.3647" x2="1313.4093" y2="1077.957" gradientTransform="matrix(-1 0 0 1 2072.6563 0)">
			<stop  offset="0" style="stop-color:#3D3D3D"/>
			<stop  offset="1" style="stop-color:#111111"/>
		</linearGradient>
		<path class="st98" d="M1020.5,1191.2c0,0,24.7,87.7-50.4,101.3c-75.1,13.7-251.3-0.4-259.9,7c-8.5,7.5-12.9,262-12.9,262
			s-7.2,13.6-31.1,5.1c-23.9-8.5-23.9-8.5-23.9-8.5s-29-330.4,0-351.3c29-20.9,222.7-16.4,222.7-16.4S988.9,1203.4,1020.5,1191.2z"
			/>
		
			<linearGradient id="SVGID_80_" gradientUnits="userSpaceOnUse" x1="1266.9919" y1="1148.588" x2="1296.1792" y2="1127.2115" gradientTransform="matrix(-1 0 0 1 2072.6563 0)">
			<stop  offset="0" style="stop-color:#FFD9D9"/>
			<stop  offset="1" style="stop-color:#EFB4B4"/>
		</linearGradient>
		<path class="st99" d="M809.3,1101.6c0,0-31,10.2-42.3,18.1c-11.3,7.9-18.8,36.8-17.4,38.2c1.4,1.4,24.6,13.5,29.8,12.6
			c5.2-0.9,8.3-20,19.8-23.7c11.5-3.7,19.6-10.6,19.6-10.6S830.8,1111.5,809.3,1101.6z"/>
		<path class="st100" d="M758.9,1104c-0.1,0.3,0.1,0.7,0.5,1.2c7.1-2.5,12.2-4.6,13.8-5.6c8.5-5.8,39-88.2,39-88.2l-13.1-53.2
			c0,0-24.2,104.3-29.3,117C764.7,1087.9,759.5,1101.5,758.9,1104z"/>
		<g>
			
				<linearGradient id="SVGID_81_" gradientUnits="userSpaceOnUse" x1="1313.3535" y1="986.0824" x2="1181.7968" y2="809.8302" gradientTransform="matrix(-1 0 0 1 2072.6563 0)">
				<stop  offset="0" style="stop-color:#FFFFFF"/>
				<stop  offset="1" style="stop-color:#EEF0EE"/>
			</linearGradient>
			<path class="st101" d="M538.4,1037l44.2,144h219.9L756.9,1033c-1.9-6.4-7.9-10.8-14.6-10.8H549.4c-4,0-7.5,2-9.5,5
				C538,1030,537.2,1033.5,538.4,1037z"/>
			<linearGradient id="SVGID_82_" gradientUnits="userSpaceOnUse" x1="591.1315" y1="1041.7336" x2="729.4347" y2="1164.014">
				<stop  offset="0" style="stop-color:#FFFFFF"/>
				<stop  offset="1" style="stop-color:#EEF0EE"/>
			</linearGradient>
			<path class="st102" d="M538.4,1037l44.2,144h210.7l-44-143.3c-1.9-6.4-7.9-10.8-14.6-10.8h-193c-0.6,0-1.3,0-1.8,0.2
				C538,1030,537.2,1033.5,538.4,1037z"/>
			
				<linearGradient id="SVGID_83_" gradientUnits="userSpaceOnUse" x1="1170.193" y1="1092.939" x2="1038.6361" y2="916.6864" gradientTransform="matrix(-1 0 0 1 2072.6563 0)">
				<stop  offset="0" style="stop-color:#FFFFFF"/>
				<stop  offset="1" style="stop-color:#EEF0EE"/>
			</linearGradient>
			<polygon class="st103" points="802.4,1181 882.1,1181 882.1,1170.4 799.2,1170.4 			"/>
		</g>
		
			<linearGradient id="SVGID_84_" gradientUnits="userSpaceOnUse" x1="1358.7803" y1="1606.3713" x2="1477.7611" y2="1606.3713" gradientTransform="matrix(-1 0 0 1 2072.6563 0)">
			<stop  offset="0" style="stop-color:#3D3D3D"/>
			<stop  offset="1" style="stop-color:#111111"/>
		</linearGradient>
		<path class="st104" d="M647,1559.8c0,0-56.3,74.4-51.9,79.8c4.4,5.4,8.9,19.5,25.8,10.2c16.9-9.2,95-51,92.9-61.2
			c-2.1-10.3-18.1-24.9-18.1-24.9S666.3,1566.7,647,1559.8z"/>
		
			<linearGradient id="SVGID_85_" gradientUnits="userSpaceOnUse" x1="1496.9839" y1="1530.1633" x2="1632.3245" y2="1530.1633" gradientTransform="matrix(-1 0 0 1 2072.6563 0)">
			<stop  offset="0" style="stop-color:#3D3D3D"/>
			<stop  offset="1" style="stop-color:#111111"/>
		</linearGradient>
		<path class="st105" d="M575.7,1519c0,0-6.6,41.9-14.2,47.9c-7.7,6-109.9-46.3-116.8-52.6c-6.9-6.3-6.5-19.5,9.6-21.1
			c16.1-1.5,69.6,4.2,69.6,4.2S552,1520.2,575.7,1519z"/>
		<g>
			<g>
				
					<linearGradient id="SVGID_86_" gradientUnits="userSpaceOnUse" x1="1624.8052" y1="815.4671" x2="1744.8938" y2="815.4671" gradientTransform="matrix(1 0 0 1 -775.1215 0)">
					<stop  offset="0" style="stop-color:#FFD9D9"/>
					<stop  offset="1" style="stop-color:#EFB4B4"/>
				</linearGradient>
				<path class="st106" d="M850.4,754.8c0,0-1.5,24.7,0,30c1.5,5.3,3.9,8.2,3.9,8.2s-5.2,25.2-4.5,33.4c0.6,8.2,6.6,32.6,14.8,34.8
					s19.7,4.3,19.7,4.3v16.9c0,0,6.8,11.1,31.9,9.2c25.2-1.9,37.2-16.3,37.2-16.3v-40.8c0,0,25.2-54.1,13.1-72.5
					c-12.1-18.4-40-20.3-56.8-22.7C893,736.9,850.4,754.8,850.4,754.8z"/>
				
					<linearGradient id="SVGID_87_" gradientUnits="userSpaceOnUse" x1="1608.0282" y1="753.8929" x2="1773.0537" y2="753.8929" gradientTransform="matrix(1 0 0 1 -775.1215 0)">
					<stop  offset="0" style="stop-color:#3D3D3D"/>
					<stop  offset="1" style="stop-color:#111111"/>
				</linearGradient>
				<path class="st107" d="M930.2,765.9c0,0-3.9,15,0,25.6c3.9,10.6,3.4,22.7,8.7,19.8c5.3-2.9,7.7-34.8,16.4-31.9
					c8.7,2.9-0.9,41.2,3.2,42.9c4.1,1.6,39.9-24.5,39.4-65.1c-0.5-40.6-31-46-31-46s-4.4-22.7-38.5-25.6
					c-34.1-2.9-76.2,33.9-90.7,47.4c-14.5,13.5,5.8,24.7,27.1,32.4C886.2,773.1,915.7,779.4,930.2,765.9z"/>
			</g>
			<path class="st108" d="M884.2,865.5c0,0,19.2-1,31.2-10.3c11.9-9.3,11.9-9.3,11.9-9.3s-4.5,12.7-15.5,19.6
				c-11,6.9-19,23.2-19,23.2l-8.6-6.3V865.5z"/>
		</g>
	</g>
</g>
</svg>
