<?xml version="1.0" encoding="utf-8"?>
<!-- Generator: Adobe Illustrator 24.0.2, SVG Export Plug-In . SVG Version: 6.00 Build 0)  -->
<svg version="1.1" id="Layer_1" xmlns="http://www.w3.org/2000/svg" xmlns:xlink="http://www.w3.org/1999/xlink" x="0px" y="0px"
	 viewBox="0 0 3750 2500" style="enable-background:new 0 0 3750 2500;" xml:space="preserve">
<style type="text/css">
	.st0{display:none;fill:#FEFEFE;}
	.st1{fill:#A487F1;}
	.st2{fill:#FCC53D;}
	.st3{fill:#F8A527;}
	.st4{fill:#85A9F6;}
	.st5{fill:#3ED399;}
	.st6{fill:#D3DDF6;}
	.st7{fill:url(#SVGID_1_);}
	.st8{fill:#56DBAA;}
	.st9{fill:url(#SVGID_2_);}
	.st10{fill:url(#SVGID_3_);}
	.st11{fill:#E8EEFA;}
	.st12{fill:url(#SVGID_4_);}
	.st13{fill:#FA5E54;}
	.st14{fill:#F8483F;}
	.st15{fill:#FEFEFE;}
	.st16{fill:#E42C2C;}
	.st17{fill:url(#SVGID_5_);}
	.st18{fill:#D9620E;}
	.st19{fill:url(#SVGID_6_);}
	.st20{fill:#1E3890;}
	.st21{fill:#102068;}
	.st22{fill:#00003B;}
	.st23{fill:#1272F9;}
	.st24{fill:#2459F3;}
	.st25{fill:#C6ECF2;}
	.st26{fill:#5DADE3;}
	.st27{fill:#3795EA;}
	.st28{fill:#2B50B0;}
	.st29{fill:url(#SVGID_7_);}
	.st30{fill:url(#SVGID_8_);}
	.st31{fill:url(#SVGID_9_);}
	.st32{fill:url(#SVGID_10_);}
	.st33{fill:#378EAB;}
	.st34{fill:#FCE596;}
	.st35{fill:url(#SVGID_11_);}
	.st36{fill:url(#SVGID_12_);}
	.st37{fill:#FC813C;}
	.st38{fill:url(#SVGID_13_);}
</style>
<path class="st0" d="M0,0h3750v2500H0V0z"/>
<path class="st1" d="M323.7,1321.4c4.4-0.8,8.5-1.5,12.9-0.5c7.4,1.7,14.5,6.6,18.4,13.3c3.5,6,4.7,14,2.7,20.7
	c-2.9,10.1-9.9,14.7-18.6,19.2c-5.2,0.1-11.3,0.6-16.3-0.9c-6.9-2-12.2-7-15.4-13.4c-3.8-7.6-3.4-15.3-0.3-23.1
	C310.5,1328.8,316.1,1324.8,323.7,1321.4z"/>
<path class="st2" d="M3422.7,1207.9c3.9-0.6,8.1-1.3,12-0.2c7.5,2,14.2,7.1,17.8,13.9c3.6,6.6,4.4,15.4,1.6,22.5
	c-3.4,8.9-10.4,13.5-18.7,16.9c-4.7,1.2-9.8,0.9-14.4-0.6c-8.3-2.8-13.9-8.7-17.4-16.5c-2.9-6.5-2.4-14,0.5-20.5
	C3407.9,1214.9,3414.6,1211.2,3422.7,1207.9z"/>
<path class="st3" d="M809.8,339.7c4-1.1,10.1-0.9,14,0.4c6.3,2.1,12.2,6.9,15.3,12.8c3.9,7.4,5.3,16.9,2.2,24.9
	c-3.9,10.2-12,14.1-21.3,17.9c-3.9,0-8.1,0-11.9-1.2c-8.2-2.6-14.2-8.5-17.5-16.3c-3.1-7.2-3.2-14.2-0.2-21.3
	C794,348.3,801.4,343,809.8,339.7z"/>
<path class="st4" d="M350.2,1956.2c6.1,0,12.2,0.9,17.8,3.2c7.2,2.9,13.3,9.5,16.2,16.7c3.4,8.7,3.3,18.5-0.6,27
	c-4.6,10.1-11.8,13.9-21.7,17.8c-5.3,0-10.6-0.1-15.7-1.7c-9-2.9-16.7-10.2-20.4-18.9c-3.1-7.4-3.3-17.6,0.1-25
	C331.1,1964.1,339.5,1960.5,350.2,1956.2z"/>
<path class="st4" d="M1884.9,489.4c6.7,0.6,13,1.1,19.1,4.1c9.4,4.5,17.2,12.6,20.3,22.8c3.2,10.7,2,21.6-3.6,31.4
	c-6.4,11.2-15.8,14.7-27.8,17.7c-7.9-0.5-15.8-0.9-22.9-4.8c-8.8-4.8-15.8-13.2-18.3-23c-2.3-9.1-1.2-21.2,3.8-29.3
	C1862.7,496.7,1872,492.3,1884.9,489.4z"/>
<path class="st5" d="M485,1604.5c-4.5,2.7-14.7,2.1-20.1,2.3l-59.9,2.5l-48.4-69c-6.5-10.2-14.2-20.8-18.7-31.9l4.3-0.6l130.4,89.1
	L485,1604.5z"/>
<path class="st6" d="M3194.9,2037.8c52.1-13.9,93.4-41.4,139.1-68.5c-10.5,18.7-29.5,37.7-44.1,53.7l-100.2,104.4L3194.9,2037.8z"/>
<linearGradient id="SVGID_1_" gradientUnits="userSpaceOnUse" x1="584.2978" y1="892.7053" x2="500.4694" y2="891.9548" gradientTransform="matrix(1 0 0 -1 0 2502)">
	<stop  offset="0" style="stop-color:#1FB67C"/>
	<stop  offset="1" style="stop-color:#48D59F"/>
</linearGradient>
<path class="st7" d="M498.3,1537.1c32.3,11.5,62.5,27.7,90.1,48.1c-0.1,12.3,1.4,93-2.1,97l-7.3-3.2c-1.9-2.4-2.8-1-5-2.3
	c-6.9-4.3-12.6-13.1-19.7-17.4c-3.3-2-3.9-2.4-5.7-5.8c-6.3-9.8-18.1-14.9-25.1-24l-25.8-86.8
	C496.8,1540.3,497.6,1539.6,498.3,1537.1z"/>
<path class="st8" d="M342.1,1507.8c53.2,2,106.5,9.4,156.2,29.3c-0.7,2.5-1.5,3.2-0.5,5.7l25.8,86.8c-10-5.9-28.2-23.9-38.6-25
	l-12.5-7.6L342.1,1507.8z"/>
<path class="st5" d="M3231.7,1921.3c40,1.7,78.8,5.5,117.4,16.8c5.6,1.5,10.5,1.8,14.6,6.1l-29.7,25.2
	c-45.7,27.1-86.9,54.6-139.1,68.5l3.8-61.4l2-53.1L3231.7,1921.3z"/>
<linearGradient id="SVGID_2_" gradientUnits="userSpaceOnUse" x1="521.1116" y1="753.0462" x2="521.3691" y2="888.3851" gradientTransform="matrix(1 0 0 -1 0 2502)">
	<stop  offset="0" style="stop-color:#15A96E"/>
	<stop  offset="1" style="stop-color:#32C78C"/>
</linearGradient>
<path class="st9" d="M593.9,1754.9c-58.3-18.2-106.2-56.2-148-99.6c-12.9-13.4-26.1-26.7-37.3-41.6l64.5-2.9c3.9-0.2,15-2,18.2-0.9
	c2.6,0.9,7.1,5.5,9.6,7.2l47.7,36.4c1.8,3.4,2.4,3.7,5.7,5.8c7.1,4.3,12.8,13.2,19.7,17.4c2.1,1.3,3.1-0.1,5,2.3
	c7.1,6.1,14.6,14.1,22.8,18.6c1.4,1.9,2.3,4.1,4.5,4.9c3.3,1.1,6.4,5.7,9,8.2c3.7,3.6,10.9,9.1,15.5,11.7l3.1,2.3
	C619.8,1733.5,605.8,1743.2,593.9,1754.9z"/>
<path class="st5" d="M331.3,1791.1c5.1-4,15.2-6.6,21.4-8.8c30-10.3,59.9-16.4,91.4-19.4c12.5-1.2,24.9-2.6,37.4-1.3
	c30-3,66.3,2.4,95.2,10.3c-27.6,32.2-48.8,69.4-58.7,110.9c-50.7-18.4-102.1-44.2-150.3-68.1c-13-6.4-29.7-12.1-40.9-21.2
	L331.3,1791.1z"/>
<path class="st8" d="M331.3,1791.1c5.1-4,15.2-6.6,21.4-8.8c30-10.3,59.9-16.4,91.4-19.4c12.5-1.2,24.9-2.6,37.4-1.3
	c4.5,4.5,8.9,8.4,12.1,14c2.8,4.9,7.6,9,10.9,13.7l21.8,33c2,3.2,2.7,5.6,5.7,8.2l-2.7,1.8l-1.5-0.4l-43.4-12.4
	c-4.8-1.5-9.8-2.2-14.6-3.7c-4.8-1.5-9.8-2.1-14.6-3.6l-25.1-5.1c-1.9-0.4-3.3-0.8-5-1.4c-2.9-1-5.2-1-8.3-0.9
	c-2.2-1.4-11.1-3.6-13.6-3.5c-4.6,0-6.1-0.7-10.2-1.9c-10.4-2.9-22.9-1.9-33.4-5C350.5,1791.9,339.2,1796.5,331.3,1791.1z"/>
<linearGradient id="SVGID_3_" gradientUnits="userSpaceOnUse" x1="2028.585" y1="2060.0171" x2="2009.6091" y2="2243.6665" gradientTransform="matrix(1 0 0 -1 0 2502)">
	<stop  offset="0" style="stop-color:#ACD1F5"/>
	<stop  offset="1" style="stop-color:#89A5FC"/>
</linearGradient>
<path class="st10" d="M2005.6,256.7c24.1-0.8,44.6,0.9,65.6,14.4c20.9,13.5,37.2,36.9,42.1,61.3c5,24.4-1.4,52.1-15.2,72.7
	c-15.1,22.4-36,34.9-62.1,40.2c-24.9,2.5-48.6-0.3-69.8-14.5c-19-12.8-36.5-35.8-41-58.8c-4.8-24.9-1.5-50.7,13-71.9
	C1955.2,275.2,1976.4,262.3,2005.6,256.7z"/>
<path class="st11" d="M3314.6,1361.6c0.9,4.5,1.5,9,3.7,13c70.2,46.1,143.5,106.4,161.1,192.7c23.4,114-30.4,225.7-92,318.5
	l-38.3,52.4c-38.6-11.3-77.3-15.1-117.4-16.8l-0.7-38.7l-0.5-43.4l-77,0l-5,1.3l0.8-11c-0.9-16-4.5-26-15.3-38
	c-9-7.8-17-11.6-28.6-13.8c-2.9-0.5-9.3-0.8-11.7-2c-5.8-3.1-10.7-10.6-17.3-14.3l-1.4-0.8l61.5-30.3c-3.3-6.7,11.8-39.2,14.6-48.1
	c18.8-58.5,32.9-124.9,35.1-186.2l59.5,0c12.3,0,26.7,1.3,38.1-4c13.2-6.1,22.1-16.8,27.3-30.1c4.4-11.2,3.1-24.3,3.1-36.2
	L3314.6,1361.6z"/>
<linearGradient id="SVGID_4_" gradientUnits="userSpaceOnUse" x1="3325.2173" y1="689.5305" x2="3226.2136" y2="837.8474" gradientTransform="matrix(1 0 0 -1 0 2502)">
	<stop  offset="0" style="stop-color:#11776C"/>
	<stop  offset="1" style="stop-color:#23B68D"/>
</linearGradient>
<path class="st12" d="M3136.6,1730.4c100.8-39.1,202.4-58.5,310.7-58c-68.1,74.9-137.2,146.7-216.2,210.2l-0.5-43.4l-77,0l-5,1.3
	l0.8-11c-0.9-16-4.5-26-15.3-38c-9-7.8-17-11.6-28.6-13.8c-2.9-0.5-9.3-0.8-11.7-2c-5.8-3.1-10.7-10.6-17.3-14.3l-1.4-0.8
	L3136.6,1730.4z"/>
<path class="st5" d="M3149.4,1829.5c12.3-9.6,26.7-17,40-25.2c36.2-22.1,73.2-41.8,111.9-59.4c13.7-6.2,28.4-14.3,43.1-17.5
	c-2.5,5.3-17.3,10.6-22.9,13.7l-86.3,46.9l-46.3,28c-9.6,5.8-29.2,14.6-35.3,23.1l-5,1.3L3149.4,1829.5z"/>
<path class="st13" d="M726.7,1694.6c53.6-2.1,114.5,6.4,159.3,38.7l38.2,26.1l18,16.9l21.4,23.5c16.5,22.2,32.4,44.5,43.2,70.1
	c7.9,18.6,12.4,38,16.7,57.6c2,29.2,0.5,55.7-3.9,84.6l-9.2,27.7c-13,30.4-27.9,56.8-49.4,82c-23.8,21.8-47.1,38.7-75,54.8l-5.2,1.7
	l-4.7,2.2c-75.8,32.9-145.4,26.8-220.6-2.5c-41.3-22.6-73.3-48.7-100.1-87.7c-44-63.8-51.4-132.9-37.7-207.5
	c10-41.5,31.2-78.6,58.7-110.9l17.3-17.1c11.9-11.6,25.9-21.4,40-30.2c16.5-8.5,32.7-16,50.7-20.8
	C698.5,1699.5,712.3,1696.7,726.7,1694.6z"/>
<path class="st14" d="M739.7,2074.5c-7.7,4.7-15.8,4.8-24.5,3.3c-12.9-8.8-23.9-22-35-32.9c-15.6-15.3-35.2-31.4-47.2-49.6
	c-3.8-5.7-5.6-12.4-7.4-19c1.5-7.3,3.3-13.4,7.8-19.5c4.3-5.8,5.7-7.2,12.8-8.2c-3.9,7.5-8.1,15.3-5.6,24
	c2.8,9.5,10.5,16.3,17.2,23.1l27.7,27.9C701.9,2040.4,718.9,2063.4,739.7,2074.5z"/>
<path class="st15" d="M646.1,1948.7c2-1,3.7-2,5.6-3.2c6.4-4.3,14.9-6.5,22.6-4.5c9.7,2.5,21.2,18.3,27.9,25.5l45,47.7l92.3-95
	c12.4-12.7,25.1-28.8,39.1-39.7c4.2-3.3,9.5-5.4,14.9-5.2c7.3,0.3,14.8,3.7,19.5,9.4c5.2,6.3,7.3,13.1,6.4,21.2
	c-0.6,5.8-4,10.4-7.7,14.8c-21.7,25.1-49,48.1-72.4,71.9l-47.6,49.4c-8.2,8.5-16.4,18.5-25.7,25.8c-8.7,6.8-15.6,8.4-26.5,7.6
	c-20.8-11.1-37.7-34.1-54.3-50.8l-27.7-27.9c-6.7-6.8-14.4-13.5-17.2-23.1C637.9,1964,642.2,1956.2,646.1,1948.7z"/>
<path class="st16" d="M726.7,1694.6c53.6-2.1,114.5,6.4,159.3,38.7c-17.1-4-32.8-12-49.9-16.4c-62.9-16.2-133.8-7.3-189.2,27.5
	c-45.7,28.6-84.8,83.1-96,135.8c-14.5,68.5-1.9,139.5,36.9,197.8c37.8,56.8,95.8,95.9,162.8,109.1c29.7,5.9,61.3,5.6,90.9-0.5
	c11.7-2.4,27.7-9.9,39.3-8.4l-4.7,2.2c-75.8,32.9-145.4,26.8-220.6-2.5c-41.3-22.6-73.3-48.7-100.1-87.7
	c-44-63.8-51.4-132.9-37.7-207.5c10-41.5,31.2-78.6,58.7-110.9l17.3-17.1c11.9-11.6,25.9-21.4,40-30.2c16.5-8.5,32.7-16,50.7-20.8
	C698.5,1699.5,712.3,1696.7,726.7,1694.6z"/>
<linearGradient id="SVGID_5_" gradientUnits="userSpaceOnUse" x1="1100.5148" y1="1718.8252" x2="1493.96" y2="2283.2671" gradientTransform="matrix(1 0 0 -1 0 2502)">
	<stop  offset="0" style="stop-color:#583EE2"/>
	<stop  offset="1" style="stop-color:#8378F3"/>
</linearGradient>
<path class="st17" d="M947.6,341.1c1.4-13.2,5.4-22.6,15.9-31.2c3.4-2.8,7-4.6,10.9-6.6c4.7-2.4,9.2-3,14.4-3.2l128.7,0.2l272.8,0.1
	l160.9-0.2l40.7,0c7.3,0,15.8-0.8,22.8,1.4c13.9,4.5,25.2,15,31.1,28.3c5.7,12.8,4.2,26.8,4.2,40.5l0,58.6l-0.2,171.7
	c0,30.8,4.8,66.3-19.3,90c-7.4,7.3-15.7,11.5-25.9,13.8c-4.2,0.9-23.4,0.7-25.6,2.9c-0.2,0.2-4.6,35-4.8,37.7
	c-6.1,16.8-3.3,36.5-14.2,52.1c-4.1,5.9-11.8,8.8-18.7,9.9c-4.3,0.7-9.9,1.4-14.1,0.1c-12.3-3.6-24.5-16.4-34.2-24.5l-46.5-37.2
	c-7.4-5-51.1-43.3-54.6-44.2c-4.9-1.2-13.8,0-19,0l-47.3,0l-245.8-0.4l-65-0.6c-11.3-0.1-23.6,0.8-34.7-0.9
	c-7.8-1.2-14-4.9-19.6-10.3c-6.5-6.2-10.7-13.1-12.1-22.1c-4.3-27.1-1-60-1-87.7L947.6,341.1z"/>
<path class="st15" d="M1109.4,344.7c4.2,0.5,8.4,1,12.3,2.8c5.6,2.5,10.4,7.6,12.3,13.4c2.3,7,1.7,15.2-1.9,21.6
	c-4,7.2-10.2,10.6-17.9,12.9c-4.4,0.3-8.7,0.2-12.8-1.6c-5.7-2.5-10.4-8.3-12.3-14.1c-2.1-6.1-2.5-16,0.8-21.8
	C1094.4,349.9,1101,347,1109.4,344.7z"/>
<path class="st15" d="M1241.7,447.8c17.3-4.1,43.3-0.9,61.5-0.9l131.4,0.1c6.6,0.2,8.1,0.5,12.5,5.2c0,5.4-0.3,6-3.3,10.4
	c-21.4,3.3-47.3,0.7-69.2,0.7l-124.9-0.2c-6.6-0.2-8.1-0.4-12.5-5.1C1237.3,452.1,1237.5,452.2,1241.7,447.8z"/>
<path class="st15" d="M1241,579.7c6.8-1.8,14.8-0.9,21.8-0.9l42.8-0.1l165.7,0c4.3,2.7,4.2,2.9,5.8,7.4l-3.5,6.4
	c-10.9,4.4-204.8,1.9-231.2,0.8c-3.7-3.6-4.5-3.6-5.2-9L1241,579.7z"/>
<path class="st15" d="M1247.9,524.7l321.3,1c4,3.1,4.2,3.3,5.3,8.2c-3,5.1-2.9,5.4-8.5,7.1l-235.4-0.3l-65.1,0.1
	c-6.4,0-18.2,1.3-24.1-0.7c-0.8-0.3-3-2.8-3.7-3.5l-0.1-5.5C1241.3,526.2,1241.9,526.3,1247.9,524.7z"/>
<path class="st15" d="M1089.8,403.8c7.4,4.1,11,18.4,17.5,25.2c2.9,3.1,2.8,2.8,7,2.9l19.5-29.8c11.6,3.3,25.6,6.3,32.7,17
	c7,10.6,6.6,26.7,4.2,38.9c-4.8,5.4-6.9,4.8-13.9,5.7c-7.2-2.9-9.6-5.1-17-2.1c-1.8,0.8-3.5,1.5-5.5,1.7c-11.5,1-23.9,0.1-35.5,0.1
	c-3.3,0-11,0.9-13.9-0.1c-1.3-0.4-4.1-3.7-5.3-4.7c-5.8,3.8-12.4,6-19.5,4.5c-4.2-0.9-4.8-2.9-7.1-6.1c-1.4-11.5-3.1-24.8,2.8-35.4
	C1062.7,409.1,1077.2,407.2,1089.8,403.8z"/>
<path class="st15" d="M1247.3,381.5l224.9,0.2l53.2,0c5.4,0,16.1-0.8,21,1.3c1.5,0.7,4.2,4,5.5,5.2c1.8,4.5,2.9,8.1,1.5,13
	c-1.8,6.4-5.3,8-10.7,10.9l-213.7,0.3l-60.9,0c-7,0-17.7,1.2-24.2-0.8c-3.7-1.2-6.2-4.2-7.9-7.7c-2.3-4.8-1.3-9.8,0-14.7
	C1239.4,384.9,1242.1,383.4,1247.3,381.5z"/>
<path class="st15" d="M1104.4,491.4c12.6-0.5,25.9,2.2,36.6,8.9c16.7,10.4,29.4,27.8,33.5,47.1c3.9,18.2,0.1,38-10.3,53.4
	c-12.9,19-30.2,26.8-51.9,31.3c-17.4-0.5-31.1-2.8-45.5-13.2c-16.2-11.7-25.7-28.9-28.8-48.5c-2.7-17.5,1.6-36.3,12.1-50.6
	C1063.8,501.4,1082.4,494.5,1104.4,491.4z"/>
<path class="st3" d="M1101.9,507.7c9.1-0.4,18.8,1.5,26.9,5.5c13.2,6.6,23.8,19.7,28.1,33.8c4.2,13.6,2.7,29.4-4.2,41.7
	c-8.9,15.9-22.6,22.3-39.4,27c-12.2,0.5-22.7-0.2-33.4-6.6c-12-7.2-21-20.7-24.1-34.3c-3.2-13.9-1.6-29.9,6.4-41.9
	C1072.1,518.1,1084.9,511.3,1101.9,507.7z"/>
<path class="st15" d="M1104.2,543c4.5-0.7,10,0.1,13.8,2.6c5.5,3.6,9,9,9.8,15.6c0.7,5.6-1,11.5-4.5,15.8c-4,5-8.5,6.5-14.6,7.4
	c-4.3,0.1-9-0.2-12.8-2.3c-5-2.8-9.1-8.1-10.7-13.5c-1.5-4.9-0.5-9.4,2.1-13.8C1091.2,548.1,1096.8,545,1104.2,543z"/>
<path class="st6" d="M2227,428.1c26.8-19.4,56.5-35.7,85.3-51.8C2480,283,2675,233.4,2866.8,264.7
	c125.6,20.5,238.4,68.4,335.4,151.1c33,28.2,64,59.5,89.4,94.9c91.4,127.5,116.5,280.5,90.8,433.5c-7,41.3-17.8,79.9-29.8,120
	c-6.7,22.4-14.6,50.7-27.5,70.1c-4.4,6.6-4.3,15.3-11.4,19.8c-5.4-6.8-8.1-15-14.4-21.3c-6.4-6.4-14.2-9.8-23.1-11
	c-15.6-2.1-33.2-0.6-49-0.6l-96.7,0l-332,0.1c-2.6-5.3-1.1-17.6-1.1-23.8l-1-61.1l-0.2-105.9c0-19.8,2.2-42.8-2.4-62.1
	c-4.7-19.4-12.9-34-24.6-49.8l-61.7-1.2l-252.7-0.7l-49.1-0.3c-4.4,0-13.4-1.3-17.2-0.1c-4.3,1.2-13.4,10.3-17.6,13.6l-79.4,60.5
	c-8.5,6.4-21.4,19-31.2,21.7c-5.8,1.6-14.2-2.3-18.1-6.4l-8.1-10.1l-1.2-8.5l-0.5-43.7l-0.1-25.1l0.6-8.1l-7.7-0.3
	c-19.2-1.5-33.8-8.7-46.3-23.2l-1.1-1c-11.2-10.7-10.3-26.8-10.1-40.9l0.2-257.7c-0.1-7.9,0.4-16.8,2.4-24.4
	c3-11.8,12.9-22.4,23.2-28.3l1.3-0.7C2204.7,427.4,2215.9,428.2,2227,428.1z"/>
<path class="st2" d="M2924.4,931.3c5-1.1,9.6-0.5,14.5,1.2c7.3,2.5,12.7,8.7,15.6,15.7c3.5,8.6,3.1,14.1-0.7,22.4
	c-3.8,8.4-10.3,11.8-18.5,14.9c-4.9,0-10.1-0.3-14.8-1.9c-6.8-2.4-13-8.8-15.6-15.5c-3-7.7-3.4-14.3,0.2-22
	C2908.7,938.4,2916.5,933.9,2924.4,931.3z"/>
<path class="st4" d="M3169.1,885.1c8.9,0.4,17.8,1.2,25.9,5.3c11.3,5.7,21.6,17.1,25.2,29.3c3.7,12,2.4,26.2-3.5,37.4
	c-7.2,13.8-18.9,20.3-33.2,24.7c-8.7,0.3-18.5,0.9-26.6-2.8l-2-1l-4.1-2c-10.9-6.1-18.9-16.7-22.2-28.6c-3.6-13-1.5-28.5,5.6-40.1
	C3142.4,893.8,3154.2,888.2,3169.1,885.1z"/>
<path class="st18" d="M2955,428.7c16.2-0.2,41.8-3.8,56.2,3.4c11.7,5.8,21.1,15.2,25.1,27.9c2.1,6.5,1.3,14,1.3,20.7l0,38.9
	l-0.3,144.8c-0.1,34.8,3.1,72.6-0.2,107.1c-0.6,6.4-3.3,13.7-6.5,19.3c-6.7,11.9-16.8,19.4-29,24.8c-11.9,5.3-29.6,3.2-42.7,3.2
	l-66.9-0.1c-21,0-43.9,1.9-64.6-0.2c-11.9-2.1-25.2-1.5-37.3-2c-3.6-0.1-9.4,0.5-12.2-1.4c11.5-2,27.5,0,39.5,0l107.6,0
	c2.9-4.8,7.1-8.3,9-13.5c-8.3-2.7-21.9-1-30.8-1c-13.3,0.1-116.4,2.2-121.4-1.8l115-0.2c20.9-0.1,49.3,3.1,69.1-3.5
	c15.8-5.2,25.4-16.2,32.5-30.8c2.2-4.5,3.6-8.9,3.9-13.9c2.8-42.7,0.5-87,0.6-129.9l-0.1-98.9c0-16.7,2.5-38.4-3.5-54.3
	C2991.3,445.4,2974.6,437.9,2955,428.7z"/>
<linearGradient id="SVGID_6_" gradientUnits="userSpaceOnUse" x1="2978.2876" y1="1694.6461" x2="2156.4316" y2="1995.798" gradientTransform="matrix(1 0 0 -1 0 2502)">
	<stop  offset="0" style="stop-color:#EB9A23"/>
	<stop  offset="1" style="stop-color:#FFCC76"/>
</linearGradient>
<path class="st19" d="M2227,428.1l530.6,0.5l142,0c17,0,38.9-2.5,55.4,0.2c19.6,9.2,36.4,16.7,44.5,38.5c6,15.9,3.4,37.6,3.5,54.3
	l0.1,98.9c0,42.9,2.2,87.1-0.6,129.9c-0.3,5-1.7,9.4-3.9,13.9c-7,14.6-16.7,25.6-32.5,30.8c-19.9,6.6-48.2,3.4-69.1,3.5l-115,0.2
	c5,4,108.1,1.8,121.4,1.8c8.9,0,22.5-1.7,30.8,1c-1.9,5.2-6.1,8.7-9,13.5l-107.6,0c-12,0-27.9-2-39.5,0c2.8,1.9,8.6,1.3,12.2,1.4
	c12.1,0.5,25.4-0.1,37.3,2l-58.3,0l-61.7-1.2l-252.7-0.7l-49.1-0.3c-4.4,0-13.4-1.3-17.2-0.1c-4.3,1.2-13.4,10.3-17.6,13.6
	l-79.4,60.5c-8.5,6.4-21.4,19-31.2,21.7c-5.8,1.6-14.2-2.3-18.1-6.4l-8.1-10.1l-1.2-8.5l-0.5-43.7l-0.1-25.1l0.6-8.1l-7.7-0.3
	c-19.2-1.5-33.8-8.7-46.3-23.2l-1.1-1c-11.2-10.7-10.3-26.8-10.1-40.9l0.2-257.7c-0.1-7.9,0.4-16.8,2.4-24.4
	c3-11.8,12.9-22.4,23.2-28.3l1.3-0.7C2204.7,427.4,2215.9,428.2,2227,428.1z"/>
<path class="st3" d="M2179,786.3c5.3,3.1,11.4,7.3,17.3,8.9c8.2,2.2,17.4,1.7,25.9,1.8c1.3,0,7.1-0.4,8,0.1c1.2,0.6,1.5,2.2,2.3,3.3
	l0.5,9.5l-7.7-0.3C2206.1,808,2191.5,800.8,2179,786.3z"/>
<path class="st15" d="M2583.5,662.1c19.8-3.6,46.6-0.6,67-0.7l166.6-0.3c4.2,2.5,4.7,3,6.9,7.4c-0.4,6.4-0.4,6.4-5.1,10.8
	l-236.2-0.3l-4.4-5C2578.6,666.9,2578.4,667,2583.5,662.1z"/>
<path class="st15" d="M2582.7,561.4c6.9-2.5,17.9-1.1,25.4-1.1l56.6,0.1l244.8,0.2c4.4,4,4.6,4,5.2,9.9l-4.3,5.2
	c-1.7,0.7-3.2,1.2-5,1.2c-30.8,0.8-316.2,1.6-321.9-0.9c-1-0.5-2.9-2.8-3.8-3.7C2579,566.7,2580,566.1,2582.7,561.4z"/>
<path class="st15" d="M2582.5,612.6c15-1.6,30.7-0.7,45.8-0.7l78.6-0.1l201.7,0.5c4.4,3.7,5.1,3.8,6.1,9.4l-4.2,5.5
	c-1.6,0.5-3,0.9-4.7,1.1c-25.1,2.2-52.6,0-78,0l-167.1-0.2l-56.8,0c-5.1,0-15.8,1.4-20.4,0c-1.2-0.4-3.8-2.9-5-3.8l-0.4-7
	L2582.5,612.6z"/>
<path class="st3" d="M2233,886.7c21.6-13,41.1-30.8,61.2-46c10.7-8.1,31.4-19.7,37.3-31.1l-2.1-4.6l1.5-3.7
	c11.9-4.2,28.7-2.4,41.3-2.5l74.6-0.7l209.4-0.9l125.6,1.6c5,4,108.1,1.8,121.4,1.8c8.9,0,22.5-1.7,30.8,1c-1.9,5.2-6.1,8.7-9,13.5
	l-107.6,0c-12,0-27.9-2-39.5,0c2.8,1.9,8.6,1.3,12.2,1.4c12.1,0.5,25.4-0.1,37.3,2l-58.3,0l-61.7-1.2l-252.7-0.7l-49.1-0.3
	c-4.4,0-13.4-1.3-17.2-0.1c-4.3,1.2-13.4,10.3-17.6,13.6l-79.4,60.5c-8.5,6.4-21.4,19-31.2,21.7c-5.8,1.6-14.2-2.3-18.1-6.4
	l-8.1-10.1L2233,886.7z"/>
<path class="st14" d="M2357.8,495.3c28.6-2.6,58.9,8.9,81.8,25.3c27.3,19.5,49.3,53.6,54.2,87.1c5.4,36.8-3.2,74.2-25.4,104.2
	c-22.9,30.8-53.1,44.5-90,50.2c-34.6,0.5-62.7-3.3-91.1-24.9c-27.6-21-48.6-54.5-52.7-89.4c-4.6-39.3,8.3-77.7,33.1-108
	C2290.6,511.7,2322.5,498.7,2357.8,495.3z"/>
<path class="st16" d="M2407.6,659.8c1.2,2.9,2.5,4.1,1.2,7.2c-5.2,12.1-20.7,23.7-30.7,32c-2.8,2.3-7.1,6.9-10.3,8.1l-2.3,0.5
	c-4.5-3.6-8.8-6.7-12.1-11.5l1.4-1.3l9.7,2C2381.1,686.6,2394.2,673.9,2407.6,659.8z"/>
<path class="st15" d="M2354.7,694.8l-0.5-2.2c-14.7-11.8-28.5-25.5-40.2-40.2c-11.8-14.7-22.7-29.9-20.2-49.7
	c1.2-9.6,7-18.3,14.7-23.9c8.1-5.9,19.2-8.9,29.2-6.8c12.3,2.5,18.5,12.3,24.9,22c4-4.9,7.8-12.4,13-16.1c8.9-6.3,19.4-7.9,29.9-5.6
	c9.5,2,17.1,8.6,22.4,16.6c5,7.6,8.7,16.9,6.5,26.1c-4,17.1-16.1,31.4-26.9,44.9c-13.4,14.1-26.5,26.8-43.2,37L2354.7,694.8z"/>
<path class="st4" d="M2737.6,1538.9c15.3-6.8,31-20.4,45.8-29.2l1.3,25.6l0.5,14.1c5.5,2.8,7.8-2,14.4,2l1.1,0.2l1,225.4v33.7
	l-0.2,28.4l46.2,0l97.5,0l63,1.5l140.2-0.2l5-1.3l77,0l0.5,43.4l0.7,38.7l-31,2.1l-2,53.1l-3.8,61.4l-5.2,89.6l-3.7,55.6l0.7-0.2
	c15.4-1.4,32-0.3,47.5-0.4c25.9-0.2,102.4-5.5,119.4,4.3c7.1,4.1,13.3,12.3,15.4,20.3c2.1,8.4,0.7,17.1-4.1,24.3
	c-4.2,6.3-11.8,12.6-19.6,13.8c-17.3,2.5-37.5,0.4-55.2,0.3l-110.2-0.1l-415.8-0.1l-1370.4-0.3l-653.7-0.2l-193.5-0.3
	c-30.8,0-64.3,2.5-94.9-0.5c-5.9-0.6-12.5-3.5-17-7.3c-7.2-6-12.2-13.6-12.8-23.1c-0.6-9.2,4-20.2,10.4-26.5
	c5.7-5.6,12.4-7.5,20.1-8.6c19.9-2.9,43.3-0.5,63.5-0.4l139.8,0.2c75.2,29.3,144.7,35.4,220.6,2.5l4.7-2.2l5.2-1.7
	c27.9-16.1,51.2-33,75-54.8c21.5-25.2,36.5-51.6,49.4-82c3,13.4,6.1,27.1,13,39.2c8.2,14.8,21.8,25.3,38.1,30.2
	c13.8,4.1,29.6,2.7,43.9,2.7l68.4,0.1l208.7,0.1c18.9-3.2,43.6-0.3,63-0.3l156.3,0.1l538.8-0.5l-151.9-184.9l-0.4-1.6l131.8-0.2
	c22.9-0.1,48.5,2,70.9-2.1c6.4-1.2,12.5-4.9,17.5-9c13.3-10.9,20.7-22.8,22.5-39.9l-3.4-3.7c4.1-5.9,8.9-12.5,10.5-19.5
	c2.6-11.4,1-26,1-37.8l0.3-78.7c4.3-4.9,2-34.1,2-42l-0.1-165.4l395.9,161.4l39.4,15.4c6.9,1.7,13.1,5.6,19.7,7.8l38.2,15.2l2.2,0.6
	l0-151.3l0.8-3.9L2737.6,1538.9z"/>
<path class="st11" d="M961.2,2121.9c17.7,26.7,39.9,45.6,71.2,54.7c-17.8,2.9-37.8,1.1-55.8,1.1l-90.4-0.9
	C914,2160.6,937.3,2143.6,961.2,2121.9z"/>
<path class="st20" d="M961.2,2121.9c21.5-25.2,36.5-51.6,49.4-82c3,13.4,6.1,27.1,13,39.2c8.2,14.8,21.8,25.3,38.1,30.2
	c13.8,4.1,29.6,2.7,43.9,2.7l68.4,0.1l208.7,0.1c10.5,3.9,31.8,1.3,43.6,1.3l113.9,0.1c10.9,0,25.4-1.8,35.7,0.5
	c-7.4,4.9-33.5,1.4-42.6,1.4l-152.1,0.5c-11.3,0.1-30-2.8-40.3,1.1c-9.4,3.6-5,6.1-9,12c-1,1.5-5.6,4.1-7.2,5.3l0.7,1.7
	c1.9,4.3,3.2,7.7,3.5,12.4c6.1,9.6,14.7,8.1,22.9,14l2.1-0.3c4.4-0.4,7.7,2.1,12.4,1.8c4-0.2,8.7,1.6,12.7,2.3
	c4,0.7,7.6,2.6,11.6,3.3c4.4,0.8,9-0.5,13.4,0.5c8.4,2,18.5,5.9,26.8,6.6c20,1.8,40.9-1.7,60.9,0.2c12,1.2,25.9-0.3,38.1-0.3l84.5,0
	c11.3,0,24.7-1.4,35.7,0.6c2.6,0.5,3.6,0.1,6.1-0.3c6.3-1,14.2-0.6,20.6,0c16.3,1.6,35-0.3,51.5-0.3c4.2,0,12-1.1,15.8,0
	c13,3.7,29.5,2,43.5,2.1l81.9,0.6c19.2,0.2,42.7-2.1,61.4,1.5c-17.7,1.3-36.1,0.4-53.8,0.4l-98.7,0l-312.7-0.2l-279.1-0.2l-85.2-0.2
	c-23.3-0.1-46,0.5-69-4.3C1001,2167.5,978.9,2148.5,961.2,2121.9z"/>
<path class="st21" d="M2737.6,1538.9c15.3-6.8,31-20.4,45.8-29.2l1.3,25.6l0.5,14.1c5.5,2.8,7.8-2,14.4,2l1.1,0.2l1,225.4v33.7
	l-0.2,28.4c-9,0.1-16-1-22.6,6c-10.3,10.8-7.9,51-6.5,66c0.5,5,4.5,9,8.4,11.8c2,1.4,3.3,1.8,5.7,1.9c2.6,0.5,11,1.2,12.1,3.4
	c1.9,3.7,1.1,10.8,1.2,15.1c0.2,13.9-0.2,27.9,1,41.7l1.1,21.8l0,50.1c3.8,1.1,6.9,1.5,10.8,1.4l7.3,47.5
	c4.3,23.9,12.6,50.7,14.4,74.7c-15.3,2.9-34.8,0.8-50.5,0.7c-7.8,0-17.8,1.5-24.7-2.5c-2.6,1.2-5.3,2.3-8.1,2.5
	c-41.7,3-85.6,0.2-127.6,0.1l-267.3-0.3l-285.4,0c-46.1,0-94.1,2.8-140-0.2c-18.7-3.6-42.2-1.4-61.4-1.5l-81.9-0.6
	c-14-0.1-30.6,1.6-43.5-2.1c-3.8-1.1-11.6,0-15.8,0c-16.5,0-35.2,1.9-51.5,0.3c-6.3-0.6-14.3-1-20.6,0c-2.5,0.4-3.5,0.7-6.1,0.3
	c-11-2-24.5-0.6-35.7-0.6l-84.5,0c-12.2,0-26,1.5-38.1,0.3c-20-2-40.8,1.6-60.9-0.2c-8.4-0.8-18.5-4.7-26.8-6.6
	c-4.3-1-9,0.3-13.4-0.5c-4-0.7-7.6-2.6-11.6-3.3c-4-0.7-8.7-2.5-12.7-2.3c-4.8,0.3-8-2.3-12.4-1.8l-2.1,0.3
	c-8.1-5.9-16.7-4.4-22.9-14c-0.3-4.7-1.6-8.1-3.5-12.4l-0.7-1.7c1.6-1.2,6.2-3.8,7.2-5.3c4-5.9-0.4-8.4,9-12c10.3-3.9,29-1,40.3-1.1
	l152.1-0.5c9.1-0.1,35.2,3.5,42.6-1.4l1048.6-2.5l16.2,0.2l78.7-0.6c7.3-4.7,13.7-9.9,15.9-18.7l0.4-1.8c2.6-10.9,1.3-23.7,1.3-34.9
	l0-66.5l-0.1-262.2l0-151.3l0.8-3.9L2737.6,1538.9z"/>
<path class="st5" d="M2802,2057c3.8,1.1,6.9,1.5,10.8,1.4l7.3,47.5l-17.7,12.2C2799.5,2099.4,2802.1,2076.3,2802,2057z"/>
<path class="st22" d="M2737.6,1538.9c15.3-6.8,31-20.4,45.8-29.2l1.3,25.6l0.5,14.1c5.5,2.8,7.8-2,14.4,2l-0.9,92.2
	c-2.4-10.5-1-23.5-1-34.4l-0.4-55.7l-3-1.9l-1.2,0.5c-3.3,1.3-5.4,2-9,1.5l-3.7-3.2c-7.2,3.9-14.9,7.7-21.2,13l-18.2,13.5
	l-0.1,103.5l-1.3,1l0.2-75.2c0-10.1,1.9-25-1.9-34.3L2737.6,1538.9z"/>
<path class="st6" d="M2802.5,2118.2l17.7-12.2c4.3,23.9,12.6,50.7,14.4,74.7c-15.3,2.9-34.8,0.8-50.5,0.7c-7.8,0-17.8,1.5-24.7-2.5
	l11.5-7.3C2788.8,2158.9,2798.7,2139.5,2802.5,2118.2z"/>
<path class="st23" d="M3008.4,1840.7l140.2-0.2l5-1.3l77,0l0.5,43.4l0.7,38.7l-31,2.1l-2,53.1l-3.8,61.4l-5.2,89.6l-3.7,55.6
	l-177.1,0.2l-120.5-0.1c-14.9,0-38.7,2.9-52.5-1.8l-1.3-0.7c-1.7-24-10-50.8-14.4-74.7l-7.3-47.5c-4,0-7-0.3-10.8-1.4l0-50.1
	l-1.1-21.8c-1.1-13.8-0.7-27.9-1-41.7c0-4.3,0.8-11.4-1.2-15.1c-1.1-2.2-9.5-2.9-12.1-3.4c-2.4-0.2-3.7-0.5-5.7-1.9
	c-3.9-2.8-7.9-6.8-8.4-11.8c-1.4-14.9-3.8-55.2,6.5-66c6.6-7,13.6-6,22.6-6l46.2,0l97.5,0L3008.4,1840.7z"/>
<path class="st24" d="M2864.5,1976.4l51.5,0.1l-49.5,1.7l35.8,203.7l-66.4-0.5l-1.3-0.7c-1.7-24-10-50.8-14.4-74.7l-7.3-47.5
	c-4,0-7-0.3-10.8-1.4l0-50.1l-1.1-21.8c0.4-3.7,0.5-5.4,3.1-8.2L2864.5,1976.4z"/>
<path class="st25" d="M2802,2006.9c7.2,13.1,8.3,36.5,10.9,51.5c-4,0-7-0.3-10.8-1.4L2802,2006.9z"/>
<path class="st26" d="M3008.4,1840.7l140.2-0.2l5-1.3l77,0l0.5,43.4l0.7,38.7l-31,2.1c-18.8,3.5-41.3,1.1-60.5,1.2l-130.2,0.2
	c-3.1-5.6-1.6-16.2-1.6-22.8L3008.4,1840.7z"/>
<path class="st27" d="M2801.7,1839.2l46.2,0l97.5,0l63,1.5l0,61.2c0,6.6-1.5,17.2,1.6,22.8l-1.9,0.4l0.1,50.4
	c-29.2,3.5-62.5,0.9-92.2,1l-51.5-0.1l-60.6,0.5c-2.6,2.8-2.7,4.5-3.1,8.2c-1.1-13.8-0.7-27.9-1-41.7c0-4.3,0.8-11.4-1.2-15.1
	c-1.1-2.2-9.5-2.9-12.1-3.4c-2.4-0.2-3.7-0.5-5.7-1.9c-3.9-2.8-7.9-6.8-8.4-11.8c-1.4-14.9-3.8-55.2,6.5-66
	C2785.7,1838.2,2792.7,1839.3,2801.7,1839.2z"/>
<path class="st28" d="M2786.6,1924.9l12.1,0.5l209.4-0.3l0.1,50.4c-29.2,3.5-62.5,0.9-92.2,1l-51.5-0.1l-60.6,0.5
	c-2.6,2.8-2.7,4.5-3.1,8.2c-1.1-13.8-0.7-27.9-1-41.7c0-4.3,0.8-11.4-1.2-15.1C2797.6,1926.1,2789.2,1925.4,2786.6,1924.9z"/>
<path class="st20" d="M2786.6,1924.9l12.1,0.5l1.5,0.3c18.5,3.7,40.6,1.6,59.6,1.7l4.8,49l-60.6,0.5c-2.6,2.8-2.7,4.5-3.1,8.2
	c-1.1-13.8-0.7-27.9-1-41.7c0-4.3,0.8-11.4-1.2-15.1C2797.6,1926.1,2789.2,1925.4,2786.6,1924.9z"/>
<path class="st27" d="M3009.6,1976.3l189.1,0.2l-3.8,61.4l-5.2,89.6l-3.7,55.6l-177.1,0.2l-0.5-142.4
	C3008.3,2020.9,3005.2,1995.5,3009.6,1976.3z"/>
<path class="st28" d="M2239.9,1733.9c4.3-4.9,2-34.1,2-42l-0.1-165.4l395.9,161.4l39.4,15.4c6.9,1.7,13.1,5.6,19.7,7.8l38.2,15.2
	l2.2,0.6l0.1,262.2l0,66.5c0,11.2,1.3,24-1.3,34.9l-0.4,1.8c-2.2,8.9-8.6,14.1-15.9,18.7l-78.7,0.6l-16.2-0.2l-1048.6,2.5
	c-10.3-2.2-24.8-0.5-35.7-0.5l-113.9-0.1c-11.9,0-33.2,2.6-43.6-1.3c18.9-3.2,43.6-0.3,63-0.3l156.3,0.1l538.8-0.5l-151.9-184.9
	l-0.4-1.6l131.8-0.2c22.9-0.1,48.5,2,70.9-2.1c6.4-1.2,12.5-4.9,17.5-9c13.3-10.9,20.7-22.8,22.5-39.9l-3.4-3.7
	c4.1-5.9,8.9-12.5,10.5-19.5c2.6-11.4,1-26,1-37.8L2239.9,1733.9z"/>
<path class="st20" d="M2529.3,1974.9l111.5,136.9l-16.2-0.2c-9.7-13.2-117.7-54.5-140.4-64c-10.1-4.2-28.4-8.2-34.5-17.2
	C2485.7,2022,2509.2,2005.4,2529.3,1974.9z"/>
<path class="st2" d="M2382.1,2019.4l-2.4-1.1c-23.7-11.8-42.7-37.8-51.2-62.4c-9.3-26.7-7.8-57.8,4.6-83.3
	c14.1-28.9,40.2-51,70.6-61c26.5-8.7,57.9-5.8,82.6,7c27.6,14.2,44.2,34.7,53.4,64.2l-1.8-1c-34.4-19.7-68.1-53.3-111.8-41.6
	c-22,5.9-44.2,22.9-55.2,42.8c-10.1,18.2-11.4,41.1-5.6,60.9c8,27.6,31,46.9,50.9,66c4,3.8,7.3,11.4,7.3,17.1l-0.1,1.5
	c-2.7-0.2-4.5-0.3-7.1-1.2c-4.7-1.6-9-0.3-13.6-2.9C2397.2,2021.2,2388.4,2019.6,2382.1,2019.4z"/>
<path class="st3" d="M2382.1,2019.4c6.3,0.1,15.1,1.8,20.7,4.9c4.6,2.6,8.9,1.3,13.6,2.9c2.5,0.9,4.4,1,7.1,1.2l0.1-1.5
	c0-5.7-3.3-13.2-7.3-17.1c-19.8-19.1-42.8-38.4-50.9-66c-5.8-19.8-4.5-42.6,5.6-60.9c11-19.9,33.2-36.9,55.2-42.8
	c43.6-11.7,77.4,21.9,111.8,41.6l1.8,1c9.8,32.8,4.7,62.1-10.4,92.1c-20.1,30.5-43.6,47.1-79.5,55.4
	C2425,2033.5,2404.2,2031.7,2382.1,2019.4z"/>
<path class="st11" d="M2434,1951.5c1.6-0.6,3.2-1.3,5-1.4c6.5-0.2,10.5,1.7,14.5,6.8c2.8,3.5,3.3,10.5,2,14.7
	c-1.8,6.1-5.1,7.6-10.2,10.6c-1.3,0.5-1.4,0.6-3,0.8c-4.7,0.5-10-0.7-13.4-4.1c-3.4-3.4-5-7.8-4.9-12.6
	C2424.3,1958.8,2428.8,1955.8,2434,1951.5z"/>
<path class="st11" d="M2433.3,1843.4c2.5-0.4,5-0.8,7.5-0.7c6,0.2,12.8,2.4,16.7,7.1c6.2,7.5,3.7,29.4,2.7,39
	c-1.4,13.5-4,38.5-14.9,47.4c-3.1,1.2-5.2,0.8-8.4,0.6c-3.8-2-6.7-3.8-8.6-7.8c-7.2-15.3-14.9-58.9-8.4-74
	C2422.7,1848.6,2427,1845.9,2433.3,1843.4z"/>
<path class="st6" d="M594.7,1590.4c2.4-1.4,3.9-2.2,5.1-5c4.6-11.2-0.2-37.5-1.8-49.2c-7-53.5-29.5-110.6-65.7-151.4
	c-35.4-39.9-79.7-71.4-116.8-109.9c-42-43.5-77.1-95.6-101.7-150.8c-53.8-121-67.5-255.9-18.8-381.2
	C340.2,626.6,436.5,532.7,550,483c125.4-54.8,268.7-57.1,396.1-6.9l0-100.6c0-7.9-2.3-28.1,1.5-34.5l-0.4,238.2
	c0,27.8-3.3,60.6,1,87.7c1.4,8.9,5.6,15.9,12.1,22.1c5.6,5.4,11.8,9.1,19.6,10.3c11.1,1.7,23.5,0.8,34.7,0.9l65,0.6l245.8,0.4
	l47.3,0c5.2,0,14.1-1.2,19,0c3.4,0.9,47.1,39.1,54.6,44.2l-274.8-1.4c7.1,9,14.8,18.2,17.8,29.6c3.1,11.9,1,30.3,0.8,42.7l0.3,2.7
	l-0.4,88.5l0.2,201.5l-0.5,27.8c0.5,17.8-0.5,35.1-13.5,48.6c-12.3,12.7-26.3,13.3-43,13.5l-28.9-0.7l0.6,80.6l1.6,4.8
	c-1,1.5-2,2.2-3.3,3.3l-78-58.6l-62.9-52.4l0.1,31l0.5,1.5l0,347.3l0,89.9c0,13,1.5,27.7-0.2,40.5l0.8,113.7l-21.4-23.5l-18-16.9
	l-38.2-26.1c-44.8-32.3-105.8-40.8-159.3-38.7c-14.4,2-28.2,4.9-42.1,9.2c-18,4.8-34.2,12.3-50.7,20.8l-3.1-2.3
	c-4.6-2.5-11.9-8.1-15.5-11.7c-2.5-2.5-5.6-7-9-8.2c-2.2-0.7-3.1-3-4.5-4.9c-2-3.1-9.6-8.9-10.3-11.5c-1.5-5.2,0.8-18.7,0.9-24.7
	l-0.8-68.9L594.7,1590.4z"/>
<path class="st4" d="M960.9,1174.3l1.5,1.6l0.1,31c-4.3-11.1-25.6-26-35.5-32.7L960.9,1174.3z"/>
<path class="st5" d="M682.2,1389l-28.4-5.2l2.7-130.6l38.2,18.7l-1.2,0c-5.2,0.1-8.1-1.3-12.6-3.4c-3-1.4-5.3-2.6-7.9-4.7l-1.5,1.9
	c3.7,8.6,11.2,16.5,16.2,24.7l-1.9,0.3l-2.7,0.6c0,4,8.4,14.8,11,18.7c2.8,4.2,4.2,7.9,8.1,11.3l45.5,79.1L682.2,1389z"/>
<linearGradient id="SVGID_7_" gradientUnits="userSpaceOnUse" x1="673.8516" y1="849.4545" x2="592.9432" y2="842.6718" gradientTransform="matrix(1 0 0 -1 0 2502)">
	<stop  offset="0" style="stop-color:#049C6C"/>
	<stop  offset="1" style="stop-color:#24BE82"/>
</linearGradient>
<path class="st29" d="M601.8,1697.7c-2-3.1-9.6-8.9-10.3-11.5c-1.5-5.2,0.8-18.7,0.9-24.7l-0.8-68.9l3.1-2.2
	c40.7,31.5,73.1,63.6,89.8,113.5c-18,4.8-34.2,12.3-50.7,20.8l-3.1-2.3c-4.6-2.5-11.9-8.1-15.5-11.7c-2.5-2.5-5.6-7-9-8.2
	C604.1,1701.8,603.2,1699.6,601.8,1697.7z"/>
<path class="st3" d="M469.7,732.4l53.1-0.3c-18.3,10-35.8,21.4-42,42.7c-5.6,19-2.9,44.3-2.9,64.1l0,117.2
	c-0.1,48.8-2.7,98.7-0.1,147.4c0.4,7.2,1.9,14.9,5.4,21.3c8,14.4,20.5,26.6,37,30.5c11.3,2.7,26.2,1.2,37.9,1.1l75.5-0.4l201.1,0.8
	l74.2-1.1c7.2-0.1,22.9,1.8,29-1.4l1.3-0.9l21.8,21l-34-0.1l-292.9-0.3c-49.1,0-100.2,2.8-149.1-0.1c-7.8-0.5-16.8-3.1-23.7-6.7
	c-14.8-7.9-24.7-20.7-29.9-36.5c-0.9-2.8-1.8-5.4-2.3-8.3c-2.4-14.9-0.8-32.7-0.7-47.8l0.1-90l0.2-138.3c0.1-22.7-1.6-47,0.7-69.6
	c0.9-9.2,3.9-17.8,9.4-25.4C446.4,740.7,456.9,734.4,469.7,732.4z"/>
<path class="st5" d="M702.1,1321.2c-4-3.4-5.3-7.1-8.1-11.3c-2.6-3.9-11-14.7-11-18.7l2.7-0.6l1.9-0.3c-4.9-8.2-12.5-16.2-16.2-24.7
	l1.5-1.9c2.6,2.1,4.9,3.3,7.9,4.7c4.6,2.1,7.5,3.5,12.6,3.4l1.2,0c18.4,7.6,36.1,20.4,52.2,31.9c38.3,27.3,73,56.6,104.7,91.5
	c6.9,7.6,16.8,17.1,21.5,26.1l1.4-4.9l1.7,5.7l1.2,0.3c4,1.3,5.8,5.1,7.6,8.6l-2.1-0.5c3.8,11.7,14.3,21.9,21.6,31.8l31,45.2
	c9.8,15.1,16.9,34.3,27.6,48.3l0,89.9c0,13,1.5,27.7-0.2,40.5l0.8,113.7l-21.4-23.5l-18-16.9l-38.2-26.1
	c-44.8-32.3-105.8-40.8-159.3-38.7c-14.6-36.3-29.8-72.7-39.5-110.7c-2.9-11.5-6.9-23.6-7.8-35.5c-1.2-2.7-0.9-2.7,0.1-5.5l-1.1-0.9
	c-4.2-4.5-5.6-20-6.8-26.3c-8-42.1-13.8-83.8-16.9-126.6l27.8,5l-0.4-5.2l65.4,11.3L702.1,1321.2z"/>
<path class="st11" d="M702.1,1321.2l0.9,0.8c10.5,10.3,18.8,27.3,26.6,39.9c36.7,58.6,71.1,118.6,102,180.6l41.4-121.2l1.4-4.9
	l1.7,5.7l1.2,0.3c4,1.3,5.8,5.1,7.6,8.6l-2.1-0.5l-4.9-3.8c-4.4,6.8-6,15.7-8.4,23.4l-13.8,43.8c-5.6,17.6-17.3,41.2-18.3,59.4
	l74.7,153.1l0.3,0l29.7,70l-18-16.9c-5.7-17-14.3-33.7-21.7-50.1l-48.2-101c-7.3-4.9-19.2-7.1-27.7-10.2l-147.3-49.6
	c-1.2-2.7-0.9-2.7,0.1-5.5l171.8,57.9l-102.4-194.1l-66.3-12.6l-0.4-5.2l65.4,11.3L702.1,1321.2z"/>
<path class="st8" d="M702.1,1321.2c-4-3.4-5.3-7.1-8.1-11.3c-2.6-3.9-11-14.7-11-18.7l2.7-0.6l1.9-0.3c-4.9-8.2-12.5-16.2-16.2-24.7
	l1.5-1.9c2.6,2.1,4.9,3.3,7.9,4.7c4.6,2.1,7.5,3.5,12.6,3.4l1.2,0c18.4,7.6,36.1,20.4,52.2,31.9c38.3,27.3,73,56.6,104.7,91.5
	c6.9,7.6,16.8,17.1,21.5,26.1l-41.4,121.2c-30.9-61.9-65.3-121.9-102-180.6c-7.9-12.6-16.1-29.6-26.6-39.9L702.1,1321.2z"/>
<path class="st5" d="M679.4,1548.5l147.3,49.6c8.5,3.1,20.4,5.4,27.7,10.2l48.2,101c7.4,16.3,16,33.1,21.7,50.1l-38.2-26.1
	c-44.8-32.3-105.8-40.8-159.3-38.7c-14.6-36.3-29.8-72.7-39.5-110.7C684.3,1572.4,680.4,1560.3,679.4,1548.5z"/>
<linearGradient id="SVGID_8_" gradientUnits="userSpaceOnUse" x1="870.4756" y1="734.1542" x2="969.4744" y2="1045.9037" gradientTransform="matrix(1 0 0 -1 0 2502)">
	<stop  offset="0" style="stop-color:#2BC37C"/>
	<stop  offset="1" style="stop-color:#73EBBA"/>
</linearGradient>
<path class="st30" d="M912.6,1706.3l-0.3,0l-74.7-153.1c1-18.2,12.7-41.8,18.3-59.4l13.8-43.8c2.4-7.7,4.1-16.6,8.4-23.4l4.9,3.8
	c3.8,11.7,14.3,21.9,21.6,31.8l31,45.2c9.8,15.1,16.9,34.3,27.6,48.3l0,89.9c0,13,1.5,27.7-0.2,40.5l0.8,113.7l-21.4-23.5
	L912.6,1706.3z"/>
<linearGradient id="SVGID_9_" gradientUnits="userSpaceOnUse" x1="792.9764" y1="1274.1427" x2="858.1049" y2="1780.8384" gradientTransform="matrix(1 0 0 -1 0 2502)">
	<stop  offset="0" style="stop-color:#FCBA2C"/>
	<stop  offset="1" style="stop-color:#FEDF7D"/>
</linearGradient>
<path class="st31" d="M469.7,732.4c7.8-2.2,17.1-1.5,25.2-1.6l51.5,0.4l403.5-0.2l135.1,0.5c19.4,0.2,41.2-1.4,60.3,1.2
	c9,1.2,18.3,7.1,26.2,11.4c7.1,9,14.8,18.2,17.8,29.6c3.1,11.9,1,30.3,0.8,42.7l0.3,2.7l-0.4,88.5l0.2,201.5l-0.5,27.8
	c0.5,17.8-0.5,35.1-13.5,48.6c-12.3,12.7-26.3,13.3-43,13.5l-28.9-0.7l0.6,80.6l1.6,4.8c-1,1.5-2,2.2-3.3,3.3l-78-58.6l-62.9-52.4
	l-1.5-1.6l-21.8-21l-1.3,0.9c-6.1,3.1-21.8,1.3-29,1.4l-74.2,1.1l-201.1-0.8l-75.5,0.4c-11.6,0-26.6,1.5-37.9-1.1
	c-16.5-3.9-29-16.1-37-30.5c-3.5-6.3-5-14.1-5.4-21.3c-2.5-48.6,0.1-98.5,0.1-147.4l0-117.2c0-19.8-2.7-45.1,2.9-64.1
	c6.3-21.2,23.7-32.7,42-42.7L469.7,732.4z"/>
<path class="st16" d="M589.2,882.9c2.4-3,5.7-5.4,8.6-7.9l26.5,41.9c-3.2,2.6-4,3.3-8.2,4L589.2,882.9z"/>
<linearGradient id="SVGID_10_" gradientUnits="userSpaceOnUse" x1="1107.1357" y1="1332.9678" x2="1150.5183" y2="1345.156" gradientTransform="matrix(1 0 0 -1 0 2502)">
	<stop  offset="0" style="stop-color:#FE930C"/>
	<stop  offset="1" style="stop-color:#FFB330"/>
</linearGradient>
<path class="st32" d="M1104.3,1170.4c-0.1-5-0.8-9.7,1.7-14.2l45.8,0.4c4.5,2.5,5.6,6.5,7.5,11.1
	C1141.6,1171.8,1122.4,1170.6,1104.3,1170.4z"/>
<path class="st14" d="M589.2,882.9c-5.6,0.2-13.6,1.3-18.1-2.9c-4.9-4.6-6-9-5.4-15.6c0.4-4.6,4.3-9.5,8.3-11.7
	c5.5-3,8.4-1.4,13.9,0.3c5.8,5.2,7.4,8.3,9.1,15.9l0.9,6.1C594.9,877.5,591.7,879.9,589.2,882.9z"/>
<path class="st15" d="M597,869c3.1-0.3,6.4-0.3,9.5-1c9.2,24.4,20,29,40.7,42.1l1.9,12.4c-5.1,2.9-11,3.6-16.7,4.8l-8-10.2
	l-26.5-41.9L597,869z"/>
<path class="st14" d="M737,867l-0.1-1.1c-0.3-4,0.5-7.3,3.3-10.4c3.3-3.6,6.8-5.3,11.8-4.9c5.9,0.5,9.4,4.8,12.7,9.2
	c1.2,5.6,1.9,9-1.2,14c-3.8,6.2-11.1,9.7-17.5,12.6c-14.6,6.5-27.6,37.8-38.1,50.7c-2.1-1.5-3.8-3-5.5-4.9l3.7-5.5l12.9-18.3
	l1.3-1.7c4.2-5.7,5-8.8,4.1-15.5C724,888.6,736,873,737,867z"/>
<path class="st33" d="M1189.7,1136.8c0.5,17.8-0.5,35.1-13.5,48.6c-12.3,12.7-26.3,13.3-43,13.5l-28.9-0.7l0-27.8
	c18.1,0.2,37.3,1.4,54.9-2.8C1175.3,1161.4,1182.2,1151.6,1189.7,1136.8z"/>
<path class="st15" d="M822.4,907.5l2.7-0.9c12.7-2.7,188.5-0.3,192,1.9c2.4,5.3,2.3,8.1,0.9,13.6l-2.9,3
	c-21.8,2.4-45.7,0.5-67.8,0.4L824,924.9C820.7,920.2,822.3,913.2,822.4,907.5z"/>
<path class="st18" d="M939.2,1153.3l-8.6-7.7c9-2.9,19.8-2.2,29.2-2.5l145.2,135.7l1.6,4.8c-1,1.5-2,2.2-3.3,3.3l-78-58.6
	l-62.9-52.4l-1.5-1.6L939.2,1153.3z"/>
<path class="st15" d="M821.2,1017.4c8-2.1,16.7-1.3,24.9-1.3l42.4,0l154.2,0.5l3.7,4.3c0.6,6.2,0.8,7.4-2,13l-3.7,2.1l-154,0
	l-42.8,0c-6.9,0-15.3,0.9-21.9-1.1C819.8,1029.9,821,1022.9,821.2,1017.4z"/>
<path class="st15" d="M821.5,967.3l242.3,0l48.3,0.1c4,0,12.2-1.1,15.8,0.1c1.2,0.4,3.1,2.1,4.3,2.9c1,6,1,10-0.7,15.8
	c-11.3,2-23.6,1.1-35.1,1.1l-58.3,0l-216.9-0.2L821.5,967.3z"/>
<path class="st34" d="M546.5,731.2l403.5-0.2l135.1,0.5c19.4,0.2,41.2-1.4,60.3,1.2c9,1.2,18.3,7.1,26.2,11.4
	c7.1,9,14.8,18.2,17.8,29.6c3.1,11.9,1,30.3,0.8,42.7l0.3,2.7l-0.4,88.5c-1.5-7-0.6-15.2-2.6-22c-3.7-12.5-1.4-30.8-1.4-44.4
	c-5-1.7-9.2-3.2-13.1-6.9c-4-3.8-11.1-7.6-14-12l-0.9-1.5c-5.6-1.2-5-5.3-11.2-6.1c-4.6-4.8-13.6-12.5-20.1-12.8
	c-18.1-14-42-24.7-63.2-33.3c-6-2.5-12.6-3.5-18.6-6.1c-8.5-3.8-17.5-12.2-26.9-13.4c-11.6-1.4-23.3-6.7-34.5-7.5
	c-3.8-0.3-6.1-0.6-9.6-2.3c-2.1-1-3-1.6-5.4-1.8l-1.7,0c-17.6-4.5-35.6,0.1-53.2-2c-33.5-4.1-69.3-1.9-103.3-2L632.1,733
	c-26.5-0.1-58.2,3.1-84.1-1.5L546.5,731.2z"/>
<path class="st2" d="M606.5,868c-0.8-23.9-0.8-46.4,16.7-64.9c10.2-10.9,25.1-17.1,39.8-17.5c16.2-0.4,31.4,4.7,43.1,16.2
	c9.7,9.6,14.2,18.8,17.9,31.8c2.8,9.8,1.5,25.5-0.4,35.4c-7.4,18.3-24.1,32.6-42,40.3l-4.3,1.6l-9.9-0.1l-1.7,2.2l6.6,9.2
	c-5.3,0-13.2,1.1-18-1.3c1.9-3.9,2.6-4.6,2.1-9l-9.2-1.8C626.5,897,615.7,892.4,606.5,868z"/>
<path class="st15" d="M821,831.6l296.1-0.5l-0.3,43l-295.8-0.3L821,831.6z"/>
<path class="st16" d="M723.6,869l13.4-2c-1,6-12.9,21.6-12.7,24.2c0.9,6.7,0,9.8-4.1,15.5l-1.3,1.7l-12.9,18.3l-3.7,5.5
	c1.8,1.9,3.4,3.4,5.5,4.9l1.7,0.7c23.8,11.3,39.1,35.6,45.9,60.1c6.7,23.6,3.1,51.1-9.1,72.3c-13.7,23.8-35.7,44-62.8,50.8
	c-24.9,6.2-51.6,2.6-73.4-10.7c-22.4-13.7-36.7-35.4-43-60.6c-5.2-20.9-4.9-43.3,2.7-63.5c10-26.7,27.8-43.4,53.3-54.8l9.4-4.1
	c5.7-1.1,11.6-1.8,16.7-4.8l-1.9-12.4l9.2,1.8c0.5,4.4-0.1,5.1-2.1,9c4.8,2.4,12.6,1.3,18,1.3l-6.6-9.2l1.7-2.2l9.9,0.1l4.3-1.6
	C699.5,901.6,716.2,887.2,723.6,869z"/>
<path class="st15" d="M723.6,869l13.4-2c-1,6-12.9,21.6-12.7,24.2l-27.9,38.1c-6.2-1.7-13-2.9-18.5-6.2l-0.6-12.1l4.3-1.6
	C699.5,901.6,716.2,887.2,723.6,869z"/>
<path class="st15" d="M660.8,949.3c5.2,0.7,7.5,0.2,11.2,4l-1.8,7.3c-0.4,1-2,3.7-2.8,4.3c-0.7,0.5-8.4,0.6-9.8,0.8
	c-7.4,0.8-14.6,2.2-21.4,5.3c-13.4,6-22.3,16.9-27.3,30.6c-5.4,14.8-4.6,34,2.5,48.1c6.5,13.1,19.7,23.5,33.6,27.9
	c13.9,4.4,27.6,2.9,40.5-3.9c13.6-7.1,25.5-19.7,29.6-34.8c3.4-12.7,3.7-28.4-2.3-40.3c-3.7-7.3-9.3-13.6-13.3-20.9l-0.8-1.5
	c-14.4,8.3-43.9,21.2-52.2,35.3c-3.4,5.7-3.7,11.5-1.6,17.7c2.6,7.4,6.3,9.1,12.9,12.1c3.3-0.1,6.7-0.3,9.6-2
	c11.2-6.6,9.6-14.8,12.2-25.6c1-4.1,1.6-3.9,5.2-5.9l5.2,4.3c3.6,8.2,5,14.6,1.6,23.1c-3.6,9-11.7,17.6-21,20.9
	c-9.5,3.4-18.9,0.3-27.6-3.7c-3.8-3.4-7.4-7.1-10-11.5c-5.1-8.8-5.7-19.2-3-28.7c1.5-5.3,4.5-10.9,8.7-14.6c8.9-7.7,23-13,33.2-19
	c14.9-8.8,28.9-18.9,44.1-27.2c4.8,0.2,5.5-0.5,8.9,3.1c-3.7,6.2-12.4,11.4-18.2,15.9c12,7.9,19,18.5,22.7,32.5
	c5.1,19.3,2.3,41.7-8.2,58.8c-10.1,16.4-25.7,28.5-44.7,32.5c-18.2,3.9-37.5,0.7-53-9.8c-16.3-11.1-29.8-28.6-33.2-48.4
	c-3.3-18.9,0.9-40.5,12.6-56C617.8,960.2,637.2,952.3,660.8,949.3z"/>
<path class="st26" d="M1190.3,1109l293.1,254.5l0.3,0.1l82.1,94.4l1.1,0.3c11.6,2.6,26.1,1,38.2,1l78.2,0l379.6,0l91.4,0
	c14.3,0,32.4-2,46.3,0.9c13.1,2.8,23.5,10.7,30.8,21.9c2.1,3.2,3.6,6.6,5.2,10.1c7,15,3.3,40.8,3.3,57.5l0,127.5
	c0,18.1-2.1,39.1,0.2,56.9l-0.3,78.7c-0.1,11.8,1.5,26.3-1,37.8c-1.6,7.1-6.5,13.7-10.5,19.5l3.4,3.7c-1.8,17.1-9.2,29.1-22.5,39.9
	c-5,4.1-11.1,7.8-17.5,9c-22.5,4.2-48,2-70.9,2.1l-131.8,0.2l0.4,1.6l151.9,184.9l-538.8,0.5l-156.3-0.1c-19.4,0-44.1-2.8-63,0.3
	l-208.7-0.1l-68.4-0.1c-14.3,0-30.1,1.4-43.9-2.7c-16.3-4.8-29.9-15.3-38.1-30.2c-6.9-12.1-10-25.7-13-39.2l9.2-27.7
	c4.4-28.9,5.9-55.4,3.9-84.6c-4.3-19.7-8.8-39-16.7-57.6c-10.9-25.6-26.7-47.9-43.2-70.1l-0.8-113.7c1.6-12.8,0.2-27.6,0.2-40.5
	l0-89.9l0-347.3l-0.5-1.5l-0.1-31l62.9,52.4l78,58.6c1.3-1.1,2.4-1.8,3.3-3.3l-1.6-4.8l-0.6-80.6l28.9,0.7
	c16.7-0.2,30.8-0.7,43-13.5c13-13.5,14.1-30.8,13.5-48.6L1190.3,1109z"/>
<path class="st33" d="M1010.6,2039.9l9.2-27.7l3.9,66.9C1016.7,2067,1013.6,2053.3,1010.6,2039.9z"/>
<path class="st33" d="M1025.3,1228.2l78,58.6c1.3-1.1,2.4-1.8,3.3-3.3l1.1,38.5l-81.2-56.9c-0.1,15.6,1.5,33.1-0.7,48.4l-0.3-49.8
	L1025.3,1228.2z"/>
<path class="st15" d="M1179.5,1992.7c4.8-0.2,9.7,0.1,14.3,1.6c8.4,2.7,16.4,9.7,20.3,17.5c3.8,7.6,4.2,15.3,1.5,23.3
	c-4.2,12.3-12.7,18-23.9,23.3c-4.8,0.2-9.1,0.2-13.7-1.3c-8.9-2.8-17-9.7-21.1-18.2c-4.1-8.4-4.3-16.1-1-24.8
	C1160.3,2003.1,1169.3,1997.7,1179.5,1992.7z"/>
<path class="st15" d="M1289.1,1992.8c4.7-0.2,9.6-0.5,14.3,0.5c8.6,1.9,16.7,9.1,20.9,16.8c4,7.4,4.6,16.9,2,24.9
	c-4.1,12.6-11.8,17.4-22.8,23.4c-4.3,0.2-9.1,0.7-13.3-0.4c-9.1-2.4-16.3-7.7-20.9-15.8c-4.3-7.7-4.9-18.3-2.3-26.6
	C1270.9,2003.2,1278.2,1998.4,1289.1,1992.8z"/>
<path class="st15" d="M1071.4,1992.8c5.9-0.1,12.9,0.3,18.4,2.8c8,3.6,14.3,11,17.5,19.2c3.2,8.1,2.4,15.9-1.1,23.8
	c-4.7,10.4-13.8,15.7-23.9,19.7c-5.3,0.3-10.5,0-15.6-1.4c-7.5-2-14.9-7.7-18.4-14.6c-4.5-8.7-5.6-20-1.7-29.1
	C1051.2,2002.2,1060.7,1996.8,1071.4,1992.8z"/>
<path class="st27" d="M2228,1869.9l3.4,3.7c-1.8,17.1-9.2,29.1-22.5,39.9c-5,4.1-11.1,7.8-17.5,9c-22.5,4.2-48,2-70.9,2.1
	l-131.8,0.2l0.4,1.6l-741.4-4.4c-6.6-4-14.8-7.7-19.1-14.3l-0.8-1.3c-7.2-10-6-20.8-5.5-32.6l0.6,1.1c5.6,8.4,16.8,13,26.1,15.5
	c11.8-3.4,27.6-1.6,40-1.6c35.5-0.1,72.9,2.4,108.2-0.8l2.1-0.2l798.5-1.4C2210.7,1884.5,2218.2,1878.7,2228,1869.9z"/>
<path class="st20" d="M2228,1869.9l3.4,3.7c-1.8,17.1-9.2,29.1-22.5,39.9c-5,4.1-11.1,7.8-17.5,9c-22.5,4.2-48,2-70.9,2.1
	l-131.8,0.2l-33.7-36.7l157.9,0l51.8,0.1c10.9,0,22.3,0.8,33-1.8C2210.7,1884.5,2218.2,1878.7,2228,1869.9z"/>
<path class="st20" d="M962.4,1175.9l62.9,52.4l0.2,35.5l0.3,49.8l-0.5,386l-0.1,110.3c0,14.5-2,32.5,0.4,46.7
	c-0.2,22.2,2.6,49.7-1.9,71.1c-4.3-19.7-8.8-39-16.7-57.6c-10.9-25.6-26.7-47.9-43.2-70.1l-0.8-113.7c1.6-12.8,0.2-27.6,0.2-40.5
	l0-89.9l0-347.3l-0.5-1.5L962.4,1175.9z"/>
<path class="st21" d="M962.4,1175.9l62.9,52.4l0.2,35.5c-22.6-16.3-41.3-37.1-62.4-55.3l-0.5-1.5L962.4,1175.9z"/>
<path class="st15" d="M1565.7,1457.9l1.1,0.3c11.6,2.6,26.1,1,38.2,1l78.2,0l379.6,0l91.4,0c14.3,0,32.4-2,46.3,0.9
	c13.1,2.8,23.5,10.7,30.8,21.9c2.1,3.2,3.6,6.6,5.2,10.1c7,15,3.3,40.8,3.3,57.5l0,127.5c0,18.1-2.1,39.1,0.2,56.9l-0.3,78.7
	c-0.1,11.8,1.5,26.3-1,37.8c-1.6,7.1-6.5,13.7-10.5,19.5c-9.8,8.8-17.3,14.6-30.4,16.7l-798.5,1.4c-11-2.1-24.7-0.6-36-0.7l-82.6,0
	c-13.1,0-34.6,3.1-44.8-6l-5.7-5.2c-4.7-4.9-9.1-11.3-10.6-18c-1.8-7.7-1.1-17.1-1.2-25l-0.2-47.9l0.2-165l0.1-92.6
	c0-14.5-1.7-32.4,1.5-46.5c0.9-3.9,2.9-6.8,5.4-9.8c4.8-5.9,10.6-9.8,18.2-11.5c8.5-1.9,18.6-1.1,27.4-1.1l46.9,0.4l165.5,0.2
	c26.4-0.1,54.9,2,81-1L1565.7,1457.9z"/>
<path class="st6" d="M1613.9,1532.1l369.1,0.7c3.1,2.1,4.7,2.7,5.8,6.6c1.4,5,0.4,11.1-2.1,15.5c-5.6,3.8-21.6,1.9-28.5,1.9l-87.7,0
	l-272.3-0.1l-66.2-0.1c-7.2,0-19.3,1.4-26-0.9c-3.4-1.2-5.4-4.7-7-7.6c-0.4-5.6-1-8.4,3-12.9c0.7-0.8,3.1-2.5,4.1-2.7
	c7.8-1.9,20.4-0.3,28.7-0.3L1613.9,1532.1z"/>
<path class="st6" d="M1509.2,1764.7l96.2,0.7l194.3,0.3l139.8-0.1l33.2,0.2c2.8,0,8.6-0.6,11.2,0.2c1,0.3,3.7,3.4,4.6,4.2
	c1,3.6,1.9,6.9,1.1,10.7c-1.3,6.3-2.7,6.7-7.6,10.3l-471.5,0.1c-5.9-0.5-6.7-2.1-10.3-6.4c-0.7-5.6-1.2-9.6,1.4-14.8
	C1503.8,1765.7,1504.9,1766.1,1509.2,1764.7z"/>
<path class="st6" d="M1506.5,1709.7c14.9-3.1,34.8-0.6,50.2-0.5l110.2,0.1l354.3-0.3l89.9-0.1c14.5,0,32.1-1.9,46.2,1.1
	c4,3.8,6.3,5.8,6.6,11.6c0.3,5.3-2.6,9.3-6,12.9l-4.6,0.5l-120.3-0.2l-221.2-0.2l-199.2,0.1c-32.6,0-66.2,1.8-98.6-0.1
	c-7.4-0.4-8.6-1.5-14.1-6.5l-0.4-10.1C1500.2,1713.2,1502.9,1712.2,1506.5,1709.7z"/>
<path class="st6" d="M1503.4,1588.8c15.8-4.5,38.2-1.6,55-1.5l109.1,0.2l353.8,0.2l96.3,0.1c11.5,0,32-2.5,42.2,2
	c2.6,3,4.2,5.1,4.4,9.2c0.4,6.3-2.3,9-6.3,13.2c-10.1,3.6-28.4,1.2-39.5,1.1l-87.6-0.2l-523.8,0.4c-5.9-3.7-6.1-4.4-8.8-10.9
	C1498.8,1596.7,1499.4,1593.4,1503.4,1588.8z"/>
<path class="st11" d="M1275.2,1502.7l146.6-0.5c7.2,0.1,8.9,1,13.5,6l0.2,86.8c0,15.1,1.7,31.6,0.1,46.5c-0.4,3.9-1.8,6.9-4.1,10
	l-6.5,0.8l-152.4-0.8c-4.9-0.4-6-2.4-8.7-5.9l-0.3-100.6c0-8.8-2.1-27.5,1.7-34.9C1268,1504.8,1269.9,1504.4,1275.2,1502.7z"/>
<path class="st14" d="M1339.1,1512.8c4.1-0.2,8.1-0.2,12.1,0.6c9.6,2,17.6,8.7,22.5,17.1c4.3,7.3,4.8,15.9,2.4,24
	c-3.8,12.6-12.9,17.9-23.9,23.4c-4.9,1.1-9.1,1.6-13.8-0.2c-9.6-3.6-18.3-10.5-22.6-20c-3.9-8.8-3.8-16.7-0.2-25.5
	C1320.1,1521.3,1328.7,1517.2,1339.1,1512.8z"/>
<path class="st16" d="M1330.5,1582.8c14.8-0.9,28.8-1.7,42.4,5.3c17.9,9.2,23,21.4,29.1,39.7l-39.3-0.1l-77.9-0.2
	c2.4-7,4.7-14.7,8.6-21.1C1302.4,1592.3,1314.9,1586.6,1330.5,1582.8z"/>
<path class="st11" d="M1275.2,1689.5l65.6,0.8c30.6-0.3,62.8-3.4,93.1,0.8c2.3,32.7,0.3,67,0.3,99.9c0,11.4,2.4,30.7-1,41.3
	c-1.7,5.3-5.1,6.5-9.6,8.6l-107.1,0.1c-13.2,0-29.6,1.8-42.4-0.4c-4.1-0.7-7.3-3.7-10.3-6.4l-0.2-139.2
	C1267.6,1690.5,1269.4,1690.8,1275.2,1689.5z"/>
<path class="st24" d="M1333.2,1700l1.1,0l1.8,0c4.5,0,9.3-0.3,13.6,1.1c7.6,2.4,14,8.9,17.6,15.8c3.7,7.1,5,14.6,2.5,22.2
	c-4.3,13.5-12.9,18.6-25.1,24.8c-3.9,0.2-8.4,0.6-12.1-0.6c-9-2.8-17.1-9.7-21.3-18.1c-3.6-7.2-4.5-15-1.7-22.6
	C1314,1710.6,1322.1,1705.1,1333.2,1700z"/>
<path class="st24" d="M1326.8,1767.8c12.8-1.2,26.3-1.2,38.3,4c17.2,7.5,23.5,23.4,29.8,39.8l-42.5-0.1l-67.7,0.3
	c2.1-6.9,5-13.4,8.3-19.8C1300.8,1776.9,1311.2,1772.7,1326.8,1767.8z"/>
<linearGradient id="SVGID_11_" gradientUnits="userSpaceOnUse" x1="2795.929" y1="1422.261" x2="1346.8331" y2="937.8951" gradientTransform="matrix(1 0 0 -1 0 2502)">
	<stop  offset="0" style="stop-color:#2F4DAC"/>
	<stop  offset="1" style="stop-color:#4E80D2"/>
</linearGradient>
<path class="st35" d="M2168,486.7l-0.2,257.7c-0.2,14.2-1.1,30.2,10.1,40.9l1.1,1c12.5,14.5,27.1,21.7,46.3,23.2l7.7,0.3l-0.6,8.1
	l0.1,25.1l0.5,43.7l1.2,8.5l8.1,10.1c4,4.1,12.3,8,18.1,6.4c9.9-2.7,22.8-15.3,31.2-21.7l79.4-60.5c4.2-3.3,13.4-12.3,17.6-13.6
	c3.8-1.1,12.8,0.1,17.2,0.1l49.1,0.3l252.7,0.7l61.7,1.2c11.7,15.8,19.9,30.4,24.6,49.8c4.6,19.3,2.4,42.3,2.4,62.1l0.2,105.9
	l1,61.1c0,6.1-1.5,18.5,1.1,23.8l332-0.1l96.7,0c15.8,0,33.4-1.5,49,0.6c8.9,1.2,16.7,4.7,23.1,11c6.3,6.3,9,14.5,14.4,21.3l0.6,8.7
	l0.2,198.8l-0.2,64.2c-0.1,11.9,1.2,25-3.1,36.2c-5.2,13.3-14,24-27.3,30.1c-11.5,5.3-25.8,3.9-38.1,4l-59.5,0
	c-2.1,61.3-16.3,127.7-35.1,186.2c-2.9,8.9-18,41.4-14.6,48.1l-61.5,30.3l1.4,0.8c6.6,3.7,11.5,11.2,17.3,14.3
	c2.4,1.3,8.8,1.5,11.7,2c11.6,2.2,19.6,6,28.6,13.8c10.7,12,14.4,22,15.3,38l-0.8,11l-140.2,0.2l-63-1.5l-97.5,0l-46.2,0l0.2-28.4
	v-33.7l-1-225.4l-1.1-0.2c-6.6-4-9,0.8-14.4-2l-0.5-14.1l-1.3-25.6c-14.8,8.8-30.5,22.4-45.8,29.2l0.4,32.9l-0.8,3.9l0,151.3
	l-2.2-0.6l-38.2-15.2c-6.7-2.2-12.9-6.1-19.7-7.8l-39.4-15.4l-395.9-161.4l0.1,165.4c0,7.9,2.3,37.1-2,42
	c-2.3-17.8-0.2-38.8-0.2-56.9l0-127.5c0-16.7,3.7-42.4-3.3-57.5c-1.6-3.5-3.1-6.9-5.2-10.1c-7.3-11.2-17.7-19.1-30.8-21.9
	c-13.9-2.9-32-0.9-46.3-0.9l-91.4,0l-379.6,0l-78.2,0c-12.1,0-26.5,1.6-38.2-1l-1.1-0.3l-82.1-94.4l-0.3-0.1L1190.3,1109l-0.2-201.5
	l0.4-88.5l-0.3-2.7c0.2-12.4,2.3-30.8-0.8-42.7c-3-11.4-10.6-20.6-17.8-29.6l274.8,1.4l46.5,37.2c9.7,8.1,21.9,20.9,34.2,24.5
	c4.2,1.2,9.9,0.6,14.1-0.1c6.9-1.1,14.6-4,18.7-9.9c10.9-15.6,8.1-35.3,14.2-52.1c0.1-2.7,4.6-37.5,4.8-37.7
	c2.2-2.2,21.4-2,25.6-2.9c10.2-2.2,18.5-6.5,25.9-13.8c24.1-23.7,19.3-59.1,19.3-90c35.8,0.8,71.5,2.8,107.3,1.5
	c97.7-3.7,195.2-25.3,286.5-60C2086,526,2127,506.2,2168,486.7z"/>
<path class="st20" d="M2187.6,818.7l44.7-0.7l0.1,25.1c-5.4-0.1-11-0.3-16.2-1.6C2204.3,838.4,2193.7,829.2,2187.6,818.7z"/>
<path class="st3" d="M1364.2,876.4c2.7-0.5,5.5-0.9,8.2-0.7c6.5,0.6,12.9,5.5,16.3,10.9c3.2,5.1,4,12.6,2.3,18.3
	c-2.3,7.8-8.3,12.1-14.9,16.1c-3.8,0.6-8.2,1.3-12,0.4c-5.8-1.4-11.3-5.9-14-11.3c-3.8-7.5-2.5-15.1-0.2-22.7
	C1354.4,881.7,1357.3,879.2,1364.2,876.4z"/>
<path class="st15" d="M1283.5,876.4c4.8-0.9,10.6-1.6,15.4-0.2c5.8,1.7,10.7,6.6,13.4,11.9c3,5.9,3.2,12.6,0.8,18.7
	c-3,7.7-8.4,11.7-15.8,14.7c-3.7,1.2-8.1,1-11.9,0.4c-6-1-11.3-4.3-14.5-9.5c-3.5-5.8-5-13.2-3-19.8
	C1270.5,884.1,1276.2,880.2,1283.5,876.4z"/>
<path class="st20" d="M1483.6,1363.6c15.7,4.2,102.6,78.9,117.4,93.8c-11.4,0.1-24.1-1-35.3,0.5L1483.6,1363.6z"/>
<path class="st28" d="M1190.2,816.3l272.6,0.5l494.3-0.1l163.1,0.1l42.4,0.2c8,0.1,16.5-0.7,24.2,1.5c-18.6,2.3-39.8,0.2-58.5,0
	l-128.5-0.5l-429.4,0.2c-3.1,5.6-6.4,12.4-11,16.9c-4.4,4.3-9.5,5.5-15.5,5.8c-16.1,0.8-23.1-6.2-34.6-16.1c-1.5-1.3-5.3-5.4-6.9-6
	c-2.8-1-11.1,0-14.3,0l-48.8,0.1l-248.9,0.1L1190.2,816.3z"/>
<path class="st21" d="M2646.8,935.7c4.5,8.2,3.9,26.6,1.3,35.4l-1.2,3.6l-0.8,2.3c-5.5,14.8-17.6,26.9-32.1,33.2
	c-10.2,4.4-23.2,3.8-33.4-0.4c-4.8-2-9.3-4.2-14.3-5.8c-27.3,18.2-58.1,35.6-82.5,57.3c-0.5-3.9-1.4-8.5,0.1-12.2
	c2.9-7,11.7-17,9.9-24.4c26.4-11.6,52.1-31.2,76.8-46.2c6.3,3.2,13.7,7.1,20.7,8.3c10,1.8,26.6-5.9,34.5-11.7
	C2639.5,965.3,2644.1,951.8,2646.8,935.7z"/>
<path class="st20" d="M2737.2,1575.7l-89.2,57.5l-0.5-109.4c-11.9-1-22.9-1.5-33.6-7.4c-14.8-8.3-25.5-22.1-29.6-38.7
	c-2-8.3-4.2-21.6,0.1-29.1c5.9,17.8,14.3,32.7,31.8,41.3c12.5,6.2,25.3,5.2,38.9,5l0.2,1.1c1.6,9.8,0.7,20.4,0.7,30.3
	c-0.1,21.6-1.1,43.6,0.1,65.1l81.6-52.5l0.4,32.9L2737.2,1575.7z"/>
<path class="st20" d="M1723.2,1158.8c5.7,11.8-0.1,28.2-4.3,40.2c-15,42.8-47.5,79.3-88.4,98.6c-42.5,20.1-93.9,23.2-138.2,7.1
	c-44-16-81.9-48.6-101.7-91.3c-3.5-7.7-13.7-29.2-11.2-37.3c0.7-2.4,0.7-2,2.1-4c3.8,11.2,8.3,22.2,14.1,32.6
	c22.5,40.3,61.3,70.6,105.5,83.3c45.4,13.1,96.4,7.6,137.6-15.5C1683.5,1247.4,1709.5,1207,1723.2,1158.8z"/>
<path class="st20" d="M1878.8,1253.7c6.7,5.3,9.7,8.5,18.5,9.3c31.5,2.8,65.5,0.3,97.2,0.3l203.4,0l181.4,0.1
	c27.2,0,57.2,2.5,84.2-0.3c6.3-0.7,11.3-4.9,16-8.8l1.3,3.1c-1.3,8.2-1.5,12.5-8.4,17.9c-3.7,2.9-8.2,2.9-12.7,3.1l-114.6,0.5
	l-222.6,0l-152.9-0.1c-25.2,0-51.5,1.5-76.5-0.4c-7.8-0.6-8.3-0.9-13.5-6.9C1878.4,1265.1,1878.2,1260.1,1878.8,1253.7z"/>
<path class="st20" d="M2480.7,1101.4l0.6,5.3c0,5.3-3.4,11.3-7.2,14.9l-1.3,1.2c-3.1,2.8-5.6,3.3-9.6,3.4l-115.4-0.3l-219.3,0.1
	l-157,0.2c-25.8,0-52.6,1.7-78.2-0.2c-6.1-0.5-9.5-3.5-13.7-7.5c-1.5-5.8-1.4-10.3-0.8-16.2c3.5,2.9,7.9,7,12.6,7.6
	c25,3.3,54,0.3,79.4,0.3l175.7-0.2l215.6,0c33.4,0,69.5,2.8,102.6-0.1C2470.9,1109.5,2476,1105.3,2480.7,1101.4z"/>
<path class="st20" d="M2479.4,1404.1c1.3,2.5,1.6,3.7,1.4,6.7c-0.5,6.6-2.5,11.5-7.9,15.6c-4.1,3.1-8.1,4.4-13.2,4.7
	c-32.7,2.1-66.5,0.4-99.3,0.4l-221.6-0.1l-180.9,0.2c-21.9-0.1-48.7,2.6-70.1-1.3c-5.1-0.9-7.7-5.4-10.3-9.5
	c-0.5-6.5-1.3-12.2,0.8-18.5c4.2,5.2,8.7,11.2,16,11.7c36,2.4,73.7,0,109.9,0l228.5-0.1l160.2,0.1c23,0,48.8,2.8,71.5,0
	c5.5-0.7,9.7-4.6,13.5-8.2L2479.4,1404.1z"/>
<path class="st20" d="M2234.1,895.3l8.1,10.1c4,4.1,12.3,8,18.1,6.4c9.9-2.7,22.8-15.3,31.2-21.7l79.4-60.5
	c4.2-3.3,13.4-12.3,17.6-13.6c3.8-1.1,12.8,0.1,17.2,0.1l49.1,0.3l252.7,0.7c9.6,14.2,17.7,29.1,21,46.2
	c-92.4-14.2-186.6-21.8-280.2-22.8c-18.7-0.2-39.1-2-57.7,0.3l-87.9,65.4c-11.9,8.7-24.3,20-37.6,26.3c-3.5,1.7-8.4,1.8-12.3,1.4
	c-6-0.7-10.2-4.2-13.7-9C2232.8,916.2,2233.3,905.6,2234.1,895.3z"/>
<path class="st27" d="M2493.8,1024.8c-0.8-1-2-1.8-2.3-3c-1.2-4.3,28.3-47.1,28.5-55.9c0.2-6-7-17.3-8.3-24l-0.5-2.4
	c-1.9-7.8-2-15.6-0.4-23.5l0.4-2.1c1.9-9.6,5.6-17.3,11.1-25.4c8.3-12.2,25.6-21.1,39.7-23.3c20-3.2,40.1,3.4,56.1,15
	c13.7,11.4,26.9,27,28.9,45.5c0.4,3.3,0,6.7-0.4,10c-2.6,16.1-7.3,29.6-20.9,39.5c-7.9,5.8-24.5,13.5-34.5,11.7
	c-6.9-1.2-14.4-5.2-20.7-8.3C2545.8,993.6,2520.2,1013.3,2493.8,1024.8z"/>
<path class="st24" d="M2618.3,880.2c13.7,11.4,26.9,27,28.9,45.5c0.4,3.3,0,6.7-0.4,10c-2.6,16.1-7.3,29.6-20.9,39.5
	c-7.9,5.8-24.5,13.5-34.5,11.7c-6.9-1.2-14.4-5.2-20.7-8.3l4-2.4c1.5-2.6,2.4-5.1,2.6-8.1c0.8-11.3-0.8-16.3-8.2-25l-2.4,3.1
	c-5.4,0.6-5.9,1.4-10.4-2.1c-0.3-10.3-4.2-37.9,0.8-45.5l5.5-0.8c6.2,1.7,11.1,6.9,16,10.9C2595.1,898,2606.3,898.8,2618.3,880.2z"
	/>
<path class="st15" d="M2569.1,943.2l-2.4,3.1c-5.4,0.6-5.9,1.4-10.4-2.1c-0.3-10.3-4.2-37.9,0.8-45.5l5.5-0.8
	c6.2,1.7,11.1,6.9,16,10.9c10.9,10.5,23.8,21.1,32.4,33.6c-1.6,4.4-3.4,5.8-7.1,8.5c-8.7-1.6-28.6-26.8-34.3-25L2569.1,943.2z"/>
<path class="st21" d="M2707.5,817.2l61.7,1.2c11.7,15.8,19.9,30.4,24.6,49.8c4.6,19.3,2.4,42.3,2.4,62.1l0.2,105.9l-0.1,84.5
	l-66.2,0l-1.6-257.3C2725.2,846.3,2717.1,831.5,2707.5,817.2z"/>
<path class="st21" d="M1171.6,744.1l274.8,1.4l46.5,37.2c9.7,8.1,21.9,20.9,34.2,24.5c4.2,1.2,9.9,0.6,14.1-0.1
	c6.9-1.1,14.6-4,18.7-9.9c10.9-15.6,8.1-35.3,14.2-52.1l593.7-0.8c-0.2,14.2-1.1,30.2,10.1,40.9l1.1,1
	c12.5,14.5,27.1,21.7,46.3,23.2l7.7,0.3l-0.6,8.1l-44.7,0.7l-0.9-0.2c-7.7-2.2-16.2-1.4-24.2-1.5l-42.4-0.2l-163.1-0.1l-494.3,0.1
	l-272.6-0.5c0.2-12.4,2.3-30.8-0.8-42.7C1186.4,762.3,1178.7,753.1,1171.6,744.1z"/>
<path class="st15" d="M1878.8,1253.7l-0.7-66.6c0-9.9-1.3-22,0.4-31.7c0.5-2.9,2.3-5,4.3-7.1c2.7-2.8,5.9-5.4,9.9-6
	c15.7-2.4,34.3-0.6,50.3-0.7l108.7-0.1l379.4-0.1c12.3,0,34.6-2.9,44.1,6c2.5,2.3,3.8,5.2,4.6,8.5c2.3,9.2,1.2,20.2,1.2,29.7
	l-0.3,58.3c0,3.5-0.5,6.9-1.2,10.4c-4.7,3.9-9.7,8.1-16,8.8c-26.9,2.8-57,0.3-84.2,0.3l-181.4-0.1l-203.4,0
	c-31.7,0-65.7,2.5-97.2-0.3C1888.6,1262.2,1885.6,1259,1878.8,1253.7z"/>
<path class="st15" d="M1878.3,1402.2l0.1-68.7c0-8.8-1.2-20,0.3-28.5c0.7-3.6,3.8-7.4,6.4-9.8c3.1-2.8,6-3.5,10-3.6l105.6-0.1
	l209.5-0.1l165.5-0.1c27.6,0,56-1.5,83.5,0.2c6.5,0.4,13.3,3.6,17.4,8.7c2.2,2.7,3.8,6.2,4.2,9.6c1.8,13.5,0.3,29.3,0.3,43
	c0,14.2,1.3,30.5-0.7,44.5l-1.2,6.2l0.2,0.6l-1.6,1.5c-3.8,3.6-8.1,7.6-13.5,8.2c-22.7,2.8-48.5,0-71.5,0l-160.2-0.1l-228.5,0.1
	c-36.2,0-73.9,2.4-109.9,0C1887,1413.3,1882.5,1407.4,1878.3,1402.2z"/>
<path class="st15" d="M1878.7,1102.4c-2.1-15.5-4.7-97.4,2.1-106.8c3.2-4.4,6.6-6.5,12-7c24.3-2.4,50.3-0.7,74.8-0.7l148.2-0.2
	l228.2-0.1l115.5,0.2c5.2,0.2,10,0.9,14.2,4.2c3.5,2.7,7,6.3,7.5,10.8c2.9,23.7,0.2,51.2-0.1,75.3c-0.1,7.5-1.5,16.1-0.5,23.4
	c-4.7,3.8-9.8,8-16.1,8.6c-33.1,2.9-69.2,0.1-102.6,0.1l-215.6,0l-175.7,0.2c-25.4,0-54.4,3-79.4-0.3
	C1886.6,1109.4,1882.3,1105.3,1878.7,1102.4z"/>
<path class="st6" d="M1935.8,1024.7c10.4-2.1,22.9-0.9,33.6-0.9l64.1-0.1c19.3,0,43.6-2.9,62.5,0.2c5.5,0.9,10.9,6.5,13.7,11
	c2.6,4.3,2.6,13.8,1,18.7c-2.1,6.8-7.2,10.4-13.1,13.7c-12.3,2.1-25.6,1.2-38.1,1.1l-59.2-0.1c-19.3,0-42.9,2.5-61.7-0.6
	c-5.7-0.9-10.5-5.2-13.6-9.9c-3.4-5.2-3.7-13-2.2-18.9C1924.4,1031.9,1929.9,1028,1935.8,1024.7z"/>
<path class="st6" d="M2168,486.7l-0.2,257.7l-593.7,0.8c0.1-2.7,4.6-37.5,4.8-37.7c2.2-2.2,21.4-2,25.6-2.9
	c10.2-2.2,18.5-6.5,25.9-13.8c24.1-23.7,19.3-59.1,19.3-90c35.8,0.8,71.5,2.8,107.3,1.5c97.7-3.7,195.2-25.3,286.5-60
	C2086,526,2127,506.2,2168,486.7z"/>
<path class="st15" d="M1381.6,1172.1c-6.1-25.7-9.2-50-5.6-76.3c6.4-46.3,32.8-88.2,70.1-115.9c36.1-26.9,83-39,127.5-32.5
	c47.5,6.9,91.6,33.1,120,71.8c30.6,41.8,37.6,89.5,29.6,139.6c-13.7,48.2-39.7,88.5-84.4,113.7c-41.2,23.1-92.2,28.6-137.6,15.5
	c-44.2-12.7-83-43-105.5-83.3C1389.9,1194.4,1385.4,1183.3,1381.6,1172.1z"/>
<path class="st16" d="M1646,1072c8.6,7.8,25.7,19.1,25.8,32.1c0,8.1-5,13.1-10.7,18.3l-58,49.7c-10.7,9.3-21.5,21.7-33.6,28.8
	c-5.7,3.3-12.6,4.9-19.1,4.6c-8.7-0.5-16.3-7.3-22.8-12.6l-46.3-39.6c-12.3-10.4-27.1-21-37.9-32.8c-3.3-3.6-5.6-7.6-5.8-12.6
	c4.3,0.8,8.2,4.9,11.5,7.6l32.6,24.8c2.4,1.7,6.9,5.8,9.4,6.5c5.9,1.6,16-0.7,22.5,0.2c11.9,1.6,24.4,7.9,35.9,11.6
	c16.5-10.1,29.8-23.5,44.1-36.5C1611.5,1105.6,1629.5,1089.8,1646,1072z"/>
<path class="st13" d="M1437.6,1107.8c-0.1-5.6-0.5-9,3.3-13.5c9-10.6,42.5-46.2,54.4-50.2c8.5-2.9,19.4-0.2,27.8,2.3
	c9.4,2.9,19.4,7.5,29.4,7.2c17.4-0.5,34.2-12.3,51.7-13.1c14.4-0.7,32.4,22,41.9,31.5c-16.5,17.8-34.5,33.6-52.5,49.9
	c-14.3,12.9-27.5,26.4-44.1,36.5c-11.5-3.7-24-10-35.9-11.6c-6.5-0.9-16.6,1.5-22.5-0.2c-2.5-0.7-7-4.8-9.4-6.5l-32.6-24.8
	C1445.7,1112.7,1441.9,1108.6,1437.6,1107.8z"/>
<linearGradient id="SVGID_12_" gradientUnits="userSpaceOnUse" x1="3289.5251" y1="963.4035" x2="2581.6641" y2="1127.9469" gradientTransform="matrix(1 0 0 -1 0 2502)">
	<stop  offset="0" style="stop-color:#4937C1"/>
	<stop  offset="1" style="stop-color:#7657EF"/>
</linearGradient>
<path class="st36" d="M2796.4,1036.3l1,61.1c0,6.1-1.5,18.5,1.1,23.8l332-0.1l96.7,0c15.8,0,33.4-1.5,49,0.6
	c8.9,1.2,16.7,4.7,23.1,11c6.3,6.3,9,14.5,14.4,21.3l0.6,8.7l0.2,198.8l-0.2,64.2c-0.1,11.9,1.2,25-3.1,36.2
	c-5.2,13.3-14,24-27.3,30.1c-11.5,5.3-25.8,3.9-38.1,4l-59.5,0c-2.1,61.3-16.3,127.7-35.1,186.2c-2.9,8.9-18,41.4-14.6,48.1
	l-61.5,30.3l1.4,0.8c6.6,3.7,11.5,11.2,17.3,14.3c2.4,1.3,8.8,1.5,11.7,2c11.6,2.2,19.6,6,28.6,13.8c10.7,12,14.4,22,15.3,38
	l-0.8,11l-140.2,0.2l-63-1.5l-97.5,0l-46.2,0l0.2-28.4v-33.7l-1-225.4l-1.1-0.2c-6.6-4-9,0.8-14.4-2l-0.5-14.1l-1.3-25.6
	c-14.8,8.8-30.5,22.4-45.8,29.2l-81.6,52.5c-1.2-21.5-0.2-43.5-0.1-65.1c0-9.9,1-20.6-0.7-30.3l-0.2-1.1c-13.6,0.2-26.4,1.1-38.9-5
	c-17.5-8.6-25.9-23.5-31.8-41.3l-0.2-68.6l-0.1-143.1c0-25.5-3-55.7,1.8-80.6c1.7-8.5,5.6-15.3,11.7-21.4c18-17.9,40.2-14,63.5-13.9
	l54.2,0.3l14.9-0.4l66.2,0L2796.4,1036.3z"/>
<path class="st15" d="M2977.3,1350.7c12.5-3.9,33.1-1.2,46.4-1.2l115.6-0.1c4.2,2.4,4.2,2.3,6,6.8l-3.9,5.5
	c-5.7,2-156.8,3-163.1,0.7c-3.3-1.2-3.4-3.2-4.5-6.2L2977.3,1350.7z"/>
<path class="st15" d="M2977,1244.5l3.1-0.8c8.9-1.6,20-0.3,29.1-0.3l64.2,0.1l107.4-0.1c13.8,0,30-1.6,43.6,0.2
	c1.8,0.2,3.1,1.2,4.6,2.2l1,5l-3.7,4.6l-2.1,0.6c-13.6,3.5-35.6,0.7-50,0.6l-133.3-0.3l-42.5-0.1c-5.6,0-14,1.1-19.3-0.1
	c-1.1-0.2-3.3-2-4.3-2.6l-1-4.6L2977,1244.5z"/>
<path class="st15" d="M3177,1295.8c13.7-0.2,35.1-3.2,47.9,0.2c4.1,1.1,4.6,2.9,6.7,6.2l-1.9,4.6c-9.6,6.5-170,3-195.2,3l-38.9,0.1
	c-8.4-0.1-15.3,1.6-21.3-4.5l0.9-5c1.2-0.9,3.5-3,4.9-3.4c2.6-0.8,8.5,0,11.4,0l34.1-0.1L3177,1295.8z"/>
<path class="st6" d="M2800,1498.1c7.1-2.8,14.2-2,21.7-2l41.4,0l140.9,0.3l-28.7,24.4c-19.8-2.5-40.7-1-60.6-0.9l-112.6,0
	c0,9.1,0.8,19.3-0.8,28.2l-0.3,3.5l-1.1-0.2c-6.6-4-9,0.8-14.4-2l-0.5-14.1c1.3-8.4,0.6-17.8,0.6-26.3L2800,1498.1z"/>
<path class="st23" d="M2784.7,1535.4c1.3-8.4,0.6-17.8,0.6-26.3l14.6-10.9c0.1,16.2-1.2,34.1,1.1,50l-0.3,3.5l-1.1-0.2
	c-6.6-4-9,0.8-14.4-2L2784.7,1535.4z"/>
<path class="st15" d="M2707.3,1220.1c7.9-0.7,17.6-1.2,25.3,0.6c22.5,5.4,31.8,22.4,43.4,40.5c4.5-8.1,9-17.5,15-24.6
	c7.9-9.3,21.6-16.3,33.7-17.1c18.6-1.3,34.1,3,48,15.7c12.7,11.6,20,28.3,20.5,45.4c0.6,24.1-10.9,34.5-26.1,51.3l-30.2,32.5
	c-14.2,15.4-29.5,36.7-46,49.3c-7.2,5.5-13,4.4-21.4,3.5c-9.8-5.8-17.5-14.8-25.3-22.9l-37.7-40.2c-13.6-14.5-39-34.3-45.6-52.9
	c-5.5-15.4-3.8-33.2,3.4-47.7C2673.4,1235.4,2688.6,1226.1,2707.3,1220.1z"/>
<path class="st1" d="M2796.4,1036.3l1,61.1c0,6.1-1.5,18.5,1.1,23.8l332-0.1l96.7,0c15.8,0,33.4-1.5,49,0.6
	c8.9,1.2,16.7,4.7,23.1,11c6.3,6.3,9,14.5,14.4,21.3l0.6,8.7l-572.3,0.1l-62.1,0.3c-10.3,0.1-22.3-1-32.2,1.5
	c-6.3,1.5-10.9,4.3-15.4,8.8c-3.5,3.5-8.9,9.7-10.2,14.6c-1.3,4.8-0.4,13.4-0.5,18.5l-0.1,53l0.5,190.1c0.2,11.2,5.3,21,13.3,28.6
	c6.1,5.8,13.2,9.4,20.7,13.1l-1.1,3.5c-13.6,0.2-26.4,1.1-38.9-5c-17.5-8.6-25.9-23.5-31.8-41.3l-0.2-68.6l-0.1-143.1
	c0-25.5-3-55.7,1.8-80.6c1.7-8.5,5.6-15.3,11.7-21.4c18-17.9,40.2-14,63.5-13.9l54.2,0.3l14.9-0.4l66.2,0L2796.4,1036.3z"/>
<path class="st5" d="M3004,1496.5c26-16.7,54.9-38.8,83.6-49.8l3,49.7l95.7-0.2c-2.1,61.3-16.3,127.7-35.1,186.2
	c-2.9,8.9-18,41.4-14.6,48.1l-61.5,30.3l1.4,0.8c6.6,3.7,11.5,11.2,17.3,14.3c2.4,1.3,8.8,1.5,11.7,2c11.6,2.2,19.6,6,28.6,13.8
	c10.7,12,14.4,22,15.3,38l-0.8,11l-140.2,0.2l-63-1.5l-97.5,0l-46.2,0l0.2-28.4v-33.7l-1-225.4l0.3-3.5c1.6-8.9,0.8-19.1,0.8-28.2
	l112.6,0c19.9-0.1,40.9-1.6,60.6,0.9L3004,1496.5z"/>
<path class="st11" d="M2924.3,1571.2l8.5,102.1c0.6,5.5,0.4,19.4,3,23.8c32.2-61.2,60.7-127.6,106.5-180.3
	c-0.5,8.4-17.6,29.6-22.5,37.8l-62.6,115.9c12.1-3.2,28.3-16.2,39.6-22.7l75.2-41.2l1.5,4.2l-93.9,54.6
	c-7.3,4.3-21.5,10.1-27.2,15.9c-3.1,3.1-6.4,12.7-8.4,16.8l-33.6,78.5l-5.2,2.5l13.9-41.2c3.8-10.6,10.9-23.7,9.5-35.1l-8.6-127.9
	L2924.3,1571.2z"/>
<path class="st5" d="M3073.5,1610.8l8.2-4.3c2.3,4.2-0.2,11.2-1.1,16.1c-4,21.1-8.6,41.7-14.7,62.4c-3.9,13.4-10.6,28.1-12.9,41.6
	c-15.4-12.2-27.9-16.6-47.4-18.6c-20.4,1.2-40.6,5.3-54.9,21.1c-7.3,8-12.5,18.2-16.6,28.2c-1.4,3.3-4.6,15-6.9,17.1
	c-1.2,1.2-14,1.8-16.7,2.4l33.6-78.5c2-4.2,5.3-13.7,8.4-16.8c5.7-5.8,19.9-11.7,27.2-15.9L3073.5,1610.8z"/>
<path class="st6" d="M3090.6,1496.4l95.7-0.2c-2.1,61.3-16.3,127.7-35.1,186.2c-2.9,8.9-18,41.4-14.6,48.1l-61.5,30.3
	c-3.6-3.9-6.1-10.6-8.7-15.4c-3.8-7-8.2-12.8-13.4-18.8c2.3-13.5,9-28.2,12.9-41.6c6.1-20.6,10.7-41.3,14.7-62.4
	c0.9-4.8,3.5-11.8,1.1-16.1l-8.2,4.3l-1.5-4.2l11.4-6.2c3.4-4.5,3.1-15.2,3.7-20.8C3089.8,1551.8,3091.2,1524.4,3090.6,1496.4z"/>
<path class="st3" d="M2910.4,1776.6c2.8-0.6,15.5-1.2,16.7-2.4c2.2-2.1,5.5-13.8,6.9-17.1c4.1-10,9.3-20.2,16.6-28.2
	c14.3-15.7,34.6-19.9,54.9-21.1c19.5,2,32,6.4,47.4,18.6c5.2,6,9.6,11.8,13.4,18.8c2.6,4.8,5.1,11.5,8.7,15.4l1.4,0.8
	c6.6,3.7,11.5,11.2,17.3,14.3c2.4,1.3,8.8,1.5,11.7,2c11.6,2.2,19.6,6,28.6,13.8c10.7,12,14.4,22,15.3,38l-0.8,11l-140.2,0.2
	l-63-1.5l-97.5,0c0.1-7.7-0.5-15.7,2.9-22.9c2.7-9.1,15.3-18.2,22.1-24.8c9.6-5.7,21.6-9.2,32.3-12.5L2910.4,1776.6z"/>
<path class="st18" d="M3004.9,1814.9l0.7,24.4c-19.5-0.5-41-2.7-60.2-0.1l-97.5,0c0.1-7.7-0.5-15.7,2.9-22.9
	c14.7,1.9,31.2,0.5,46.2,0.4L3004.9,1814.9z"/>
<path class="st2" d="M3005.5,1707.9c19.5,2,32,6.4,47.4,18.6c5.2,6,9.6,11.8,13.4,18.8c2.6,4.8,5.1,11.5,8.7,15.4l1.4,0.8
	c6.6,3.7,11.5,11.2,17.3,14.3c2.4,1.3,8.8,1.5,11.7,2c11.6,2.2,19.6,6,28.6,13.8c10.7,12,14.4,22,15.3,38l-0.8,11l-140.2,0.2
	l-63-1.5c19.2-2.6,40.7-0.4,60.2,0.1l-0.7-24.4c1.1-10.3,2.8-31.4-1.1-40.8l-6.4-0.3l0.9-1.9l4.6-0.1
	C3008.7,1765.6,3005.5,1719.3,3005.5,1707.9z"/>
<path class="st37" d="M3134.1,1791.6c10.7,12,14.4,22,15.3,38l-0.8,11l-140.2,0.2l-63-1.5c19.2-2.6,40.7-0.4,60.2,0.1l-0.7-24.4
	l130.8-0.2C3138.6,1808.2,3135.8,1798.4,3134.1,1791.6z"/>
<path class="st11" d="M2801.1,1548.2c1.6-8.9,0.8-19.1,0.8-28.2l112.6,0c19.9-0.1,40.9-1.6,60.6,0.9c-15.7,14.5-40.2,32.1-50.9,50.3
	l-4.3,3.7l8.6,127.9c1.4,11.3-5.6,24.5-9.5,35.1l-13.9,41.2c-10.7,3.3-22.6,6.8-32.3,12.5c-6.8,6.6-19.4,15.7-22.1,24.8
	c-3.4,7.1-2.8,15.2-2.9,22.9l-46.2,0l0.2-28.4v-33.7l-1-225.4L2801.1,1548.2z"/>
<linearGradient id="SVGID_13_" gradientUnits="userSpaceOnUse" x1="2912.6033" y1="701.0297" x2="2818.8804" y2="871.0264" gradientTransform="matrix(1 0 0 -1 0 2502)">
	<stop  offset="0" style="stop-color:#36CC91"/>
	<stop  offset="1" style="stop-color:#6BECB6"/>
</linearGradient>
<path class="st38" d="M2801.9,1777.1c8.8-13.7,12.7-33.3,19.3-48.5c17.4-40.3,39-78.2,64.7-113.7c9.8-13.6,21.1-29.4,34.2-39.9
	l8.6,127.9c1.4,11.3-5.6,24.5-9.5,35.1l-13.9,41.2c-10.7,3.3-22.6,6.8-32.3,12.5c-6.8,6.6-19.4,15.7-22.1,24.8
	c-3.4,7.1-2.8,15.2-2.9,22.9l-46.2,0l0.2-28.4V1777.1z"/>
</svg>
