<?xml version="1.0" encoding="utf-8"?>
<!-- Generator: Adobe Illustrator 24.0.2, SVG Export Plug-In . SVG Version: 6.00 Build 0)  -->
<svg version="1.1" xmlns="http://www.w3.org/2000/svg" xmlns:xlink="http://www.w3.org/1999/xlink" x="0px" y="0px"
	 viewBox="0 0 4800 3300" style="enable-background:new 0 0 4800 3300;" xml:space="preserve">
<style type="text/css">
	.st0{display:none;}
	.st1{fill:#FFFFFF;}
	.st2{opacity:0.4;fill:url(#SVGID_1_);}
	.st3{fill:url(#SVGID_2_);}
	.st4{fill:url(#SVGID_3_);}
	.st5{fill:url(#SVGID_4_);}
	.st6{fill:url(#SVGID_5_);}
	.st7{fill:url(#SVGID_6_);}
	.st8{fill:url(#SVGID_7_);}
	.st9{fill:url(#SVGID_8_);}
	.st10{fill:url(#SVGID_9_);}
	.st11{fill:url(#SVGID_10_);}
	.st12{fill:url(#SVGID_11_);}
	.st13{fill:url(#SVGID_12_);}
	.st14{fill:url(#SVGID_13_);}
	.st15{fill:url(#SVGID_14_);}
	.st16{fill:url(#SVGID_15_);}
	.st17{fill:url(#SVGID_16_);}
	.st18{fill:url(#SVGID_17_);}
	.st19{fill:url(#SVGID_18_);}
	.st20{fill:url(#SVGID_19_);}
	.st21{fill:url(#SVGID_20_);}
	.st22{fill:url(#SVGID_21_);}
	.st23{fill:url(#SVGID_22_);}
	.st24{fill:#03053E;}
	.st25{fill:url(#SVGID_23_);}
	.st26{fill:url(#SVGID_24_);}
	.st27{fill:url(#SVGID_25_);}
	.st28{fill:url(#SVGID_26_);}
	.st29{fill:url(#SVGID_27_);}
	.st30{fill:url(#SVGID_28_);}
	.st31{fill:url(#SVGID_29_);}
	.st32{fill:url(#SVGID_30_);}
	.st33{fill:url(#SVGID_31_);}
	.st34{fill:url(#SVGID_32_);}
	.st35{fill:url(#SVGID_33_);}
	.st36{fill:url(#SVGID_34_);}
	.st37{fill:url(#SVGID_35_);}
	.st38{fill:url(#SVGID_36_);}
	.st39{fill:url(#SVGID_37_);}
	.st40{fill:url(#SVGID_38_);}
	.st41{fill:url(#SVGID_39_);}
	.st42{fill:url(#SVGID_40_);}
	.st43{fill:url(#SVGID_41_);}
	.st44{fill:url(#SVGID_42_);}
	.st45{fill:url(#SVGID_43_);}
	.st46{fill:url(#SVGID_44_);}
	.st47{fill:url(#SVGID_45_);}
	.st48{fill:url(#SVGID_46_);}
	.st49{fill:url(#SVGID_47_);}
	.st50{fill:url(#SVGID_48_);}
	.st51{fill:url(#SVGID_49_);}
	.st52{fill:url(#SVGID_50_);}
	.st53{fill:url(#SVGID_51_);}
	.st54{fill:url(#SVGID_52_);}
	.st55{fill:url(#SVGID_53_);}
	.st56{fill:url(#SVGID_54_);}
	.st57{fill:url(#SVGID_55_);}
	.st58{fill:url(#SVGID_56_);}
	.st59{fill:url(#SVGID_57_);}
	.st60{fill:url(#SVGID_58_);}
	.st61{fill:url(#SVGID_59_);}
	.st62{fill:url(#SVGID_60_);}
	.st63{fill:url(#SVGID_61_);}
	.st64{fill:url(#SVGID_62_);}
	.st65{fill:url(#SVGID_63_);}
	.st66{fill:url(#SVGID_64_);}
	.st67{fill:url(#SVGID_65_);}
	.st68{fill:url(#SVGID_66_);}
	.st69{fill:url(#SVGID_67_);}
	.st70{fill:url(#SVGID_68_);}
	.st71{fill:url(#SVGID_69_);}
	.st72{fill:url(#SVGID_70_);}
	.st73{fill:url(#SVGID_71_);}
	.st74{fill:url(#SVGID_72_);}
	.st75{fill:url(#SVGID_73_);}
	.st76{fill:url(#SVGID_74_);}
	.st77{fill:url(#SVGID_75_);}
	.st78{fill:url(#SVGID_76_);}
	.st79{fill:url(#SVGID_77_);}
	.st80{fill:url(#SVGID_78_);}
	.st81{fill:#F4CAAB;}
	.st82{fill:url(#SVGID_79_);}
	.st83{fill:#EFBC90;}
	.st84{fill:#DBC6AF;}
	.st85{fill:url(#SVGID_80_);}
	.st86{fill:url(#SVGID_81_);}
	.st87{fill:url(#SVGID_82_);}
	.st88{fill:url(#SVGID_83_);}
	.st89{fill:url(#SVGID_84_);}
	.st90{fill:url(#SVGID_85_);}
	.st91{fill:url(#SVGID_86_);}
	.st92{fill:url(#SVGID_87_);}
	.st93{fill:#76D3F4;}
	.st94{fill:url(#SVGID_88_);}
	.st95{fill:url(#SVGID_89_);}
	.st96{fill:url(#SVGID_90_);}
	.st97{fill:url(#SVGID_91_);}
	.st98{fill:url(#SVGID_92_);}
	.st99{fill:url(#SVGID_93_);}
	.st100{fill:url(#SVGID_94_);}
	.st101{fill:#EDBA8E;}
	.st102{fill:#F1C8A9;}
	.st103{fill:url(#SVGID_95_);}
	.st104{fill:#75D1F2;}
	.st105{fill:url(#SVGID_96_);}
	.st106{fill:url(#SVGID_97_);}
	.st107{fill:url(#SVGID_98_);}
	.st108{fill:url(#SVGID_99_);}
	.st109{fill:url(#SVGID_100_);}
	.st110{fill:url(#SVGID_101_);}
	.st111{fill:url(#SVGID_102_);}
	.st112{fill:url(#SVGID_103_);}
	.st113{fill:url(#SVGID_104_);}
	.st114{fill:url(#SVGID_105_);}
	.st115{fill:url(#SVGID_106_);}
	.st116{fill:url(#SVGID_107_);}
	.st117{fill:url(#SVGID_108_);}
	.st118{fill:url(#SVGID_109_);}
	.st119{fill:url(#SVGID_110_);}
	.st120{fill:url(#SVGID_111_);}
	.st121{fill:url(#SVGID_112_);}
	.st122{fill:url(#SVGID_113_);}
	.st123{fill:url(#SVGID_114_);}
	.st124{fill:url(#SVGID_115_);}
	.st125{fill:url(#SVGID_116_);}
	.st126{fill:url(#SVGID_117_);}
	.st127{fill:url(#SVGID_118_);}
	.st128{fill:#EEBB8F;}
	.st129{fill:#F3C9AA;}
	.st130{fill:url(#SVGID_119_);}
	.st131{fill:url(#SVGID_120_);}
	.st132{fill:url(#SVGID_121_);}
	.st133{fill:#76D2F3;}
	.st134{fill:url(#SVGID_122_);}
	.st135{fill:url(#SVGID_123_);}
	.st136{fill:url(#SVGID_124_);}
	.st137{fill:url(#SVGID_125_);}
	.st138{fill:url(#SVGID_126_);}
	.st139{fill:url(#SVGID_127_);}
	.st140{fill:url(#SVGID_128_);}
	.st141{fill:url(#SVGID_129_);}
	.st142{fill:url(#SVGID_130_);}
	.st143{fill:#DAC5AE;}
	.st144{fill:url(#SVGID_131_);}
	.st145{fill:url(#SVGID_132_);}
	.st146{fill:url(#SVGID_133_);}
	.st147{fill:url(#SVGID_134_);}
	.st148{fill:url(#SVGID_135_);}
	.st149{fill:url(#SVGID_136_);}
	.st150{fill:url(#SVGID_137_);}
	.st151{fill:url(#SVGID_138_);}
	.st152{fill:url(#SVGID_139_);}
	.st153{fill:url(#SVGID_140_);}
	.st154{fill:url(#SVGID_141_);}
	.st155{fill:url(#SVGID_142_);}
	.st156{fill:url(#SVGID_143_);}
</style>
<g id="Ñëîé_2" class="st0">
	<rect class="st1" width="4800" height="3300"/>
</g>
<g id="Ñëîé_1">
	<g>
		<linearGradient id="SVGID_1_" gradientUnits="userSpaceOnUse" x1="418" y1="1647" x2="4382" y2="1647">
			<stop  offset="0" style="stop-color:#FFE1E3"/>
			<stop  offset="1" style="stop-color:#A3B7E9"/>
		</linearGradient>
		<path class="st2" d="M3025.2,115.9c-273.4,0-527.9,80.9-740.9,219.9c-145.8,95.2-334.4,95.6-480.8,1.3
			c-138.6-89.4-303.4-141.7-480.2-142.9c-499-3.4-907,403-905.3,902.1c0.7,199.5,66.3,383.6,176.8,532.4
			c67.9,91.4,102,203.8,95.3,317.4c-0.2,3.5-0.4,7.1-0.6,10.7c-34.2,686.8,535.2,1255.2,1222,1219.8
			c215.6-11.1,415.6-80.9,584.5-193.8c153.1-102.3,333.6-154.9,517.7-153.4c3.8,0,7.6,0,11.4,0c749.3,0,1356.8-607.5,1356.8-1356.8
			S3774.5,115.9,3025.2,115.9z"/>
		
			<linearGradient id="SVGID_2_" gradientUnits="userSpaceOnUse" x1="3495.3845" y1="1982.0879" x2="4157.0786" y2="2059.1106" gradientTransform="matrix(0.9995 -3.110000e-02 3.110000e-02 0.9995 -48.4726 93.4624)">
			<stop  offset="0" style="stop-color:#FFE1E3"/>
			<stop  offset="1" style="stop-color:#A3B7E9"/>
		</linearGradient>
		<path class="st3" d="M3284.9,2306c49.5,19.4,145.8,41.3,200,13.6c50.1-25.6,41.8-99.2,83.8-128c42-28.7,175.9,10.5,233.5-17.7
			c68.3-33.5,5.8-130,67.4-145c61.6-15,222.8,21,260.1-18.5c37.3-39.5-18.1-70.3,77.6-128.1c81.1-49,188.6-112.5,161.5-181.5
			c-28.9-73.5-136-36.8-203,1.7c-86.4,49.6-84.8-55.5-154.2-49.5c-62.7,5.4-157.6,181.2-211.2,195.6s-104-49.7-185.1-17.7
			c-81.1,32-67.4,164.2-117.3,194.7s-108.9-27.1-180.2,16C3246.6,2084.6,3284.9,2306,3284.9,2306z"/>
		
			<linearGradient id="SVGID_3_" gradientUnits="userSpaceOnUse" x1="2994.8806" y1="1490.972" x2="4299.4741" y2="1258.8657" gradientTransform="matrix(0.9995 -3.110000e-02 3.110000e-02 0.9995 -48.4726 93.4624)">
			<stop  offset="0" style="stop-color:#FFE1E3"/>
			<stop  offset="1" style="stop-color:#A3B7E9"/>
		</linearGradient>
		<path class="st4" d="M3142.6,2327c92.2-17.2,256.7-74.5,311.9-166.7c50.9-85.1-30.2-187.5,5.7-269.7s272.9-148.6,332.6-244.7
			c70.8-114-112.8-199.9-34.8-280c78.1-80,352.8-176.9,371.8-270.9c18.9-94-92.9-88.2-3.6-264.2c75.5-149,177-344.6,71.9-422.5
			c-112-83-237.8,72-302.1,192.3c-82.8,155-178.8-3.8-276.9,70c-88.7,66.7-66.3,418.3-133,490c-66.7,71.7-202.1,22.8-293.5,146.6
			s52.7,308.6,6.5,400.9c-46.2,92.3-188.3,61.2-254.5,192.3C2878.2,2031.6,3142.6,2327,3142.6,2327z"/>
		<g>
			<g>
				<linearGradient id="SVGID_4_" gradientUnits="userSpaceOnUse" x1="3952.4248" y1="1360.299" x2="4523.3872" y2="1429.5979">
					<stop  offset="0" style="stop-color:#A3B7E9"/>
					<stop  offset="1" style="stop-color:#8093D9"/>
				</linearGradient>
				<polygon class="st5" points="4284.3,1244.2 3975.5,1427.8 3988.3,1521 4053.8,1468.7 				"/>
				<linearGradient id="SVGID_5_" gradientUnits="userSpaceOnUse" x1="3913.7075" y1="1344.9475" x2="4403.3193" y2="1427.8049">
					<stop  offset="0" style="stop-color:#7A8ED7"/>
					<stop  offset="1" style="stop-color:#435AC1"/>
				</linearGradient>
				<polygon class="st6" points="4022.2,1451.3 3988.3,1521 4054.6,1468 4284.3,1244.2 				"/>
				<g>
					<polygon class="st1" points="3975.5,1427.8 3975.5,1427.8 4284.3,1244.2 3878,1378.7 					"/>
					<polygon class="st1" points="4022.2,1451.3 4154.6,1518 4284.3,1244.2 					"/>
				</g>
			</g>
			<g>
				<g>
					
						<linearGradient id="SVGID_6_" gradientUnits="userSpaceOnUse" x1="5850.1836" y1="1539.5094" x2="5315.1006" y2="1539.5094" gradientTransform="matrix(-1 0 0 1 9295.9658 0)">
						<stop  offset="0" style="stop-color:#A3B7E9"/>
						<stop  offset="0.9981" style="stop-color:#7A8ED7"/>
					</linearGradient>
					<path class="st7" d="M3973.5,1547.4c2.6-3.2,5-6.5,7.4-9.8l-8.4-6c-2.2,3.1-4.6,6.3-7.1,9.4L3973.5,1547.4z"/>
				</g>
				<g>
					
						<linearGradient id="SVGID_7_" gradientUnits="userSpaceOnUse" x1="5838.7285" y1="1648.9231" x2="5315.6245" y2="1648.9231" gradientTransform="matrix(-1 0 0 1 9295.9658 0)">
						<stop  offset="0" style="stop-color:#A3B7E9"/>
						<stop  offset="0.9981" style="stop-color:#7A8ED7"/>
					</linearGradient>
					<path class="st8" d="M3571.7,1737.6l1.1-10.2c8.1,0.9,16.1,1.1,23.6,0.7l0.6,10.3c-2.7,0.2-5.4,0.2-8.2,0.2
						C3583.2,1738.5,3577.5,1738.2,3571.7,1737.6z M3619.6,1724.4c7.6-2,14.9-4.7,21.8-8.3l4.7,9.2c-7.5,3.9-15.6,6.9-23.9,9.1
						L3619.6,1724.4z M3522.9,1726.1l3.4-9.7c7.8,2.7,15.5,5,23,6.8l-2.4,10C3539.1,1731.4,3531,1729,3522.9,1726.1z M3477.5,1705.6
						l5-9c7.1,3.9,14.4,7.5,21.6,10.8l-4.3,9.4C3492.4,1713.4,3484.9,1709.7,3477.5,1705.6z M3660.8,1703.3
						c6.1-5.1,11.2-10.9,15.3-17.1l8.6,5.7c-4.6,7-10.5,13.5-17.3,19.2L3660.8,1703.3z M3716.6,1672.8c3.5-0.1,7.1-0.3,10.6-0.6
						c4.4-0.4,8.8-0.9,13.3-1.5l1.4,10.2c-4.6,0.6-9.2,1.2-13.8,1.6c-3.7,0.3-7.5,0.5-11.2,0.7L3716.6,1672.8z M3667,1677.7l2.5-10
						c7.6,1.9,15.5,3.3,23.4,4.2l-1.1,10.2C3683.4,1681.2,3675,1679.7,3667,1677.7z M3764.1,1666.4c7.7-1.7,15.5-3.8,23.3-6.1l3,9.9
						c-8,2.4-16.1,4.6-24.1,6.3L3764.1,1666.4z M3620.5,1657.8l5.7-8.6c6.2,4.1,13.2,7.8,20.7,11l-4,9.5
						C3634.8,1666.3,3627.3,1662.2,3620.5,1657.8z M3685.5,1665.5c1.7-6.3,2.6-12.9,2.6-19.6c0-1,0-2.1-0.1-3.1l10.3-0.4
						c0,1.2,0.1,2.3,0.1,3.5c0,7.6-1,15.1-3,22.3L3685.5,1665.5z M3810.3,1652.4c7.4-2.8,14.9-6,22.3-9.3l4.3,9.4
						c-7.6,3.5-15.3,6.7-22.9,9.6L3810.3,1652.4z M3854.3,1632.3c7.1-3.8,14.1-7.9,20.9-12.1l5.4,8.8c-7,4.3-14.2,8.5-21.5,12.4
						L3854.3,1632.3z M3589,1616.8l10.1-1.8c1.2,6.4,4.5,12.9,9.8,19.2l-7.9,6.6C3594.5,1633,3590.5,1625,3589,1616.8z
						 M3673.8,1599.6l8.5-5.8c4.8,7.1,8.6,14.9,11.3,23.2l-9.8,3.2C3681.5,1612.8,3678.1,1605.9,3673.8,1599.6z M3895.3,1606.9
						c6.6-4.7,13-9.6,19.2-14.6l6.5,8c-6.4,5.2-13,10.2-19.8,15L3895.3,1606.9z M3594.1,1589.7c3.2-5.3,7.6-10.3,13.3-15
						c1.8-1.5,3.7-2.8,5.5-4l5.4,8.8c-1.5,0.9-3,2-4.4,3.2c-4.7,3.9-8.4,8-11,12.3L3594.1,1589.7z M3932.7,1576.4
						c5.9-5.5,11.7-11.3,17-17.1l7.6,7c-5.5,6-11.4,11.9-17.6,17.6L3932.7,1576.4z M3638.5,1574.8l1.1-10.2
						c8.4,0.9,17,4.5,24.8,10.3l-6.1,8.3C3652,1578.4,3645.1,1575.5,3638.5,1574.8z"/>
				</g>
				<g>
					
						<linearGradient id="SVGID_8_" gradientUnits="userSpaceOnUse" x1="5850.1328" y1="1685.1597" x2="5315.0625" y2="1685.1597" gradientTransform="matrix(-1 0 0 1 9295.9658 0)">
						<stop  offset="0" style="stop-color:#A3B7E9"/>
						<stop  offset="0.9981" style="stop-color:#7A8ED7"/>
					</linearGradient>
					<path class="st9" d="M3456,1692.8l5.6-8.6c-6.1-4-9.6-6.6-9.6-6.6l-6.2,8.3C3446,1685.9,3449.6,1688.6,3456,1692.8z"/>
				</g>
			</g>
		</g>
		<linearGradient id="SVGID_9_" gradientUnits="userSpaceOnUse" x1="2055.175" y1="1651.3243" x2="575.6545" y2="1174.7292">
			<stop  offset="0" style="stop-color:#FFE1E3"/>
			<stop  offset="1" style="stop-color:#A3B7E9"/>
		</linearGradient>
		<path class="st10" d="M445,1286.8c-94.1,375.2,673.7,583,670.3,656.9c-3.4,73.9-398.1,11-324.9,214
			c67.8,188.1,683.3,281.9,1142.1,86c13.3-5.7,352.4-551.8,128.6-885.8c-223.8-334-313.1,224.4-421.6,206.3
			c-108.5-18.2,153.4-698.7-64-853.5c-225.3-160.4-313.2,331.3-418.6,251.9c-99.9-75.3-129.8-779-415-697.6c-10.3,2.9-21,6.9-32,12
			l-0.1,0l0,0c-5.8,2.7-11.8,5.7-17.8,9c-332,182.6,263.6,943,121.3,966.6C671,1276.1,492.7,1096.6,445,1286.8z"/>
		
			<linearGradient id="SVGID_10_" gradientUnits="userSpaceOnUse" x1="825.8516" y1="741.6807" x2="1373.3589" y2="2013.4486" gradientTransform="matrix(0.979 -0.2039 0.2039 0.979 -335.7155 378.5717)">
			<stop  offset="0" style="stop-color:#FFE1E3"/>
			<stop  offset="1" style="stop-color:#A3B7E9"/>
		</linearGradient>
		<path class="st11" d="M1615.9,2292.6c0,0-279.8-634-546.1-980.8S575.7,878.4,575.7,878.4s129.9,153.3,235.8,369.3
			s168.9,453.1,308.1,657.5C1330.1,2214.5,1615.9,2292.6,1615.9,2292.6z"/>
		
			<linearGradient id="SVGID_11_" gradientUnits="userSpaceOnUse" x1="955.5714" y1="1761.0541" x2="1536.0267" y2="1845.366" gradientTransform="matrix(0.9811 -0.1933 0.1933 0.9811 -305.3779 315.2931)">
			<stop  offset="0" style="stop-color:#FFE1E3"/>
			<stop  offset="1" style="stop-color:#A3B7E9"/>
		</linearGradient>
		<path class="st12" d="M1518.2,2289c0,0-258.8-410.4-478.7-623.2s-386.7-249.5-386.7-249.5s105.7,92.9,201.2,231.6
			s163.4,296.4,280.8,423.7C1312.3,2264.2,1518.2,2289,1518.2,2289z"/>
		<g>
			<g>
				
					<linearGradient id="SVGID_12_" gradientUnits="userSpaceOnUse" x1="6824.939" y1="692.1352" x2="7131.6719" y2="692.1352" gradientTransform="matrix(-1 0 0 1 7804.3857 0)">
					<stop  offset="0" style="stop-color:#A3B7E9"/>
					<stop  offset="1" style="stop-color:#8093D9"/>
				</linearGradient>
				<polygon class="st13" points="598,554.7 904.8,737 892.1,829.6 827,777.7 				"/>
				
					<linearGradient id="SVGID_13_" gradientUnits="userSpaceOnUse" x1="6912.2925" y1="692.1352" x2="7206.3481" y2="692.1352" gradientTransform="matrix(-1 0 0 1 7804.3857 0)">
					<stop  offset="0" style="stop-color:#7A8ED7"/>
					<stop  offset="1" style="stop-color:#435AC1"/>
				</linearGradient>
				<polygon class="st14" points="858.4,760.4 892.1,829.6 826.2,776.9 598,554.7 				"/>
				<g>
					<polygon class="st1" points="904.8,737 904.8,737 598,554.7 1001.7,688.2 					"/>
					<polygon class="st1" points="858.4,760.4 726.9,826.6 598,554.7 					"/>
				</g>
			</g>
			<g>
				<g>
					
						<linearGradient id="SVGID_14_" gradientUnits="userSpaceOnUse" x1="2419.5527" y1="4070.9543" x2="1949.548" y2="4070.9543" gradientTransform="matrix(0.732 -0.6814 -0.6814 -0.732 2160.9326 5718.3003)">
						<stop  offset="0" style="stop-color:#A3B7E9"/>
						<stop  offset="0.9981" style="stop-color:#7A8ED7"/>
					</linearGradient>
					<path class="st15" d="M849.3,1364.4l1.6,12.5c5-0.6,10.1-1.5,15-2.5l-2.6-12.3C858.7,1363,854,1363.8,849.3,1364.4z"/>
				</g>
				<g>
					
						<linearGradient id="SVGID_15_" gradientUnits="userSpaceOnUse" x1="2419.2397" y1="4228.2007" x2="1949.5491" y2="4228.2007" gradientTransform="matrix(0.732 -0.6814 -0.6814 -0.732 2160.9326 5718.3003)">
						<stop  offset="0" style="stop-color:#A3B7E9"/>
						<stop  offset="0.9981" style="stop-color:#7A8ED7"/>
					</linearGradient>
					<path class="st16" d="M957.8,875c6.7,8.1,12.7,16.9,17.9,26.2l-11,6.1c-4.7-8.6-10.3-16.7-16.5-24.3L957.8,875z M988.4,930.3
						c3.3,10,5.7,20.4,7.1,30.9l-12.5,1.7c-1.3-9.7-3.5-19.3-6.6-28.6L988.4,930.3z M996.6,992.9c-0.6,10.3-2.1,20.9-4.6,31.3
						l-12.3-2.9c2.3-9.7,3.7-19.5,4.3-29.1L996.6,992.9z M982.4,1054.2c-3.9,9.5-8.5,19-13.9,28.2l-10.9-6.3
						c5-8.7,9.5-17.7,13.1-26.6L982.4,1054.2z M803,1217.8l7.5,10.1c-6.7,4.9-15.4,11.5-23.5,18.7l-8.4-9.4
						C787.2,1229.7,796.1,1222.9,803,1217.8z M766.9,1267.9c-6.4,8.5-10.4,16.6-12.4,24.9l-12.3-2.9c2.4-9.8,7.3-19.8,14.6-29.5
						L766.9,1267.9z M833.1,1195.8c6.5-4.7,12.9-9.3,19.3-14.1l7.5,10.2c-6.5,4.7-12.9,9.4-19.4,14.1l-5.4,3.9l-7.4-10.2
						L833.1,1195.8z M951.1,1108.4c-4.7,6.1-9.7,12.1-14.9,17.9c-1.8,2-3.6,3.9-5.5,5.9l-9.1-8.7c1.8-1.8,3.5-3.7,5.3-5.6
						c5-5.5,9.8-11.2,14.2-17L951.1,1108.4z M899.9,1144.2l8.3,9.5c-7.2,6.4-15,12.8-23.8,19.7l-7.8-9.9
						C885.3,1156.7,892.9,1150.4,899.9,1144.2z M755.6,1319.5c0.4,1.4,0.9,2.8,1.5,4.2c3,7.5,7.1,14.1,12.2,19.6l0.1,0.1l-9.3,8.5
						c-6.2-6.7-11.1-14.6-14.7-23.5c-0.7-1.7-1.3-3.4-1.8-5.1L755.6,1319.5z M820.1,1365.1l-1.1,12.6c-11.5-1-22.2-3.4-31.5-7.2
						l4.7-11.7C800.5,1362.1,809.8,1364.3,820.1,1365.1z"/>
				</g>
				<g>
					
						<linearGradient id="SVGID_16_" gradientUnits="userSpaceOnUse" x1="2419.5178" y1="4403.0273" x2="1949.5227" y2="4403.0273" gradientTransform="matrix(0.732 -0.6814 -0.6814 -0.732 2160.9326 5718.3003)">
						<stop  offset="0" style="stop-color:#A3B7E9"/>
						<stop  offset="0.9981" style="stop-color:#7A8ED7"/>
					</linearGradient>
					<path class="st17" d="M923.2,843.3l-7.3,10.3c3.9,2.8,7.7,5.7,11.3,8.7l8.1-9.7C931.5,849.4,927.4,846.3,923.2,843.3z"/>
				</g>
			</g>
		</g>
		<g>
			<g>
				<path class="st1" d="M1428.6,336.8l-195.1-77.9c-10.6-4.2-22.6,0.9-26.9,11.5l-51.9,130c-4.2,10.6,0.9,22.6,11.5,26.9l60.3,24.1
					l21.6,53.9l52.8-24.2l60.3,24.1c10.6,4.2,22.6-0.9,26.9-11.5l51.9-130C1444.4,353,1439.2,341,1428.6,336.8z"/>
				<g>
					
						<linearGradient id="SVGID_17_" gradientUnits="userSpaceOnUse" x1="988.7129" y1="1165.6108" x2="1100.3373" y2="1165.6108" gradientTransform="matrix(0.9287 0.3707 -0.3707 0.9287 757.8377 -1083.5427)">
						<stop  offset="0" style="stop-color:#FD948E"/>
						<stop  offset="1" style="stop-color:#F67C77"/>
					</linearGradient>
					<path class="st18" d="M1348.2,355.6c-0.2-0.2-0.5-0.5-0.8-0.7h0c-11.8-10.2-30.6-5.8-41.5,5.9c0.1-16-10.5-32.2-26-32.9h0
						c-0.3,0-0.7,0-1,0c-19.1-0.2-33.7,19.4-29.2,38.6c5,21.4,27.9,65.4,27.9,65.4s46.9-16.1,65.3-28.2
						C1359.3,392.9,1362.2,368.7,1348.2,355.6z"/>
				</g>
			</g>
		</g>
		<g>
			<g>
				<path class="st1" d="M3702.3,1159.9l-191-41.4c-10.4-2.3-20.6,4.3-22.9,14.7l-27.6,127.3c-2.3,10.4,4.3,20.6,14.7,22.9l59,12.8
					l28.2,46.2l44.7-30.4l59,12.8c10.4,2.3,20.6-4.3,22.9-14.7l27.6-127.3C3719.3,1172.4,3712.7,1162.2,3702.3,1159.9z"/>
				
					<linearGradient id="SVGID_18_" gradientUnits="userSpaceOnUse" x1="5320.4746" y1="456.7987" x2="5415.5894" y2="456.7987" gradientTransform="matrix(0.9773 0.2117 -0.2117 0.9773 -1560.0764 -372.6368)">
					<stop  offset="0" style="stop-color:#7A8ED7"/>
					<stop  offset="1" style="stop-color:#435AC1"/>
				</linearGradient>
				<path class="st19" d="M3633.5,1231.4c0.6-2.7-0.2-5.4-2-7.4c1.1-1.1,2-2.5,2.3-4.2l0.5-2.1c1-4.5-1.9-9-6.5-10l-31.4-6.8
					c1.3-2.2,3.3-5.8,4-7.3c7.6-16.3,3.1-29.9-1.1-31.5c-4.3-1.6-13.4,25.6-32.9,37.8l-22.4-4.8l-10.7,49.5l24.5,5.3
					c1,2.5,3.2,4.4,6,5.1l49.3,10.7c4.5,1,9-1.9,10-6.5l0.5-2.1c0.3-1.5,0.2-2.9-0.2-4.3c2.8-0.9,5-3.2,5.6-6.2l0.5-2.1
					c0.4-1.9,0.1-3.7-0.6-5.4c1.7-1,3.1-2.5,3.8-4.4c0.1-0.1,0.1-0.3,0.2-0.4c0-0.1,0-0.2,0-0.3c0-0.1,0.1-0.3,0.1-0.4
					L3633.5,1231.4z"/>
			</g>
		</g>
		<g>
			<path class="st1" d="M3447.6,174.1l-171.8,36.6c-9.3,2-15.3,11.2-13.3,20.5l24.4,114.5c2,9.3,11.2,15.3,20.5,13.3l53.1-11.3
				l40.1,27.4l25.4-41.4l53.1-11.3c9.3-2,15.3-11.2,13.3-20.5l-24.4-114.5C3466.2,178.1,3457,172.1,3447.6,174.1z"/>
			<g>
				<g>
					
						<linearGradient id="SVGID_19_" gradientUnits="userSpaceOnUse" x1="3800.5483" y1="2512.395" x2="3922.9202" y2="2512.395" gradientTransform="matrix(0.9648 0.263 -0.263 0.9648 315.9646 -3149.6704)">
						<stop  offset="0" style="stop-color:#FFC0C1"/>
						<stop  offset="1" style="stop-color:#FD948E"/>
					</linearGradient>
					<path class="st20" d="M3321.8,280c-1.7-8.2,2.6-15.1,10.3-16.7c7.7-1.6,14.2,3,16,11.1c1.7,7.9-2.1,15-10.3,16.7
						C3330.1,292.7,3323.5,287.9,3321.8,280z"/>
					
						<linearGradient id="SVGID_20_" gradientUnits="userSpaceOnUse" x1="3794.1089" y1="2490.998" x2="3916.4802" y2="2490.998" gradientTransform="matrix(0.9648 0.263 -0.263 0.9648 315.9646 -3149.6704)">
						<stop  offset="0" style="stop-color:#FFC0C1"/>
						<stop  offset="1" style="stop-color:#FD948E"/>
					</linearGradient>
					<path class="st21" d="M3367.5,270.2c-1.7-8.2,2.6-15.1,10.3-16.7c7.7-1.6,14.2,3,16,11.1c1.7,7.9-2.1,15-10.3,16.7
						C3375.7,283,3369.2,278.2,3367.5,270.2z"/>
					
						<linearGradient id="SVGID_21_" gradientUnits="userSpaceOnUse" x1="3787.6689" y1="2469.6011" x2="3910.0408" y2="2469.6011" gradientTransform="matrix(0.9648 0.263 -0.263 0.9648 315.9646 -3149.6704)">
						<stop  offset="0" style="stop-color:#FFC0C1"/>
						<stop  offset="1" style="stop-color:#FD948E"/>
					</linearGradient>
					<path class="st22" d="M3413.2,260.5c-1.7-8.2,2.6-15.1,10.3-16.7s14.2,3,16,11.1c1.7,7.9-2.1,15-10.3,16.7
						C3421.4,273.3,3414.8,268.5,3413.2,260.5z"/>
				</g>
			</g>
		</g>
		<g>
			<linearGradient id="SVGID_22_" gradientUnits="userSpaceOnUse" x1="1282.2629" y1="813.1974" x2="1062.0372" y2="813.1974">
				<stop  offset="0" style="stop-color:#FFC1C2"/>
				<stop  offset="1" style="stop-color:#FE958F"/>
			</linearGradient>
			<circle class="st23" cx="1147.2" cy="813.2" r="89.9"/>
			<circle class="st24" cx="1113.1" cy="808.3" r="9.3"/>
			<circle class="st24" cx="1181.3" cy="808.3" r="9.3"/>
			<path class="st24" d="M1147.2,857.4c-12.4,0-23.9-4-33.1-10.9c-1.6-1.2-3.7,0.4-3.1,2.2c4.8,15.4,19.2,26.7,36.3,26.7
				s31.5-11.2,36.3-26.7c0.6-1.9-1.6-3.4-3.1-2.2C1171.1,853.4,1159.6,857.4,1147.2,857.4z"/>
		</g>
		<g>
			<linearGradient id="SVGID_23_" gradientUnits="userSpaceOnUse" x1="4240.1797" y1="992.1479" x2="4019.9539" y2="992.1479">
				<stop  offset="0" style="stop-color:#FFC1C2"/>
				<stop  offset="1" style="stop-color:#FE958F"/>
			</linearGradient>
			<circle class="st25" cx="4105.1" cy="992.1" r="89.9"/>
			<circle class="st24" cx="4071.1" cy="987.3" r="9.3"/>
			<circle class="st24" cx="4139.2" cy="987.3" r="9.3"/>
			<path class="st24" d="M4105.1,1036.4c-12.4,0-23.9-4-33.1-10.9c-1.6-1.2-3.7,0.4-3.1,2.2c4.8,15.4,19.2,26.7,36.3,26.7
				s31.5-11.2,36.3-26.7c0.6-1.9-1.6-3.4-3.1-2.2C4129,1032.3,4117.5,1036.4,4105.1,1036.4z"/>
		</g>
		<g>
			<path class="st1" d="M1158,1142.4L950.9,1205c-11.3,3.4-17.6,15.3-14.2,26.6l41.7,138c3.4,11.3,15.3,17.6,26.6,14.2l64-19.4
				l52.1,29.5l27-53.4l64-19.4c11.3-3.4,17.6-15.3,14.2-26.6l-41.7-138C1181.1,1145.3,1169.2,1139,1158,1142.4z"/>
			<g>
				<g>
					
						<linearGradient id="SVGID_24_" gradientUnits="userSpaceOnUse" x1="2218.1504" y1="4386.7524" x2="2368.8733" y2="4386.7524" gradientTransform="matrix(0.9835 0.1811 -0.1811 0.9835 -372.5663 -3438.481)">
						<stop  offset="0" style="stop-color:#FFC0C1"/>
						<stop  offset="1" style="stop-color:#FD948E"/>
					</linearGradient>
					<path class="st26" d="M1014.5,1285.3c-3-9.8,1.6-18.8,10.9-21.6s17.8,2.2,20.8,12c2.9,9.6-1,18.6-10.9,21.6
						C1025.9,1300.1,1017.4,1294.9,1014.5,1285.3z"/>
					
						<linearGradient id="SVGID_25_" gradientUnits="userSpaceOnUse" x1="2210.2188" y1="4360.3984" x2="2360.9417" y2="4360.3984" gradientTransform="matrix(0.9835 0.1811 -0.1811 0.9835 -372.5663 -3438.481)">
						<stop  offset="0" style="stop-color:#FFC0C1"/>
						<stop  offset="1" style="stop-color:#FD948E"/>
					</linearGradient>
					<path class="st27" d="M1069.5,1268.6c-3-9.8,1.6-18.8,10.9-21.6s17.8,2.2,20.8,12c2.9,9.6-1,18.6-10.9,21.6
						C1081,1283.5,1072.4,1278.2,1069.5,1268.6z"/>
					
						<linearGradient id="SVGID_26_" gradientUnits="userSpaceOnUse" x1="2202.2874" y1="4334.0439" x2="2353.01" y2="4334.0439" gradientTransform="matrix(0.9835 0.1811 -0.1811 0.9835 -372.5663 -3438.481)">
						<stop  offset="0" style="stop-color:#FFC0C1"/>
						<stop  offset="1" style="stop-color:#FD948E"/>
					</linearGradient>
					<path class="st28" d="M1124.6,1252c-3-9.8,1.6-18.8,10.9-21.6s17.8,2.2,20.8,12c2.9,9.6-1,18.6-10.9,21.6
						C1136,1266.8,1127.5,1261.5,1124.6,1252z"/>
				</g>
			</g>
		</g>
		<g>
			<linearGradient id="SVGID_27_" gradientUnits="userSpaceOnUse" x1="2312.3394" y1="1216.4636" x2="2539.7861" y2="1216.4636">
				<stop  offset="0" style="stop-color:#A3B7E9"/>
				<stop  offset="1" style="stop-color:#8093D9"/>
			</linearGradient>
			<circle class="st29" cx="2426.1" cy="1216.5" r="113.7"/>
			<path class="st24" d="M2382.9,1211c4,0,7.9,0.8,11.4,2.1c0.2-0.9,0.3-1.8,0.3-2.8c0-6.5-5.3-11.8-11.8-11.8s-11.8,5.3-11.8,11.8
				c0,1,0.1,1.9,0.3,2.8C2375,1211.7,2378.9,1211,2382.9,1211z"/>
			<path class="st24" d="M2469.2,1211c4,0,7.9,0.8,11.4,2.1c0.2-0.9,0.3-1.8,0.3-2.8c0-6.5-5.3-11.8-11.8-11.8s-11.8,5.3-11.8,11.8
				c0,1,0.1,1.9,0.3,2.8C2461.3,1211.7,2465.2,1211,2469.2,1211z"/>
			<path class="st24" d="M2426.1,1265.9c-13,0-25.4-2.8-36.6-7.7c-2-0.9-4.2,0.8-3.9,2.9c2.5,20.1,19.7,35.7,40.5,35.7
				s38-15.6,40.5-35.7c0.3-2.1-2-3.8-3.9-2.9C2451.5,1263.2,2439.1,1265.9,2426.1,1265.9z"/>
		</g>
		<g>
			<g>
				<linearGradient id="SVGID_28_" gradientUnits="userSpaceOnUse" x1="3365.97" y1="705.9628" x2="3905.5127" y2="705.9628">
					<stop  offset="0" style="stop-color:#7A8ED7"/>
					<stop  offset="1" style="stop-color:#435AC1"/>
				</linearGradient>
				<path class="st30" d="M3886.2,491.4h-500.9c-10.7,0-19.3,8.6-19.3,19.3v390.5c0,10.7,8.6,19.3,19.3,19.3h500.9
					c10.7,0,19.3-8.6,19.3-19.3V510.7C3905.5,500.1,3896.9,491.4,3886.2,491.4z"/>
				<linearGradient id="SVGID_29_" gradientUnits="userSpaceOnUse" x1="3405.2026" y1="731.8646" x2="3866.2798" y2="731.8646">
					<stop  offset="0" style="stop-color:#FFFFFF"/>
					<stop  offset="1" style="stop-color:#E6EBF8"/>
				</linearGradient>
				<path class="st31" d="M3849.6,574.4h-427.7c-9.2,0-16.7,7.5-16.7,16.7v281.5c0,9.2,7.5,16.7,16.7,16.7h427.7
					c9.2,0,16.7-7.5,16.7-16.7V591.1C3866.3,581.9,3858.8,574.4,3849.6,574.4z"/>
				<linearGradient id="SVGID_30_" gradientUnits="userSpaceOnUse" x1="3437.4893" y1="656.1962" x2="3823.6526" y2="656.1962">
					<stop  offset="0" style="stop-color:#FFE1E3"/>
					<stop  offset="1" style="stop-color:#A3B7E9"/>
				</linearGradient>
				<rect x="3614.7" y="639.9" class="st32" width="42.2" height="32.7"/>
				<linearGradient id="SVGID_31_" gradientUnits="userSpaceOnUse" x1="3437.489" y1="656.1962" x2="3823.6523" y2="656.1962">
					<stop  offset="0" style="stop-color:#FFE1E3"/>
					<stop  offset="1" style="stop-color:#A3B7E9"/>
				</linearGradient>
				<rect x="3673.4" y="639.9" class="st33" width="42.2" height="32.7"/>
				<linearGradient id="SVGID_32_" gradientUnits="userSpaceOnUse" x1="3437.4893" y1="656.1962" x2="3823.6526" y2="656.1962">
					<stop  offset="0" style="stop-color:#FFE1E3"/>
					<stop  offset="1" style="stop-color:#A3B7E9"/>
				</linearGradient>
				<rect x="3732.1" y="639.9" class="st34" width="42.2" height="32.7"/>
				<linearGradient id="SVGID_33_" gradientUnits="userSpaceOnUse" x1="3437.489" y1="656.1962" x2="3823.6523" y2="656.1962">
					<stop  offset="0" style="stop-color:#FFE1E3"/>
					<stop  offset="1" style="stop-color:#A3B7E9"/>
				</linearGradient>
				<rect x="3790.9" y="639.9" class="st35" width="42.2" height="32.7"/>
				<linearGradient id="SVGID_34_" gradientUnits="userSpaceOnUse" x1="3437.489" y1="704.1364" x2="3823.6523" y2="704.1364">
					<stop  offset="0" style="stop-color:#FFE1E3"/>
					<stop  offset="1" style="stop-color:#A3B7E9"/>
				</linearGradient>
				<rect x="3438.4" y="687.8" class="st36" width="42.2" height="32.7"/>
				<linearGradient id="SVGID_35_" gradientUnits="userSpaceOnUse" x1="3437.4888" y1="704.1364" x2="3823.6521" y2="704.1364">
					<stop  offset="0" style="stop-color:#FFE1E3"/>
					<stop  offset="1" style="stop-color:#A3B7E9"/>
				</linearGradient>
				<rect x="3497.2" y="687.8" class="st37" width="42.2" height="32.7"/>
				<linearGradient id="SVGID_36_" gradientUnits="userSpaceOnUse" x1="3437.489" y1="704.1364" x2="3823.6523" y2="704.1364">
					<stop  offset="0" style="stop-color:#FFE1E3"/>
					<stop  offset="1" style="stop-color:#A3B7E9"/>
				</linearGradient>
				<rect x="3555.9" y="687.8" class="st38" width="42.2" height="32.7"/>
				<linearGradient id="SVGID_37_" gradientUnits="userSpaceOnUse" x1="3437.489" y1="656.1962" x2="3823.6523" y2="656.1962">
					<stop  offset="0" style="stop-color:#FFE1E3"/>
					<stop  offset="1" style="stop-color:#A3B7E9"/>
				</linearGradient>
				<rect x="3555.9" y="639.9" class="st39" width="42.2" height="32.7"/>
				<linearGradient id="SVGID_38_" gradientUnits="userSpaceOnUse" x1="3437.4893" y1="704.1364" x2="3823.6526" y2="704.1364">
					<stop  offset="0" style="stop-color:#FFE1E3"/>
					<stop  offset="1" style="stop-color:#A3B7E9"/>
				</linearGradient>
				<rect x="3614.7" y="687.8" class="st40" width="42.2" height="32.7"/>
				<linearGradient id="SVGID_39_" gradientUnits="userSpaceOnUse" x1="3437.489" y1="704.1364" x2="3823.6523" y2="704.1364">
					<stop  offset="0" style="stop-color:#FFE1E3"/>
					<stop  offset="1" style="stop-color:#A3B7E9"/>
				</linearGradient>
				<rect x="3673.4" y="687.8" class="st41" width="42.2" height="32.7"/>
				<linearGradient id="SVGID_40_" gradientUnits="userSpaceOnUse" x1="3437.4893" y1="704.1364" x2="3823.6526" y2="704.1364">
					<stop  offset="0" style="stop-color:#FFE1E3"/>
					<stop  offset="1" style="stop-color:#A3B7E9"/>
				</linearGradient>
				<rect x="3732.1" y="687.8" class="st42" width="42.2" height="32.7"/>
				<linearGradient id="SVGID_41_" gradientUnits="userSpaceOnUse" x1="3437.489" y1="704.1364" x2="3823.6523" y2="704.1364">
					<stop  offset="0" style="stop-color:#FFE1E3"/>
					<stop  offset="1" style="stop-color:#A3B7E9"/>
				</linearGradient>
				<rect x="3790.9" y="687.8" class="st43" width="42.2" height="32.7"/>
				<linearGradient id="SVGID_42_" gradientUnits="userSpaceOnUse" x1="3441.8813" y1="610.7539" x2="3780.8699" y2="610.7539">
					<stop  offset="0" style="stop-color:#FFE1E3"/>
					<stop  offset="1" style="stop-color:#A3B7E9"/>
				</linearGradient>
				<rect x="3441.4" y="602.8" class="st44" width="36.3" height="16"/>
				<linearGradient id="SVGID_43_" gradientUnits="userSpaceOnUse" x1="3450.093" y1="610.7539" x2="3789.0815" y2="610.7539">
					<stop  offset="0" style="stop-color:#FFE1E3"/>
					<stop  offset="1" style="stop-color:#A3B7E9"/>
				</linearGradient>
				<rect x="3500.1" y="602.8" class="st45" width="36.3" height="16"/>
				<linearGradient id="SVGID_44_" gradientUnits="userSpaceOnUse" x1="3458.3047" y1="610.7539" x2="3797.2935" y2="610.7539">
					<stop  offset="0" style="stop-color:#FFE1E3"/>
					<stop  offset="1" style="stop-color:#A3B7E9"/>
				</linearGradient>
				<rect x="3558.9" y="602.8" class="st46" width="36.3" height="16"/>
				<linearGradient id="SVGID_45_" gradientUnits="userSpaceOnUse" x1="3466.5161" y1="610.7539" x2="3805.5049" y2="610.7539">
					<stop  offset="0" style="stop-color:#FFE1E3"/>
					<stop  offset="1" style="stop-color:#A3B7E9"/>
				</linearGradient>
				<rect x="3617.6" y="602.8" class="st47" width="36.3" height="16"/>
				<linearGradient id="SVGID_46_" gradientUnits="userSpaceOnUse" x1="3626.4099" y1="497.3083" x2="3645.0725" y2="497.3083">
					<stop  offset="0" style="stop-color:#FCDFE1"/>
					<stop  offset="1" style="stop-color:#FCBEBF"/>
				</linearGradient>
				<path class="st48" d="M3638.9,464h-6.3c-3.4,0-6.2,2.8-6.2,6.2v54.3c0,3.4,2.8,6.2,6.2,6.2h6.3c3.4,0,6.2-2.8,6.2-6.2v-54.3
					C3645.1,466.7,3642.3,464,3638.9,464z"/>
				<linearGradient id="SVGID_47_" gradientUnits="userSpaceOnUse" x1="3730.8699" y1="497.3083" x2="3749.5322" y2="497.3083">
					<stop  offset="0" style="stop-color:#FCDFE1"/>
					<stop  offset="1" style="stop-color:#FCBEBF"/>
				</linearGradient>
				<path class="st49" d="M3743.4,464h-6.3c-3.4,0-6.2,2.8-6.2,6.2v54.3c0,3.4,2.8,6.2,6.2,6.2h6.3c3.4,0,6.2-2.8,6.2-6.2v-54.3
					C3749.5,466.7,3746.8,464,3743.4,464z"/>
				<linearGradient id="SVGID_48_" gradientUnits="userSpaceOnUse" x1="3835.3296" y1="497.3083" x2="3853.9919" y2="497.3083">
					<stop  offset="0" style="stop-color:#FCDFE1"/>
					<stop  offset="1" style="stop-color:#FCBEBF"/>
				</linearGradient>
				<path class="st50" d="M3847.8,464h-6.3c-3.4,0-6.2,2.8-6.2,6.2v54.3c0,3.4,2.8,6.2,6.2,6.2h6.3c3.4,0,6.2-2.8,6.2-6.2v-54.3
					C3854,466.7,3851.2,464,3847.8,464z"/>
				<linearGradient id="SVGID_49_" gradientUnits="userSpaceOnUse" x1="3521.9502" y1="497.3083" x2="3540.6128" y2="497.3083">
					<stop  offset="0" style="stop-color:#FCDFE1"/>
					<stop  offset="1" style="stop-color:#FCBEBF"/>
				</linearGradient>
				<path class="st51" d="M3534.4,464h-6.3c-3.4,0-6.2,2.8-6.2,6.2v54.3c0,3.4,2.8,6.2,6.2,6.2h6.3c3.4,0,6.2-2.8,6.2-6.2v-54.3
					C3540.6,466.7,3537.9,464,3534.4,464z"/>
				<linearGradient id="SVGID_50_" gradientUnits="userSpaceOnUse" x1="3417.4905" y1="497.3083" x2="3436.1531" y2="497.3083">
					<stop  offset="0" style="stop-color:#FCDFE1"/>
					<stop  offset="1" style="stop-color:#FCBEBF"/>
				</linearGradient>
				<path class="st52" d="M3430,464h-6.3c-3.4,0-6.2,2.8-6.2,6.2v54.3c0,3.4,2.8,6.2,6.2,6.2h6.3c3.4,0,6.2-2.8,6.2-6.2v-54.3
					C3436.2,466.7,3433.4,464,3430,464z"/>
				<linearGradient id="SVGID_51_" gradientUnits="userSpaceOnUse" x1="3474.728" y1="610.7539" x2="3813.7168" y2="610.7539">
					<stop  offset="0" style="stop-color:#FFE1E3"/>
					<stop  offset="1" style="stop-color:#A3B7E9"/>
				</linearGradient>
				<rect x="3676.3" y="602.8" class="st53" width="36.3" height="16"/>
				<linearGradient id="SVGID_52_" gradientUnits="userSpaceOnUse" x1="3482.9395" y1="610.7539" x2="3821.9282" y2="610.7539">
					<stop  offset="0" style="stop-color:#FFE1E3"/>
					<stop  offset="1" style="stop-color:#A3B7E9"/>
				</linearGradient>
				<rect x="3735.1" y="602.8" class="st54" width="36.3" height="16"/>
				<linearGradient id="SVGID_53_" gradientUnits="userSpaceOnUse" x1="3491.1514" y1="610.7539" x2="3830.1399" y2="610.7539">
					<stop  offset="0" style="stop-color:#FFE1E3"/>
					<stop  offset="1" style="stop-color:#A3B7E9"/>
				</linearGradient>
				<rect x="3793.8" y="602.8" class="st55" width="36.3" height="16"/>
				<linearGradient id="SVGID_54_" gradientUnits="userSpaceOnUse" x1="3437.489" y1="752.0765" x2="3823.6523" y2="752.0765">
					<stop  offset="0" style="stop-color:#FFE1E3"/>
					<stop  offset="1" style="stop-color:#A3B7E9"/>
				</linearGradient>
				<rect x="3438.4" y="735.7" class="st56" width="42.2" height="32.7"/>
				<linearGradient id="SVGID_55_" gradientUnits="userSpaceOnUse" x1="3437.4888" y1="752.0765" x2="3823.6521" y2="752.0765">
					<stop  offset="0" style="stop-color:#FFE1E3"/>
					<stop  offset="1" style="stop-color:#A3B7E9"/>
				</linearGradient>
				<rect x="3497.2" y="735.7" class="st57" width="42.2" height="32.7"/>
				<linearGradient id="SVGID_56_" gradientUnits="userSpaceOnUse" x1="3437.489" y1="752.0765" x2="3823.6523" y2="752.0765">
					<stop  offset="0" style="stop-color:#FFE1E3"/>
					<stop  offset="1" style="stop-color:#A3B7E9"/>
				</linearGradient>
				<rect x="3555.9" y="735.7" class="st58" width="42.2" height="32.7"/>
				<linearGradient id="SVGID_57_" gradientUnits="userSpaceOnUse" x1="3437.4893" y1="752.0765" x2="3823.6526" y2="752.0765">
					<stop  offset="0" style="stop-color:#FFE1E3"/>
					<stop  offset="1" style="stop-color:#A3B7E9"/>
				</linearGradient>
				<rect x="3614.7" y="735.7" class="st59" width="42.2" height="32.7"/>
				<linearGradient id="SVGID_58_" gradientUnits="userSpaceOnUse" x1="3437.489" y1="752.0765" x2="3823.6523" y2="752.0765">
					<stop  offset="0" style="stop-color:#FFE1E3"/>
					<stop  offset="1" style="stop-color:#A3B7E9"/>
				</linearGradient>
				<rect x="3673.4" y="735.7" class="st60" width="42.2" height="32.7"/>
				<linearGradient id="SVGID_59_" gradientUnits="userSpaceOnUse" x1="3437.4893" y1="752.0765" x2="3823.6526" y2="752.0765">
					<stop  offset="0" style="stop-color:#FFE1E3"/>
					<stop  offset="1" style="stop-color:#A3B7E9"/>
				</linearGradient>
				<rect x="3732.1" y="735.7" class="st61" width="42.2" height="32.7"/>
				<linearGradient id="SVGID_60_" gradientUnits="userSpaceOnUse" x1="3437.489" y1="752.0765" x2="3823.6523" y2="752.0765">
					<stop  offset="0" style="stop-color:#FFE1E3"/>
					<stop  offset="1" style="stop-color:#A3B7E9"/>
				</linearGradient>
				<rect x="3790.9" y="735.7" class="st62" width="42.2" height="32.7"/>
				<linearGradient id="SVGID_61_" gradientUnits="userSpaceOnUse" x1="3437.489" y1="800.0165" x2="3823.6523" y2="800.0165">
					<stop  offset="0" style="stop-color:#FFE1E3"/>
					<stop  offset="1" style="stop-color:#A3B7E9"/>
				</linearGradient>
				<rect x="3438.4" y="783.7" class="st63" width="42.2" height="32.7"/>
				<linearGradient id="SVGID_62_" gradientUnits="userSpaceOnUse" x1="3437.4888" y1="800.0165" x2="3823.6521" y2="800.0165">
					<stop  offset="0" style="stop-color:#FFE1E3"/>
					<stop  offset="1" style="stop-color:#A3B7E9"/>
				</linearGradient>
				<rect x="3497.2" y="783.7" class="st64" width="42.2" height="32.7"/>
				<linearGradient id="SVGID_63_" gradientUnits="userSpaceOnUse" x1="3437.489" y1="800.0165" x2="3823.6523" y2="800.0165">
					<stop  offset="0" style="stop-color:#FFE1E3"/>
					<stop  offset="1" style="stop-color:#A3B7E9"/>
				</linearGradient>
				<rect x="3555.9" y="783.7" class="st65" width="42.2" height="32.7"/>
				<linearGradient id="SVGID_64_" gradientUnits="userSpaceOnUse" x1="3437.4893" y1="800.0165" x2="3823.6526" y2="800.0165">
					<stop  offset="0" style="stop-color:#FFE1E3"/>
					<stop  offset="1" style="stop-color:#A3B7E9"/>
				</linearGradient>
				<rect x="3614.7" y="783.7" class="st66" width="42.2" height="32.7"/>
				<linearGradient id="SVGID_65_" gradientUnits="userSpaceOnUse" x1="3437.489" y1="800.0165" x2="3823.6523" y2="800.0165">
					<stop  offset="0" style="stop-color:#FFE1E3"/>
					<stop  offset="1" style="stop-color:#A3B7E9"/>
				</linearGradient>
				<rect x="3673.4" y="783.7" class="st67" width="42.2" height="32.7"/>
				<linearGradient id="SVGID_66_" gradientUnits="userSpaceOnUse" x1="3437.4893" y1="800.0165" x2="3823.6526" y2="800.0165">
					<stop  offset="0" style="stop-color:#FFE1E3"/>
					<stop  offset="1" style="stop-color:#A3B7E9"/>
				</linearGradient>
				<rect x="3732.1" y="783.7" class="st68" width="42.2" height="32.7"/>
				<linearGradient id="SVGID_67_" gradientUnits="userSpaceOnUse" x1="3437.489" y1="800.0165" x2="3823.6523" y2="800.0165">
					<stop  offset="0" style="stop-color:#FFE1E3"/>
					<stop  offset="1" style="stop-color:#A3B7E9"/>
				</linearGradient>
				<rect x="3790.9" y="783.7" class="st69" width="42.2" height="32.7"/>
				<linearGradient id="SVGID_68_" gradientUnits="userSpaceOnUse" x1="3437.489" y1="847.9567" x2="3823.6523" y2="847.9567">
					<stop  offset="0" style="stop-color:#FFE1E3"/>
					<stop  offset="1" style="stop-color:#A3B7E9"/>
				</linearGradient>
				<rect x="3438.4" y="831.6" class="st70" width="42.2" height="32.7"/>
				<linearGradient id="SVGID_69_" gradientUnits="userSpaceOnUse" x1="3437.4888" y1="847.9567" x2="3823.6521" y2="847.9567">
					<stop  offset="0" style="stop-color:#FFE1E3"/>
					<stop  offset="1" style="stop-color:#A3B7E9"/>
				</linearGradient>
				<rect x="3497.2" y="831.6" class="st71" width="42.2" height="32.7"/>
				<linearGradient id="SVGID_70_" gradientUnits="userSpaceOnUse" x1="3437.489" y1="847.9567" x2="3823.6523" y2="847.9567">
					<stop  offset="0" style="stop-color:#FFE1E3"/>
					<stop  offset="1" style="stop-color:#A3B7E9"/>
				</linearGradient>
				<rect x="3555.9" y="831.6" class="st72" width="42.2" height="32.7"/>
				<linearGradient id="SVGID_71_" gradientUnits="userSpaceOnUse" x1="3437.4893" y1="847.9567" x2="3823.6526" y2="847.9567">
					<stop  offset="0" style="stop-color:#FFE1E3"/>
					<stop  offset="1" style="stop-color:#A3B7E9"/>
				</linearGradient>
				<rect x="3614.7" y="831.6" class="st73" width="42.2" height="32.7"/>
				<linearGradient id="SVGID_72_" gradientUnits="userSpaceOnUse" x1="3437.489" y1="847.9567" x2="3823.6523" y2="847.9567">
					<stop  offset="0" style="stop-color:#FFE1E3"/>
					<stop  offset="1" style="stop-color:#A3B7E9"/>
				</linearGradient>
				<rect x="3673.4" y="831.6" class="st74" width="42.2" height="32.7"/>
			</g>
			<linearGradient id="SVGID_73_" gradientUnits="userSpaceOnUse" x1="3663.5671" y1="752.0764" x2="3725.4177" y2="752.0764">
				<stop  offset="0" style="stop-color:#FD948E"/>
				<stop  offset="1" style="stop-color:#F67C77"/>
			</linearGradient>
			<path class="st75" d="M3694,736.6c-3.2-0.4-6.5-0.3-9.5,0.2c-3.1,0.5-6,1.6-8.3,3.3c-2.3,1.7-4,4-4.9,6.7c-1,2.7-1.1,5.8-0.8,8.9
				c0.3,3.1,1.2,6,2.7,8.4c1.5,2.5,3.6,4.4,6.2,5.9c5.1,2.9,11.7,3.4,17.9,2.2c6.1-1.2,12-4.2,16.1-8.7c2-2.2,3.6-4.8,4.5-7.7
				c0.9-2.8,1.2-5.9,0.7-8.8c-0.4-2.9-1.6-5.7-3.3-8.2c-1.7-2.5-4.1-4.5-6.8-6.1c-2.7-1.6-5.8-2.7-8.9-3.4c-3.2-0.7-6.5-1-9.9-1l0,0
				c-1,0-1.9-0.9-1.9-1.9c0-1,0.8-1.8,1.7-1.9c3.6-0.4,7.2-0.3,10.9,0.2c1.8,0.3,3.7,0.6,5.5,1.1c1.8,0.5,3.6,1.2,5.3,2.1
				c3.4,1.7,6.6,4.2,9,7.3c2.5,3.1,4.1,6.8,4.9,10.8c0.7,3.9,0.5,8-0.7,11.8c-1.1,3.8-3.1,7.4-5.8,10.3c-5.3,5.8-12.4,9.5-19.9,11
				c-3.7,0.8-7.6,1-11.5,0.5c-3.8-0.4-7.7-1.6-11.2-3.5c-3.5-2-6.6-4.9-8.6-8.4c-2.1-3.5-3.1-7.5-3.4-11.3
				c-0.3-3.8-0.1-7.8,1.3-11.7c0.7-1.9,1.7-3.8,3-5.4c1.3-1.6,2.8-3.1,4.5-4.2c3.4-2.3,7.2-3.5,11-4.1c3.8-0.5,7.6-0.4,11.2,0.2
				c1.5,0.2,2.5,1.6,2.2,3.1C3696.8,735.7,3695.5,736.7,3694,736.6L3694,736.6z"/>
		</g>
		<g>
			<g>
				<linearGradient id="SVGID_74_" gradientUnits="userSpaceOnUse" x1="2709.854" y1="857.4979" x2="2709.854" y2="245.3971">
					<stop  offset="0" style="stop-color:#FFFFFF"/>
					<stop  offset="1" style="stop-color:#E7ECF9"/>
				</linearGradient>
				<path class="st76" d="M3096.2,865.2h-772.6c-16.2,0-29.3-13.1-29.3-29.3V244.1h831.3v591.7
					C3125.5,852.1,3112.4,865.2,3096.2,865.2z"/>
				<path class="st1" d="M2294.2,244.1h831.3v-29.6c0-16.2-13.1-29.3-29.3-29.3h-772.6c-16.2,0-29.3,13.1-29.3,29.3V244.1z"/>
				<linearGradient id="SVGID_75_" gradientUnits="userSpaceOnUse" x1="2321.2729" y1="214.6781" x2="2351.1646" y2="214.6781">
					<stop  offset="0" style="stop-color:#A4B8EA"/>
					<stop  offset="1" style="stop-color:#8094DA"/>
				</linearGradient>
				<circle class="st77" cx="2336.5" cy="214.7" r="15"/>
				<linearGradient id="SVGID_76_" gradientUnits="userSpaceOnUse" x1="2371.6597" y1="214.6781" x2="2400.7415" y2="214.6781">
					<stop  offset="0" style="stop-color:#A4B8EA"/>
					<stop  offset="1" style="stop-color:#8094DA"/>
				</linearGradient>
				<circle class="st78" cx="2385.8" cy="214.7" r="15"/>
				<linearGradient id="SVGID_77_" gradientUnits="userSpaceOnUse" x1="2418.8792" y1="214.6781" x2="2450.5627" y2="214.6781">
					<stop  offset="0" style="stop-color:#A4B8EA"/>
					<stop  offset="1" style="stop-color:#8094DA"/>
				</linearGradient>
				<circle class="st79" cx="2435" cy="214.7" r="15"/>
				<g>
					<linearGradient id="SVGID_78_" gradientUnits="userSpaceOnUse" x1="3062.3892" y1="214.8797" x2="3100.959" y2="214.8797">
						<stop  offset="0" style="stop-color:#A4B8EA"/>
						<stop  offset="1" style="stop-color:#8094DA"/>
					</linearGradient>
					<path class="st80" d="M3099,199.1L3099,199.1c-1.9-1.9-5-1.9-6.9,0l-8.8,8.8l-8.8-8.8c-1.9-1.9-5-1.9-6.9,0l0,0
						c-1.9,1.9-1.9,5,0,6.9l8.8,8.8l-8.8,8.8c-1.9,1.9-1.9,5,0,6.9l0,0c1.9,1.9,5,1.9,6.9,0l8.8-8.8l8.8,8.8c1.9,1.9,5,1.9,6.9,0
						l0,0c1.9-1.9,1.9-5,0-6.9l-8.8-8.8l8.8-8.8C3100.9,204.2,3100.9,201.1,3099,199.1z"/>
				</g>
			</g>
			<g>
				<path class="st81" d="M2813.4,579.8l-196.6,202.4l30.4-3.4l-176.8-101.9l-16.1-9.3l-18.9,30.6l15.5,10.2l170.2,112.5
					c9.4,6.2,21.6,4.9,29.4-2.5l1-0.9L2857,624.2l22.7-21.3L2813.4,579.8z"/>
				
					<linearGradient id="SVGID_79_" gradientUnits="userSpaceOnUse" x1="2885.7385" y1="1657.1563" x2="2875.1975" y2="1829.644" gradientTransform="matrix(0.9016 -0.4326 0.4326 0.9016 -646.6743 400.5806)">
					<stop  offset="0" style="stop-color:#7A8FD8"/>
					<stop  offset="1" style="stop-color:#435AC2"/>
				</linearGradient>
				<path class="st82" d="M2882.5,637.4c-22.4,62.8-157.4,188.9-241.8,189.7c-53.6,0.5-158-89-158-89l24.1-47.2
					c0,0,85.4,49.1,128,41.5c65.4-11.8,151.4-166.6,193.1-167.6C2864.7,564,2893.7,605.9,2882.5,637.4z"/>
				<path class="st81" d="M2361.2,620.3c-6.7,10.8,6.8,37.9,35.8,60.3c26.7,20.7,53.3,21.8,61,11.4
					C2475.1,668.9,2371.6,603.5,2361.2,620.3z"/>
				<path class="st81" d="M2417.4,626.7c4.6-3.3,18.3,3.7,30.9,18.2c11.7,13.4,14.2,26.7,9.9,30.4
					C2448.7,683.7,2410.3,631.8,2417.4,626.7z"/>
				<polygon class="st83" points="2768.2,569.3 2840.8,569.3 2840.8,430.4 2796.4,430.4 				"/>
				<path class="st81" d="M2714.6,360.1c-12.3,57-3.2,114.5,31.2,126.9c32.3,11.7,88.3-19.2,113.9-75.6c27-59.3,13.8-103.7-34-120.2
					C2774.9,273.8,2728,297.6,2714.6,360.1z"/>
				<path class="st24" d="M2815.8,271.2c52.8,4.1,82,52,78.6,99.3c-3.2,44.2-50.4,67.8-50.4,67.8s-15.6-44.9-41.1-52
					c-35.6-10-20.2-41.8-36.9-45.3c-17.3-3.6-55.1-17.4-54.4-42.6C2736,299.2,2756.5,266.5,2815.8,271.2z"/>
				<path class="st81" d="M2810.6,395.6c-4.3,9.5-1.3,20.2,6.7,23.7c8,3.6,17.9-1.3,22.1-10.8c4.3-9.5,1.3-20.2-6.7-23.7
					C2824.8,381.2,2814.9,386,2810.6,395.6z"/>
				<path class="st24" d="M2815.8,385.4c0,0-4,61.6-15.7,85c-10.2,20.4-55,41.4-79.3-6.9c0,0,24.7,5.2,21.9-5.3
					c-3.3-12.3-28.7-12.4-28.7-12.4s-5-0.2-5.9-4.8c-1.3-6.8,2-17.8,2-17.8s33.6,12,48.1,12c16.4,0,31.3-11.6,45.2-49.8H2815.8z"/>
				<path class="st84" d="M2936.3,865.2c-11.9-103.8-51.7-215.3-100.6-325.3c0,0-38.1,33.4-76.2,11.1c0,0-13,139.1-30.1,195.9
					c-8.2,27.5-23.2,75.8-36.5,118.3H2936.3z"/>
				<linearGradient id="SVGID_80_" gradientUnits="userSpaceOnUse" x1="2693.4849" y1="708.8033" x2="2944.5527" y2="694.4292">
					<stop  offset="0" style="stop-color:#435AC2"/>
					<stop  offset="1" style="stop-color:#0F24A4"/>
				</linearGradient>
				<path class="st85" d="M2954.7,865.2c-6.1-136.5-50.7-249.8-105.7-336.7c-33.2,24.6-89.3,22.5-89.3,22.5
					c-14.1,118.4-39.1,221.4-71.4,314.1H2954.7z"/>
				<polygon class="st81" points="2812,865.2 2854.3,605.2 2859.3,574.5 2792.7,596.6 2762.2,858.3 2709.8,865.2 				"/>
				<linearGradient id="SVGID_81_" gradientUnits="userSpaceOnUse" x1="2734.0474" y1="703.8518" x2="2871.0811" y2="757.5153">
					<stop  offset="0" style="stop-color:#7A8FD8"/>
					<stop  offset="1" style="stop-color:#435AC2"/>
				</linearGradient>
				<path class="st86" d="M2828.2,865.2c46.9-78.2,71.7-211.4,54.4-265c-10.3-31.8-58.8-47.5-87.4-24.4
					c-32.5,26.2-37.8,186-57.4,245.5c-8,24.4-29.6,37.2-52.4,43.8H2828.2z"/>
			</g>
		</g>
		<g>
			<g>
				<linearGradient id="SVGID_82_" gradientUnits="userSpaceOnUse" x1="3012.9846" y1="1547.8198" x2="3012.9846" y2="1037.4326">
					<stop  offset="0" style="stop-color:#FFFFFF"/>
					<stop  offset="1" style="stop-color:#E7ECF9"/>
				</linearGradient>
				<path class="st87" d="M3335.1,1554.3h-644.2c-13.5,0-24.5-11-24.5-24.5v-493.4h693.1v493.4
					C3359.6,1543.3,3348.6,1554.3,3335.1,1554.3z"/>
				<path class="st1" d="M2666.4,1036.4h693.1v-24.7c0-13.5-11-24.5-24.5-24.5h-644.2c-13.5,0-24.5,11-24.5,24.5V1036.4z"/>
				<linearGradient id="SVGID_83_" gradientUnits="userSpaceOnUse" x1="2688.9746" y1="1011.8182" x2="2713.8989" y2="1011.8182">
					<stop  offset="0" style="stop-color:#A4B8EA"/>
					<stop  offset="1" style="stop-color:#8094DA"/>
				</linearGradient>
				<circle class="st88" cx="2701.7" cy="1011.8" r="12.5"/>
				<linearGradient id="SVGID_84_" gradientUnits="userSpaceOnUse" x1="2730.9885" y1="1011.8182" x2="2755.2375" y2="1011.8182">
					<stop  offset="0" style="stop-color:#A4B8EA"/>
					<stop  offset="1" style="stop-color:#8094DA"/>
				</linearGradient>
				<circle class="st89" cx="2742.8" cy="1011.8" r="12.5"/>
				<linearGradient id="SVGID_85_" gradientUnits="userSpaceOnUse" x1="2770.3613" y1="1011.8182" x2="2796.78" y2="1011.8182">
					<stop  offset="0" style="stop-color:#A4B8EA"/>
					<stop  offset="1" style="stop-color:#8094DA"/>
				</linearGradient>
				<circle class="st90" cx="2783.8" cy="1011.8" r="12.5"/>
				<g>
					<linearGradient id="SVGID_86_" gradientUnits="userSpaceOnUse" x1="3306.9385" y1="1011.9863" x2="3339.0991" y2="1011.9863">
						<stop  offset="0" style="stop-color:#A4B8EA"/>
						<stop  offset="1" style="stop-color:#8094DA"/>
					</linearGradient>
					<path class="st91" d="M3337.4,998.9L3337.4,998.9c-1.6-1.6-4.2-1.6-5.8,0l-7.3,7.4l-7.4-7.4c-1.6-1.6-4.2-1.6-5.8,0l0,0
						c-1.6,1.6-1.6,4.2,0,5.8l7.4,7.4l-7.4,7.4c-1.6,1.6-1.6,4.2,0,5.8l0,0c1.6,1.6,4.2,1.6,5.8,0l7.4-7.4l7.3,7.4
						c1.6,1.6,4.2,1.6,5.8,0l0,0c1.6-1.6,1.6-4.2,0-5.8l-7.3-7.4l7.3-7.4C3339,1003,3339,1000.5,3337.4,998.9z"/>
				</g>
			</g>
			<g>
				<path class="st83" d="M3057,1317.1l-133.5,184.5l23.9-6.3l-153.1-60.9l-13.9-5.5l-11.5,26.6l13.5,6.4l149.1,70.1
					c8.2,3.9,17.8,1.4,23.2-5.4l0.7-0.8l141.6-178.3l15.6-19.7l-40.9-31L3057,1317.1z"/>
				<path class="st83" d="M2693.3,1409.2c-3.5,9.7,12.3,29.1,39.9,42.3c25.4,12.2,47.2,8.8,51.5-0.6
					C2794.3,1429.7,2698.7,1394.2,2693.3,1409.2z"/>
				<path class="st24" d="M3020.1,1103.5c45-32.2,99.1-10.2,106.2,36.4c9.3,60.4-2.6,109,12.4,149c23.2,62.1,16.7,123.1,16.7,123.1
					c-61.2-83.6-124.6-49.1-159.6-133.1C2984.6,1251.8,2977,1134.3,3020.1,1103.5z"/>
				<polygon class="st83" points="3037.8,1306.9 3091.5,1306.9 3091.6,1204.3 3058.8,1204.2 				"/>
				<path class="st81" d="M2998.3,1152.2c-9.1,42.1-2.4,84.6,23,93.9c23.9,8.7,65.3-14.2,84.3-55.8c20-43.8,10.3-76.6-25-88.8
					C3043,1088.4,3008.3,1106.1,2998.3,1152.2z"/>
				
					<linearGradient id="SVGID_87_" gradientUnits="userSpaceOnUse" x1="-2262.9121" y1="1393.6504" x2="-2419.071" y2="1443.2247" gradientTransform="matrix(-1 -9.000000e-04 -9.000000e-04 1 613.7526 0.3979)">
					<stop  offset="0" style="stop-color:#FE958F"/>
					<stop  offset="1" style="stop-color:#F77C77"/>
				</linearGradient>
				<path class="st92" d="M2857.9,1448.4l-33.4,85.4c0,0,100,25.5,144.2-3c62-39.9,169.4-175.5,127.9-214.5
					c-46.1-43.4-91.7,88.7-151.2,135.9C2919.8,1472.4,2857.9,1448.4,2857.9,1448.4z"/>
				<path class="st93" d="M3169.9,1554.3c-7.6-81.4-38.7-169.4-77.1-256.1c0,0-29,25.3-57.9,8.4c0,0-10,105.7-23,148.8
					c-6.9,23-19.7,64.8-30.2,98.9H3169.9z"/>
				<path class="st81" d="M3110.2,1445.4c5.9,13.1,11.6,26.3,16.7,39.6c5.1,13.2,9.8,26.6,12.9,39.4c0.8,3.2,1.4,6.3,2,9.4l1.6,10.4
					c0.4,3.3,0.9,6.7,1.3,10.1h36.4c-0.3-4.7-0.6-9.3-0.9-14l-1.1-11.5c-0.5-4.1-1.1-8.3-1.9-12.3c-3.1-15.9-7.5-30.6-12.2-45
					c-4.8-14.5-10-28.6-15.4-42.5c-11-28-22.7-55.1-35.6-82.5l-10-21.4l-43.2,22l11.1,20.8
					C3085.3,1392.9,3098.3,1419.2,3110.2,1445.4z"/>
				
					<linearGradient id="SVGID_88_" gradientUnits="userSpaceOnUse" x1="-2366.2244" y1="1424.5129" x2="-2564.5183" y2="1415.8375" gradientTransform="matrix(-1 -9.000000e-04 -9.000000e-04 1 613.7526 0.3979)">
					<stop  offset="0" style="stop-color:#FFC1C2"/>
					<stop  offset="1" style="stop-color:#FE958F"/>
				</linearGradient>
				<path class="st94" d="M3182.6,1554.3c0.8-143.5-82.5-268.4-82.5-268.4c-25.2,18.7-67.9,17.1-67.9,17.1
					c-11.4,95.4-32.2,177.6-59,251.3H3182.6z"/>
				
					<linearGradient id="SVGID_89_" gradientUnits="userSpaceOnUse" x1="-2476.8757" y1="1446.6244" x2="-2557.4312" y2="1425.556" gradientTransform="matrix(-1 -9.000000e-04 -9.000000e-04 1 613.7526 0.3979)">
					<stop  offset="0" style="stop-color:#FE958F"/>
					<stop  offset="1" style="stop-color:#F77C77"/>
				</linearGradient>
				<path class="st95" d="M3121,1554.3h71.5c-2.5-24.5-5.8-49.8-10.4-69.9c-16.3-71.9-46.8-179.1-101.9-164.6
					c-72.1,19,32.3,163.4,39.8,203C3121.5,1531,3121.7,1542.2,3121,1554.3z"/>
				<path class="st24" d="M3068.3,1090c12.2,0,20.6,1.1,30.9,6.5c16.7,8.7,38.7,29.4,43,76.2c4,43.7-13.5,65.1,23.8,106.3
					c42,31.9,116.8,26.5,108.1,98.1c-8.7,71.5-103.6,62.1-126.1,26.3c-22.5-35.8-20-67.7-32.5-90.2c-12.5-22.6-34.3-9.4-45.2-34.3
					c-12.7-23.4,9.5-75.9,13.5-84.9c-2.7-8.8-6.1-18.5-20.4-22.4c-30.6-8.4-56-37.4-55.9-46.7
					C3007.7,1115.6,3035.7,1089.9,3068.3,1090z"/>
				
					<ellipse transform="matrix(0.4099 -0.9121 0.9121 0.4099 738.1638 3507.5381)" class="st81" cx="3079.9" cy="1183.3" rx="14" ry="11.7"/>
				<path class="st83" d="M2741.7,1406c3.1-3.3,15-0.2,27.5,9.2c11.5,8.7,15.7,18.7,12.9,22.3
					C2775.9,1445.8,2737,1411.2,2741.7,1406z"/>
			</g>
		</g>
		<g>
			<g>
				<linearGradient id="SVGID_90_" gradientUnits="userSpaceOnUse" x1="1768.9268" y1="1524.3381" x2="1768.9268" y2="893.8403">
					<stop  offset="0" style="stop-color:#FFFFFF"/>
					<stop  offset="1" style="stop-color:#E7ECF9"/>
				</linearGradient>
				<path class="st96" d="M2166.8,1532.3H1371c-16.7,0-30.2-13.5-30.2-30.2V892.5h856.3v609.5
					C2197.1,1518.8,2183.5,1532.3,2166.8,1532.3z"/>
				<path class="st1" d="M1340.8,892.5h856.3v-30.5c0-16.7-13.5-30.2-30.2-30.2H1371c-16.7,0-30.2,13.5-30.2,30.2V892.5z"/>
				<linearGradient id="SVGID_91_" gradientUnits="userSpaceOnUse" x1="1368.6669" y1="862.1981" x2="1399.4567" y2="862.1981">
					<stop  offset="0" style="stop-color:#A4B8EA"/>
					<stop  offset="1" style="stop-color:#8094DA"/>
				</linearGradient>
				<circle class="st97" cx="1384.4" cy="862.2" r="15.4"/>
				<linearGradient id="SVGID_92_" gradientUnits="userSpaceOnUse" x1="1420.5679" y1="862.1981" x2="1450.5237" y2="862.1981">
					<stop  offset="0" style="stop-color:#A4B8EA"/>
					<stop  offset="1" style="stop-color:#8094DA"/>
				</linearGradient>
				<circle class="st98" cx="1435.1" cy="862.2" r="15.4"/>
				<linearGradient id="SVGID_93_" gradientUnits="userSpaceOnUse" x1="1469.2065" y1="862.1981" x2="1501.8423" y2="862.1981">
					<stop  offset="0" style="stop-color:#A4B8EA"/>
					<stop  offset="1" style="stop-color:#8094DA"/>
				</linearGradient>
				<circle class="st99" cx="1485.8" cy="862.2" r="15.4"/>
				<g>
					<linearGradient id="SVGID_94_" gradientUnits="userSpaceOnUse" x1="2132.0574" y1="862.4058" x2="2171.7866" y2="862.4058">
						<stop  offset="0" style="stop-color:#A4B8EA"/>
						<stop  offset="1" style="stop-color:#8094DA"/>
					</linearGradient>
					<path class="st100" d="M2169.7,846.2L2169.7,846.2c-2-2-5.2-2-7.1,0l-9.1,9.1l-9.1-9.1c-2-2-5.2-2-7.1,0l0,0c-2,2-2,5.2,0,7.1
						l9.1,9.1l-9.1,9.1c-2,2-2,5.2,0,7.1l0,0c2,2,5.2,2,7.1,0l9.1-9.1l9.1,9.1c2,2,5.2,2,7.1,0h0c2-2,2-5.2,0-7.1l-9.1-9.1l9.1-9.1
						C2171.7,851.4,2171.7,848.2,2169.7,846.2z"/>
				</g>
			</g>
			<g>
				<polygon class="st101" points="1765.9,1226.8 1693.4,1226.8 1693.4,1088 1737.7,1088 				"/>
				<path class="st102" d="M1819.5,1017.7c12.3,57,3.2,114.4-31.2,126.9c-32.3,11.7-88.3-19.2-113.9-75.6
					c-27-59.3-13.8-103.6,34-120.1C1759.2,931.4,1806.1,955.3,1819.5,1017.7z"/>
				<path class="st24" d="M1693.4,1106l7.6-3.1c0,0-3-27,1.9-33.9c6.3-8.9,38.1-8,38.1-8s1.2-30.1,13.2-38.2
					c10.6-7.2,54.8-12,72-3.2c0,0,7.6-28.9-5.3-54.8c-14.3-28.6-40.1-37.7-72.4-39.3s-66.6,4-73.8,40.1c0,0-27.6,6-27.6,44.1
					C1647.1,1047.9,1693.4,1106,1693.4,1106z"/>
				
					<ellipse transform="matrix(0.9125 -0.4091 0.4091 0.9125 -285.0948 793.8666)" class="st102" cx="1713.3" cy="1063.4" rx="15.8" ry="18.9"/>
				<path class="st101" d="M1772,1436.5c7.6,18.5,15.8,37,26.3,55.5c2.6,4.6,5.5,9.3,8.6,13.9l8.7,12.5c3.4,4.7,6.9,9.3,10.4,13.9
					h58.1c-4.3-6-8.5-11.9-12.6-17.9c-5.4-7.8-10.6-15.6-15.7-23.4l-7.3-11.7c-2.1-3.6-4.1-7.2-6.1-11.1
					c-7.8-15.6-14.6-33-20.7-50.5c-6.2-17.6-11.8-35.7-17.1-53.9c-10.5-36.3-15.1-60.6-23.2-97.3l-60.4,14.6
					c10.5,38.4,17.2,62.4,30.1,99.8C1757.6,1399.4,1764.4,1418,1772,1436.5z"/>
				<linearGradient id="SVGID_95_" gradientUnits="userSpaceOnUse" x1="1818.3972" y1="1279.5776" x2="1740.8732" y2="1310.5872">
					<stop  offset="0" style="stop-color:#7A8DD6"/>
					<stop  offset="1" style="stop-color:#445AC0"/>
				</linearGradient>
				<path class="st103" d="M1747.9,1386c0,0-96.1-103.2-29.1-143.9s95.3,107.9,95.3,107.9L1747.9,1386z"/>
				<path class="st104" d="M1842.3,1532.3c-14.2-43.1-30-91.7-38.2-118.9c-17-56.7-31.2-190.9-31.2-190.9
					c-38.1,22.2-74.9-16-74.9-16c-48.9,110.1-88.8,221.9-100.6,325.8H1842.3z"/>
				<linearGradient id="SVGID_96_" gradientUnits="userSpaceOnUse" x1="1944.8651" y1="1406.3572" x2="1554.9362" y2="1354.0496">
					<stop  offset="0" style="stop-color:#435AC2"/>
					<stop  offset="1" style="stop-color:#0F24A4"/>
				</linearGradient>
				<path class="st105" d="M1846.5,1532.3c-32.2-92.4-57-195.1-71.1-313c0,0-64.3,2.1-97.5-22.5c0,0-70.9,164.4-90.2,335.6H1846.5z"
					/>
				<path class="st102" d="M1740.3,1295l-72.3,199.3l-23.2-32.5l237.4,9.1l18.5,0.7l-0.4,36.1l-18.5,0.3l-237.6,3.4
					c-13.4,0.2-24.4-10.5-24.6-23.9c0-2.5,0.3-4.9,1-7.1l0.4-1.4l60.3-203.3l8.8-29.8l60.8,20L1740.3,1295z"/>
				<linearGradient id="SVGID_97_" gradientUnits="userSpaceOnUse" x1="1744.0585" y1="1313.8529" x2="1655.59" y2="1307.4685">
					<stop  offset="0" style="stop-color:#7A8DD6"/>
					<stop  offset="1" style="stop-color:#445AC0"/>
				</linearGradient>
				<path class="st106" d="M1644.3,1366.2c0,0-1.4-141,75.5-125.9c76.9,15.1-2.4,143.9-2.4,143.9L1644.3,1366.2z"/>
				<path class="st102" d="M1968,1491.1c-1.1,12.7-21.3,26.6-48.4,27.7c-25,1-41-13.8-40.7-26.6
					C1879.6,1463.5,1969.7,1471.5,1968,1491.1z"/>
				<path class="st102" d="M1950.6,1464.5c-1.7-5.3-16.8-8.1-35.7-4c-17.4,3.7-27.4,12.7-26.2,18.3
					C1891.3,1491.1,1953.2,1472.7,1950.6,1464.5z"/>
			</g>
		</g>
		<g>
			<g>
				<linearGradient id="SVGID_98_" gradientUnits="userSpaceOnUse" x1="1829.455" y1="687.808" x2="1829.455" y2="335.466">
					<stop  offset="0" style="stop-color:#FFFFFF"/>
					<stop  offset="1" style="stop-color:#E7ECF9"/>
				</linearGradient>
				<path class="st107" d="M2051.8,692.3h-444.7c-9.3,0-16.9-7.6-16.9-16.9V334.7h478.5v340.6
					C2068.7,684.7,2061.1,692.3,2051.8,692.3z"/>
				<path class="st1" d="M1590.2,334.7h478.5v-17c0-9.3-7.6-16.9-16.9-16.9h-444.7c-9.3,0-16.9,7.6-16.9,16.9V334.7z"/>
				<linearGradient id="SVGID_99_" gradientUnits="userSpaceOnUse" x1="1605.7771" y1="317.7834" x2="1622.9834" y2="317.7834">
					<stop  offset="0" style="stop-color:#A4B8EA"/>
					<stop  offset="1" style="stop-color:#8094DA"/>
				</linearGradient>
				<circle class="st108" cx="1614.6" cy="317.8" r="8.6"/>
				<linearGradient id="SVGID_100_" gradientUnits="userSpaceOnUse" x1="1634.781" y1="317.7834" x2="1651.5212" y2="317.7834">
					<stop  offset="0" style="stop-color:#A4B8EA"/>
					<stop  offset="1" style="stop-color:#8094DA"/>
				</linearGradient>
				<circle class="st109" cx="1642.9" cy="317.8" r="8.6"/>
				<linearGradient id="SVGID_101_" gradientUnits="userSpaceOnUse" x1="1661.9618" y1="317.7834" x2="1680.1997" y2="317.7834">
					<stop  offset="0" style="stop-color:#A4B8EA"/>
					<stop  offset="1" style="stop-color:#8094DA"/>
				</linearGradient>
				<circle class="st110" cx="1671.2" cy="317.8" r="8.6"/>
				<g>
					<linearGradient id="SVGID_102_" gradientUnits="userSpaceOnUse" x1="2032.3837" y1="317.8994" x2="2054.5857" y2="317.8994">
						<stop  offset="0" style="stop-color:#A4B8EA"/>
						<stop  offset="1" style="stop-color:#8094DA"/>
					</linearGradient>
					<path class="st111" d="M2053.4,308.8L2053.4,308.8c-1.1-1.1-2.9-1.1-4,0l-5.1,5.1l-5.1-5.1c-1.1-1.1-2.9-1.1-4,0l0,0
						c-1.1,1.1-1.1,2.9,0,4l5.1,5.1l-5.1,5.1c-1.1,1.1-1.1,2.9,0,4l0,0c1.1,1.1,2.9,1.1,4,0l5.1-5.1l5.1,5.1c1.1,1.1,2.9,1.1,4,0
						l0,0c1.1-1.1,1.1-2.9,0-4l-5.1-5.1l5.1-5.1C2054.5,311.7,2054.5,309.9,2053.4,308.8z"/>
				</g>
			</g>
			<g>
				<polygon class="st101" points="1837.9,514 1799.2,510.4 1806.1,436.4 1829.8,438.6 				"/>
				<path class="st102" d="M1876.9,405.2c3.7,31-4,61.2-22.9,66.1c-17.8,4.6-46.1-14.6-56.9-45.9c-11.4-33-2.2-55.9,24.1-62.3
					C1849,356.2,1872.8,371.2,1876.9,405.2z"/>
				<path class="st24" d="M1828.5,414.7c22.6-4,19-22,27.7-24.6c8.7-2.6,18.5,1.7,19.1-5c0.6-6.7-7.2-29.9-44.7-29.6
					c-33.9,0.2-49.6,20.8-50.1,46.2c-0.5,23.7,16.6,40.7,23.5,38.6C1814.5,437.2,1809.5,418,1828.5,414.7z"/>
				<path class="st102" d="M1823.9,419.3c1.8,5.3-0.3,10.8-4.7,12.3c-4.4,1.5-9.5-1.6-11.3-6.9c-1.8-5.3,0.3-10.8,4.7-12.3
					C1817.1,410.9,1822.1,414,1823.9,419.3z"/>
				<path class="st24" d="M1806.5,378.8c0,0-56.1-22.9-76.4,3.8c-22.4,29.4,3.2,57.4-2.4,83.1c-3.8,17.6-31.1,30.4-35.8,57.7
					c-4.7,27.3,7.9,54.6,28.3,55.4c29.9,1.2,43.1-29.2,42.9-53.4c-0.2-28-14.6-40.9-10.4-53.9s13.2-15.7,17.9-43
					C1775.4,401.1,1762.4,380,1806.5,378.8z"/>
				<path class="st101" d="M1824.8,597c5.2,9.2,10.5,18.4,16.3,27.4c5.8,9,11.8,18,19.1,26.7c1.8,2.2,3.8,4.4,5.8,6.5l5.8,5.7
					c3.9,3.7,7.8,7.3,11.7,10.9c6.9,6.2,13.9,12.2,20.9,18h34.8c-5.5-5-11-10-16.4-15c-7.5-7-14.9-14.1-22-21.3
					c-3.6-3.6-7-7.2-10.5-10.9l-4.9-5.5c-1.5-1.7-2.8-3.4-4.3-5.3c-5.6-7.5-10.8-16-15.7-24.7c-4.9-8.7-9.6-17.7-14.1-26.8
					c-9-18.2-17.5-37-25.2-55.5l-6.4-15.4l-31.3,13.7l7.2,15C1804.9,560,1814.5,578.5,1824.8,597z"/>
				<linearGradient id="SVGID_103_" gradientUnits="userSpaceOnUse" x1="1960.7205" y1="649.2588" x2="1845.4823" y2="597.0108">
					<stop  offset="0" style="stop-color:#7A8DD6"/>
					<stop  offset="1" style="stop-color:#445AC0"/>
				</linearGradient>
				<path class="st112" d="M1850.3,655.4c10.2,12.9,23.3,25.7,36.4,36.9h56.8c-17.9-16-44.6-40.4-55.7-58.8
					c-17.4-28.7-39.6-111.3-59.7-121c-17.7-8.5-47.8,6.8-46.2,22.7C1785.2,570.7,1820.3,617.5,1850.3,655.4z"/>
				<linearGradient id="SVGID_104_" gradientUnits="userSpaceOnUse" x1="1873.7377" y1="588.9498" x2="1742.0699" y2="605.4551">
					<stop  offset="0" style="stop-color:#FFC1C2"/>
					<stop  offset="1" style="stop-color:#FE958F"/>
				</linearGradient>
				<path class="st113" d="M1884.1,692.2c-16.5-54.8-29.3-115.3-36.7-184.3c0,0-31.5,1.3-50.1-14c0,0-54.4,90.1-60.6,198.3H1884.1z"
					/>
				<linearGradient id="SVGID_105_" gradientUnits="userSpaceOnUse" x1="1876.2864" y1="608.0692" x2="1721.7369" y2="587.4374">
					<stop  offset="0" style="stop-color:#445AC0"/>
					<stop  offset="1" style="stop-color:#0E24A2"/>
				</linearGradient>
				<path class="st114" d="M1851.9,692.2c-2.1-8.5-4.2-17.3-6.1-26.4c-13.4-64.1-6.7-155.3-6.7-155.3l-41.8-16.5
					c-19.3,21.5-53.7,125.5-66.2,198.3H1851.9z"/>
				<g>
					<path class="st102" d="M1907.8,652.7l-9.9-0.3l-108.7-3.7l32.3-90.2l3-15.1l-30-11.2l-4.7,16l-31.8,109l-0.2,0.8
						c-0.3,1.2-0.5,2.5-0.5,3.8c0.1,7.2,6,12.9,13.2,12.7l127.2-2.3l9.9-0.2L1907.8,652.7z"/>
					<path class="st102" d="M1963.9,664.1c-0.6,6.8-15.8,14-36.4,14.3c-19,0.2-31.4-7.8-31.4-14.7
						C1896.2,648.3,1964.8,653.6,1963.9,664.1z"/>
					<path class="st102" d="M1934.5,648.7c-0.9-2.9-9-4.3-19.1-2.1c-9.3,2-14.6,6.9-14,9.9C1902.8,663.1,1935.9,653.2,1934.5,648.7z
						"/>
					
						<linearGradient id="SVGID_106_" gradientUnits="userSpaceOnUse" x1="1649.8346" y1="1252.849" x2="1518.5415" y2="1228.8409" gradientTransform="matrix(0.972 0.235 -0.235 0.972 573.9256 -958.4703)">
						<stop  offset="0" style="stop-color:#7A8DD6"/>
						<stop  offset="1" style="stop-color:#445AC0"/>
					</linearGradient>
					<path class="st115" d="M1814,529.3c25.6,12.3,9.5,47.8,4.6,60.8c-4.9,13-23.8,45.8-18.9,51.7c4.8,5.9,82.8,3.6,84.5,8.7
						s0.7,22.8-2.2,26.3s-108.3,23.4-127.6-2.9c-9.1-12.4,4.2-74.6,6.9-87.2S1775.8,510.9,1814,529.3z"/>
				</g>
			</g>
		</g>
		<g>
			<linearGradient id="SVGID_107_" gradientUnits="userSpaceOnUse" x1="1113.6957" y1="1030.6593" x2="1113.6957" y2="2512.1316">
				<stop  offset="0" style="stop-color:#435AC2"/>
				<stop  offset="1" style="stop-color:#0F24A4"/>
			</linearGradient>
			<path class="st116" d="M1329.8,1906.7h-288.1v124.1h226.5v113.9h-226.5v132.1h288.1v119.7H897.6v-605.1h432.2V1906.7z"/>
			<linearGradient id="SVGID_108_" gradientUnits="userSpaceOnUse" x1="1639.7114" y1="1030.6593" x2="1639.7114" y2="2512.1316">
				<stop  offset="0" style="stop-color:#435AC2"/>
				<stop  offset="1" style="stop-color:#0F24A4"/>
			</linearGradient>
			<path class="st117" d="M1898.2,1791.4l-182.8,605.1H1563l-181.7-605.1h150.9l121.1,432.7l126.1-432.7H1898.2z"/>
			<linearGradient id="SVGID_109_" gradientUnits="userSpaceOnUse" x1="2168.7922" y1="1030.6593" x2="2168.7922" y2="2512.1316">
				<stop  offset="0" style="stop-color:#435AC2"/>
				<stop  offset="1" style="stop-color:#0F24A4"/>
			</linearGradient>
			<path class="st118" d="M2384.9,1906.7h-288.1v124.1h226.5v113.9h-226.5v132.1h288.1v119.7h-432.2v-605.1h432.2V1906.7z"/>
			<linearGradient id="SVGID_110_" gradientUnits="userSpaceOnUse" x1="2689.4351" y1="1030.6593" x2="2689.4351" y2="2512.1316">
				<stop  offset="0" style="stop-color:#435AC2"/>
				<stop  offset="1" style="stop-color:#0F24A4"/>
			</linearGradient>
			<path class="st119" d="M2922.2,1791.4v605.1h-120.9l-236.8-408.7c0.3,10.3,0.6,17.1,0.9,20.4c1.2,10.3,1.8,19.1,1.8,26.2v362.2
				h-110.4v-605.1h152.8l205.8,356.9c-1.8-17.7-2.7-31.2-2.7-40.3v-316.5H2922.2z"/>
			<linearGradient id="SVGID_111_" gradientUnits="userSpaceOnUse" x1="3218.3079" y1="1030.6593" x2="3218.3079" y2="2512.1316">
				<stop  offset="0" style="stop-color:#435AC2"/>
				<stop  offset="1" style="stop-color:#0F24A4"/>
			</linearGradient>
			<path class="st120" d="M3440.4,1791.4v119.7h-149.8v485.4h-143.6v-485.4h-150.7v-119.7H3440.4z"/>
			<linearGradient id="SVGID_112_" gradientUnits="userSpaceOnUse" x1="3699.291" y1="1030.6621" x2="3699.291" y2="2512.1309">
				<stop  offset="0" style="stop-color:#435AC2"/>
				<stop  offset="1" style="stop-color:#0F24A4"/>
			</linearGradient>
			<path class="st121" d="M3930.3,1924.4l-120.6,40.3c-15.9,0-31.3,0-31.3,0s-22.1-71.8-71.8-71.8c-56,0-84,18.2-84,54.5
				c0,14.5,5.2,26.8,15.7,36.8c10.5,10.1,34.2,18.8,71,26.2c61.7,12.4,106.8,25,135.5,37.7c28.6,12.7,52.8,33.2,72.4,61.4
				s29.4,59.8,29.4,94.6c0,54.7-21,101.9-63.1,141.8c-42.1,39.9-104.5,59.8-187.1,59.8c-62,0-114.8-14.1-158.3-42.3
				c-43.6-28.2-72.3-70.1-86.1-125.7l100-29.7h31.3c14.7,56.5,55.7,84.7,123,84.7c32.4,0,56.6-6.3,72.6-18.8
				c15.9-12.6,23.9-27.6,23.9-45c0-17.7-7.2-31.5-21.7-41.2c-14.5-9.8-42.4-18.9-83.7-27.5c-77-16-131.9-37.8-164.7-65.4
				c-32.8-27.6-49.1-68-49.1-121.2c0-53.8,19.6-99.1,58.7-136.1c39.1-36.9,92.2-55.4,159.2-55.4
				C3820,1782.1,3896.3,1829.5,3930.3,1924.4z"/>
			<linearGradient id="SVGID_113_" gradientUnits="userSpaceOnUse" x1="1082.4419" y1="1030.6593" x2="1082.4419" y2="2512.1316">
				<stop  offset="0" style="stop-color:#7A8FD8"/>
				<stop  offset="1" style="stop-color:#435AC2"/>
			</linearGradient>
			<path class="st122" d="M1298.6,1906.7h-288.1v124.1h226.5v113.9h-226.5v132.1h288.1v119.7H866.3v-605.1h432.2V1906.7z"/>
			<linearGradient id="SVGID_114_" gradientUnits="userSpaceOnUse" x1="1608.4576" y1="1030.6593" x2="1608.4576" y2="2512.1316">
				<stop  offset="0" style="stop-color:#7A8FD8"/>
				<stop  offset="1" style="stop-color:#435AC2"/>
			</linearGradient>
			<path class="st123" d="M1866.9,1791.4l-182.8,605.1h-152.3L1350,1791.4h150.9l121.1,432.7l126.1-432.7H1866.9z"/>
			<linearGradient id="SVGID_115_" gradientUnits="userSpaceOnUse" x1="2137.5386" y1="1030.6593" x2="2137.5386" y2="2512.1316">
				<stop  offset="0" style="stop-color:#7A8FD8"/>
				<stop  offset="1" style="stop-color:#435AC2"/>
			</linearGradient>
			<path class="st124" d="M2353.6,1906.7h-288.1v124.1H2292v113.9h-226.5v132.1h288.1v119.7h-432.2v-605.1h432.2V1906.7z"/>
			<linearGradient id="SVGID_116_" gradientUnits="userSpaceOnUse" x1="2658.1812" y1="1030.6593" x2="2658.1812" y2="2512.1316">
				<stop  offset="0" style="stop-color:#7A8FD8"/>
				<stop  offset="1" style="stop-color:#435AC2"/>
			</linearGradient>
			<path class="st125" d="M2890.9,1791.4v605.1H2770l-236.8-408.7c0.3,10.3,0.6,17.1,0.9,20.4c1.2,10.3,1.8,19.1,1.8,26.2v362.2
				h-110.4v-605.1h152.8l205.8,356.9c-1.8-17.7-2.7-31.2-2.7-40.3v-316.5H2890.9z"/>
			<linearGradient id="SVGID_117_" gradientUnits="userSpaceOnUse" x1="3187.0542" y1="1030.6593" x2="3187.0542" y2="2512.1316">
				<stop  offset="0" style="stop-color:#7A8FD8"/>
				<stop  offset="1" style="stop-color:#435AC2"/>
			</linearGradient>
			<path class="st126" d="M3409.1,1791.4v119.7h-149.8v485.4h-143.6v-485.4H2965v-119.7H3409.1z"/>
			<linearGradient id="SVGID_118_" gradientUnits="userSpaceOnUse" x1="3668.0371" y1="1030.6621" x2="3668.0371" y2="2512.1309">
				<stop  offset="0" style="stop-color:#7A8FD8"/>
				<stop  offset="1" style="stop-color:#435AC2"/>
			</linearGradient>
			<path class="st127" d="M3899,1924.4l-120.6,40.3c-16.2-47.9-50.6-71.8-103-71.8c-56,0-84,18.2-84,54.5c0,14.5,5.2,26.8,15.7,36.8
				c10.5,10.1,34.2,18.8,71,26.2c61.7,12.4,106.8,25,135.5,37.7c28.6,12.7,52.8,33.2,72.4,61.4s29.4,59.8,29.4,94.6
				c0,54.7-21,101.9-63.1,141.8c-42.1,39.9-104.5,59.8-187.1,59.8c-62,0-114.8-14.1-158.3-42.3c-43.6-28.2-72.3-70.1-86.1-125.7
				l131.2-29.7c14.7,56.5,55.7,84.7,123,84.7c32.4,0,56.6-6.3,72.6-18.8c15.9-12.6,23.9-27.6,23.9-45c0-17.7-7.2-31.5-21.7-41.2
				c-14.5-9.8-42.4-18.9-83.7-27.5c-77-16-131.9-37.8-164.7-65.4c-32.8-27.6-49.1-68-49.1-121.2c0-53.8,19.6-99.1,58.7-136.1
				c39.1-36.9,92.2-55.4,159.2-55.4C3788.7,1782.1,3865,1829.5,3899,1924.4z"/>
		</g>
		<g>
			<polygon class="st128" points="2579.8,1572.9 2607.5,1571.3 2604.5,1518.4 2587.6,1519.3 			"/>
			<path class="st129" d="M2554.9,1494.3c-3.4,22,1.3,43.7,14.7,47.7c12.6,3.8,33.2-9.3,41.8-31.3c9-23.2,3-39.8-15.6-45
				C2576,1460.1,2558.6,1470.2,2554.9,1494.3z"/>
			<path class="st24" d="M2604.9,1525.3l-3-1c0,0,0.5-10.3-1.5-12.9c-2.6-3.2-14.7-2.2-14.7-2.2s-1.1-11.5-5.9-14.3
				c-4.2-2.5-21.2-3.4-27.5,0.4c0,0-3.5-10.8,0.8-21c4.8-11.2,14.5-15.2,26.7-16.5c12.3-1.3,25.5,0.1,29,13.7
				c0,0,10.6,1.7,11.5,16.2C2621.3,1502.1,2604.9,1525.3,2604.9,1525.3z"/>
			<path class="st129" d="M2590.7,1507.3c-1.4,3.7-0.1,7.7,3.1,8.9c3.1,1.2,6.8-0.9,8.2-4.6s0.1-7.7-3.1-8.9
				C2595.8,1501.5,2592.1,1503.6,2590.7,1507.3z"/>
			<path class="st128" d="M2373.3,1915l37.4-136c1.3-4.5,4.9-8.3,9.8-9.5l1.8-0.4l150.3-36.3l23.9-5.8l9.1,51.4l-24.5,2.8
				l-145.7,16.7l-50.8,121l-2.3,5.5l-10.6-3.7L2373.3,1915z"/>
			<path class="st129" d="M2424.6,1777.4l1.9-0.4l146-33.1l24-5.4l8.3,51.6l-24.5,2.4l-92.4,8.9l69.9,30.6l5.5,2.4l-3.8,10.5
				l-5.8-1.6l-129.9-37.1c-5-1.4-9.1-5.5-10.4-11C2411.6,1787.2,2416.6,1779.2,2424.6,1777.4z"/>
			
				<linearGradient id="SVGID_119_" gradientUnits="userSpaceOnUse" x1="-1614.7461" y1="1776.2096" x2="-1666.713" y2="1792.0732" gradientTransform="matrix(-1 3.400000e-03 3.400000e-03 1 765.878 4.8608)">
				<stop  offset="0" style="stop-color:#FD948E"/>
				<stop  offset="1" style="stop-color:#F67C77"/>
			</linearGradient>
			<path class="st130" d="M2547.8,1722.5c-26,22.4-120.1,25-139.2,44.4c-19.7,20.1-32.4,124.8-32.4,124.8l21.9,7.6
				c0,0,35.6-98,41.4-102c5.9-4.1,133,8,165.2-11.6c26.7-16.3,14.8-60,14.8-60L2547.8,1722.5z"/>
			
				<linearGradient id="SVGID_120_" gradientUnits="userSpaceOnUse" x1="-1659.5765" y1="1740.0684" x2="-1810.5543" y2="1786.5652" gradientTransform="matrix(-1 3.400000e-03 3.400000e-03 1 765.878 4.8608)">
				<stop  offset="0" style="stop-color:#FFC0C1"/>
				<stop  offset="1" style="stop-color:#FD948E"/>
			</linearGradient>
			<path class="st131" d="M2559.2,1723c-18.7,27.3-142.4,29.8-150.2,59.4c-8.5,32.3,127,60.1,127,60.1l6.9-21.8
				c0,0-50.4-15.9-49.5-18.6c0.9-2.5,91,8.8,123-15.8c24.8-19.1,14.8-60,14.8-60L2559.2,1723z"/>
			<path class="st128" d="M2584.6,1595.9l-26.7,102.5l9.4-6.8l-76.6-0.5l-7.1,0l-0.5,13.7l7.1,0.5l76.4,5.3c4.3,0.3,8.1-2.4,9.3-6.4
				l0.1-0.5l31.3-101.2l3.5-11.3l-23.3-6.7L2584.6,1595.9z"/>
			
				<linearGradient id="SVGID_121_" gradientUnits="userSpaceOnUse" x1="-1750.5627" y1="1640.8506" x2="-1798.4259" y2="1652.6112" gradientTransform="matrix(-1 3.400000e-03 3.400000e-03 1 765.878 4.8608)">
				<stop  offset="0" style="stop-color:#435AC1"/>
				<stop  offset="1" style="stop-color:#0F24A3"/>
			</linearGradient>
			<path class="st132" d="M2620.5,1601.3c-0.2,25-20.1,87.8-47.2,108c-16.1,12-67.1-0.4-67.1-0.4l-0.8-19.8c0,0,38.4,5.9,48.7-15.3
				c10.4-21.1,19.3-77.4,32.8-85.4C2598.6,1581.3,2620.6,1590.1,2620.5,1601.3z"/>
			<path class="st133" d="M2606.9,1565.5c0,0-15.1,12.1-29.2,2.9c0,0-7.3,52.8-14.8,74.2c-7.5,21.3-29.1,77.4-29.1,77.4l105.5,4.7
				C2644.3,1676.4,2628.5,1620.6,2606.9,1565.5z"/>
			
				<linearGradient id="SVGID_122_" gradientUnits="userSpaceOnUse" x1="1981.3047" y1="1748.342" x2="2096.2183" y2="1748.342" gradientTransform="matrix(0.999 4.450000e-02 -4.450000e-02 0.999 632.4352 -192.3284)">
				<stop  offset="0" style="stop-color:#FFC0C1"/>
				<stop  offset="1" style="stop-color:#FD948E"/>
			</linearGradient>
			<path class="st134" d="M2611,1560.8c0,0,47.1,77.7,33.2,157.7c0,0,3.6,16-53.5,11.3c-57.1-4.7-60.1-12.8-60.1-12.8
				c20-42.4,36.3-90.6,45.9-149.2C2576.5,1567.9,2597.9,1569.6,2611,1560.8z"/>
			<path class="st128" d="M2453.5,1693.2c-0.3,4.9,6.6,11.2,16.8,13.1c9.4,1.7,16.2-2.9,16.8-7.8
				C2488.5,1687.6,2454,1685.7,2453.5,1693.2z"/>
			<path class="st128" d="M2461.8,1684.5c0.9-1.9,6.8-2.1,13.7,0.4c6.4,2.4,9.6,6.3,8.9,8.4
				C2482.7,1697.8,2460.3,1687.5,2461.8,1684.5z"/>
			
				<linearGradient id="SVGID_123_" gradientUnits="userSpaceOnUse" x1="-1771.5348" y1="1660.5364" x2="-1884.7688" y2="1650.6901" gradientTransform="matrix(-1 3.400000e-03 3.400000e-03 1 765.878 4.8608)">
				<stop  offset="0" style="stop-color:#7A8ED7"/>
				<stop  offset="1" style="stop-color:#435AC1"/>
			</linearGradient>
			<path class="st135" d="M2583.2,1566.9c0,0-3.3,46.6-15.4,96.6s-28.5,82.7-28.5,82.7s99,10.5,117.4-13.3
				c16.5-21.4-20.3-146.4-42-174.4L2583.2,1566.9z"/>
			<path class="st24" d="M2550.5,1898.3l1.2-10.6l0,0l-3.1-40.9l0.3,0.1c0,0,6.4,1.5,9.9-5.8c2.6-5.3,2.2-9.4,1.8-11.2
				c-0.2-0.5-0.3-0.8-0.3-1c0.7-2.4,5.3-3.2,10.3-1.7c1.6,0.5,3.1,1.2,4.3,1.9l6.9,2.1l-22.1,72.9l-6.9-2.1
				C2551.1,1901.6,2550.2,1900,2550.5,1898.3z"/>
			<path class="st24" d="M2320.8,1926.2l10.5-1.3l0,0l38.9-12.9l0,0.3c0,0,0.1,6.6,8,8.2c5.8,1.2,9.7-0.2,11.3-1
				c0.4-0.3,0.7-0.5,0.9-0.5c2.6,0.1,4.4,4.4,4.2,9.5c-0.1,1.7-0.4,3.3-0.8,4.6l-0.3,7.1l-76.1-3.7l0.4-7.2
				C2317.8,1927.6,2319.1,1926.3,2320.8,1926.2z"/>
			<g>
				
					<linearGradient id="SVGID_124_" gradientUnits="userSpaceOnUse" x1="1858.9564" y1="1826.0811" x2="1950.8175" y2="1826.0811" gradientTransform="matrix(0.999 4.450000e-02 -4.450000e-02 0.999 632.4352 -192.3284)">
					<stop  offset="0" style="stop-color:#7A8ED7"/>
					<stop  offset="1" style="stop-color:#435AC1"/>
				</linearGradient>
				<polygon class="st136" points="2499.9,1722.9 2408.1,1718.8 2408.5,1710.4 2500.2,1714.5 				"/>
				
					<linearGradient id="SVGID_125_" gradientUnits="userSpaceOnUse" x1="1849.8907" y1="1800.6716" x2="1918.7782" y2="1800.6716" gradientTransform="matrix(0.999 4.450000e-02 -4.450000e-02 0.999 632.4352 -192.3284)">
					<stop  offset="0" style="stop-color:#7A8ED7"/>
					<stop  offset="1" style="stop-color:#435AC1"/>
				</linearGradient>
				<polygon class="st137" points="2467.8,1721.5 2408,1718.8 2401.7,1659.3 2461.5,1661.9 				"/>
				
					<linearGradient id="SVGID_126_" gradientUnits="userSpaceOnUse" x1="1875.3396" y1="1792.2938" x2="1885.2341" y2="1792.2938" gradientTransform="matrix(0.999 4.450000e-02 -4.450000e-02 0.999 632.4352 -192.3284)">
					<stop  offset="0" style="stop-color:#8094D9"/>
					<stop  offset="1" style="stop-color:#A0B4E8"/>
				</linearGradient>
				<path class="st138" d="M2436,1682.1c-0.1,2.3-2.4,4-5.1,3.9c-2.7-0.1-4.9-2.1-4.8-4.3c0.1-2.3,2.4-4,5.1-3.9
					C2434,1677.9,2436.1,1679.8,2436,1682.1z"/>
			</g>
			<path class="st129" d="M2588.3,1596.3l-6.4,107.5l7.9-8.5l-76.5,14.5l-6.9,1.3l2.1,13.5l7-0.9l77.3-9.9c4.3-0.5,7.4-4,7.9-8
				l0.1-0.5l11.3-107.1l1.2-11.8l-24.2-2L2588.3,1596.3z"/>
			<path class="st129" d="M2477.7,1720.6c0.8,4.8,8.9,9.5,19.2,9.2c9.5-0.3,15.2-6.4,14.7-11.3
				C2510.6,1707.5,2476.6,1713.1,2477.7,1720.6z"/>
			<path class="st129" d="M2483.9,1710.3c0.5-2.1,6.2-3.5,13.5-2.6c6.7,0.9,10.8,4.1,10.5,6.2
				C2507.2,1718.8,2483.1,1713.6,2483.9,1710.3z"/>
			
				<linearGradient id="SVGID_127_" gradientUnits="userSpaceOnUse" x1="-1778.9607" y1="1647.6029" x2="-1846.2433" y2="1668.663" gradientTransform="matrix(-1 3.400000e-03 3.400000e-03 1 765.878 4.8608)">
				<stop  offset="0" style="stop-color:#435AC1"/>
				<stop  offset="1" style="stop-color:#0F24A3"/>
			</linearGradient>
			<path class="st139" d="M2625,1594.6c6.4,24.6-3.9,92-27.1,117.5c-13.7,15.1-65.8,12.4-65.8,12.4l-4.7-19.6
				c0,0,38.7,1.4,44.9-21.7c6.2-23.1,5-88,16.8-98.7C2599.4,1575.1,2621.6,1581.3,2625,1594.6z"/>
		</g>
		<g>
			<polygon class="st128" points="1691.1,2315.3 1656.9,2315.4 1656.7,2250 1677.6,2250 			"/>
			<path class="st129" d="M1716,2216.7c5.9,26.8,1.7,53.9-14.5,59.8c-15.2,5.6-41.6-8.9-53.8-35.4c-12.8-27.9-6.7-48.8,15.8-56.6
				C1687.4,2176.2,1709.5,2187.3,1716,2216.7z"/>
			<path class="st24" d="M1668.2,2175c-24.8,2-38.5,24.6-36.8,46.9c1.6,20.8,23.8,31.8,23.8,31.8s7.3-21.1,19.3-24.5
				c16.8-4.8,9.5-19.7,17.3-21.4c8.2-1.7,25.9-8.3,25.6-20.1C1705.8,2188.1,1696.1,2172.7,1668.2,2175z"/>
			
				<ellipse transform="matrix(0.9111 -0.4122 0.4122 0.9111 -773.9938 884.7629)" class="st129" cx="1664" cy="2236.6" rx="7.4" ry="8.9"/>
			<path class="st24" d="M1668.3,2228.8c0,0,2,29,7.5,40c4.9,9.6,25.9,19.4,37.3-3.4c0,0-11.6,2.5-10.3-2.5
				c1.5-5.8,13.5-5.9,13.5-5.9s2.3-0.1,2.7-2.3c0.6-3.2-1-8.4-1-8.4s-15.8,5.7-22.6,5.7c-7.7,0-14.8-5.4-21.3-23.4L1668.3,2228.8z"
				/>
			<path class="st128" d="M1770.4,2867.9l-32-175.6l-21.6-86.5l-21.8-86.7l-7.4-29.5l-61.5,19.9l11.2,28.2l32.7,82.2
				c10.9,27.5,22,54.9,32.7,82.5l53.4,169l2.2,7l13.4-3.3L1770.4,2867.9z"/>
			<path class="st128" d="M1655.5,2490.5l-2.3,30.3l-13.3,171.6l-129.5,61.3l-6.7,3.2l4.9,12.8l7.1-2.2l148.6-45.5
				c5.5-1.7,9.9-6.2,11.2-12.3l0.5-2.5l37.2-177.8l6.2-29.7L1655.5,2490.5z"/>
			
				<linearGradient id="SVGID_128_" gradientUnits="userSpaceOnUse" x1="-983.6791" y1="2655.8455" x2="-871.6256" y2="2655.8455" gradientTransform="matrix(-1 3.400000e-03 3.400000e-03 1 765.878 4.8608)">
				<stop  offset="0" style="stop-color:#435AC1"/>
				<stop  offset="1" style="stop-color:#0F24A3"/>
			</linearGradient>
			<polygon class="st140" points="1616.8,2471.9 1732.1,2493.9 1769.2,2838 1730.6,2843.4 			"/>
			
				<linearGradient id="SVGID_129_" gradientUnits="userSpaceOnUse" x1="-942.022" y1="2645.1348" x2="-812.8468" y2="2601.6003" gradientTransform="matrix(-1 3.400000e-03 3.400000e-03 1 765.878 4.8608)">
				<stop  offset="0" style="stop-color:#435AC1"/>
				<stop  offset="1" style="stop-color:#0F24A3"/>
			</linearGradient>
			<path class="st141" d="M1611.2,2494.9l116.1-16.6c0,0-17.1,215.6-51.7,243.2c-19.3,15.4-126.7,41.5-126.7,41.5l-11.7-33
				c0,0,80.8-33,87.5-43.2C1632.2,2675.7,1611.2,2494.9,1611.2,2494.9z"/>
			<path class="st128" d="M1693.5,2327.3l76.5,108.6l-13.9-3.8l89.7-34.4l8.1-3.1l6.5,15.6l-7.9,3.6l-87.4,39.8
				c-4.8,2.2-10.4,0.7-13.5-3.3l-0.4-0.5l-81.3-105l-9-11.6l24.1-17.8L1693.5,2327.3z"/>
			
				<linearGradient id="SVGID_130_" gradientUnits="userSpaceOnUse" x1="-1004.6235" y1="2365.1104" x2="-918.3546" y2="2400.2991" gradientTransform="matrix(-1 3.400000e-03 3.400000e-03 1 765.878 4.8608)">
				<stop  offset="0" style="stop-color:#FFC0C1"/>
				<stop  offset="1" style="stop-color:#FD948E"/>
			</linearGradient>
			<path class="st142" d="M1653.9,2349.3c11.3,29.3,64.3,94.3,105.1,106c24.2,6.9,76.6-30.1,76.6-30.1l-7.7-23.6
				c0,0-39.7,26.6-61.2,6.3c-21.5-20.2-59.6-85.1-78.9-88.7C1670.8,2316.1,1648.8,2336.2,1653.9,2349.3z"/>
			<path class="st143" d="M1659.2,2301.6c0,0,18,15.7,35.9,5.1c0,0,6.4,65.5,14.5,92.2c8.1,26.7,31.5,95.4,31.5,95.4l-129.9,1.8
				C1607.4,2436.4,1629.8,2368.4,1659.2,2301.6z"/>
			
				<linearGradient id="SVGID_131_" gradientUnits="userSpaceOnUse" x1="-959.437" y1="2411.781" x2="-827.4276" y2="2392.5298" gradientTransform="matrix(-1 3.400000e-03 3.400000e-03 1 765.878 4.8608)">
				<stop  offset="0" style="stop-color:#FD948E"/>
				<stop  offset="1" style="stop-color:#F67C77"/>
			</linearGradient>
			<path class="st144" d="M1653,2296.2c0,0-62,93.4-48.9,192.7c0,0-5.3,19.5,65.4,16.6c70.7-2.9,74.7-12.7,74.7-12.7
				c-22.6-53.3-40.1-113.6-49-186.2C1695.1,2306.7,1668.6,2307.8,1653,2296.2z"/>
			<path class="st129" d="M1673.4,2342.3c-8.8,15.4-17.4,31.4-25.2,47.4c-3.9,8-7.7,16.1-11.1,24.2c-3.4,8.1-6.5,16.3-8.8,24.2
				c-0.5,2-1,3.9-1.4,5.8l-1.2,6.4c-0.7,4.3-1.4,8.7-2,13.1c-1.2,8.8-2.1,17.8-3,26.8c-1.7,18-3,36.1-4,54.1l-0.5,8.7l-16.9-0.4
				l0-8.7c0-18.4,0.2-36.7,0.9-55.1c0.4-9.2,0.8-18.4,1.5-27.7c0.3-4.6,0.8-9.3,1.3-14l0.9-7.1c0.4-2.6,0.9-5.1,1.4-7.6
				c2.2-9.8,5.2-18.8,8.4-27.7c3.2-8.9,6.7-17.5,10.4-26.1c7.3-17.1,15.1-33.7,23.6-50.4l6.6-13.1l26.3,14.4L1673.4,2342.3z"/>
			
				<linearGradient id="SVGID_132_" gradientUnits="userSpaceOnUse" x1="-872.2596" y1="2424.1765" x2="-814.0416" y2="2404.9231" gradientTransform="matrix(-1 3.400000e-03 3.400000e-03 1 765.878 4.8608)">
				<stop  offset="0" style="stop-color:#FFC0C1"/>
				<stop  offset="1" style="stop-color:#FD948E"/>
			</linearGradient>
			<path class="st145" d="M1642.6,2312.7c-22.4,22-35.1,71.9-44.6,113.3c-9.4,41.4-1.4,104.2-1.4,104.2l25.8,1
				c0,0,1.3-63.9,11.3-91.7c10-27.7,54.5-88.5,50-107.7C1679.7,2315,1652.6,2302.8,1642.6,2312.7z"/>
			<path class="st128" d="M1893.1,2388.1c2,5.7-4.8,15.9-17.3,22c-11.6,5.7-22,2.7-24.4-2.9C1846,2394.8,1890,2379.3,1893.1,2388.1z
				"/>
			<path class="st129" d="M1607.8,2603.9c-6-0.4-12.5-13.5-13-31.3c-0.4-16.4,6.5-27.2,12.6-27.3
				C1620.9,2545.2,1617,2604.6,1607.8,2603.9z"/>
			<path class="st129" d="M1621,2578.9c2.5-0.8,3.7-8,1.6-16.8c-1.9-8.2-6.2-12.8-8.8-12.2C1608,2551.2,1617.1,2580.2,1621,2578.9z"
				/>
			<path class="st24" d="M1821.9,2887c0,0-8.9-2.3-11.4-3.2c-9.8-3.5-35.3-13.8-35.3-13.8s-3.1,5.1-11,6.1c-5.8,0.7-10-1.3-10.2-1.3
				c-2.5-0.1-4.7,4-4.8,9.1c0,1.7,0.1,3.2,0.5,4.6l-0.2,7l75,2l0.2-7.1C1824.7,2888.6,1823.5,2887.2,1821.9,2887z"/>
			<path class="st24" d="M1513.5,2821.9c0,0-0.4-9.2-0.3-11.8c0.5-10.4,2.9-37.8,2.9-37.8s-5.8-1.5-9-8.7c-2.4-5.3-1.7-10-1.7-10.2
				c-0.7-2.4-5.2-3.3-10.1-1.9c-1.6,0.4-3,1.1-4.2,1.8l-6.8,1.9l19.9,72.3l6.9-1.9C1512.8,2825.1,1513.8,2823.5,1513.5,2821.9z"/>
			
				<rect x="1871.9" y="2360.5" transform="matrix(-0.9247 -0.3806 0.3806 -0.9247 2698.3574 5314.1133)" class="st24" width="5.4" height="59.4"/>
			<path class="st128" d="M1876.7,2381.4c-1.8-2-8.8-0.2-16.1,5.2c-6.7,5-9.3,10.8-7.7,12.9
				C1856.5,2404.3,1879.5,2384.5,1876.7,2381.4z"/>
		</g>
		<g>
			<g>
				<polygon class="st128" points="1074.5,1591 1049.6,1584.2 1062.5,1536.6 1077.7,1540.7 				"/>
				<path class="st129" d="M1112.4,1524.2c-1.1,20.7-9.6,39.6-22.5,40.7c-12.2,1-28.5-14.8-32.1-36.6c-3.7-22.9,4.9-36.9,22.9-38.1
					C1099.7,1488.9,1113.6,1501.5,1112.4,1524.2z"/>
				<path class="st24" d="M1078.8,1523.5c4-7.6,11.9-9.6,17.9-10.3c6-0.7,15.8,1.9,16.9-2.4c1.2-4.3-1.3-20.4-25.9-24.5
					c-22.3-3.7-36.1,8.8-41.6,24.8c-4.8,14,3.4,30,14.5,27.8C1071.8,1536.7,1074,1532.7,1078.8,1523.5z"/>
				<path class="st129" d="M1077.7,1530.2c0.5,3.7-1.5,7-4.6,7.5c-3.1,0.5-6-2.2-6.5-5.8c-0.5-3.7,1.5-7,4.6-7.5
					C1074.2,1523.9,1077.1,1526.5,1077.7,1530.2z"/>
				<path class="st24" d="M1086.7,1465.2c3.7,9.5-1.4,24.5-13.1,29.1s-25.7-2.9-29.4-12.4s4.9-15.5,16.7-20.1
					C1072.5,1457.2,1083,1455.7,1086.7,1465.2z"/>
				<path class="st128" d="M1194.2,1705.1c-0.2,4.5-7.2,9.8-16.9,10.5c-8.9,0.7-14.8-4.3-14.8-8.9
					C1162.4,1696.5,1194.5,1698.1,1194.2,1705.1z"/>
				<path class="st128" d="M1204.8,1755.1l-1.8-0.3l-128.4-23.3l-22.6-4.1l-5.5,48.6l22.9,1l111.3,4.9l-44.7,108.4l-2.1,5.2l9.4,4.6
					l2.7-4.9l67.9-120.3c0.7-1.3,1.2-2.7,1.5-4.2C1216.9,1763.4,1212,1756.5,1204.8,1755.1z"/>
				<path class="st128" d="M1217.2,1761.8l-1.6-0.3l-142.5-25.7l-22.6-4.1l-5.7,48.3l22.9,1.3l132.9,7.5l7.8,137.1l0.3,5.6l10.5,0
					l0.3-5.6l8.5-150.4C1228.4,1768.9,1223.8,1763,1217.2,1761.8z"/>
				
					<linearGradient id="SVGID_133_" gradientUnits="userSpaceOnUse" x1="14163.3604" y1="1724.2399" x2="14121.9258" y2="1748.202" gradientTransform="matrix(1 -3.400000e-03 3.400000e-03 1 -12952.8496 52.6368)">
					<stop  offset="0" style="stop-color:#FD948E"/>
					<stop  offset="1" style="stop-color:#F67C77"/>
				</linearGradient>
				<path class="st146" d="M1091.4,1720.1c16.4,26.2,113,16.8,127.1,36c18.7,25.6-57.4,125.2-57.4,125.2l-25.5-14.1
					c0,0,38.7-70.4,37.1-75.4c-2-6.4-108.1,9.1-136.9-15c-22.4-18.7-11.5-56.4-11.5-56.4L1091.4,1720.1z"/>
				
					<linearGradient id="SVGID_134_" gradientUnits="userSpaceOnUse" x1="14166.6787" y1="1744.6769" x2="14041.376" y2="1830.5416" gradientTransform="matrix(1 -3.400000e-03 3.400000e-03 1 -12952.8496 52.6368)">
					<stop  offset="0" style="stop-color:#FFC0C1"/>
					<stop  offset="1" style="stop-color:#FD948E"/>
				</linearGradient>
				<path class="st147" d="M1083.8,1720.1c14.3,32.2,129.6,19.9,146.1,47.9c13.3,22.6,0.1,137.7,0.1,137.7l-30.5-0.7
					c0,0-0.2-97.9-6.2-104.6c-4.4-4.9-126.9,6.8-157.5-14.9c-26.2-18.6-11.5-65.2-11.5-65.2L1083.8,1720.1z"/>
				<path class="st128" d="M1078,1601.4l17.7,98.8l-8.3-7l72.4,5.1l6.6,0.5l-0.5,12.8l-6.6-0.1l-72.6-0.7c-4,0-7.3-2.8-8.2-6.6
					l-0.1-0.5l-22.1-97.9l-2.4-10.8l22.2-4.5L1078,1601.4z"/>
				
					<linearGradient id="SVGID_135_" gradientUnits="userSpaceOnUse" x1="-373.1572" y1="1648.2323" x2="-247.1982" y2="1652.3352" gradientTransform="matrix(-1 3.400000e-03 3.400000e-03 1 765.878 4.8608)">
					<stop  offset="0" style="stop-color:#435AC1"/>
					<stop  offset="1" style="stop-color:#0F24A3"/>
				</linearGradient>
				<path class="st148" d="M1043.8,1603.8c-1.6,23.7,13.9,85.1,38.1,106.1c14.4,12.5,62.1,3.9,62.1,3.9l2.3-18.6
					c0,0-35.7,5.5-43.9-15.2c-8.2-20.7-13.6-77.3-25.7-85.9C1066,1586.5,1044.5,1593.2,1043.8,1603.8z"/>
				<path class="st143" d="M1055.2,1581.9c0,0,13.2,12.3,27,4.7c0,0,3.2,49.6,8.7,70c5.5,20.4,21.7,73.9,21.7,73.9l-98.4-2.9
					C1012.9,1682.4,1031.4,1631.6,1055.2,1581.9z"/>
				
					<linearGradient id="SVGID_136_" gradientUnits="userSpaceOnUse" x1="-339.8345" y1="1661.9148" x2="-234.8032" y2="1647.5551" gradientTransform="matrix(-1 3.400000e-03 3.400000e-03 1 765.878 4.8608)">
					<stop  offset="0" style="stop-color:#435AC1"/>
					<stop  offset="1" style="stop-color:#0F24A3"/>
				</linearGradient>
				<path class="st149" d="M1050.7,1577.7c0,0-49.1,69-41.7,144.3c0,0-4.5,14.6,49,14.2c53.4-0.5,56.7-7.7,56.7-7.7
					c-15.7-40.8-27.5-86.7-32.4-141.8C1082.2,1586.7,1062.2,1586.8,1050.7,1577.7z"/>
				<path class="st129" d="M1066.7,1616.9c-7.2,11.3-14.1,23.1-20.6,34.9c-3.2,5.9-6.3,11.9-9.2,17.9c-2.8,6-5.5,12.1-7.4,18
					c-0.5,1.5-0.9,2.9-1.3,4.3l-1.1,4.8c-0.7,3.3-1.3,6.5-1.9,9.8c-1.2,6.6-2.2,13.4-3.2,20.1c-1.9,13.5-3.5,27.1-4.8,40.7l-0.6,6.6
					l-12.8-0.8l0.3-6.6c0.6-13.9,1.4-27.7,2.5-41.6c0.6-6.9,1.2-13.9,2.1-20.9c0.4-3.5,0.9-7,1.4-10.5l0.9-5.3
					c0.4-1.9,0.8-3.8,1.3-5.7c2-7.3,4.5-14,7.3-20.6c2.7-6.6,5.7-13,8.7-19.3c6.1-12.7,12.5-24.9,19.5-37.3l5.4-9.6l19.4,11.8
					L1066.7,1616.9z"/>
				
					<linearGradient id="SVGID_137_" gradientUnits="userSpaceOnUse" x1="-275.93" y1="1674.9708" x2="-236.1364" y2="1663.8943" gradientTransform="matrix(-1 3.400000e-03 3.400000e-03 1 765.878 4.8608)">
					<stop  offset="0" style="stop-color:#435AC1"/>
					<stop  offset="1" style="stop-color:#0F24A3"/>
				</linearGradient>
				<path class="st150" d="M1044.4,1593.4c-17.6,15.9-28.9,53.1-37.4,84c-8.5,30.9-4.5,78.6-4.5,78.6l19.4,1.6
					c0,0,3.1-48.2,11.6-68.8c8.5-20.6,44-65,41.3-79.6C1072.4,1596.4,1052.3,1586.3,1044.4,1593.4z"/>
				<path class="st129" d="M1003.6,1812.1c-4.4-1.1-7.7-11.6-5.8-24.9c1.7-12.3,8.2-19.5,12.8-18.8
					C1020.7,1769.9,1010.4,1813.7,1003.6,1812.1z"/>
				<path class="st129" d="M1016.5,1795c2-0.3,3.7-5.5,3.3-12.3c-0.4-6.3-3-10.3-5.1-10.2C1010.3,1772.8,1013.5,1795.5,1016.5,1795z
					"/>
				<path class="st24" d="M1259.7,1937.1l-8-1.4l0,0l-29.2-11.2l0,0.2c0,0-0.3,5-6.4,6c-4.5,0.7-7.4-0.5-8.6-1.1
					c-0.3-0.3-0.5-0.4-0.7-0.4c-2,0-3.5,3.2-3.5,7.1c0,1.3,0.2,2.5,0.5,3.5l0,5.5l58.2-0.2l0-5.5
					C1262,1938.2,1261,1937.2,1259.7,1937.1z"/>
				<path class="st24" d="M1169.9,1929.6l-5.4-6l0,0l-16.2-26.8l-0.1,0.2c0,0-3.3,3.7-8.7,0.8c-4-2.2-5.5-4.9-6.1-6.2
					c-0.1-0.4-0.2-0.7-0.3-0.7c-1.5-1.2-4.7,0.4-7.2,3.5c-0.8,1-1.4,2.1-1.8,3.1l-3.3,4.3l46,35.7l3.4-4.4
					C1171,1931.9,1170.8,1930.5,1169.9,1929.6z"/>
				<path class="st128" d="M1186.1,1697.1c-0.6-1.9-5.9-2.9-12.7-1.6c-6.2,1.2-9.8,4.4-9.4,6.4
					C1164.9,1706.3,1187,1700,1186.1,1697.1z"/>
			</g>
			<g>
				
					<linearGradient id="SVGID_138_" gradientUnits="userSpaceOnUse" x1="14107.0371" y1="1669.2888" x2="14190.0156" y2="1669.2888" gradientTransform="matrix(1 -3.400000e-03 3.400000e-03 1 -12952.8496 52.6368)">
					<stop  offset="0" style="stop-color:#7A8ED7"/>
					<stop  offset="1" style="stop-color:#435AC1"/>
				</linearGradient>
				<path class="st151" d="M1239.6,1640.3L1239.6,1640.3c-2.4-0.7-4.9,0.6-5.6,2.9l-17.3,55.3l-52.3,0.2c-2.5,0-4.5,2-4.4,4.5
					c0,2.5,2,4.5,4.5,4.4l55.7-0.2c2.3,0,4.1-1.7,4.4-3.9l18-57.7C1243.3,1643.5,1242,1641,1239.6,1640.3z"/>
				<polygon class="st1" points="1216.8,1698.5 1219.5,1698.5 1236.3,1644.1 1233.7,1644.1 				"/>
			</g>
		</g>
		<g>
			<path class="st128" d="M2945.2,2197.8c-3.8,15.9-8.1,32.2-13,47.9c-2.5,7.9-5,15.7-7.9,23.3c-2.8,7.6-5.9,15.1-9.5,21.8
				c-3.3,6.2-8.3,12.9-13.3,19.4c-5,6.5-10.3,12.9-15.8,19.2c-10.9,12.6-22.3,25-33.8,37l-5.6,5.8l10.9,11.2l5.9-5.5
				c12.5-11.6,24.7-23.5,36.6-35.7c5.9-6.1,11.8-12.4,17.5-19c2.9-3.3,5.7-6.6,8.4-10.1c1.4-1.8,2.7-3.5,4.1-5.4c1.4-2,2.7-4,3.9-6
				c4.8-8,8.5-16,12-24c3.5-8,6.6-16.1,9.6-24.2c5.9-16.2,11.2-32.4,16-49.1l3.8-13l-26.8-6.9L2945.2,2197.8z"/>
			
				<linearGradient id="SVGID_139_" gradientUnits="userSpaceOnUse" x1="-2108.832" y1="2267.8804" x2="-2150.6772" y2="2274.0342" gradientTransform="matrix(-1 3.400000e-03 3.400000e-03 1 765.878 4.8608)">
				<stop  offset="0" style="stop-color:#FD948E"/>
				<stop  offset="1" style="stop-color:#F67C77"/>
			</linearGradient>
			<path class="st152" d="M2875.6,2331.7l34.8,36.8c0,0,31.6-48.4,46.6-78.3c18.9-37.7,44.4-96,14.8-109.6
				c-38.7-17.8-45.1,83.8-56.2,104C2906.7,2300.9,2875.6,2331.7,2875.6,2331.7z"/>
			<path class="st128" d="M2814.2,2409c3.7,4.1,16.9,1.4,30.1-8.4c12.1-9,16-20.2,12.6-24.7
				C2849.2,2366.1,2808.4,2402.7,2814.2,2409z"/>
			<path class="st24" d="M2940,2058.4c25.6-18.5,56.6-6.1,60.8,20.5c5.5,34.5-1.2,62.3,7.5,85.1c13.4,35.4,9.8,70.3,9.8,70.3
				c-35.2-47.6-71.4-27.7-91.5-75.7C2920.1,2143.3,2915.5,2076.1,2940,2058.4z"/>
			<polygon class="st128" points="2950.6,2174.6 2981.3,2174.5 2981.1,2115.8 2962.4,2115.9 			"/>
			<path class="st129" d="M2927.7,2086.3c-5.1,24.1-1.2,48.4,13.4,53.6c13.7,4.9,37.3-8.3,48-32.1c11.3-25.1,5.7-43.8-14.5-50.7
				C2953.1,2049.8,2933.3,2059.9,2927.7,2086.3z"/>
			<polygon class="st128" points="2889,2672.8 2909.1,2523.4 2930.4,2374.3 2934.2,2347.3 2991,2359.4 2983.6,2385.6 2942.4,2530.4 
				2902,2675.4 2900.2,2681.8 2888.2,2679.3 			"/>
			<path class="st128" d="M3012.5,2347l1,27.2l6,158.4l69.6,102.9l3.7,5.5l-9.6,7.6l-4.5-4.9l-88.7-95.4c-1.6-1.7-2.7-3.9-3.2-6.4
				l-0.4-2.3l-27.1-159.9l-4.6-26.9L3012.5,2347z"/>
			
				<linearGradient id="SVGID_140_" gradientUnits="userSpaceOnUse" x1="-2130.6731" y1="2485.6113" x2="-2184.2876" y2="2487.7002" gradientTransform="matrix(-1 3.400000e-03 3.400000e-03 1 765.878 4.8608)">
				<stop  offset="0" style="stop-color:#435AC1"/>
				<stop  offset="1" style="stop-color:#0F24A3"/>
			</linearGradient>
			<polygon class="st153" points="3002.1,2342 2921.7,2342.3 2887.9,2622.3 2934.8,2628.9 			"/>
			
				<linearGradient id="SVGID_141_" gradientUnits="userSpaceOnUse" x1="-2186.9163" y1="2493.75" x2="-2254.4595" y2="2479.1272" gradientTransform="matrix(-1 3.400000e-03 3.400000e-03 1 765.878 4.8608)">
				<stop  offset="0" style="stop-color:#435AC1"/>
				<stop  offset="1" style="stop-color:#0F24A3"/>
			</linearGradient>
			<path class="st154" d="M3024.2,2342l-77.3,0.3c0,0,14.8,178.8,26.4,199.8c13.9,25.2,68.8,83.5,68.8,83.5l37.1-28.8
				c0,0-39.3-55.3-48.9-81.3C3020.7,2489.4,3024.2,2342,3024.2,2342z"/>
			<path class="st133" d="M2982,2169.5c0,0-16.5,14.6-33,4.9c0,0-5.4,60.4-12.8,85.1c-7.3,24.7-26.3,87.4-26.3,87.4l117.6,1.7
				C3030.6,2293.4,3009.5,2230.9,2982,2169.5z"/>
			
				<linearGradient id="SVGID_142_" gradientUnits="userSpaceOnUse" x1="-2130.8098" y1="2273.6543" x2="-2254.3005" y2="2256.8333" gradientTransform="matrix(-1 3.400000e-03 3.400000e-03 1 765.878 4.8608)">
				<stop  offset="0" style="stop-color:#FFC0C1"/>
				<stop  offset="1" style="stop-color:#FD948E"/>
			</linearGradient>
			<path class="st155" d="M2986.1,2162.4c0,0,57.7,85.7,46.4,177.4c0,0,5,18-60.2,15.8c-65.2-2.2-68.9-11.2-68.9-11.2
				c20.5-49.2,36.3-105,44-172C2947.4,2172.4,2971.8,2173.2,2986.1,2162.4z"/>
			<path class="st24" d="M2842,2687.4l9.5-1.7v0l34.6-13.5l0,0.3c0,0,0.4,5.9,7.6,7c5.3,0.8,8.7-0.6,10.2-1.4
				c0.3-0.3,0.6-0.5,0.8-0.5c2.3,0,4.2,3.8,4.2,8.4c0,1.5-0.2,3-0.5,4.2l0,6.5l-69.1,0.2l0-6.6
				C2839.3,2688.8,2840.5,2687.5,2842,2687.4z"/>
			<path class="st24" d="M3054,2685.8l5.9-7.7l0,0l16.5-33.3l0.2,0.2c0,0,4.3,4.1,10.4,0.1c4.5-3,6.1-6.3,6.6-7.9
				c0-0.5,0.1-0.8,0.2-0.9c1.7-1.6,5.7,0,8.8,3.4c1,1.1,1.9,2.3,2.4,3.5l4.4,4.8l-50.9,46.7l-4.4-4.8
				C3052.9,2688.6,3052.9,2686.9,3054,2685.8z"/>
			<path class="st129" d="M3038.9,2429.7c-2.4-0.2-5.1-6.2-5.4-14.6c-0.2-7.7,2.5-12.9,5-13C3044,2402,3042.7,2429.9,3038.9,2429.7z
				"/>
			<path class="st129" d="M2973,2213.7c8.9,13.7,17.5,28,25.6,42.4c4,7.2,7.9,14.4,11.4,21.7c3.5,7.3,6.8,14.7,9.3,21.8
				c0.6,1.8,1.1,3.5,1.6,5.3l1.4,5.8c0.9,4,1.7,7.9,2.5,12c1.5,8.1,2.9,16.3,4.1,24.5c2.4,16.4,4.6,33.1,6.4,49.6l0.9,8l15.6-1.2
				l-0.4-8c-0.9-17-2-33.8-3.6-50.7c-0.8-8.5-1.7-16.9-2.8-25.4c-0.5-4.3-1.2-8.5-1.9-12.8l-1.2-6.5c-0.5-2.3-1.1-4.7-1.7-6.9
				c-2.5-8.9-5.7-17-9.1-25.1c-3.4-8-7.1-15.8-10.8-23.5c-7.6-15.4-15.6-30.3-24.2-45.3l-6.7-11.7l-23.5,14.6L2973,2213.7z"/>
			
				<linearGradient id="SVGID_143_" gradientUnits="userSpaceOnUse" x1="-2207.7588" y1="2286.8545" x2="-2268.0728" y2="2270.8528" gradientTransform="matrix(-1 3.400000e-03 3.400000e-03 1 765.878 4.8608)">
				<stop  offset="0" style="stop-color:#FD948E"/>
				<stop  offset="1" style="stop-color:#F67C77"/>
			</linearGradient>
			<path class="st156" d="M3007.7,2361.5l50.6,2c0,0-6.8-56.7-16.9-88.7c-12.8-40.2-35.3-99.7-66-88.8
				c-40.1,14.3,26.3,91.5,32.5,113.7C3012.9,2317.6,3007.7,2361.5,3007.7,2361.5z"/>
			<path class="st129" d="M3056.6,2449c5.2-1.8,8-15,4.2-31c-3.5-14.8-12.2-22.8-17.6-21.4C3031.1,2399.7,3048.5,2451.8,3056.6,2449
				z"/>
			<path class="st24" d="M2967.5,2050.5c7,0,11.7,0.6,17.7,3.6c9.6,4.9,22.2,16.7,24.8,43.5c2.4,25-7.5,37.2,13.9,60.7
				c24.1,18.1,66.8,14.9,62,55.8c-4.8,40.9-59,35.8-72,15.4c-13-20.4-11.6-38.6-18.8-51.5s-19.6-5.3-25.9-19.5
				c-7.3-13.4,5.2-43.4,7.5-48.6c-1.5-5-3.5-10.5-11.7-12.7c-17.5-4.7-32.1-21.2-32.1-26.6
				C2932.9,2065.3,2948.9,2050.6,2967.5,2050.5z"/>
			<path class="st129" d="M2968.3,2101.1c-1.8,4-0.5,8.5,2.8,10c3.4,1.5,7.5-0.6,9.3-4.6c1.8-4,0.5-8.5-2.8-10
				C2974.3,2095,2970.1,2097.1,2968.3,2101.1z"/>
			<path class="st128" d="M2824.8,2385.2c-0.8-2.3,3.7-7.2,11.3-10.8c7-3.3,12.8-2.8,13.9-0.6
				C2852.3,2378.9,2826.1,2388.8,2824.8,2385.2z"/>
		</g>
	</g>
</g>
</svg>
