<?xml version="1.0" encoding="utf-8"?>
<!-- Generator: Adobe Illustrator 18.0.0, SVG Export Plug-In . SVG Version: 6.00 Build 0)  -->
<!DOCTYPE svg PUBLIC "-//W3C//DTD SVG 1.1//EN" "http://www.w3.org/Graphics/SVG/1.1/DTD/svg11.dtd">
<svg version="1.1" id="Layer_1" xmlns="http://www.w3.org/2000/svg" xmlns:xlink="http://www.w3.org/1999/xlink" x="0px" y="0px"
	 viewBox="0 0 5140 3379.7" enable-background="new 0 0 5140 3379.7" xml:space="preserve">
<g>
	<polygon display="none" fill-rule="evenodd" clip-rule="evenodd" fill="#FFFFFF" points="5570,-310.1 5570,3689.9 -430,3689.9 
		-430,-310.1 5570,-310.1 	"/>
	<path fill-rule="evenodd" clip-rule="evenodd" fill="#E1F0FF" d="M4282.1,578.1H3140.7c0-29.5,45.4-53.5,101.3-53.5
		c6.7,0,13.3,0.3,19.6,1c26.2-32.5,76-54.5,133-54.5c1.2,0,2.5,0,3.7,0c-2.4-13.6-3.7-27.7-3.7-41.9c0-141.3,123.2-255.9,275-255.9
		c81.3,0,154.3,32.9,204.7,85.1c8.3-0.8,16.7-1.3,25.3-1.3c126.9,0,230,95.9,230,214C4213.7,471.1,4282.1,519,4282.1,578.1
		L4282.1,578.1z"/>
	<path fill-rule="evenodd" clip-rule="evenodd" fill="#CAD7E5" d="M2570,3323.3c1418.4,0,2570,12.6,2570,28.2
		c0,15.6-1151.6,28.2-2570,28.2S0,3367.1,0,3351.5C0,3336,1151.6,3323.3,2570,3323.3L2570,3323.3z"/>
	<path fill-rule="evenodd" clip-rule="evenodd" fill="#FFC700" d="M1721.4,249c142.4,0,258,115.6,258,258s-115.6,258-258,258
		c-142.4,0-258-115.6-258-258S1579,249,1721.4,249L1721.4,249z"/>
	<path fill-rule="evenodd" clip-rule="evenodd" fill="#E1F0FF" d="M2570,907.2H425.1c246.7-80.9,215.2-229,341.6-229
		c0.6,0,1.2,0,1.8,0c19.7-212.9,199.1-379.8,417.1-379.8c160.1,0,299.4,90.1,369.9,222.2c16-2.5,32.3-3.9,49-3.9
		c118.4,0,221.4,66.6,273.5,164.3c11.8-1.9,23.9-2.9,36.2-2.9C2040.6,678.2,2083.1,842.6,2570,907.2L2570,907.2z"/>
	<path fill-rule="evenodd" clip-rule="evenodd" fill="#83A7C2" d="M3601.4,1020c65.5,0,118.6,53.1,118.6,118.6
		c0,327.5,0,1241.8,0,1569.3c0,65.5-53.1,118.6-118.6,118.6c-508.5,0-2501.5,0-3010,0c-65.5,0-118.6-53.1-118.6-118.6
		c0-327.5,0-1241.8,0-1569.3c0-65.5,53.1-118.6,118.6-118.6C1099.9,1020,3092.8,1020,3601.4,1020L3601.4,1020z"/>
	<path fill-rule="evenodd" clip-rule="evenodd" fill="#6F92AD" d="M2096.4,1020h1505c65.5,0,118.6,53.1,118.6,118.6v1569.3
		c0,65.5-53.1,118.6-118.6,118.6h-1505V1020L2096.4,1020z"/>
	<polygon fill-rule="evenodd" clip-rule="evenodd" fill="#2D4D65" points="3616.5,1098.3 3616.5,2748.3 576.3,2748.3 576.3,1098.3 
		3616.5,1098.3 	"/>
	<polygon fill-rule="evenodd" clip-rule="evenodd" fill="#FFFFFF" points="3575.8,1129.3 3575.8,2717.3 617,2717.3 617,1129.3 
		3575.8,1129.3 	"/>
	<polygon fill-rule="evenodd" clip-rule="evenodd" fill="#6A91AF" points="2096.4,2826.6 2096.4,3208.4 1833.6,3208.4 
		1833.6,2826.6 2096.4,2826.6 	"/>
	<polygon fill-rule="evenodd" clip-rule="evenodd" fill="#5C83A2" points="2359.1,2826.6 2359.1,3208.4 2096.4,3208.4 
		2096.4,2826.6 2359.1,2826.6 	"/>
	<polygon fill-rule="evenodd" clip-rule="evenodd" fill="#6A91AF" points="2096.4,3160.6 2096.4,3256.1 1587.6,3256.1 
		1587.6,3160.6 2096.4,3160.6 	"/>
	<polygon fill-rule="evenodd" clip-rule="evenodd" fill="#6A91AF" points="2096.4,3256.1 2096.4,3351.5 1404.6,3351.5 
		1404.6,3256.1 2096.4,3256.1 	"/>
	<polygon fill-rule="evenodd" clip-rule="evenodd" fill="#5C83A2" points="2605.1,3160.6 2605.1,3256.1 2096.4,3256.1 
		2096.4,3160.6 2605.1,3160.6 	"/>
	<polygon fill-rule="evenodd" clip-rule="evenodd" fill="#5C83A2" points="2788.1,3256.1 2788.1,3351.5 2096.4,3351.5 
		2096.4,3256.1 2788.1,3256.1 	"/>
	<polygon fill-rule="evenodd" clip-rule="evenodd" fill="#4F6D85" points="2359.1,2826.6 2359.1,2843.7 1833.6,2843.7 
		1833.6,2826.6 2359.1,2826.6 	"/>
	<polygon fill-rule="evenodd" clip-rule="evenodd" fill="#4F6D85" points="2359.1,3143.5 2359.1,3160.6 1833.6,3160.6 
		1833.6,3143.5 2359.1,3143.5 	"/>
	<polygon fill-rule="evenodd" clip-rule="evenodd" fill="#4F6D85" points="2605.1,3238.9 2605.1,3256.1 1587.6,3256.1 
		1587.6,3238.9 2605.1,3238.9 	"/>
	<polygon fill="#C2E2F7" points="885.5,1179.7 3307.3,1179.7 3307.3,1466.1 885.5,1466.1 885.5,1179.7 	"/>
	<polygon fill="#FFFFFF" points="1633.1,1283 3205.7,1283 3205.7,1362.8 1633.1,1362.8 1633.1,1283 	"/>
	<polygon fill="#ADD6FF" points="2919.3,1291.7 3187.8,1291.7 3187.8,1354.1 2919.3,1354.1 2919.3,1291.7 	"/>
	<polygon fill="#FFFFFF" points="955.8,1244.2 1495.4,1244.2 1495.4,1424.6 955.8,1424.6 955.8,1244.2 	"/>
	<polygon fill="#E6F5FF" points="885.5,1466.1 3307.3,1466.1 3307.3,1768.8 885.5,1768.8 885.5,1466.1 	"/>
	<polygon fill="#E6F5FF" points="885.5,1874.8 3307.3,1874.8 3307.3,2623.6 885.5,2623.6 885.5,1874.8 	"/>
	<path fill="#FFFFFF" d="M974.2,1557.1c0-15.7,12.7-28.4,28.4-28.4h120.6c15.7,0,28.4,12.7,28.4,28.4v120.6
		c0,15.7-12.7,28.4-28.4,28.4h-120.6c-15.7,0-28.4-12.7-28.4-28.4V1557.1L974.2,1557.1z"/>
	<path fill="#FFFFFF" d="M980.6,1948.9c0-15.7,12.7-28.4,28.4-28.4h120.6c15.7,0,28.4,12.7,28.4,28.4v120.6
		c0,15.7-12.7,28.4-28.4,28.4H1009c-15.7,0-28.4-12.7-28.4-28.4V1948.9L980.6,1948.9z"/>
	<path fill="#FFFFFF" d="M980.6,2188.9c0-15.7,12.7-28.4,28.4-28.4h120.6c15.7,0,28.4,12.7,28.4,28.4v120.6
		c0,15.7-12.7,28.4-28.4,28.4H1009c-15.7,0-28.4-12.7-28.4-28.4V2188.9L980.6,2188.9z"/>
	<path fill="#FFFFFF" d="M980.6,2434.1c0-15.7,12.7-28.4,28.4-28.4h120.6c15.7,0,28.4,12.7,28.4,28.4v120.6
		c0,15.7-12.7,28.4-28.4,28.4H1009c-15.7,0-28.4-12.7-28.4-28.4V2434.1L980.6,2434.1z"/>
	<path fill="#FFFFFF" d="M2134.2,1557.1c0-15.7,12.7-28.4,28.4-28.4h120.6c15.7,0,28.4,12.7,28.4,28.4v120.6
		c0,15.7-12.7,28.4-28.4,28.4h-120.6c-15.7,0-28.4-12.7-28.4-28.4V1557.1L2134.2,1557.1z"/>
	<path fill="#FFFFFF" d="M2140.6,1948.9c0-15.7,12.7-28.4,28.4-28.4h120.6c15.7,0,28.4,12.7,28.4,28.4v120.6
		c0,15.7-12.7,28.4-28.4,28.4h-120.6c-15.7,0-28.4-12.7-28.4-28.4V1948.9L2140.6,1948.9z"/>
	<path fill="#FFFFFF" d="M2140.6,2188.9c0-15.7,12.7-28.4,28.4-28.4h120.6c15.7,0,28.4,12.7,28.4,28.4v120.6
		c0,15.7-12.7,28.4-28.4,28.4h-120.6c-15.7,0-28.4-12.7-28.4-28.4V2188.9L2140.6,2188.9z"/>
	<path fill="#FFFFFF" d="M2140.6,2434.1c0-15.7,12.7-28.4,28.4-28.4h120.6c15.7,0,28.4,12.7,28.4,28.4v120.6
		c0,15.7-12.7,28.4-28.4,28.4h-120.6c-15.7,0-28.4-12.7-28.4-28.4V2434.1L2140.6,2434.1z"/>
	<path fill="#FFFFFF" d="M1564.8,1557.1c0-15.7,12.7-28.4,28.4-28.4h120.6c15.7,0,28.4,12.7,28.4,28.4v120.6
		c0,15.7-12.7,28.4-28.4,28.4h-120.6c-15.7,0-28.4-12.7-28.4-28.4V1557.1L1564.8,1557.1z"/>
	<path fill="#FFFFFF" d="M1571.2,1948.9c0-15.7,12.7-28.4,28.4-28.4h120.6c15.7,0,28.4,12.7,28.4,28.4v120.6
		c0,15.7-12.7,28.4-28.4,28.4h-120.6c-15.7,0-28.4-12.7-28.4-28.4V1948.9L1571.2,1948.9z"/>
	<path fill="#FFFFFF" d="M1571.2,2188.9c0-15.7,12.7-28.4,28.4-28.4h120.6c15.7,0,28.4,12.7,28.4,28.4v120.6
		c0,15.7-12.7,28.4-28.4,28.4h-120.6c-15.7,0-28.4-12.7-28.4-28.4V2188.9L1571.2,2188.9z"/>
	<path fill="#FFFFFF" d="M1571.2,2434.1c0-15.7,12.7-28.4,28.4-28.4h120.6c15.7,0,28.4,12.7,28.4,28.4v120.6
		c0,15.7-12.7,28.4-28.4,28.4h-120.6c-15.7,0-28.4-12.7-28.4-28.4V2434.1L1571.2,2434.1z"/>
	<path fill="#FFFFFF" d="M2724.7,1557.1c0-15.7,12.7-28.4,28.4-28.4h120.6c15.7,0,28.4,12.7,28.4,28.4v120.6
		c0,15.7-12.7,28.4-28.4,28.4h-120.6c-15.7,0-28.4-12.7-28.4-28.4V1557.1L2724.7,1557.1z"/>
	<path fill="#FFFFFF" d="M2731.1,1948.9c0-15.7,12.7-28.4,28.4-28.4h120.6c15.7,0,28.4,12.7,28.4,28.4v120.6
		c0,15.7-12.7,28.4-28.4,28.4h-120.6c-15.7,0-28.4-12.7-28.4-28.4V1948.9L2731.1,1948.9z"/>
	<path fill="#FFFFFF" d="M2731.1,2188.9c0-15.7,12.7-28.4,28.4-28.4h120.6c15.7,0,28.4,12.7,28.4,28.4v120.6
		c0,15.7-12.7,28.4-28.4,28.4h-120.6c-15.7,0-28.4-12.7-28.4-28.4V2188.9L2731.1,2188.9z"/>
	<path fill="#FFFFFF" d="M2731.1,2434.1c0-15.7,12.7-28.4,28.4-28.4h120.6c15.7,0,28.4,12.7,28.4,28.4v120.6
		c0,15.7-12.7,28.4-28.4,28.4h-120.6c-15.7,0-28.4-12.7-28.4-28.4V2434.1L2731.1,2434.1z"/>
	<path fill="#FFFFFF" d="M1277.9,1557.1c0-15.7,12.7-28.4,28.4-28.4h120.6c15.7,0,28.4,12.7,28.4,28.4v120.6
		c0,15.7-12.7,28.4-28.4,28.4h-120.6c-15.7,0-28.4-12.7-28.4-28.4V1557.1L1277.9,1557.1z"/>
	<path fill="#FFFFFF" d="M1284.3,1948.9c0-15.7,12.7-28.4,28.4-28.4h120.6c15.7,0,28.4,12.7,28.4,28.4v120.6
		c0,15.7-12.7,28.4-28.4,28.4h-120.6c-15.7,0-28.4-12.7-28.4-28.4V1948.9L1284.3,1948.9z"/>
	<path fill="#FFFFFF" d="M1284.3,2188.9c0-15.7,12.7-28.4,28.4-28.4h120.6c15.7,0,28.4,12.7,28.4,28.4v120.6
		c0,15.7-12.7,28.4-28.4,28.4h-120.6c-15.7,0-28.4-12.7-28.4-28.4V2188.9L1284.3,2188.9z"/>
	<path fill="#FFFFFF" d="M1284.3,2434.1c0-15.7,12.7-28.4,28.4-28.4h120.6c15.7,0,28.4,12.7,28.4,28.4v120.6
		c0,15.7-12.7,28.4-28.4,28.4h-120.6c-15.7,0-28.4-12.7-28.4-28.4V2434.1L1284.3,2434.1z"/>
	<path fill="#FFFFFF" d="M2437.8,1557.1c0-15.7,12.7-28.4,28.4-28.4h120.6c15.7,0,28.4,12.7,28.4,28.4v120.6
		c0,15.7-12.7,28.4-28.4,28.4h-120.6c-15.7,0-28.4-12.7-28.4-28.4V1557.1L2437.8,1557.1z"/>
	<path fill="#FFFFFF" d="M2444.2,1948.9c0-15.7,12.7-28.4,28.4-28.4h120.6c15.7,0,28.4,12.7,28.4,28.4v120.6
		c0,15.7-12.7,28.4-28.4,28.4h-120.6c-15.7,0-28.4-12.7-28.4-28.4V1948.9L2444.2,1948.9z"/>
	<path fill="#FFFFFF" d="M2444.2,2188.9c0-15.7,12.7-28.4,28.4-28.4h120.6c15.7,0,28.4,12.7,28.4,28.4v120.6
		c0,15.7-12.7,28.4-28.4,28.4h-120.6c-15.7,0-28.4-12.7-28.4-28.4V2188.9L2444.2,2188.9z"/>
	<path fill="#FFFFFF" d="M2444.2,2434.1c0-15.7,12.7-28.4,28.4-28.4h120.6c15.7,0,28.4,12.7,28.4,28.4v120.6
		c0,15.7-12.7,28.4-28.4,28.4h-120.6c-15.7,0-28.4-12.7-28.4-28.4V2434.1L2444.2,2434.1z"/>
	<path fill="#FFFFFF" d="M1868.4,1557.1c0-15.7,12.7-28.4,28.4-28.4h120.6c15.7,0,28.4,12.7,28.4,28.4v120.6
		c0,15.7-12.7,28.4-28.4,28.4h-120.6c-15.7,0-28.4-12.7-28.4-28.4V1557.1L1868.4,1557.1z"/>
	<path fill="#FFFFFF" d="M1874.9,1948.9c0-15.7,12.7-28.4,28.4-28.4h120.6c15.7,0,28.4,12.7,28.4,28.4v120.6
		c0,15.7-12.7,28.4-28.4,28.4h-120.6c-15.7,0-28.4-12.7-28.4-28.4V1948.9L1874.9,1948.9z"/>
	<path fill="#FFFFFF" d="M1874.9,2188.9c0-15.7,12.7-28.4,28.4-28.4h120.6c15.7,0,28.4,12.7,28.4,28.4v120.6
		c0,15.7-12.7,28.4-28.4,28.4h-120.6c-15.7,0-28.4-12.7-28.4-28.4V2188.9L1874.9,2188.9z"/>
	<path fill="#FFFFFF" d="M1874.9,2434.1c0-15.7,12.7-28.4,28.4-28.4h120.6c15.7,0,28.4,12.7,28.4,28.4v120.6
		c0,15.7-12.7,28.4-28.4,28.4h-120.6c-15.7,0-28.4-12.7-28.4-28.4V2434.1L1874.9,2434.1z"/>
	<path fill="#FFFFFF" d="M3028.4,1557.1c0-15.7,12.7-28.4,28.4-28.4h120.6c15.7,0,28.4,12.7,28.4,28.4v120.6
		c0,15.7-12.7,28.4-28.4,28.4h-120.6c-15.7,0-28.4-12.7-28.4-28.4V1557.1L3028.4,1557.1z"/>
	<path fill="#FFFFFF" d="M3034.8,1948.9c0-15.7,12.7-28.4,28.4-28.4h120.6c15.7,0,28.4,12.7,28.4,28.4v120.6
		c0,15.7-12.7,28.4-28.4,28.4h-120.6c-15.7,0-28.4-12.7-28.4-28.4V1948.9L3034.8,1948.9z"/>
	<path fill="#FFFFFF" d="M3034.8,2188.9c0-15.7,12.7-28.4,28.4-28.4h120.6c15.7,0,28.4,12.7,28.4,28.4v120.6
		c0,15.7-12.7,28.4-28.4,28.4h-120.6c-15.7,0-28.4-12.7-28.4-28.4V2188.9L3034.8,2188.9z"/>
	<path fill="#FFFFFF" d="M3034.8,2434.1c0-15.7,12.7-28.4,28.4-28.4h120.6c15.7,0,28.4,12.7,28.4,28.4v120.6
		c0,15.7-12.7,28.4-28.4,28.4h-120.6c-15.7,0-28.4-12.7-28.4-28.4V2434.1L3034.8,2434.1z"/>
	<polygon fill-rule="evenodd" clip-rule="evenodd" fill="#ADC6D6" points="4016.6,86.5 4001,86.5 4001,490.1 4016.6,490.1 
		4016.6,86.5 	"/>
	<polygon fill-rule="evenodd" clip-rule="evenodd" fill="#ADC6D6" points="2641.8,919.2 2629.2,909.8 2248.3,1420.8 2260.8,1430.2 
		2641.8,919.2 	"/>
	<polygon fill-rule="evenodd" clip-rule="evenodd" fill="#ADC6D6" points="2582.7,921.6 2595.2,912.2 2976.2,1423.2 2963.6,1432.5 
		2582.7,921.6 	"/>
	<polygon fill-rule="evenodd" clip-rule="evenodd" fill="#ADC6D6" points="3910.9,891.4 3895.5,891.4 3895.5,1917.8 3910.9,1917.8 
		3910.9,891.4 	"/>
	<polygon fill-rule="evenodd" clip-rule="evenodd" fill="#ADC6D6" points="4066.6,891.4 4051.3,891.4 4051.3,1917.8 4066.6,1917.8 
		4066.6,891.4 	"/>
	<polygon fill-rule="evenodd" clip-rule="evenodd" fill="#ADC6D6" points="4066.6,1757.6 4055.8,1746.7 3895.5,1907 3906.4,1917.8 
		4066.6,1757.6 	"/>
	<polygon fill-rule="evenodd" clip-rule="evenodd" fill="#ADC6D6" points="3895.5,1757.6 3906.4,1746.7 4066.6,1907 4055.8,1917.8 
		3895.5,1757.6 	"/>
	<polygon fill-rule="evenodd" clip-rule="evenodd" fill="#ADC6D6" points="4066.6,1586.5 4055.8,1575.7 3895.5,1735.9 
		3906.4,1746.7 4066.6,1586.5 	"/>
	<polygon fill-rule="evenodd" clip-rule="evenodd" fill="#ADC6D6" points="3895.5,1586.5 3906.4,1575.7 4066.6,1735.9 
		4055.8,1746.7 3895.5,1586.5 	"/>
	<polygon fill-rule="evenodd" clip-rule="evenodd" fill="#ADC6D6" points="4066.6,1415.4 4055.8,1404.6 3895.5,1564.8 
		3906.4,1575.7 4066.6,1415.4 	"/>
	<polygon fill-rule="evenodd" clip-rule="evenodd" fill="#ADC6D6" points="3895.5,1415.4 3906.4,1404.6 4066.6,1564.8 
		4055.8,1575.7 3895.5,1415.4 	"/>
	<polygon fill-rule="evenodd" clip-rule="evenodd" fill="#ADC6D6" points="4066.6,1244.4 4055.8,1233.5 3895.5,1393.7 
		3906.4,1404.6 4066.6,1244.4 	"/>
	<polygon fill-rule="evenodd" clip-rule="evenodd" fill="#ADC6D6" points="3895.5,1244.4 3906.4,1233.5 4066.6,1393.7 
		4055.8,1404.6 3895.5,1244.4 	"/>
	<polygon fill-rule="evenodd" clip-rule="evenodd" fill="#ADC6D6" points="4066.6,1073.3 4055.8,1062.4 3895.5,1222.7 
		3906.4,1233.5 4066.6,1073.3 	"/>
	<polygon fill-rule="evenodd" clip-rule="evenodd" fill="#ADC6D6" points="3895.5,1073.3 3906.4,1062.4 4066.6,1222.7 
		4055.8,1233.5 3895.5,1073.3 	"/>
	<polygon fill-rule="evenodd" clip-rule="evenodd" fill="#ADC6D6" points="4009.1,0 4095.1,487.4 4080,490.1 4001,42.3 4008.4,0.1 
		4009.1,0 	"/>
	<polygon fill-rule="evenodd" clip-rule="evenodd" fill="#ADC6D6" points="4008.4,0.1 4009.1,0 4016.6,42.3 3937.5,490.1 
		3922.4,487.4 4008.4,0.1 	"/>
	<polygon fill-rule="evenodd" clip-rule="evenodd" fill="#ADC6D6" points="4066.6,902.2 4055.8,891.4 3895.5,1051.6 3906.4,1062.4 
		4066.6,902.2 	"/>
	<polygon fill-rule="evenodd" clip-rule="evenodd" fill="#ADC6D6" points="3895.5,902.2 3906.4,891.4 4066.6,1051.6 4055.8,1062.4 
		3895.5,902.2 	"/>
	<polygon fill-rule="evenodd" clip-rule="evenodd" fill="#ADC6D6" points="3910.9,1917.8 3895.5,1917.8 3895.5,3027.9 
		3910.9,3027.9 3910.9,1917.8 	"/>
	<polygon fill-rule="evenodd" clip-rule="evenodd" fill="#ADC6D6" points="4066.6,1917.8 4051.3,1917.8 4051.3,3027.9 
		4066.6,3027.9 4066.6,1917.8 	"/>
	<polygon fill-rule="evenodd" clip-rule="evenodd" fill="#ADC6D6" points="4066.6,2784 4055.8,2773.2 3895.5,2933.4 3906.4,2944.3 
		4066.6,2784 	"/>
	<polygon fill-rule="evenodd" clip-rule="evenodd" fill="#ADC6D6" points="3895.5,2784 3906.4,2773.2 4066.6,2933.4 4055.8,2944.3 
		3895.5,2784 	"/>
	<polygon fill-rule="evenodd" clip-rule="evenodd" fill="#ADC6D6" points="4066.6,2613 4055.8,2602.1 3895.5,2762.3 3906.4,2773.2 
		4066.6,2613 	"/>
	<polygon fill-rule="evenodd" clip-rule="evenodd" fill="#ADC6D6" points="3895.5,2613 3906.4,2602.1 4066.6,2762.3 4055.8,2773.2 
		3895.5,2613 	"/>
	<polygon fill-rule="evenodd" clip-rule="evenodd" fill="#ADC6D6" points="4066.6,2441.9 4055.8,2431 3895.5,2591.3 3906.4,2602.1 
		4066.6,2441.9 	"/>
	<polygon fill-rule="evenodd" clip-rule="evenodd" fill="#ADC6D6" points="3895.5,2441.9 3906.4,2431 4066.6,2591.3 4055.8,2602.1 
		3895.5,2441.9 	"/>
	<polygon fill-rule="evenodd" clip-rule="evenodd" fill="#ADC6D6" points="4066.6,2270.8 4055.8,2260 3895.5,2420.2 3906.4,2431 
		4066.6,2270.8 	"/>
	<polygon fill-rule="evenodd" clip-rule="evenodd" fill="#ADC6D6" points="3895.5,2270.8 3906.4,2260 4066.6,2420.2 4055.8,2431 
		3895.5,2270.8 	"/>
	<polygon fill-rule="evenodd" clip-rule="evenodd" fill="#ADC6D6" points="4066.6,2099.7 4055.8,2088.9 3895.5,2249.1 3906.4,2260 
		4066.6,2099.7 	"/>
	<polygon fill-rule="evenodd" clip-rule="evenodd" fill="#ADC6D6" points="3895.5,2099.7 3906.4,2088.9 4066.6,2249.1 4055.8,2260 
		3895.5,2099.7 	"/>
	<polygon fill-rule="evenodd" clip-rule="evenodd" fill="#ADC6D6" points="4066.6,1928.7 4055.8,1917.8 3895.5,2078 3906.4,2088.9 
		4066.6,1928.7 	"/>
	<polygon fill-rule="evenodd" clip-rule="evenodd" fill="#ADC6D6" points="3895.5,1928.7 3906.4,1917.8 4066.6,2078 4055.8,2088.9 
		3895.5,1928.7 	"/>
	<polygon fill-rule="evenodd" clip-rule="evenodd" fill="#ADC6D6" points="4667.1,734.2 4667.1,718.9 3640.7,719.6 3640.7,734.9 
		4667.1,734.2 	"/>
	<polygon fill-rule="evenodd" clip-rule="evenodd" fill="#ADC6D6" points="4667.2,889.9 4667.2,874.6 3640.8,875.3 3640.8,890.6 
		4667.2,889.9 	"/>
	<polygon fill-rule="evenodd" clip-rule="evenodd" fill="#ADC6D6" points="3801,890.5 3811.8,879.7 3651.5,719.6 3640.7,730.4 
		3801,890.5 	"/>
	<polygon fill-rule="evenodd" clip-rule="evenodd" fill="#ADC6D6" points="3800.9,719.5 3811.7,730.3 3651.6,890.6 3640.8,879.8 
		3800.9,719.5 	"/>
	<polygon fill-rule="evenodd" clip-rule="evenodd" fill="#ADC6D6" points="3972.1,890.4 3982.9,879.6 3822.6,719.4 3811.7,730.3 
		3972.1,890.4 	"/>
	<polygon fill-rule="evenodd" clip-rule="evenodd" fill="#ADC6D6" points="3972,719.3 3982.8,730.2 3822.7,890.5 3811.8,879.7 
		3972,719.3 	"/>
	<polygon fill-rule="evenodd" clip-rule="evenodd" fill="#ADC6D6" points="4143.2,890.3 4154,879.4 3993.7,719.3 3982.8,730.2 
		4143.2,890.3 	"/>
	<polygon fill-rule="evenodd" clip-rule="evenodd" fill="#ADC6D6" points="4143,719.2 4153.9,730.1 3993.8,890.4 3982.9,879.6 
		4143,719.2 	"/>
	<polygon fill-rule="evenodd" clip-rule="evenodd" fill="#ADC6D6" points="4314.2,890.2 4325.1,879.3 4164.7,719.2 4153.9,730.1 
		4314.2,890.2 	"/>
	<polygon fill-rule="evenodd" clip-rule="evenodd" fill="#ADC6D6" points="4314.1,719.1 4325,730 4164.9,890.3 4154,879.4 
		4314.1,719.1 	"/>
	<polygon fill-rule="evenodd" clip-rule="evenodd" fill="#ADC6D6" points="4485.3,890.1 4496.2,879.2 4335.8,719.1 4325,730 
		4485.3,890.1 	"/>
	<polygon fill-rule="evenodd" clip-rule="evenodd" fill="#ADC6D6" points="4485.2,719 4496,729.8 4335.9,890.2 4325.1,879.3 
		4485.2,719 	"/>
	<polygon fill-rule="evenodd" clip-rule="evenodd" fill="#ADC6D6" points="4656.4,890 4667.2,879.1 4506.9,719 4496,729.8 
		4656.4,890 	"/>
	<polygon fill-rule="evenodd" clip-rule="evenodd" fill="#ADC6D6" points="4656.3,718.9 4667.1,729.7 4507,890.1 4496.2,879.2 
		4656.3,718.9 	"/>
	<polygon fill-rule="evenodd" clip-rule="evenodd" fill="#ADC6D6" points="3640.7,734.9 3640.7,719.6 2614.2,720.3 2614.2,735.6 
		3640.7,734.9 	"/>
	<polygon fill-rule="evenodd" clip-rule="evenodd" fill="#ADC6D6" points="3640.8,890.6 3640.8,875.3 2614.3,876 2614.3,891.4 
		3640.8,890.6 	"/>
	<polygon fill-rule="evenodd" clip-rule="evenodd" fill="#ADC6D6" points="2774.5,891.2 2785.4,880.4 2625.1,720.3 2614.2,731.1 
		2774.5,891.2 	"/>
	<polygon fill-rule="evenodd" clip-rule="evenodd" fill="#ADC6D6" points="2774.4,720.2 2785.3,731 2625.2,891.3 2614.3,880.5 
		2774.4,720.2 	"/>
	<polygon fill-rule="evenodd" clip-rule="evenodd" fill="#ADC6D6" points="2945.6,891.1 2956.5,880.3 2796.1,720.2 2785.3,731 
		2945.6,891.1 	"/>
	<polygon fill-rule="evenodd" clip-rule="evenodd" fill="#ADC6D6" points="2945.5,720 2956.4,730.9 2796.2,891.2 2785.4,880.4 
		2945.5,720 	"/>
	<polygon fill-rule="evenodd" clip-rule="evenodd" fill="#ADC6D6" points="3116.7,891 3127.5,880.2 2967.2,720 2956.4,730.9 
		3116.7,891 	"/>
	<polygon fill-rule="evenodd" clip-rule="evenodd" fill="#ADC6D6" points="3116.6,719.9 3127.4,730.8 2967.3,891.1 2956.5,880.3 
		3116.6,719.9 	"/>
	<polygon fill-rule="evenodd" clip-rule="evenodd" fill="#ADC6D6" points="3287.8,890.9 3298.6,880 3138.3,719.9 3127.4,730.8 
		3287.8,890.9 	"/>
	<polygon fill-rule="evenodd" clip-rule="evenodd" fill="#ADC6D6" points="3287.7,719.8 3298.5,730.7 3138.4,891 3127.5,880.2 
		3287.7,719.8 	"/>
	<polygon fill-rule="evenodd" clip-rule="evenodd" fill="#ADC6D6" points="3458.8,890.8 3469.7,879.9 3309.4,719.8 3298.5,730.7 
		3458.8,890.8 	"/>
	<polygon fill-rule="evenodd" clip-rule="evenodd" fill="#ADC6D6" points="3458.7,719.7 3469.6,730.5 3309.5,890.9 3298.6,880 
		3458.7,719.7 	"/>
	<polygon fill-rule="evenodd" clip-rule="evenodd" fill="#ADC6D6" points="3629.9,890.7 3640.8,879.8 3480.4,719.7 3469.6,730.5 
		3629.9,890.7 	"/>
	<polygon fill-rule="evenodd" clip-rule="evenodd" fill="#ADC6D6" points="3629.8,719.6 3640.7,730.4 3480.6,890.8 3469.7,879.9 
		3629.8,719.6 	"/>
	<polygon fill-rule="evenodd" clip-rule="evenodd" fill="#ADC6D6" points="2096.7,719.2 2614.1,718.9 2614.1,734.2 2096.4,734.6 
		2096.7,734.2 2096.7,719.2 	"/>
	<polygon fill-rule="evenodd" clip-rule="evenodd" fill="#ADC6D6" points="2096.7,890.3 2096.7,875.2 2096.5,875 2614.2,874.6 
		2614.2,889.9 2096.7,890.3 	"/>
	<polygon fill-rule="evenodd" clip-rule="evenodd" fill="#ADC6D6" points="2096.7,883.7 2096.7,875.2 2101,879.4 2096.7,883.7 	"/>
	<polygon fill-rule="evenodd" clip-rule="evenodd" fill="#ADC6D6" points="2096.7,725.9 2100.9,730.1 2096.7,734.2 2096.7,725.9 	
		"/>
	<polygon fill-rule="evenodd" clip-rule="evenodd" fill="#ADC6D6" points="2261.2,890.2 2272,879.3 2111.7,719.2 2100.9,730.1 
		2261.2,890.2 	"/>
	<polygon fill-rule="evenodd" clip-rule="evenodd" fill="#ADC6D6" points="2261.1,719.1 2271.9,730 2111.8,890.3 2101,879.4 
		2261.1,719.1 	"/>
	<polygon fill-rule="evenodd" clip-rule="evenodd" fill="#ADC6D6" points="2432.3,890.1 2443.1,879.2 2282.8,719.1 2271.9,730 
		2432.3,890.1 	"/>
	<polygon fill-rule="evenodd" clip-rule="evenodd" fill="#ADC6D6" points="2432.2,719 2443,729.8 2282.9,890.2 2272,879.3 
		2432.2,719 	"/>
	<polygon fill-rule="evenodd" clip-rule="evenodd" fill="#ADC6D6" points="2603.3,890 2614.2,879.1 2453.9,719 2443,729.8 
		2603.3,890 	"/>
	<polygon fill-rule="evenodd" clip-rule="evenodd" fill="#ADC6D6" points="2603.2,718.9 2614.1,729.7 2454,890.1 2443.1,879.2 
		2603.2,718.9 	"/>
	<path fill-rule="evenodd" clip-rule="evenodd" fill="#ADC6D6" d="M2096.7,875.2l-0.3-0.3h0.3V875.2L2096.7,875.2z M2096.7,734.6
		h-0.4l0.4-0.4V734.6L2096.7,734.6z"/>
	<path fill-rule="evenodd" clip-rule="evenodd" fill="#ADC6D6" d="M4351.3,529.3c0-41-33.3-74.3-74.3-74.3c-109.8,0-319,0-473.2,0
		c-104.8,0-189.8,85-189.8,189.8c0,117.2,0,245.4,0,245.4h737.2C4351.3,890.2,4351.3,653.6,4351.3,529.3L4351.3,529.3z"/>
	<path fill-rule="evenodd" clip-rule="evenodd" fill="#ADC6D6" d="M4066.6,625.4c0-20.2-8-39.6-22.3-53.9
		c-14.3-14.3-33.7-22.3-53.9-22.3c-52.4,0-121.8,0-174.2,0c-20.2,0-39.6,8-53.9,22.3c-14.3,14.3-22.3,33.7-22.3,53.9
		c0,25.3,0,47.2,0,47.2h326.6C4066.6,672.6,4066.6,650.7,4066.6,625.4L4066.6,625.4z"/>
	<path fill-rule="evenodd" clip-rule="evenodd" fill="#ADC6D6" d="M4291.7,550.4c0-10.8-4.3-21.1-11.9-28.8s-18-11.9-28.8-11.9
		c-27.4,0-63.5,0-90.9,0c-10.8,0-21.1,4.3-28.8,11.9c-7.6,7.6-11.9,18-11.9,28.8c0,62.6,0,181.7,0,244.3c0,10.8,4.3,21.1,11.9,28.8
		c7.6,7.6,18,11.9,28.8,11.9c27.4,0,63.5,0,90.9,0c10.8,0,21.1-4.3,28.8-11.9c7.6-7.6,11.9-18,11.9-28.8
		C4291.7,732.1,4291.7,613,4291.7,550.4L4291.7,550.4z"/>
	<polygon fill-rule="evenodd" clip-rule="evenodd" fill="#ADC6D6" points="4667.2,718.9 4651.9,718.9 4651.9,889.9 4667.2,889.9 
		4667.2,718.9 	"/>
	<polygon fill-rule="evenodd" clip-rule="evenodd" fill="#ADC6D6" points="4667.2,890.2 4423.4,890.2 4423.4,1062.4 4667.2,1062.4 
		4667.2,890.2 	"/>
	<path fill-rule="evenodd" clip-rule="evenodd" fill="#ADC6D6" d="M4285.1,3143.1c0-16.4-13.3-29.6-29.6-29.6
		c-103.5,0-448.4,0-552,0c-16.4,0-29.6,13.3-29.6,29.6c0,63.8,0,208.4,0,208.4h611.3C4285.1,3351.4,4285.1,3206.9,4285.1,3143.1
		L4285.1,3143.1z"/>
	<path fill-rule="evenodd" clip-rule="evenodd" fill="#ADC6D6" d="M4203.9,3126.8c0-26.2-10.4-51.4-29-69.9
		c-18.5-18.5-43.7-29-69.9-29c-73.3,0-172.8,0-246.1,0c-26.2,0-51.4,10.4-69.9,29c-18.5,18.5-29,43.7-29,69.9c0,37.9,0,72.2,0,72.2
		h443.9C4203.9,3198.9,4203.9,3164.7,4203.9,3126.8L4203.9,3126.8z"/>
	<path fill-rule="evenodd" clip-rule="evenodd" fill="#899BA7" d="M4203,3113.4h-442.1c0.5-3.9,1.3-7.8,2.3-11.6h437.5
		C4201.7,3105.6,4202.5,3109.5,4203,3113.4L4203,3113.4z"/>
	<polygon fill-rule="evenodd" clip-rule="evenodd" fill="#ADC6D6" points="2779.4,875.2 2449,875.2 2449,949.2 2779.4,949.2 
		2779.4,875.2 	"/>
	<polygon fill-rule="evenodd" clip-rule="evenodd" fill="#ADC6D6" points="4012.8,20.4 4007.4,6 2096.4,721.3 2101.7,735.6 
		4012.8,20.4 	"/>
	<polygon fill-rule="evenodd" clip-rule="evenodd" fill="#ADC6D6" points="4667.2,753.2 3996.8,16.3 4008.1,6 4667.2,730.4 
		4667.2,753.2 	"/>
	<path fill="#ADC6D6" d="M2227.4,1391.5c0-46.8,37.9-84.7,84.7-84.7h645.7c46.8,0,84.7,37.9,84.7,84.7v645.6
		c0,46.8-37.9,84.7-84.7,84.7h-645.7c-46.8,0-84.7-37.9-84.7-84.7V1391.5L2227.4,1391.5z"/>
	<path fill="#7992A2" d="M2888.7,1510.2l-234.1,238.5l-169.5-93.9l-257.7,205v177.4c0,46.8,37.9,84.7,84.7,84.7h645.7
		c29.2,0,55-14.8,70.2-37.3c0,0,0,0,0,0c1.5-2.2,3-4.6,4.3-6.9c0,0,0,0,0,0c1.3-2.4,2.5-4.8,3.6-7.4c0,0,0,0,0,0
		c3.2-7.6,5.3-15.7,6.2-24.3c0,0,0,0,0,0c0.3-2.8,0.5-5.7,0.5-8.6v-374.8L2888.7,1510.2L2888.7,1510.2z"/>
	<path fill="#F5891D" d="M2579,1542.4c0-46.9,38-85,84.9-85c46.9,0,85,38,85,85c0,46.9-38,85-85,85
		C2617,1627.4,2579,1589.3,2579,1542.4L2579,1542.4z"/>
	<polygon fill-rule="evenodd" clip-rule="evenodd" fill="#C8DAEA" points="2194.3,1758.9 885.5,1758.9 885.5,1901.6 2194.3,1901.6 
		2194.3,1758.9 	"/>
	<polygon fill-rule="evenodd" clip-rule="evenodd" fill="#98B2C8" points="2199.3,1758.9 2025,1758.9 2025,1901.6 2199.3,1901.6 
		2199.3,1758.9 	"/>
	<path fill="#FFFFFF" d="M2142.8,1858.8c0.8,0.8,0.9,2.1,0.1,2.9l0,0c-0.8,0.8-2.1,0.9-2.9,0.1l-18-16.5c1.1-0.9,2.1-1.9,3.1-2.9
		L2142.8,1858.8L2142.8,1858.8z"/>
	<path fill="#FFFFFF" d="M2076.5,1784.4c18.4-12.4,43.5-7.6,55.9,10.9c12.4,18.4,7.6,43.5-10.9,55.9c-18.4,12.4-43.5,7.6-55.9-10.9
		C2053.2,1821.9,2058.1,1796.9,2076.5,1784.4L2076.5,1784.4z M2079,1788.1c-16.4,11.1-20.7,33.4-9.7,49.8
		c11.1,16.4,33.4,20.7,49.8,9.7c16.4-11.1,20.7-33.4,9.7-49.8C2117.7,1781.3,2095.4,1777,2079,1788.1L2079,1788.1z"/>
	<path fill="#FFFFFF" d="M2159.8,1882.1c1.4,1.3,3.6,1.2,4.8-0.2l0.1-0.1c1.3-1.4,1.2-3.6-0.2-4.8l-25.5-23.5
		c-1.4-1.3-3.6-1.2-4.8,0.2l-0.1,0.1c-1.3,1.4-1.2,3.6,0.2,4.8L2159.8,1882.1L2159.8,1882.1z"/>
	<polygon fill-rule="evenodd" clip-rule="evenodd" fill="#C0C0C0" points="694.6,2431.6 628.1,2431.6 628.1,3326.9 694.6,3326.9 
		694.6,2431.6 	"/>
	<polygon fill-rule="evenodd" clip-rule="evenodd" fill="#C0C0C0" points="1481.7,2431.6 1415.1,2431.6 1415.1,3326.9 
		1481.7,3326.9 1481.7,2431.6 	"/>
	<polygon fill-rule="evenodd" clip-rule="evenodd" fill="#D9D9D9" points="1662.2,2537.1 472.8,2537.1 472.8,2661.1 1662.2,2661.1 
		1662.2,2537.1 	"/>
	<polygon fill-rule="evenodd" clip-rule="evenodd" fill="#D9D9D9" points="1662.2,2821.2 472.8,2821.2 472.8,2945.2 1662.2,2945.2 
		1662.2,2821.2 	"/>
	<path fill-rule="evenodd" clip-rule="evenodd" fill="#FF9100" d="M497.8,2821.2l-25.1,22.7v-22.7H497.8L497.8,2821.2z
		 M491.2,2661.1l136.9-124h183.4l-136.9,124H491.2L491.2,2661.1z"/>
	<path fill-rule="evenodd" clip-rule="evenodd" fill="#FF9100" d="M689,2821.2h183.4l-136.9,124H552.1L689,2821.2L689,2821.2z
		 M1049.1,2661.1H865.7l136.9-124H1186L1049.1,2661.1L1049.1,2661.1z"/>
	<path fill-rule="evenodd" clip-rule="evenodd" fill="#FF9100" d="M1063.5,2821.2h183.4l-136.9,124H926.6L1063.5,2821.2
		L1063.5,2821.2z M1423.6,2661.1h-183.4l136.9-124h183.4L1423.6,2661.1L1423.6,2661.1z"/>
	<path fill-rule="evenodd" clip-rule="evenodd" fill="#FF9100" d="M1438,2821.2h183.4l-136.9,124h-183.4L1438,2821.2L1438,2821.2z
		 M1614.7,2661.1l47.5-43v43H1614.7L1614.7,2661.1z"/>
	<path fill-rule="evenodd" clip-rule="evenodd" fill="#C0C0C0" d="M661.4,2353.4c42.4,0,76.9,35,76.9,78.2
		c0,43.1-34.4,78.2-76.9,78.2s-76.9-35-76.9-78.2C584.5,2388.4,618.9,2353.4,661.4,2353.4L661.4,2353.4z"/>
	<path fill-rule="evenodd" clip-rule="evenodd" fill="#C0C0C0" d="M1448.4,2353.4c42.4,0,76.9,35,76.9,78.2
		c0,43.1-34.4,78.2-76.9,78.2c-42.4,0-76.9-35-76.9-78.2C1371.5,2388.4,1405.9,2353.4,1448.4,2353.4L1448.4,2353.4z"/>
	<path fill-rule="evenodd" clip-rule="evenodd" fill="#FF9100" d="M661.4,2377.6c29.3,0,53.1,24.2,53.1,54c0,29.8-23.8,54-53.1,54
		s-53.1-24.2-53.1-54C608.3,2401.8,632.1,2377.6,661.4,2377.6L661.4,2377.6z"/>
	<path fill-rule="evenodd" clip-rule="evenodd" fill="#FF9100" d="M1448.4,2377.6c29.3,0,53.1,24.2,53.1,54c0,29.8-23.8,54-53.1,54
		s-53.1-24.2-53.1-54C1395.3,2401.8,1419.1,2377.6,1448.4,2377.6L1448.4,2377.6z"/>
	<path fill-rule="evenodd" clip-rule="evenodd" fill="#808080" d="M734.5,3342.8c0-10.7-4.3-21-11.9-28.6s-17.9-11.9-28.6-11.9
		c-22.4,0-50.3,0-72.7,0c-10.7,0-21,4.3-28.6,11.9c-7.6,7.6-11.9,17.9-11.9,28.6c0,5.2,0,8.7,0,8.7h153.7
		C734.5,3351.5,734.5,3348,734.5,3342.8L734.5,3342.8z"/>
	<path fill-rule="evenodd" clip-rule="evenodd" fill="#808080" d="M1525.2,3342.8c0-10.7-4.3-21-11.9-28.6
		c-7.6-7.6-17.9-11.9-28.6-11.9c-22.4,0-50.3,0-72.7,0c-10.7,0-21,4.3-28.6,11.9c-7.6,7.6-11.9,17.9-11.9,28.6c0,5.2,0,8.7,0,8.7
		h153.7C1525.2,3351.5,1525.2,3348,1525.2,3342.8L1525.2,3342.8z"/>
	<path fill-rule="evenodd" clip-rule="evenodd" fill="#E1F0FF" d="M3140.7,292.7l-1141.4,5.7c0,0,165.1-9.6,212.4-43.9
		c4.9-3.5,11.9,0.2,17.5,0.7c23.4-23.3,67.8-39,118.8-39c1.1,0,2.2,0,3.3,0c-2.2-9.8-3.3-19.8-3.3-30c0-101,110.1-182.9,245.6-182.9
		c72.6,0,137.9,23.5,182.8,60.8c7.4-0.6,14.9-0.9,22.6-0.9c113.4,0,205.4,68.5,205.4,153C3079.6,216.3,3140.7,250.5,3140.7,292.7
		L3140.7,292.7z"/>
</g>
</svg>
