<?xml version="1.0" encoding="utf-8"?>
<!-- Generator: Adobe Illustrator 24.0.2, SVG Export Plug-In . SVG Version: 6.00 Build 0)  -->
<svg version="1.1" id="Layer_1" xmlns="http://www.w3.org/2000/svg" xmlns:xlink="http://www.w3.org/1999/xlink" x="0px" y="0px"
	 viewBox="0 0 3000 2500" style="enable-background:new 0 0 3000 2500;" xml:space="preserve">
<style type="text/css">
	.st0{display:none;fill:#FFFFFF;}
	.st1{fill-rule:evenodd;clip-rule:evenodd;fill:#E9EFF8;}
	.st2{fill-rule:evenodd;clip-rule:evenodd;fill:#FFFFFF;}
	.st3{fill-rule:evenodd;clip-rule:evenodd;fill:#D0D7ED;}
	.st4{fill-rule:evenodd;clip-rule:evenodd;fill:#BCC9E7;}
	.st5{fill-rule:evenodd;clip-rule:evenodd;fill:#99A9D4;}
	.st6{fill-rule:evenodd;clip-rule:evenodd;fill:#AAB9DE;}
	.st7{fill-rule:evenodd;clip-rule:evenodd;fill:#D0D9EE;}
	.st8{fill-rule:evenodd;clip-rule:evenodd;fill:#D1A383;}
	.st9{fill-rule:evenodd;clip-rule:evenodd;fill:#EAC5A8;}
	.st10{fill-rule:evenodd;clip-rule:evenodd;fill:#C19274;}
	.st11{fill-rule:evenodd;clip-rule:evenodd;fill:#F4AE7C;}
	.st12{fill-rule:evenodd;clip-rule:evenodd;fill:#0F3970;}
	.st13{fill-rule:evenodd;clip-rule:evenodd;fill:#ED7D5B;}
	.st14{fill-rule:evenodd;clip-rule:evenodd;fill:#142D4D;}
	.st15{fill-rule:evenodd;clip-rule:evenodd;fill:#8D9FCA;}
	.st16{fill-rule:evenodd;clip-rule:evenodd;fill:#E97850;}
</style>
<rect x="0.5" y="-0.5" class="st0" width="3000" height="2500"/>
<g>
	<g>
		<path class="st1" d="M1562.22,302.69c250,0,221.47,441.51,401.94,576.09C2203.04,1056.9,2614,968.71,2614,1274.41
			c0,536.67-533.05,731.11-1113.92,731.11c-580.89,0-1076.54-297.65-903.58-832.9C769.46,637.36,981.34,302.69,1562.22,302.69z"/>
	</g>
	<g>
		<path class="st1" d="M2319.45,709.42l-15.96,9.28c-5.38,3.13-7.23,10.1-4.1,15.47l3.53,6.06c4.15,7.15,2.34,10.38,1.05,11.53
			c-3.55,3.18-6.84,6.63-10.15,10.06c-0.97,1.01-4.05,4.47-12.17-0.25l-5.57-3.23c-5.39-3.12-12.34-1.28-15.47,4.1l-9.28,15.96
			c-3.13,5.38-1.28,12.34,4.09,15.47l5.52,3.2c7.61,4.43,7.41,6.69,6.45,9.92c-1.33,4.43-2.75,8.85-3.71,13.44
			c-0.86,4.08-0.47,7-10.82,7h-6.34c-6.23,0-11.32,5.09-11.32,11.32v18.46c0,6.24,5.09,11.32,11.32,11.32h6.34
			c10.35,0,9.97,2.92,10.82,7.01c0.97,4.58,2.39,9.02,3.71,13.44c0.97,3.22,1.16,5.5-6.45,9.92l-5.52,3.19
			c-5.38,3.13-7.22,10.09-4.09,15.48l9.28,15.96c3.13,5.37,10.09,7.22,15.47,4.09l5.57-3.23c8.12-4.72,11.2-1.27,12.17-0.26
			c3.3,3.44,6.6,6.89,10.15,10.06c1.3,1.15,3.1,4.39-1.05,11.53l-3.53,6.06c-3.13,5.39-1.28,12.34,4.1,15.47l15.96,9.28
			c5.38,3.13,12.34,1.3,15.47-4.09l3.52-6.04c4.21-7.26,8.36-6.98,10.12-6.41c5.09,1.62,9.79,2.67,15.05,4.04
			c1.91,0.5,5.2,1.9,5.2,10.53v6.48c0,6.24,5.08,11.32,11.31,11.32h18.47c6.23,0,11.32-5.08,11.32-11.32v-6.48
			c0-8.64,3.28-10.03,5.2-10.53c5.25-1.37,9.95-2.42,15.05-4.04c1.75-0.56,5.9-0.85,10.12,6.41l3.51,6.04
			c3.13,5.39,10.1,7.22,15.47,4.09l15.96-9.28c5.39-3.13,7.23-10.08,4.1-15.47l-3.53-6.06c-4.15-7.15-2.35-10.38-1.05-11.53
			c3.55-3.17,6.84-6.63,10.15-10.06c0.97-1.01,4.06-4.47,12.17,0.26l5.57,3.23c5.38,3.13,12.34,1.28,15.47-4.09l9.28-15.96
			c3.13-5.39,1.3-12.35-4.09-15.48l-5.52-3.19c-7.61-4.43-7.41-6.7-6.44-9.92c1.32-4.43,2.74-8.86,3.71-13.44
			c0.87-4.09,0.47-7.01,10.82-7.01h6.34c6.24,0,11.32-5.08,11.32-11.32v-18.46c0-6.23-5.08-11.32-11.32-11.32h-6.34
			c-10.35,0-9.95-2.92-10.82-7c-0.97-4.59-2.39-9.02-3.71-13.44c-0.97-3.23-1.17-5.5,6.44-9.92l5.52-3.2
			c5.38-3.13,7.22-10.1,4.09-15.47l-9.28-15.96c-3.13-5.39-10.09-7.22-15.47-4.1l-5.57,3.23c-8.11,4.72-11.2,1.26-12.17,0.25
			c-3.3-3.44-6.6-6.88-10.15-10.06c-1.3-1.15-3.1-4.39,1.05-11.53l3.53-6.06c3.13-5.37,1.29-12.34-4.1-15.47l-15.96-9.28
			c-5.38-3.13-12.34-1.28-15.47,4.09l-3.51,6.05c-4.22,7.25-8.37,6.97-10.12,6.4c-5.09-1.62-9.79-2.66-15.05-4.03
			c-1.91-0.5-5.2-1.9-5.2-10.54v-6.48c0-6.23-5.09-11.32-11.32-11.32h-18.47c-6.23,0-11.31,5.09-11.31,11.32v6.48
			c0,8.65-3.28,10.04-5.2,10.54c-5.26,1.37-9.97,2.41-15.05,4.03c-1.76,0.56-5.91,0.85-10.12-6.4l-3.52-6.05
			C2331.79,708.14,2324.83,706.29,2319.45,709.42L2319.45,709.42z M2389.36,823.61c13.46,0,24.37,10.91,24.37,24.37
			c0,13.46-10.91,24.38-24.37,24.38c-13.47,0-24.39-10.92-24.39-24.38C2364.98,834.52,2375.89,823.61,2389.36,823.61L2389.36,823.61
			z M2312.94,847.98c0-2.88,2.33-5.21,5.21-5.21c2.89,0,5.22,2.33,5.22,5.21c0,18.22,7.38,34.72,19.33,46.67
			c11.94,11.94,28.44,19.33,46.67,19.33c2.87,0,5.21,2.33,5.21,5.21c0,2.89-2.33,5.22-5.21,5.22c-21.1,0-40.21-8.56-54.04-22.38
			C2321.49,888.2,2312.94,869.08,2312.94,847.98L2312.94,847.98z M2464.78,835.67c0.45,2.83-1.49,5.51-4.32,5.96
			c-2.83,0.45-5.5-1.49-5.94-4.32c-2.24-13.82-8.8-26.21-18.24-35.75c-9.44-9.54-21.78-16.23-35.59-18.6
			c-2.83-0.49-4.74-3.18-4.25-6.02c0.48-2.84,3.17-4.74,6.01-4.25c15.99,2.77,30.28,10.48,41.21,21.54
			C2454.58,805.26,2462.17,819.63,2464.78,835.67L2464.78,835.67z M2389.36,757.43c50,0,90.55,40.54,90.55,90.55
			c0,50.01-40.55,90.55-90.55,90.55c-50.01,0-90.56-40.54-90.56-90.55C2298.8,797.97,2339.35,757.43,2389.36,757.43z"/>
	</g>
	<g>
		<path class="st1" d="M1974.6,301.84l-26.73,15.54c-9.02,5.24-12.11,16.9-6.86,25.91l5.9,10.15c6.95,11.96,3.93,17.38,1.76,19.32
			c-5.94,5.32-11.46,11.11-17,16.86c-1.62,1.69-6.78,7.47-20.38-0.43l-9.32-5.41c-9.02-5.24-20.67-2.16-25.91,6.85l-15.54,26.73
			c-5.24,9.01-2.16,20.67,6.85,25.91l9.23,5.36c12.75,7.4,12.42,11.21,10.8,16.61c-2.21,7.41-4.59,14.84-6.21,22.52
			c-1.45,6.83-0.8,11.72-18.13,11.72h-10.62c-10.44,0-18.96,8.52-18.96,18.96v30.92c0,10.44,8.52,18.96,18.96,18.96h10.62
			c17.33,0,16.68,4.89,18.13,11.72c1.62,7.68,4,15.1,6.21,22.52c1.62,5.4,1.95,9.21-10.8,16.62l-9.23,5.35
			c-9.02,5.24-12.1,16.9-6.85,25.91l15.54,26.73c5.24,9.02,16.9,12.11,25.91,6.86l9.32-5.42c13.6-7.9,18.75-2.12,20.38-0.43
			c5.54,5.75,11.06,11.53,17,16.86c2.16,1.94,5.19,7.35-1.76,19.32l-5.9,10.15c-5.24,9.02-2.15,20.67,6.86,25.91l26.73,15.54
			c9.01,5.24,20.67,2.16,25.91-6.85l5.89-10.12c7.07-12.15,14.02-11.67,16.96-10.74c8.52,2.71,16.4,4.48,25.2,6.76
			c3.2,0.83,8.71,3.17,8.71,17.65v10.85c0,10.43,8.52,18.95,18.96,18.95h30.92c10.44,0,18.95-8.52,18.95-18.95v-10.85
			c0-14.48,5.5-16.82,8.72-17.65c8.8-2.28,16.68-4.05,25.2-6.76c2.94-0.93,9.89-1.41,16.95,10.74l5.89,10.12
			c5.24,9.02,16.9,12.1,25.91,6.85l26.73-15.54c9-5.24,12.1-16.9,6.85-25.91l-5.91-10.15c-6.95-11.96-3.93-17.38-1.76-19.32
			c5.96-5.32,11.46-11.11,17-16.86c1.62-1.69,6.79-7.47,20.38,0.43l9.32,5.42c9.02,5.24,20.67,2.15,25.91-6.86l15.55-26.73
			c5.24-9.02,2.15-20.67-6.86-25.91l-9.23-5.35c-12.75-7.41-12.41-11.22-10.8-16.62c2.21-7.41,4.6-14.84,6.22-22.52
			c1.44-6.83,0.78-11.72,18.12-11.72h10.63c10.44,0,18.95-8.52,18.95-18.96v-30.92c0-10.44-8.5-18.96-18.95-18.96h-10.63
			c-17.34,0-16.69-4.89-18.12-11.72c-1.62-7.68-4.01-15.1-6.22-22.52c-1.61-5.4-1.95-9.21,10.8-16.61l9.23-5.36
			c9.02-5.24,12.11-16.9,6.86-25.91l-15.55-26.73c-5.24-9.02-16.9-12.1-25.91-6.85l-9.32,5.41c-13.58,7.9-18.75,2.12-20.38,0.43
			c-5.54-5.75-11.04-11.53-17-16.86c-2.16-1.94-5.19-7.35,1.76-19.32l5.91-10.15c5.24-9.02,2.15-20.67-6.85-25.91l-26.73-15.54
			c-9.02-5.24-20.67-2.16-25.91,6.85l-5.89,10.12c-7.06,12.15-14.01,11.67-16.95,10.74c-8.53-2.72-16.4-4.47-25.2-6.76
			c-3.21-0.83-8.72-3.17-8.72-17.65v-10.84c0-10.44-8.5-18.96-18.95-18.96h-30.92c-10.44,0-18.96,8.51-18.96,18.96v10.84
			c0,14.48-5.51,16.82-8.71,17.65c-8.8,2.3-16.68,4.05-25.2,6.76c-2.94,0.94-9.89,1.41-16.96-10.74l-5.89-10.12
			C1995.27,299.68,1983.6,296.6,1974.6,301.84L1974.6,301.84z M2091.68,493.08c22.55,0,40.82,18.29,40.82,40.83
			s-18.28,40.83-40.82,40.83c-22.56,0-40.83-18.29-40.83-40.83S2069.12,493.08,2091.68,493.08L2091.68,493.08z M1963.68,533.91
			c0-4.82,3.92-8.73,8.74-8.73c4.82,0,8.73,3.9,8.73,8.73c0,30.52,12.37,58.15,32.37,78.15s47.64,32.38,78.16,32.38
			c4.82,0,8.73,3.91,8.73,8.73c0,4.82-3.91,8.74-8.73,8.74c-35.35,0-67.35-14.33-90.51-37.49
			C1978.01,601.25,1963.68,569.25,1963.68,533.91L1963.68,533.91z M2217.99,513.3c0.76,4.74-2.49,9.21-7.23,9.97
			c-4.75,0.75-9.21-2.49-9.96-7.24c-3.76-23.15-14.73-43.9-30.53-59.86c-15.83-15.99-36.49-27.17-59.61-31.16
			c-4.75-0.82-7.94-5.32-7.14-10.08c0.82-4.74,5.32-7.93,10.07-7.13c26.78,4.62,50.71,17.57,69.02,36.07
			C2200.91,462.36,2213.63,486.43,2217.99,513.3L2217.99,513.3z M2091.68,382.25c83.76,0,151.66,67.9,151.66,151.66
			s-67.9,151.66-151.66,151.66c-83.77,0-151.67-67.9-151.67-151.66S2007.91,382.25,2091.68,382.25z"/>
	</g>
	<g>
		<path class="st2" d="M1040.25,898.12l-44.87,26.1c-15.13,8.8-20.31,28.37-11.51,43.51l9.9,17.03c11.69,20.09,6.6,29.19,2.97,32.43
			c-9.98,8.94-19.24,18.64-28.53,28.31c-2.73,2.85-11.4,12.55-34.21-0.72l-15.65-9.09c-15.14-8.8-34.71-3.62-43.51,11.51
			l-26.11,44.88c-8.8,15.13-3.62,34.7,11.52,43.5l15.5,9.01c21.4,12.44,20.84,18.82,18.13,27.89c-3.72,12.45-7.72,24.91-10.44,37.8
			c-2.42,11.48-1.33,19.68-30.43,19.68h-17.84c-17.53,0-31.82,14.3-31.82,31.83v51.92c0,17.53,14.29,31.83,31.82,31.83h17.84
			c29.11,0,28.02,8.2,30.43,19.68c2.72,12.89,6.72,25.35,10.44,37.8c2.71,9.08,3.26,15.45-18.13,27.89l-15.5,9.01
			c-15.14,8.8-20.32,28.37-11.52,43.5l26.11,44.88c8.8,15.14,28.37,20.32,43.51,11.52l15.65-9.09c22.81-13.27,31.48-3.56,34.21-0.72
			c9.29,9.67,18.55,19.38,28.53,28.31c3.63,3.25,8.72,12.34-2.97,32.44l-9.9,17.03c-8.8,15.13-3.62,34.7,11.51,43.5l44.87,26.1
			c15.13,8.8,34.71,3.63,43.51-11.5l9.88-16.99c11.86-20.41,23.54-19.6,28.47-18.03c14.31,4.56,27.53,7.51,42.3,11.35
			c5.4,1.41,14.64,5.34,14.64,29.64v18.22c0,17.53,14.29,31.82,31.82,31.82h51.92c17.53,0,31.83-14.29,31.83-31.82v-18.22
			c0-24.3,9.23-28.23,14.62-29.64c14.78-3.84,27.99-6.79,42.31-11.35c4.93-1.57,16.6-2.37,28.47,18.03l9.88,16.99
			c8.79,15.13,28.37,20.3,43.51,11.5l44.88-26.1c15.14-8.8,20.31-28.37,11.51-43.5l-9.9-17.03c-11.69-20.1-6.6-29.19-2.97-32.44
			c9.99-8.93,19.24-18.64,28.54-28.31c2.72-2.83,11.4-12.55,34.22,0.72l15.65,9.09c15.12,8.8,34.7,3.62,43.5-11.52l26.1-44.88
			c8.8-15.13,3.62-34.7-11.51-43.5l-15.5-9.01c-21.4-12.44-20.84-18.82-18.13-27.89c3.72-12.45,7.72-24.91,10.44-37.8
			c2.43-11.48,1.32-19.68,30.43-19.68h17.83c17.53,0,31.83-14.3,31.83-31.83v-51.92c0-17.53-14.3-31.83-31.83-31.83h-17.83
			c-29.11,0-28-8.2-30.43-19.68c-2.72-12.89-6.72-25.35-10.44-37.8c-2.71-9.08-3.26-15.45,18.13-27.89l15.5-9.01
			c15.14-8.8,20.32-28.37,11.51-43.5l-26.1-44.88c-8.8-15.13-28.38-20.31-43.5-11.51l-15.65,9.09
			c-22.81,13.27-31.49,3.57-34.22,0.72c-9.3-9.67-18.55-19.37-28.54-28.31c-3.63-3.24-8.72-12.34,2.97-32.43l9.9-17.03
			c8.8-15.14,3.63-34.7-11.51-43.51l-44.88-26.1c-15.14-8.8-34.71-3.63-43.51,11.51l-9.88,16.99
			c-11.87,20.4-23.55,19.59-28.47,18.02c-14.32-4.56-27.53-7.5-42.31-11.35c-5.39-1.41-14.62-5.32-14.62-29.62v-18.23
			c0-17.53-14.3-31.82-31.83-31.82h-51.92c-17.53,0-31.82,14.29-31.82,31.82v18.23c0,24.3-9.24,28.22-14.64,29.62
			c-14.78,3.85-27.99,6.79-42.3,11.35c-4.94,1.57-16.61,2.38-28.47-18.02l-9.88-16.99C1074.97,894.49,1055.38,889.31,1040.25,898.12
			L1040.25,898.12z M1236.84,1219.2c37.85,0,68.55,30.7,68.55,68.55c0,37.87-30.7,68.56-68.55,68.56
			c-37.87,0-68.56-30.7-68.56-68.56C1168.28,1249.9,1198.97,1219.2,1236.84,1219.2L1236.84,1219.2z M1021.94,1287.77
			c0-8.1,6.57-14.66,14.67-14.66c8.09,0,14.66,6.57,14.66,14.66c0,51.23,20.77,97.64,54.35,131.21
			c33.58,33.58,79.97,54.36,131.22,54.36c8.1,0,14.66,6.57,14.66,14.66c0,8.1-6.57,14.66-14.66,14.66
			c-59.34,0-113.07-24.05-151.96-62.94C1045.99,1400.84,1021.94,1347.1,1021.94,1287.77L1021.94,1287.77z M1448.91,1253.16
			c1.26,7.98-4.18,15.46-12.15,16.73c-7.98,1.26-15.47-4.17-16.74-12.15c-6.3-38.88-24.72-73.71-51.26-100.52
			c-26.58-26.83-61.27-45.61-100.08-52.31c-7.98-1.36-13.34-8.93-11.97-16.91c1.36-7.97,8.92-13.33,16.9-11.97
			c44.96,7.76,85.14,29.5,115.89,60.57C1420.24,1167.63,1441.59,1208.04,1448.91,1253.16L1448.91,1253.16z M1236.84,1033.13
			c140.62,0,254.63,114,254.63,254.64c0,140.62-114.01,254.64-254.63,254.64c-140.63,0-254.64-114.01-254.64-254.64
			C982.2,1147.14,1096.21,1033.13,1236.84,1033.13z"/>
	</g>
	<g>
		<path class="st2" d="M1211.65,1193.6c-20.38,15.28-45.45,21.66-70.62,18.05c-25.16-3.59-47.46-16.8-62.71-37.14
			c-12.71-16.99-19.24-37.22-18.92-58.64c0.51-29.71,14.4-56.95,38.02-74.66c42.02-31.49,101.84-22.94,133.3,19.1
			c12.67,16.89,19.2,37.01,18.93,58.25C1250.11,1147.5,1234.62,1176.4,1211.65,1193.6L1211.65,1193.6z M828.39,734.75
			c-7.65-10.2-11.63-22.42-11.4-35.4c0.33-17.94,8.7-34.37,22.88-45.1c25.45-18.98,61.59-13.81,80.57,11.56
			c14.87,19.54,15.1,47.49,1.03,67.64c-4.19,5.17-7.09,8.8-12.58,12.86c-23.96,17.96-58.15,14.35-77.99-8.53L828.39,734.75
			L828.39,734.75z M943.95,709.03l0.71-7.6c0.23-15.6-4.61-30.84-14-43.31c-23.17-30.95-67.31-37.29-98.42-14.06
			c-17.4,13.06-27.62,33.2-28.02,55.17c-0.24,15.75,4.56,30.71,13.93,43.19l3.35,3.97c24,27.67,65.74,32.09,95.04,10.18
			c6.66-4.9,10.3-9.48,15.36-15.75c4.19-5.98,7.31-12.43,9.46-19.25l118,17.63c-0.47,6.44-0.71,12.48-0.28,18.97
			c2.77,53.43,34.17,101.08,81.62,125.4c13.26,6.75,27.49,11.33,42.14,13.84l-16.62,112.82c-26.29-2.91-53.64,3.7-76.4,20.75
			c-26.84,20.12-42.56,50.99-43.15,84.72c-0.39,24.23,7.04,47.19,21.45,66.46c17.32,23.1,42.56,38.06,71.14,42.15
			c28.54,4.09,56.97-3.19,80.02-20.49c26.85-20.12,42.58-50.96,43.16-84.69l-0.02-0.06c0.38-24.2-7.02-47.15-21.44-66.43
			c-15.93-21.19-38.16-34.83-62.15-40.33l16.63-113.21c13.2,1.15,26.5,0.69,39.65-1.68c22.66-4.01,44.55-13.52,63.25-27.57
			c37.22-27.86,59.09-70.62,59.99-117.71c0.78-27.18-7.23-55.61-21.15-78.82l86.34-64.8c11.86,13.11,25.44,24.08,40.71,32.66
			c57.92,33.25,129.8,28.82,183.14-11.21c41.54-31.09,65.87-78.86,66.73-131v-0.09l0.02-0.05c1.39-84.14-59.76-155.94-143.24-167.92
			c-44.15-6.34-88.19,4.91-123.88,31.68c-41.5,31.13-65.82,78.92-66.69,131.02c-0.59,37.21,10.85,73.03,33.24,102.88l1.82,2.19
			l-85.3,63.98l-1.68-2.49c-14.07-18.72-31.72-33.51-52.36-43.88c-51.17-25.78-111.41-20.45-157.29,13.94
			c-23.3,17.51-40.93,41.2-50.88,68.5c-3.31,8.98-5.57,18.28-7.1,27.73L943.95,709.03L943.95,709.03z M1290.7,859.64
			c-17.13,12.85-37.14,21.57-57.81,25.24c-29.35,5.24-60.01,0.73-86.38-12.71c-43.4-22.1-72.15-65.95-74.68-114.71
			c-0.23-3.2-0.17-6.41-0.17-9.68l-0.01-1.5c0.4-14.9,3.19-29.41,8.23-43.13c9.12-25,25.2-46.69,46.55-62.69
			c41.96-31.48,97.09-36.34,143.87-12.76c18.92,9.47,35.06,22.97,47.92,40.17C1363.51,727.92,1351.49,814.21,1290.7,859.64
			L1290.7,859.64z M1701.39,498.8c-0.83,48.17-23.31,92.27-61.69,120.99c-49.23,36.94-115.6,41.01-169.16,10.34
			c-18.19-10.26-33.91-24.13-46.77-41.28c-20.72-27.69-31.22-60.62-30.67-95.11c0.81-48.04,23.24-92.17,61.56-120.94
			c32.99-24.71,73.64-35.11,114.45-29.24c77.12,11.08,133.54,77.36,132.27,155.1L1701.39,498.8z"/>
	</g>
	<g>
		<path class="st3" d="M877.9,2005.28c187.64,0,339.74,17.08,339.74,38.14c0,21.06-152.11,38.14-339.74,38.14
			c-187.63,0-339.73-17.08-339.73-38.14C538.17,2022.36,690.26,2005.28,877.9,2005.28z"/>
	</g>
	<g>
		<path class="st4" d="M1482.92,2148.38c227.1,0,411.2,17.08,411.2,38.14c0,21.06-184.1,38.14-411.2,38.14
			c-227.1,0-411.2-17.08-411.2-38.14C1071.72,2165.46,1255.82,2148.38,1482.92,2148.38z"/>
	</g>
	<g>
		<g>
			<path class="st5" d="M1592.4,1892.03h128.78l-74.1-361.18h182.82l74.11,361.18h128.37c18.09,0,38.3,14.69,45.12,32.78h-505.55
				C1565.15,1906.71,1574.3,1892.03,1592.4,1892.03z"/>
		</g>
		<g>
			<path class="st6" d="M1197.15,1754.13l11.63-84.08l72.63-524.71c3.46-24.94,26.46-45.15,51.39-45.15h813.95h203.44h11.02
				c19.63,4.96,32.22,23.32,29.2,45.15l-84.27,608.79c-2.53,18.2-16.75,33.01-31.72,33.01H1218.39l0.18-1.33
				C1204.34,1785.81,1194.72,1771.63,1197.15,1754.13z"/>
		</g>
		<g>
			<polygon class="st6" points="1698.08,1913.87 1880.93,1913.87 1802.33,1530.85 1619.5,1530.85 			"/>
		</g>
		<g>
			<path class="st7" d="M1176.27,1670.05l72.66-524.71c3.44-24.94,26.45-45.15,51.39-45.15h1017.37c24.92,0,42.33,20.21,38.89,45.15
				l-72.63,524.71H1176.27z"/>
		</g>
		<g>
			<path class="st4" d="M2283.96,1670.05l-11.66,84.08c-2.43,17.5-15.94,31.68-30.18,31.68H1186.1c-14.27,0-23.87-14.19-21.46-31.68
				l11.63-84.08H2283.96z"/>
		</g>
		<g>
			<path class="st2" d="M1205.37,1647.27l69.28-500.54c1.83-13.11,14.33-23.75,27.91-23.75h1006.58c13.6,0,23.15,10.63,21.32,23.75
				l-69.28,500.54H1205.37z"/>
		</g>
	</g>
	<g>
		<g>
			<path class="st6" d="M1775.36,1202.87l201.88,349.65c6.39,11.13,2.55,25.34-8.58,31.74c-3.66,2.1-7.65,3.1-11.58,3.1v0.09
				h-405.15c-12.89,0-23.34-10.45-23.34-23.35c0-4.83,1.47-9.33,3.99-13.06l201.78-349.48c6.45-11.14,20.7-14.93,31.83-8.49
				C1770.3,1195.46,1773.41,1198.9,1775.36,1202.87z"/>
		</g>
		<g>
			<polygon class="st2" points="1754.49,1238.32 1573.58,1551.64 1921.28,1551.64 1921.28,1551.49 1935.31,1551.51 			"/>
		</g>
		<g>
			<path class="st6" d="M1738.07,1337.01h32.76c3.5,0,6.55,2.89,6.35,6.36l-6.76,122.73c-0.19,3.49-2.87,6.35-6.35,6.35h-19.23
				c-3.49,0-6.16-2.86-6.35-6.35l-6.76-122.73C1731.52,1339.88,1734.58,1337.01,1738.07,1337.01L1738.07,1337.01z M1754.45,1485.41
				c10.49,0,19,8.5,19,19c0,10.48-8.51,18.99-19,18.99c-10.49,0-19-8.5-19-18.99C1735.45,1493.91,1743.96,1485.41,1754.45,1485.41z"
				/>
		</g>
	</g>
	<g>
		<path class="st8" d="M1234.64,1184.55c-15.48-3.03-25.59-18.05-22.56-33.53c3.02-15.48,18.04-25.58,33.52-22.56l1120.67,220.68
			c15.48,3.02,25.59,18.04,22.56,33.52c-3.02,15.48-18.04,25.58-33.52,22.56L1234.64,1184.55z"/>
	</g>
	<g>
		<path class="st9" d="M1260.47,1131.39l52.34,10.31l10.95,60.41l-52.33-10.31L1260.47,1131.39L1260.47,1131.39z M1407,1160.25
			l52.33,10.29l10.95,60.4l-52.32-10.3L1407,1160.25L1407,1160.25z M1553.5,1189.09l52.32,10.31l10.97,60.39l-52.33-10.3
			L1553.5,1189.09L1553.5,1189.09z M1700.02,1217.94l52.33,10.3l10.95,60.41l-52.32-10.3L1700.02,1217.94L1700.02,1217.94z
			 M1846.54,1246.79l52.33,10.31l10.96,60.39l-52.34-10.3L1846.54,1246.79L1846.54,1246.79z M1993.05,1275.64l52.32,10.3
			l10.95,60.42l-52.33-10.31L1993.05,1275.64L1993.05,1275.64z M2139.57,1304.49l52.33,10.31l10.95,60.39l-52.32-10.31
			L2139.57,1304.49L2139.57,1304.49z M2286.08,1333.34l52.32,10.3l10.97,60.41l-52.33-10.31L2286.08,1333.34z"/>
	</g>
	<g>
		<path class="st8" d="M1172.57,1741.34c-15.55,2.77-30.42-7.58-33.19-23.13c-2.77-15.55,7.59-30.41,23.14-33.18l1177.19-210.56
			c15.55-2.77,30.41,7.59,33.18,23.14c2.76,15.54-7.59,30.41-23.14,33.18L1172.57,1741.34z"/>
	</g>
	<g>
		<path class="st9" d="M1233.44,1672.34l52.16-9.32l-10.89,60.06l-52.15,9.33L1233.44,1672.34L1233.44,1672.34z M1379.47,1646.23
			l52.14-9.34l-10.89,60.07l-52.16,9.33L1379.47,1646.23L1379.47,1646.23z M1525.49,1620.1l52.14-9.32l-10.89,60.06l-52.14,9.32
			L1525.49,1620.1L1525.49,1620.1z M1671.51,1593.99l52.16-9.32l-10.9,60.06l-52.14,9.32L1671.51,1593.99L1671.51,1593.99z
			 M1817.52,1567.87l52.15-9.33l-10.89,60.07l-52.16,9.33L1817.52,1567.87L1817.52,1567.87z M1963.54,1541.75l52.16-9.33
			l-10.89,60.07l-52.15,9.32L1963.54,1541.75L1963.54,1541.75z M2109.56,1515.63l52.15-9.32l-10.89,60.06l-52.16,9.32
			L2109.56,1515.63L2109.56,1515.63z M2255.58,1489.52l52.14-9.33l-10.89,60.06l-52.15,9.34L2255.58,1489.52z"/>
	</g>
	<g>
		<g>
			<polygon class="st5" points="1358.56,1877.58 1358.56,1862.67 985.28,1862.67 985.28,1877.58 1171.92,1964.68 			"/>
		</g>
		<g>
			<polygon class="st7" points="1358.56,1862.67 1171.92,1780.9 985.28,1862.67 1171.92,1949.76 1171.92,1949.76 1171.92,1949.76 
							"/>
		</g>
		<g>
			<path class="st2" d="M1203.83,1593.15c-10.58,1.38-21.25,2.06-31.91,2.06c-10.66,0-21.32-0.68-31.92-2.06
				c-33.97,93.65-67.23,180.23-97.49,259.74c39.71,24.33,84.56,36.5,129.42,36.5c44.85,0,89.7-12.17,129.4-36.5
				C1271.07,1773.38,1237.8,1686.8,1203.83,1593.15z"/>
		</g>
		<g>
			<path class="st4" d="M1042.5,1852.89c39.71,24.33,84.56,36.5,129.42,36.5c44.85,0,89.7-12.17,129.4-36.5
				c-6.12-16.07-12.36-32.44-18.7-49.09c-69.65,34.81-151.76,34.81-221.4,0C1054.88,1820.45,1048.62,1836.81,1042.5,1852.89z"/>
		</g>
		<g>
			<path class="st4" d="M1080.01,1754.36c58.96,23.57,124.85,23.57,183.81,0c-6.53-17.21-13.15-34.72-19.83-52.51
				c-46.96,14.28-97.2,14.28-144.17,0C1093.16,1719.64,1086.54,1737.15,1080.01,1754.36z"/>
		</g>
		<g>
			<path class="st4" d="M1203.83,1593.15c-10.58,1.38-21.25,2.06-31.91,2.06c-10.66,0-21.32-0.68-31.92-2.06
				c-6.86,18.94-13.7,37.58-20.5,55.94c34.53,7.48,70.31,7.48,104.83,0C1217.55,1630.73,1210.7,1612.09,1203.83,1593.15z"/>
		</g>
		<g>
			<path class="st5" d="M1203.83,1593.15c0,4.08-14.29,7.39-31.91,7.39c-17.62,0-31.92-3.31-31.92-7.39c0-4.07,14.3-7.37,31.92-7.37
				C1189.54,1585.78,1203.83,1589.08,1203.83,1593.15z"/>
		</g>
	</g>
	<g>
		<g>
			<path class="st7" d="M1130.25,1189.85H978.06V899.18h211.71v70.92C1189.78,1127.57,1130.25,1189.85,1130.25,1189.85z"/>
		</g>
		<g>
			<path class="st4" d="M1189.78,970.1v-50.68h-169.18c-3.04,0-5.49,2.45-5.49,5.48v127.63c0,3.02,2.45,5.48,5.48,5.48h24.29
				c2.06,0,3.94,1.15,4.89,2.98l32.18,62.59c0.94,1.81,2.81,2.96,4.87,2.96h78.12C1178.01,1091.27,1189.78,1040.13,1189.78,970.1z"
				/>
		</g>
		<g>
			<path class="st6" d="M840.23,441.27h126.97l-64.7-71.61L840.23,441.27L840.23,441.27z M967.54,586.94V451.75H844.22
				L967.54,586.94L967.54,586.94z M837.6,595.2V460.04L960.92,595.2H837.6L837.6,595.2z M837.6,740.82l123.32-135.14H837.6V740.82
				L837.6,740.82z M844.22,749.11l123.32-135.17v135.17H844.22L844.22,749.11z M1905.7,883.34v-123.3h-135.2L1905.7,883.34
				L1905.7,883.34z M1290.01,883.34v-123.3h-135.18L1290.01,883.34L1290.01,883.34z M674.34,883.34v-123.3H539.17L674.34,883.34
				L674.34,883.34z M684.82,883.34l135.18-123.3H684.82V883.34L684.82,883.34z M992.66,883.34l135.18-123.3H992.66V883.34
				L992.66,883.34z M1300.49,883.34l135.19-123.3h-135.19V883.34L1300.49,883.34z M1608.33,883.34l135.19-123.3h-135.19V883.34
				L1608.33,883.34z M1916.17,883.34l135.18-123.3h-135.18V883.34L1916.17,883.34z M982.17,883.34v-123.3H847.01L982.17,883.34
				L982.17,883.34z M1597.84,883.34v-123.3h-135.15L1597.84,883.34L1597.84,883.34z M838.75,889.31V766.65L973.2,889.31H838.75
				L838.75,889.31z M409.74,889.97h110.68V768.82L409.74,889.97L409.74,889.97z M530.89,889.97V766.65l135.18,123.32H530.89
				L530.89,889.97z M693.1,889.97l135.16-123.32v117.48l-1.15,5.17v0.66H693.1L693.1,889.97z M1000.92,889.97l135.18-123.32v123.32
				H1000.92L1000.92,889.97z M1146.58,889.97V766.65l135.19,123.32H1146.58L1146.58,889.97z M1308.75,889.97l135.18-123.32v123.32
				H1308.75L1308.75,889.97z M1454.42,889.97V766.65l135.15,123.32H1454.42L1454.42,889.97z M1616.58,889.97l135.19-123.32v123.32
				H1616.58L1616.58,889.97z M1762.24,889.97V766.65l135.19,123.32H1762.24L1762.24,889.97z M1924.42,889.97l135.19-123.32v123.32
				H1924.42L1924.42,889.97z M2070.08,889.97h135.18l-135.18-123.32V889.97L2070.08,889.97z M837.6,1034.96l122.72-134.52H837.6
				V1034.96L837.6,1034.96z M844.22,1043.24l123.32-135.19v135.19H844.22L844.22,1043.24z M967.54,1188.89v-135.16H844.22
				L967.54,1188.89L967.54,1188.89z M837.6,1197.14v-135.15l123.32,135.15H837.6L837.6,1197.14z M837.6,1342.8l123.32-135.15H837.6
				V1342.8L837.6,1342.8z M844.22,1351.07l123.32-135.19v135.19H844.22L844.22,1351.07z M967.54,1496.72v-135.17H844.22
				L967.54,1496.72L967.54,1496.72z M837.6,1504.98v-135.15l123.32,135.15H837.6L837.6,1504.98z M837.6,1650.65l123.32-135.19H837.6
				V1650.65L837.6,1650.65z M844.22,1658.91l123.32-135.16v135.16H844.22L844.22,1658.91z M967.54,1804.58v-135.19H844.22
				L967.54,1804.58L967.54,1804.58z M837.6,1812.81v-135.15l123.32,135.15H837.6L837.6,1812.81z M837.6,1958.48l123.32-135.19H837.6
				V1958.48L837.6,1958.48z M844.22,1966.74l123.32-135.17v135.17H844.22L844.22,1966.74z M827.11,1977.22V900.43H386l137.85-150.88
				h303.26V441.63l75.52-89.12l75.4,86.58v310.47H2067.4l165.91,150.88H978.02v1076.79H827.11z"/>
		</g>
		<g>
			<polygon class="st5" points="2092.83,1536.65 2069.16,899.31 2076.04,899.04 2099.71,1536.39 			"/>
		</g>
		<g>
			<polygon class="st5" points="2147.65,1536.65 2140.75,1536.39 2164.44,899.04 2171.31,899.31 			"/>
		</g>
		<g>
			<polygon class="st5" points="2066.3,752.82 903.59,356.46 526.33,751.92 521.36,747.16 901.65,348.53 903.73,349.24 
				2068.51,746.28 			"/>
		</g>
		<g>
			<rect x="2043.56" y="889.97" class="st7" width="150.62" height="40.79"/>
		</g>
		<g>
			<rect x="706.09" y="1977.22" class="st4" width="377.83" height="72.52"/>
		</g>
		<g>
			<path class="st5" d="M2110.45,1625.67c0,0-14.12,17.02-15.88,34.59c-1.34,13.27,5.07,27.86,19.56,32.52
				c12.54,4.02,29.46,0.53,34.63-9.45c5.82-11.3,2.09-22.47,1.37-26.66c-0.72-4.09-0.47-6.72-0.47-9.66c0-2.95-4.96-3.66-5.27,0.6
				c-0.24,3.6-1.01,16.23-4.48,21.87c-4.02,6.52-17.73,5.99-20.34-1.36c-3.28-9.27,6.82-25.14,6.82-25.14L2110.45,1625.67z"/>
		</g>
		<g>
			<polygon class="st7" points="2147.09,1523.98 2120.79,1523.98 2094.47,1523.98 2078,1542.43 2078,1582.28 2113.66,1642.98 
				2120.79,1642.98 2127.91,1642.98 2163.59,1582.28 2163.59,1542.43 			"/>
		</g>
	</g>
	<g>
		<g>
			<path class="st10" d="M662.5,1619.69L662.5,1619.69c18.06,0,32.83,14.77,32.83,32.83v397.34h-65.65v-397.34
				C629.67,1634.46,644.45,1619.69,662.5,1619.69z"/>
		</g>
		<g>
			<path class="st10" d="M1010.04,1619.69L1010.04,1619.69c18.05,0,32.83,14.77,32.83,32.83v397.34h-65.65v-397.34
				C977.22,1634.46,991.98,1619.69,1010.04,1619.69z"/>
		</g>
		<g>
			<path class="st9" d="M550.49,1655.91h562.62v63.39H550.49V1655.91L550.49,1655.91z M550.49,1781.57h562.62v63.39H550.49V1781.57z
				"/>
		</g>
		<g>
			<path class="st8" d="M591.61,1655.91h50.94l-28.37,63.39h-50.94L591.61,1655.91L591.61,1655.91z M700.29,1655.91h50.94
				l-28.37,63.39h-50.94L700.29,1655.91L700.29,1655.91z M808.97,1655.91h50.94l-28.37,63.39H780.6L808.97,1655.91L808.97,1655.91z
				 M917.64,1655.91h50.94l-28.37,63.39h-50.94L917.64,1655.91L917.64,1655.91z M1026.32,1655.91h50.94l-28.37,63.39h-50.95
				L1026.32,1655.91L1026.32,1655.91z M1113.11,1704.81v14.49h-6.48L1113.11,1704.81L1113.11,1704.81z M586.31,1781.57l-28.37,63.39
				h-7.45v-63.39H586.31L586.31,1781.57z M1113.11,1818.63l-11.79,26.33h-50.94l28.37-63.39h34.36V1818.63L1113.11,1818.63z
				 M1021.02,1781.57l-28.37,63.39h-50.94l28.37-63.39H1021.02L1021.02,1781.57z M912.35,1781.57l-28.38,63.39h-50.94l28.37-63.39
				H912.35L912.35,1781.57z M803.67,1781.57l-28.37,63.39h-50.94l28.37-63.39H803.67L803.67,1781.57z M694.99,1781.57l-28.38,63.39
				h-50.94l28.37-63.39H694.99z"/>
		</g>
	</g>
	<g>
		<g>
			<path class="st11" d="M1510.76,858.66c-8.71,0.62-17.09-9.7-19.52-12.78c-9.25-11.75-15.15-25.55-17.53-33.28
				c1.81-5.15,3.69-11.63,5.67-19.49c33.52-22.77,38.1-39.62,13.74-50.54c-4.91,2.75-10.99,11.23-18.28,25.43
				c-5.81-0.22-10.22-3.2-13.22-8.91c6.93-23.98,11.42-43.45,13.51-58.42c-16.51-24.56-55.15-28.05-106.32-21.43
				c-2.37,13.62-4.32,28.04-5.84,43.26c-9.04,8.33-7.87,39.23,0.46,74.84c-4.16,20.24,8.34,31.3,37.51,33.14
				c0.29,4.89-0.16,10.51-0.26,13.93c-0.08,3.11-0.18,9.18-3.43,10.13l-5.4,1.33C1392.39,928.27,1429.46,942.18,1510.76,858.66z"/>
		</g>
		<g>
			<path class="st12" d="M1368.82,679.25c51.16-6.63,89.79-3.12,106.32,21.43c-2.09,14.97-6.59,34.44-13.51,58.42
				c3,5.7,7.4,8.68,13.22,8.91c7.27-14.2,13.37-22.68,18.29-25.43c24.35,10.92,19.77,27.77-13.76,50.54
				c-1.96,7.85-3.86,14.34-5.66,19.49c30.16-6.76,55.4-33.74,58.95-45.4c35.18-69.36-4.05-98.63-25.05-109.32
				c-9.27-68.68-108.18,0.32-158.15-32.8C1329.6,652.52,1353.34,678.64,1368.82,679.25z"/>
		</g>
		<g>
			<path class="st13" d="M1434.56,823.44c-8.18,4.05-19.38,6.39-33.62,7.05c0.29,4.82,0.08,10.37-0.23,13.8
				C1415.02,841.54,1426.31,834.59,1434.56,823.44z"/>
		</g>
		<g>
			<path class="st14" d="M1571.76,2214.37c31.78-11.19,34.33-27.57,51.45-35.56c17.24-8.04,19.22-22.4,2.36-37.97
				c-12.45,9.95-27.9,22.18-36.08,15.69c-5.46-4.32-24-4.04-27.68,2.28c-16.13,37.52-38.59,25.63-43.02,42.7
				C1518.28,2224.24,1557.17,2219.51,1571.76,2214.37z"/>
		</g>
		<g>
			<path class="st14" d="M1296.43,2177.05c55.96-0.9,97.79-1.56,117.12-7.67c20.84-6.58,16.53-19.29,4.56-39.64
				c-52.75,24.26-38.68-4.99-63.36-1.27c-17.33,13.95-43.01,23.31-77.01,28.06C1263.36,2167.14,1269.2,2176.58,1296.43,2177.05z"/>
		</g>
		<g>
			<path class="st15" d="M1324.38,866.86c27.92-8.11,53.01-13.02,75.24-14.74c4.02,61.36,36.03,60.93,96.04-1.29
				c57.79,4.86,69.1,5.6,101.16,16c69.38,66.27,75.76,142.75,112.03,230.15c-40.15,1.8-58.17,6.63-85.47,16.37
				c-5.85-20.95-10.77-37.8-14.72-50.58c1.11,115.26,1.53,194.22,1.28,236.91c-160.74,20.36-256.35,18.23-286.84-6.4
				c-0.62-102.44-1.47-183.55-2.56-243.3c-15.88,18.72-30.61,33.23-44.18,43.54c-32.55-37.32-54.61-52.36-73.07-74.36
				C1244.15,952.04,1302.71,889.6,1324.38,866.86z"/>
		</g>
		<g>
			<path class="st11" d="M1056.77,979.12c69.76,28.98,118.59,52.93,146.52,71.85l12.41-18.36c11.53,11.56,24.71,22.88,40.77,39.34
				c-14.86,15.54-30.8,28.33-49.37,39.13c-48.47-5.17-102.04-41.88-160.73-110.11c-18.24-3.64-31.67-10.25-40.28-19.83
				c-0.46-8.8,3.96-17.61,13.29-26.45c-24.33-15.86-34.01-27.21-29.05-34.04C1028.44,944.22,1050.59,963.71,1056.77,979.12z"/>
		</g>
		<g>
			<path class="st12" d="M1321.48,1111.22c0.76,62.58,1.3,123.27,1.62,182.06c-8.72,6.87-20.39,65.18-10.04,99.01
				c-17.65,108.98-2.53,250.82,6.98,433.22c17.01,64.28,42.12,149.93,40.48,270.48c29.63,9.06,40.36,9.99,67.09,3.19
				c18.69-125.81,5.95-226.56-10.94-273.1c10.81-71.92,26.95-152.43,50.47-268.55c26.48,126.54,61.91,220.45,77.25,281.72
				c3.03,68.32,16.86,160.52,24.08,276.6c22,6.63,35.69,8.53,58.51,5.75c29.61-106.7,24.64-222.81,12.09-348.32
				c-13.35-150.87,8.66-321.25-13.38-380.32c-7.04-39.24-2.68-76.1-15.74-93.31c-27.82,6.48-53.26,0.97-76.29-16.53
				c-2.13-148.75-7.25-247.35-15.37-295.8c-8.22-69.98,12.75-111.73,62.89-125.26c-10.32-10.52-23.41-12.89-39.25-7.1
				c-38.92,25.59-57.47,71.09-55.65,136.52c-66.36,9.32-110.98,6.33-133.81-8.97c-2.47-61.79,9.82-104.93,36.85-129.43
				c-10.2-7.31-23.41-4.95-39.6,7.09c-20.72,28.49-29.83,72.69-27.35,132.59C1317.13,1014.45,1316.83,1053.92,1321.48,1111.22z"/>
		</g>
		<g>
			<path class="st5" d="M1589.51,1182.59c7.12,1.06,13.84,2,20.17,2.85c0.33,50.84,0.41,88.92,0.27,114.23
				c-7.13,0.91-14.12,1.76-21,2.58C1589.49,1259.74,1589.68,1219.87,1589.51,1182.59L1589.51,1182.59z M1264.86,1080.75
				c19.55-16.29,38.16-42.73,55.83-79.32c-1.98,12.74-2.77,29.81-2.38,51.17c-15.03,17.45-29.01,31.08-41.95,40.91
				C1272.37,1088.95,1268.55,1084.7,1264.86,1080.75L1264.86,1080.75z M1583.99,981.62c8.61,27.72,16.84,54.76,24.68,81.15
				c0.23,22.27,0.41,43.19,0.57,62.76c-5.69-0.54-12.36-0.9-20.26-1.09C1588.15,1070.33,1586.5,1022.73,1583.99,981.62z"/>
		</g>
		<g>
			<path class="st8" d="M1408.71,1021.48h-146.18c-6.7,0-11.31,5.49-10.25,12.19l32.8,207.09c1.07,6.7,7.41,12.19,14.11,12.19
				h146.19c6.7,0,11.31-5.49,10.25-12.19l-32.81-207.09C1421.76,1026.97,1415.41,1021.48,1408.71,1021.48z"/>
		</g>
		<g>
			<path class="st11" d="M1695.38,1097.76c6.32,25.64,8.95,49.09,3.77,80.2c-15.78,22.91-79.44,10.1-243.37-17.29
				c-5.88,5.36-18.04,10.7-36.5,8.32c-17.14-4.28-17.96-8.76-37.2-26.89c-4.66-14.11-3.7-24.89,2.89-32.34
				c21.65,12.75,33.04,19.53,57.44,20.34c-6.5-16.71-7.48-27.49-2.94-32.35c8.33,6.67,13.75,16.69,16.25,30.08
				c129.25-5.61,163.32-4.86,180.53,4.16c-1.87-8.12-3.51-15.24-4.96-21.4C1651.42,1103.73,1667.79,1099.74,1695.38,1097.76z"/>
		</g>
		<g>
			<path class="st11" d="M1414.38,2102.13c-1.32,10.97-1.51,20.82-0.57,29.52c-44.13,19.18-36.63-2.96-54.26-3.51
				c4.43-7.79,7.3-17.75,8.62-29.88C1387.41,2103.77,1398.35,2105.02,1414.38,2102.13L1414.38,2102.13z M1620,2122.34
				c-0.01,7.98,0.77,15.01,2.34,21.07c-11.79,9.33-25.36,19.06-32.85,13.14c-3.6-2.85-12.83-3.7-19.77-2.16
				c2.86-9.63,5.12-21.71,6.77-36.22C1591.95,2122.33,1603.84,2123.72,1620,2122.34z"/>
		</g>
		<g>
			<path class="st5" d="M1515.8,587.37c-58.57-38.38-112.43-23.35-141.05,29.18l-0.87,1.6c-30.51-13.24-55.89-17.54-63-12.66
				l125.04,67.93l121.97,66.43l9.89-18.15C1592.27,676.72,1565.14,619.7,1515.8,587.37z"/>
		</g>
		<g>
			<path class="st15" d="M1374.75,616.55c28.62-52.53,82.48-67.56,141.05-29.18c49.34,32.33,76.47,89.36,51.98,134.32l-4.26,7.82
				l-189.63-111.36L1374.75,616.55z"/>
		</g>
		<g>
			<path class="st5" d="M1529.43,615.36c-53.38-34.98-102.85-25.6-132.86,16.1l-22.68-13.32l0.87-1.6
				c28.62-52.53,82.48-67.56,141.05-29.18c27.36,17.93,47.89,43.46,56.58,70.31C1561.78,641.54,1547.01,626.89,1529.43,615.36z"/>
		</g>
		<g>
			<path class="st16" d="M1415.94,788.96c-16.3,0.08-25.34-0.5-41.18-1.86c-6.34-0.55,6.7,17.13,42.07,2.78
				C1417.67,789.55,1417.2,788.94,1415.94,788.96z"/>
		</g>
		<g>
			<path class="st12" d="M1426.46,701.75c-7.91,0.58-7.47,6.89-1.61,8.38C1487.22,725.78,1446.07,700.26,1426.46,701.75z"/>
		</g>
		<g>
			<path class="st12" d="M1392.13,696.4c7.4,2.86,5.15,8.77-0.89,8.5C1327,701.76,1373.79,689.29,1392.13,696.4z"/>
		</g>
		<g>
			<path class="st16" d="M1385.61,772.37l-0.41-0.04c-6.9-1.52-10.56-2.46-11.86-5.07c-1.21-2.39-0.01-5.07,2.17-9.95
				c2.41-5.37,6.08-13.57,9.24-27.07c0.22-0.98,1.22-1.56,2.2-1.36c0.98,0.22,1.59,1.2,1.36,2.21c-3.23,13.81-6.98,22.19-9.45,27.73
				c-1.44,3.21-2.66,5.98-2.24,6.79c0.58,1.17,5.46,2.26,9.39,3.12c0.99,0.24,1.61,1.21,1.39,2.22
				C1387.21,771.78,1386.45,772.37,1385.61,772.37z"/>
		</g>
		<g>
			<path class="st12" d="M1372.34,735.55c-4.51-0.47-6.21-18.02,4.72-16.84C1382.9,719.33,1379.72,736.33,1372.34,735.55z"/>
		</g>
		<g>
			<path class="st12" d="M1428.66,742.62c-4.51-0.5-6.21-18.02,4.71-16.84C1439.21,726.4,1436.03,743.41,1428.66,742.62z"/>
		</g>
	</g>
	<g>
		<g>
			<polygon class="st7" points="1732.91,397.37 1974.2,496.29 1907.95,580.91 			"/>
		</g>
		<g>
			<polygon class="st7" points="2008.24,456.41 1740.28,397.91 2073.85,422.28 			"/>
		</g>
		<g>
			<polygon class="st6" points="2008.24,456.41 2001.98,567.5 1974.2,496.29 1732.91,397.37 1740.28,397.91 			"/>
		</g>
		<g>
			<polygon class="st15" points="2001.98,567.5 1944.85,533.78 1974.2,496.29 			"/>
		</g>
		<g>
			<path class="st15" d="M2064.01,559.27c-7.85-0.98-6.08-12.42,1.21-11.51l11.55,1.26c7.74,0.97,6.1,12.42-1.3,11.49
				L2064.01,559.27L2064.01,559.27z M2459.63,1019.3c5.14,0,7.68,6.29,4.19,9.78c-0.86,1.02-2.59,1.8-4.19,1.8l-7.48-0.03
				c-7.5,0-7.66-11.58,0.11-11.58L2459.63,1019.3L2459.63,1019.3z M2417.83,1018.25c6.82,0,7.79,11.55-0.64,11.55l-11.66-0.72
				c-8.29-1.04-6.01-12.4,0.86-11.55L2417.83,1018.25L2417.83,1018.25z M2372.31,1013.93c7.18,0.9,6.19,12.43-1.74,11.44
				L2372.31,1013.93L2372.31,1013.93z M2328.09,1004.18c6.91,2.6,4.15,12.94-3.61,11.01c-3.8-1.23-7.54-2.55-11.26-4
				c-7.06-3.03-2.86-13.43,4.3-10.75C2320.99,1001.81,2324.55,1003.04,2328.09,1004.18L2328.09,1004.18z M2288.83,984.42
				c6.03,5.02-1.58,13.74-7.26,8.99c-3.27-2.68-6.29-5.45-9.13-8.59c-5.14-6.17,4.06-13.21,8.68-7.66
				C2283.51,979.81,2286.09,982.15,2288.83,984.42L2288.83,984.42z M2267.18,949.33c1.03,8.25-10.54,8.88-11.4,1.98
				c-0.76-4.14-1.21-8.14-1.36-12.34c0-7.97,11.57-7.56,11.57-0.27C2266.11,942.3,2266.54,945.78,2267.18,949.33L2267.18,949.33z
				 M2270.29,906.06c-1.77,7.05-13.1,4.67-11.16-3.06c1.02-3.78,2.13-7.71,3.43-11.41c2.83-7.57,13.48-2.99,10.96,3.71
				C2272.32,898.83,2271.26,902.46,2270.29,906.06L2270.29,906.06z M2286.25,863.67c-2.86,6.67-13.67,2.53-10.52-4.83
				c1.62-3.53,3.3-7.1,5.02-10.58c4.24-7.43,13.73-0.76,10.4,5.09C2289.46,856.75,2287.84,860.22,2286.25,863.67L2286.25,863.67z
				 M2306.89,822.61c-4.01,7.02-13.77,0.81-10.22-5.41l5.44-10.23c4-7.01,13.79-0.82,10.22,5.43
				C2310.47,815.72,2308.66,819.24,2306.89,822.61L2306.89,822.61z M2328.46,781.49c-4.18,7.32-13.74,0.75-10.35-5.17l5.06-10.3
				c3.95-6.91,13.38-1.87,10.44,4.99L2328.46,781.49L2328.46,781.49z M2347.25,738.29c-2.6,6.93-12.94,4.16-11.01-3.6
				c1.17-3.58,2.23-7.07,3.17-10.72c1.85-7.36,13.08-4.6,11.22,2.83C2349.63,730.71,2348.5,734.47,2347.25,738.29L2347.25,738.29z
				 M2353.05,690.25c0.94,7.57-10.53,8.99-11.48,1.43c-0.42-3.57-1.08-7.16-1.96-10.66c-1.88-7.49,9.38-10.17,11.21-2.87
				C2351.8,682.14,2352.57,686.16,2353.05,690.25L2353.05,690.25z M2335.25,644.93c4.52,6.32-5,12.91-9.35,6.82
				c-2.15-2.99-4.41-5.81-6.85-8.56c-5.26-6.3,4.07-13.17,8.58-7.76C2330.34,638.38,2332.91,641.68,2335.25,644.93L2335.25,644.93z
				 M2300.3,611.94c5.98,4.26,0.54,13.59-6.47,9.6c-3.11-2.11-6.26-4.1-9.49-6.02c-6.41-3.66-0.92-13.86,5.91-9.95
				C2293.68,607.59,2297.01,609.7,2300.3,611.94L2300.3,611.94z M2258.48,589.74c7.12,3.05,2.43,13.64-4.46,10.67
				c-3.5-1.48-7.03-2.87-10.57-4.22c-7.08-2.65-3.1-13.52,4.11-10.81C2251.22,586.77,2254.88,588.2,2258.48,589.74L2258.48,589.74z
				 M2214.14,574.29c6.94,1.73,4.68,13.1-3.18,11.13l-11.03-3.04c-7.22-1.81-4.64-13.08,2.94-11.2L2214.14,574.29L2214.14,574.29z
				 M2168.75,563.21c7.99,2,4.49,13.02-2.31,11.33l-11.28-2.23c-7.36-1.85-5.62-12.35,2.17-11.37L2168.75,563.21L2168.75,563.21z
				 M2122.88,555.06c7.2,0.91,6.19,12.43-1.72,11.44l-11.39-1.66c-7.31-0.91-6.2-12.43,1.61-11.46L2122.88,555.06z"/>
		</g>
	</g>
</g>
</svg>
